P2
# CREATOR: GIMP PNM Filter Version 1.1
30 30
255
255
255
255
255
255
255
255
255
255
255
255
255
255
255
255
255
255
255
255
255
255
255
255
255
255
255
255
255
255
255
255
255
255
255
255
255
255
255
218
137
85
40
25
16
16
28
40
101
178
255
255
255
255
255
255
255
255
255
255
255
255
255
255
255
255
255
100
40
10
5
2
2
1
1
1
2
10
38
160
255
255
255
255
255
255
255
255
255
255
255
255
255
255
255
255
64
4
0
0
1
2
2
3
3
3
8
15
58
160
255
255
255
255
255
255
255
255
255
255
255
255
255
255
255
64
16
0
0
1
16
40
85
116
159
159
173
117
55
59
160
255
255
255
255
255
255
255
255
255
255
255
255
255
218
16
0
2
21
85
218
255
255
255
255
255
255
63
2
2
63
255
255
255
255
255
255
255
255
255
255
255
255
255
137
3
1
16
255
255
255
255
255
255
255
255
255
25
0
0
25
255
255
255
255
255
255
255
255
255
255
255
255
255
86
2
2
40
255
255
255
255
255
255
255
255
255
21
0
0
10
255
255
255
255
255
255
255
255
255
255
255
255
255
63
2
2
63
255
255
255
255
255
255
255
255
255
29
0
0
6
255
255
255
255
255
255
255
255
255
255
255
255
255
63
2
2
63
255
255
255
255
255
255
255
255
255
39
0
0
4
255
255
255
255
255
255
255
255
255
255
255
255
255
100
2
2
25
255
255
255
255
255
255
255
255
255
25
0
0
2
255
255
255
255
255
255
255
255
255
255
255
255
255
160
10
0
10
160
255
255
255
255
255
255
255
255
18
0
0
2
255
255
255
255
255
255
255
255
255
255
255
255
255
255
40
2
2
40
255
255
255
255
255
255
255
218
9
0
0
2
160
255
255
255
218
218
218
255
255
255
255
255
255
255
160
14
0
10
101
255
255
255
255
255
255
86
8
0
0
2
100
255
255
100
25
20
64
255
255
255
255
255
255
255
255
55
13
1
16
25
63
63
63
40
16
5
1
5
1
2
40
255
64
4
0
1
64
255
255
255
255
255
255
255
255
218
64
16
0
2
2
2
2
2
1
0
13
34
3
1
16
101
16
0
0
6
101
255
255
255
255
255
255
255
255
255
255
64
16
2
2
2
2
2
3
14
55
186
4
0
2
40
1
5
22
100
255
255
255
255
255
255
255
255
255
255
255
255
159
99
62
63
62
85
136
218
255
255
6
0
0
1
16
64
218
255
255
255
255
255
255
255
255
255
255
255
255
255
255
255
255
255
255
255
255
255
255
218
2
0
0
10
64
255
255
255
255
255
255
255
255
255
255
255
255
255
255
255
255
255
255
255
255
255
255
255
160
40
1
0
0
25
218
255
255
255
255
255
255
255
255
255
255
255
255
255
255
255
255
255
255
255
255
255
160
40
10
2
0
0
1
86
255
255
255
255
255
255
255
255
255
255
255
255
255
255
255
255
255
255
255
255
160
40
10
2
0
3
6
1
2
63
255
255
255
255
255
255
255
255
255
255
255
255
255
255
255
255
255
255
160
64
16
5
0
2
10
40
39
2
2
63
255
255
255
255
255
255
255
255
255
255
255
255
255
255
255
255
255
255
100
7
2
3
10
40
159
255
25
2
2
100
255
255
255
255
255
255
255
255
255
255
255
255
255
255
255
255
255
255
100
2
1
8
85
218
218
85
3
0
6
160
255
255
255
255
255
255
255
255
255
255
255
255
255
255
255
255
255
255
160
16
1
1
5
6
6
5
0
1
25
255
255
255
255
255
255
255
255
255
255
255
255
255
255
255
255
255
255
255
255
101
25
3
1
1
0
1
4
16
100
255
255
255
255
255
255
255
255
255
255
255
255
255
255
255
255
255
255
255
255
255
159
63
16
5
6
25
101
255
255
255
255
255
255
255
255
255
255
255
255
255
255
255
255
255
255
255
255
255
255
255
255
255
218
218
218
255
255
255
255
255
255
255
255
255
255
255
255
255
255
255
255
255
255
255
255
255
255
255
255
255
255
255
255
255
255
255
255
255
255
255
255
255
255
255
255
255
255
255
