P2
# CREATOR: GIMP PNM Filter Version 1.1
30 30
255
255
255
255
255
255
255
255
255
255
255
255
255
255
255
255
255
255
255
255
255
255
255
255
255
255
255
255
255
255
255
255
255
255
255
255
255
255
255
255
255
255
218
186
117
85
63
63
63
93
137
218
236
255
255
255
255
255
255
255
255
255
255
255
255
255
255
255
255
100
40
10
6
3
3
2
1
1
1
3
15
58
160
255
255
255
255
255
255
255
255
255
255
255
255
255
255
218
86
5
0
0
0
1
1
2
1
0
0
0
10
38
160
255
255
255
255
255
255
255
255
255
255
255
255
255
255
64
13
0
0
1
6
10
25
40
40
1
0
0
34
101
178
255
255
255
255
255
255
255
255
255
255
255
255
255
64
16
1
5
21
85
218
255
255
255
255
3
0
0
34
255
255
255
255
255
255
255
255
255
255
255
255
255
255
64
16
0
22
86
218
255
255
255
255
255
255
21
0
0
5
218
255
255
255
255
255
255
255
255
255
255
255
255
218
16
0
6
64
255
255
255
255
255
255
255
255
34
0
0
2
137
255
255
255
255
255
255
255
255
255
255
255
255
186
3
1
10
255
255
255
255
255
255
255
255
218
16
0
0
1
34
255
255
255
255
255
255
255
255
255
255
255
255
159
3
1
16
255
255
255
255
255
255
255
218
47
4
1
1
0
10
160
255
255
255
255
255
255
255
255
255
255
255
186
5
1
10
218
255
255
255
255
255
160
40
7
0
16
14
2
2
63
255
255
255
255
255
255
255
255
255
255
255
218
25
1
3
35
160
255
255
218
86
22
3
1
16
64
137
3
1
16
255
255
255
255
255
255
255
255
255
255
255
255
101
16
0
2
4
6
6
6
3
1
3
25
101
255
218
6
0
6
218
255
255
255
255
255
255
255
255
255
255
255
255
64
16
2
0
0
1
0
1
8
40
159
255
255
255
16
1
3
137
255
255
255
255
255
255
255
255
255
255
255
255
255
160
40
10
4
3
6
21
86
218
255
255
255
255
40
2
2
86
137
22
22
63
255
255
255
255
255
255
255
255
255
255
255
255
218
218
218
255
255
255
255
255
255
255
85
1
1
4
6
1
0
40
255
255
255
255
255
255
255
255
255
255
255
255
255
255
255
255
255
255
255
255
255
160
14
0
0
0
0
0
3
40
255
255
255
255
255
255
255
255
255
255
255
255
255
255
255
255
255
255
255
160
40
10
1
0
0
0
6
21
86
218
255
255
255
255
255
255
255
255
255
255
255
255
255
255
255
255
255
218
64
16
3
0
1
0
1
25
159
255
255
255
255
255
255
255
255
255
255
255
255
255
255
255
255
255
255
255
255
86
13
1
3
10
10
1
2
63
255
255
255
255
255
255
255
255
255
255
255
255
255
255
255
255
255
255
255
255
160
21
1
5
54
159
40
1
1
40
255
255
255
255
255
255
255
255
255
255
255
255
255
255
255
255
255
255
255
218
40
3
3
40
218
255
40
0
0
40
255
255
255
255
255
255
255
255
255
255
255
255
255
255
255
255
255
255
255
137
8
1
16
160
255
255
25
1
1
54
255
255
255
255
255
255
255
255
255
255
255
255
255
255
255
255
255
255
255
85
2
2
40
255
255
255
16
1
3
137
255
255
255
255
255
255
255
255
255
255
255
255
255
255
255
255
255
255
255
40
0
0
21
218
255
218
6
0
6
218
255
255
255
255
255
255
255
255
255
255
255
255
255
255
255
255
255
255
255
63
0
0
1
16
54
46
3
1
21
255
255
255
255
255
255
255
255
255
255
255
255
255
255
255
255
255
255
255
255
100
4
1
1
1
2
5
1
13
86
255
255
255
255
255
255
255
255
255
255
255
255
255
255
255
255
255
255
255
255
255
160
63
16
5
2
1
16
64
218
255
255
255
255
255
255
255
255
255
255
255
255
255
255
255
255
255
255
255
255
255
255
255
218
136
54
63
101
255
255
255
255
255
255
255
255
255
255
255
255
255
255
255
255
255
255
255
255
255
255
255
255
255
255
255
255
255
255
255
255
255
255
255
255
255
255
255
255
