P2
# CREATOR: GIMP PNM Filter Version 1.1
30 30
255
255
255
255
255
255
255
255
255
255
255
255
255
255
255
255
255
255
255
255
255
255
255
255
255
255
255
255
255
255
255
255
255
255
255
255
255
255
178
130
100
148
207
255
236
218
218
236
255
255
255
255
255
255
255
255
255
255
255
255
255
255
255
255
255
207
84
25
9
3
4
7
16
6
11
5
9
20
64
160
255
255
255
255
255
255
255
255
255
255
255
255
255
255
255
129
9
0
0
1
2
5
0
0
0
0
1
5
32
160
255
255
255
255
255
255
255
255
255
255
255
255
255
255
236
34
1
0
1
4
23
20
6
1
2
1
1
2
10
93
255
255
255
255
255
255
255
255
255
255
255
255
255
255
160
5
0
0
17
115
218
218
146
117
111
111
30
0
0
4
202
255
255
255
255
255
255
255
255
255
255
255
255
255
64
0
0
3
132
236
255
255
255
255
255
255
54
0
0
1
85
255
255
255
255
255
255
255
255
255
255
255
255
255
24
0
0
11
255
255
255
255
255
255
255
255
132
0
0
0
12
255
255
255
255
255
255
255
255
255
255
255
255
255
31
0
0
15
255
255
255
255
255
255
255
236
94
2
0
0
11
255
255
255
255
255
255
255
255
255
255
255
255
255
72
4
1
28
218
218
236
255
255
255
255
218
31
0
0
0
27
255
255
255
255
255
255
255
255
255
255
255
255
255
160
15
4
6
7
10
21
34
59
54
31
16
4
1
1
2
24
160
255
255
255
255
255
255
255
255
255
255
255
255
178
101
16
1
1
1
0
2
3
0
0
0
0
7
1
0
6
160
255
134
34
34
88
255
255
255
255
255
255
255
255
255
40
8
3
1
1
1
1
0
0
0
4
20
1
0
9
160
255
47
2
1
40
255
255
255
255
255
255
255
255
255
202
186
128
74
63
22
17
6
8
24
100
90
6
3
8
15
13
9
1
1
40
255
255
255
255
255
255
255
255
255
255
255
255
255
251
218
218
222
255
255
255
148
30
2
0
0
0
1
10
40
134
255
255
255
255
255
255
255
255
255
255
255
255
255
255
255
255
255
255
236
202
74
3
0
0
0
0
2
41
160
255
255
255
255
255
255
255
255
255
255
255
255
255
255
255
255
255
255
251
137
43
2
0
0
0
0
21
33
157
207
255
255
255
255
255
255
255
255
255
255
255
255
255
255
255
255
255
255
152
25
4
1
0
0
0
2
160
255
255
255
255
255
255
255
255
255
255
255
255
255
255
255
255
255
255
255
202
137
46
4
2
8
19
1
0
2
160
255
255
255
255
255
255
255
255
255
255
255
255
255
255
255
255
255
255
218
14
3
2
6
23
115
218
3
0
4
207
255
255
255
255
255
255
255
255
255
255
255
255
255
255
255
255
255
255
86
3
0
2
63
160
236
152
4
1
11
207
255
255
255
255
255
255
255
255
255
255
255
255
255
255
255
255
255
236
46
1
2
18
178
255
255
54
1
0
8
160
255
255
255
255
255
255
255
255
255
255
255
255
255
255
255
255
255
160
4
0
1
9
55
137
251
25
1
0
19
160
255
255
255
255
255
255
255
255
255
255
255
255
255
255
255
255
255
160
6
0
0
2
4
9
35
1
1
3
93
207
255
255
255
255
255
255
255
255
255
255
255
255
255
255
255
255
255
178
40
6
6
4
1
1
1
0
1
40
255
255
255
255
255
255
255
255
255
255
255
255
255
255
255
255
255
255
255
255
236
218
218
78
19
3
3
1
9
63
255
255
255
255
255
255
255
255
255
255
255
255
255
255
255
255
255
255
255
255
255
255
255
207
160
95
65
74
152
236
255
255
255
255
255
255
255
255
255
255
255
255
255
255
255
255
255
255
255
255
255
255
255
255
255
255
255
255
255
255
255
255
255
255
255
255
255
255
255
255
255
255
255
255
255
255
255
255
255
255
255
255
255
255
255
255
255
255
255
255
255
255
255
255
255
255
255
255
255
255
255
255
255
255
255
255
255
255
255
255
255
255
255
255
255
255
255
255
255
255
255
255
255
255
255
255
255
255
255
255
