P2
# CREATOR: GIMP PNM Filter Version 1.1
30 30
255
255
255
255
255
255
255
255
255
255
255
255
255
255
255
255
255
255
255
255
255
255
255
255
255
255
255
255
255
255
255
255
255
255
255
255
255
255
255
255
255
218
190
184
186
215
193
218
218
251
255
255
255
255
255
255
255
255
255
255
255
255
255
255
255
255
255
255
255
160
63
10
5
2
2
3
9
13
54
218
255
255
255
255
255
255
255
255
255
255
255
255
255
255
255
255
255
255
124
16
3
1
1
1
0
1
2
4
38
202
255
255
255
255
255
255
255
255
255
255
255
255
255
255
255
255
160
112
34
1
0
3
13
3
2
2
9
4
5
35
160
255
255
255
255
255
255
255
255
255
255
255
255
255
255
255
40
2
1
1
5
54
255
178
160
160
148
17
1
3
51
204
255
255
255
255
255
255
255
255
255
255
255
255
255
255
16
0
0
4
117
175
255
255
255
255
178
35
0
0
1
137
255
255
255
255
255
255
255
255
255
255
255
255
255
255
40
0
0
4
232
255
255
255
255
255
255
54
0
0
0
119
255
255
255
255
255
255
255
255
255
255
255
255
255
255
101
4
0
8
218
255
255
255
255
255
255
25
0
0
0
71
255
255
255
255
255
255
255
255
255
255
255
255
255
255
255
16
2
3
137
255
255
255
255
255
255
6
0
0
1
101
255
255
255
255
255
255
255
255
255
255
255
255
255
255
255
84
13
9
55
101
178
255
236
177
111
2
0
0
4
115
255
255
255
255
255
255
255
255
255
255
255
255
255
255
255
160
64
40
11
3
4
9
13
4
2
1
0
0
7
152
255
255
255
255
207
160
160
207
255
255
255
255
255
255
255
255
255
160
20
1
0
0
0
1
0
1
2
1
3
96
255
255
255
255
84
16
16
119
255
255
255
255
255
255
255
255
255
236
74
7
0
0
0
2
6
18
36
4
6
93
255
255
222
218
54
1
2
35
255
255
255
255
255
255
255
255
255
255
222
177
50
36
44
130
202
186
15
2
4
127
177
78
21
17
15
7
2
45
255
255
255
255
255
255
255
255
255
255
255
255
255
255
255
255
255
218
16
1
3
43
32
3
0
1
24
74
86
99
255
255
255
255
255
255
255
255
255
255
255
255
255
255
255
255
255
218
38
1
0
0
5
1
0
3
54
222
255
255
255
255
255
255
255
255
255
255
255
255
255
255
255
255
207
160
100
130
108
0
0
0
9
36
25
81
192
255
255
255
255
255
255
255
255
255
255
255
255
255
255
255
255
255
112
30
3
5
12
0
0
0
46
255
255
255
255
255
255
255
255
255
255
255
255
255
255
255
255
255
255
251
218
218
35
5
1
1
9
1
0
1
137
255
255
255
255
255
255
255
255
255
255
255
255
255
255
255
255
255
255
218
63
53
8
3
2
28
15
2
0
1
100
255
255
255
255
255
255
255
255
255
255
255
255
255
255
255
255
192
100
24
5
4
13
20
40
236
82
6
2
9
112
255
255
255
255
255
255
255
255
255
255
255
255
255
255
255
255
72
4
1
0
4
52
159
159
255
23
3
2
51
178
255
255
255
255
255
255
255
255
255
255
255
255
255
255
255
207
34
1
0
3
15
160
255
255
93
3
0
2
137
255
255
255
255
255
255
255
255
255
255
255
255
255
255
255
255
160
10
2
5
51
117
148
207
255
58
0
0
4
177
255
255
255
255
255
255
255
255
255
255
255
255
255
255
255
255
160
26
6
16
53
26
33
148
137
9
0
0
29
236
255
255
255
255
255
255
255
255
255
255
255
255
255
255
255
255
207
100
36
29
3
1
1
32
5
1
0
6
71
255
255
255
255
255
255
255
255
255
255
255
255
255
255
255
255
255
255
236
218
137
6
0
1
1
0
0
6
63
178
255
255
255
255
255
255
255
255
255
255
255
255
255
255
255
255
255
255
255
255
207
39
14
2
1
0
10
71
255
255
255
255
255
255
255
255
255
255
255
255
255
255
255
255
255
255
255
255
255
255
255
236
218
95
23
25
82
255
255
255
255
255
255
255
255
255
255
255
255
255
