P2
# CREATOR: GIMP PNM Filter Version 1.1
30 30
255
255
255
255
255
255
255
255
255
255
255
255
255
255
255
255
255
255
255
255
255
255
255
255
255
255
255
255
255
255
255
255
255
255
255
255
255
255
255
236
215
186
202
222
255
255
255
255
255
255
255
255
255
255
255
255
255
255
255
255
255
255
255
255
255
255
236
202
137
93
32
11
9
12
32
4
5
7
63
139
207
255
255
255
255
255
255
255
255
255
255
255
255
255
236
160
70
6
2
1
3
0
1
0
0
0
0
1
10
41
160
255
255
255
255
255
255
255
255
255
255
255
255
255
218
40
4
0
0
1
1
1
1
0
0
0
1
1
8
41
160
255
255
255
255
255
255
255
255
255
255
255
255
255
152
23
1
0
3
6
25
25
56
23
28
4
2
1
17
145
207
255
255
255
255
255
255
255
255
255
255
255
255
112
23
4
4
21
100
202
218
218
255
255
255
5
0
0
9
218
255
255
255
255
255
255
255
255
255
255
255
255
255
37
2
1
29
186
236
255
255
255
255
255
255
0
0
0
9
218
255
255
255
255
255
255
255
255
255
255
255
255
255
25
1
2
63
236
255
255
255
255
255
255
255
1
0
0
26
236
255
255
255
255
255
255
255
255
255
255
255
255
255
36
4
4
109
255
255
255
255
255
255
255
255
2
0
0
8
255
255
255
255
255
255
255
255
255
255
255
255
255
255
71
1
4
38
255
255
255
255
255
255
255
160
6
0
0
12
255
255
255
255
255
255
255
255
255
255
255
255
255
255
101
13
2
35
207
255
255
255
251
218
47
9
1
0
0
9
255
255
255
255
255
255
255
255
255
255
255
255
255
255
255
55
8
8
84
255
255
255
218
63
11
0
1
1
1
11
134
255
255
255
255
255
71
25
17
95
160
236
255
255
255
137
10
1
9
20
49
28
11
4
1
4
10
8
1
1
40
255
255
255
255
255
25
0
1
17
58
218
255
255
255
177
39
4
0
1
1
1
1
0
4
30
218
116
1
1
6
236
255
218
98
34
4
0
1
17
58
218
255
255
255
251
218
29
2
0
1
1
1
4
10
58
218
215
3
0
3
215
255
64
15
0
0
8
38
126
159
236
255
255
255
255
255
148
37
20
41
60
111
103
159
159
236
255
2
0
1
47
55
10
1
0
1
34
255
255
255
255
255
255
255
255
255
255
255
255
255
255
255
255
255
255
255
222
13
0
1
2
21
13
4
13
85
122
255
255
255
255
255
255
255
255
255
255
255
255
255
255
255
255
255
255
222
40
3
0
0
0
29
40
64
101
255
255
255
255
255
255
255
255
255
255
255
255
255
255
255
255
255
255
192
100
73
10
1
0
0
0
137
255
255
255
255
255
255
255
255
255
255
255
255
255
255
255
255
255
255
255
255
255
137
11
2
2
1
0
0
1
164
255
255
255
255
255
255
255
255
255
255
255
255
255
255
255
255
255
255
207
51
25
18
8
2
3
31
1
0
1
186
255
255
255
255
255
255
255
255
255
255
255
255
255
255
255
255
255
255
160
10
0
1
18
36
57
51
2
0
3
186
255
255
255
255
255
255
255
255
255
255
255
255
255
255
255
255
255
255
160
10
0
0
8
160
255
58
1
0
11
218
255
255
255
255
255
255
255
255
255
255
255
255
255
255
255
255
255
255
207
111
4
1
2
65
86
4
0
0
21
255
255
255
255
255
255
255
255
255
255
255
255
255
255
255
255
255
255
255
255
255
38
1
0
1
2
0
0
0
26
255
255
255
255
255
255
255
255
255
255
255
255
255
255
255
255
255
255
255
255
255
136
14
1
1
1
0
1
3
44
255
255
255
255
255
255
255
255
255
255
255
255
255
255
255
255
255
255
255
255
255
236
63
25
17
14
22
38
136
157
255
255
255
255
255
255
255
255
255
255
255
255
255
255
255
255
255
255
255
255
255
255
255
255
255
255
255
255
255
255
255
255
255
255
255
255
255
255
255
255
255
255
255
255
255
255
255
255
255
255
255
255
255
255
255
255
255
255
255
255
255
255
255
255
255
255
255
255
255
255
