P2
# CREATOR: GIMP PNM Filter Version 1.1
30 30
255
255
255
255
255
255
255
255
255
255
255
255
255
255
255
255
255
255
255
255
255
255
255
255
255
255
255
255
255
255
255
255
255
255
255
255
255
255
218
137
45
12
6
12
26
44
33
45
55
186
251
255
255
255
255
255
255
255
255
255
255
255
255
255
255
255
218
177
51
3
0
0
0
0
1
0
1
2
9
54
218
255
255
255
255
255
255
255
255
255
255
255
255
255
255
255
64
33
4
0
0
0
0
0
1
0
0
0
0
11
218
255
255
255
255
255
255
255
255
255
255
255
255
255
202
38
5
1
3
3
5
18
11
14
17
15
3
0
0
2
51
207
255
255
255
255
255
255
255
255
255
255
255
255
159
2
0
1
36
136
177
218
218
218
236
207
73
0
0
0
6
160
255
255
255
255
255
255
255
255
255
255
255
255
136
1
0
2
160
255
255
255
255
255
255
255
218
6
0
0
1
70
255
255
255
255
255
255
255
255
255
255
255
255
170
3
1
6
202
255
255
255
255
255
255
255
236
17
0
0
1
51
255
255
255
255
255
255
255
255
255
255
255
255
186
6
1
8
218
255
255
255
255
255
255
255
255
47
0
0
1
54
255
255
255
255
255
255
255
255
255
255
255
255
218
14
2
9
141
255
255
255
255
255
255
255
255
39
0
0
2
123
255
255
255
255
255
255
255
255
255
255
255
255
222
25
0
0
16
236
255
255
255
255
255
255
255
48
0
0
0
117
255
255
255
255
255
255
255
255
255
255
255
255
255
63
0
0
3
137
160
207
255
255
255
255
236
34
0
0
0
86
255
255
255
255
207
160
160
207
255
255
255
255
255
104
2
1
1
1
1
11
70
160
207
255
218
17
0
0
1
59
232
255
255
134
63
19
42
160
255
255
255
255
255
255
152
29
1
0
0
1
5
30
28
28
21
23
3
0
1
6
100
202
202
22
4
2
41
160
255
255
255
255
255
255
255
55
2
0
0
0
0
0
0
0
0
6
39
17
1
1
10
23
16
2
0
9
136
207
255
255
255
255
255
255
255
159
138
108
100
15
1
0
0
0
0
5
100
59
3
1
2
3
1
1
8
47
251
255
255
255
255
255
255
255
255
255
255
255
255
70
24
4
4
9
10
40
124
56
1
0
0
3
4
6
40
218
255
255
255
255
255
255
255
255
255
255
255
255
255
255
251
218
218
222
255
236
160
9
0
0
0
17
111
111
159
236
255
255
255
255
255
255
255
255
255
255
255
255
255
255
255
255
255
160
75
14
6
1
0
0
0
55
255
255
255
255
255
255
255
255
255
255
255
255
255
255
255
255
255
255
255
207
137
34
8
0
0
2
1
0
2
82
255
255
255
255
255
255
255
255
255
255
255
255
255
255
255
255
255
236
148
63
5
2
2
1
1
23
15
1
1
34
255
255
255
255
255
255
255
255
255
255
255
255
255
255
255
255
255
218
50
5
1
1
19
63
100
91
11
0
1
24
255
255
255
255
255
255
255
255
255
255
255
255
255
255
255
202
40
9
3
2
4
25
82
255
255
160
5
0
0
27
255
255
255
255
255
255
255
255
255
255
255
255
255
255
255
173
7
0
0
25
111
178
255
255
255
178
6
0
1
80
255
255
255
255
255
255
255
255
255
255
255
255
255
255
255
159
3
0
3
52
255
255
255
255
255
160
2
0
3
155
255
255
255
255
255
255
255
255
255
255
255
255
255
255
255
202
23
4
13
160
255
255
255
255
255
63
1
0
6
255
255
255
255
255
255
255
255
255
255
255
255
255
255
255
255
236
32
5
6
111
255
255
255
255
207
11
0
1
49
255
255
255
255
255
255
255
255
255
255
255
255
255
255
255
255
255
51
1
1
7
28
160
137
137
54
0
0
1
117
255
255
255
255
255
255
255
255
255
255
255
255
255
255
255
255
255
63
8
1
0
3
10
2
1
3
1
0
3
186
255
255
255
255
255
255
255
255
255
255
255
255
255
255
255
255
255
207
100
9
3
2
2
0
0
1
4
6
21
202
255
255
255
255
255
255
255
255
