P2
# CREATOR: GIMP PNM Filter Version 1.1
30 30
255
255
255
255
255
255
255
255
255
255
255
255
255
255
255
255
255
255
255
255
255
255
255
255
255
255
255
255
255
255
255
255
255
255
255
255
255
255
255
255
255
255
255
236
160
160
178
255
255
255
255
255
255
255
255
255
255
255
255
255
255
255
255
255
255
255
255
255
255
255
207
160
112
44
13
10
14
33
51
218
255
255
255
255
255
255
255
255
255
255
255
255
255
255
255
255
255
255
255
130
16
2
4
1
0
0
1
0
5
64
255
255
255
255
255
255
255
255
255
255
255
255
255
255
255
255
255
205
63
25
1
0
2
2
0
1
0
0
0
45
255
255
255
255
255
255
255
255
255
255
255
255
255
255
255
255
255
74
5
0
1
2
14
28
32
7
1
0
1
50
255
255
255
255
255
255
255
255
255
255
255
255
255
255
255
255
180
9
0
1
20
159
207
255
255
46
0
0
0
13
255
255
255
255
255
255
255
255
255
255
255
255
255
255
255
255
137
1
0
0
68
255
255
255
255
46
0
0
0
4
255
255
255
255
255
255
255
255
255
255
255
255
255
255
255
255
135
1
0
1
100
255
255
255
255
133
2
0
0
3
255
255
255
255
255
255
255
255
255
255
255
255
255
255
255
255
174
1
0
1
130
255
255
255
255
255
3
0
0
4
255
255
255
255
255
255
255
255
255
255
255
255
255
255
255
255
218
2
0
2
129
255
255
255
255
255
3
0
0
6
255
255
255
255
255
255
255
255
255
255
255
255
255
255
255
255
222
18
0
0
21
190
202
152
110
63
2
0
0
2
192
255
255
255
255
255
255
255
255
255
255
255
255
255
255
255
255
117
3
0
2
6
11
12
6
3
1
0
0
1
100
255
255
255
255
255
255
255
255
255
255
255
255
255
255
255
255
190
25
5
0
0
0
0
0
0
1
0
0
0
63
236
255
255
255
113
34
34
100
255
255
255
255
255
255
255
255
255
255
61
4
1
0
1
1
1
10
11
1
3
24
187
255
112
40
7
0
0
21
255
255
255
255
255
255
255
255
255
255
175
137
34
36
22
36
36
77
45
8
1
2
33
160
40
5
1
0
0
21
255
255
255
255
255
255
255
255
255
255
255
255
255
255
255
255
255
255
255
11
0
0
2
3
4
3
6
18
33
81
255
255
255
255
255
255
255
255
255
255
255
255
255
255
255
255
255
218
218
3
0
0
0
3
2
32
136
236
255
255
255
255
255
255
255
255
255
255
255
255
255
255
255
255
255
177
137
34
29
0
0
0
3
16
40
64
218
255
255
255
255
255
255
255
255
255
255
255
255
255
255
255
255
207
160
16
5
2
3
0
0
0
22
255
255
255
255
255
255
255
255
255
255
255
255
255
255
255
255
255
255
255
207
81
19
1
0
1
25
1
0
0
35
255
255
255
255
255
255
255
255
255
255
255
255
255
255
255
255
255
255
255
160
19
2
1
3
16
144
13
0
0
44
255
255
255
255
255
255
255
255
255
255
255
255
255
255
255
255
255
255
236
100
15
4
12
81
159
255
56
1
1
23
222
255
255
255
255
255
255
255
255
255
255
255
255
255
255
255
255
255
127
11
4
23
129
207
255
218
28
1
0
23
218
255
255
255
255
255
255
255
255
255
255
255
255
255
255
255
255
255
85
1
0
16
178
255
255
127
7
0
3
40
218
255
255
255
255
255
255
255
255
255
255
255
255
255
255
255
255
255
93
1
0
1
34
160
148
54
1
2
34
218
251
255
255
255
255
255
255
255
255
255
255
255
255
255
255
255
255
255
178
25
0
0
3
32
9
2
1
10
100
255
255
255
255
255
255
255
255
255
255
255
255
255
255
255
255
255
255
255
255
93
9
1
2
19
2
0
6
101
178
255
255
255
255
255
255
255
255
255
255
255
255
255
255
255
255
255
255
255
255
255
137
29
26
54
7
8
40
255
255
255
255
255
255
255
255
255
255
255
255
255
255
255
255
255
255
255
255
255
255
255
207
160
160
168
159
159
207
255
255
255
255
255
255
255
255
255
255
255
255
