P2
# CREATOR: GIMP PNM Filter Version 1.1
30 30
255
255
255
255
255
255
255
255
255
255
255
236
218
177
148
160
207
255
255
255
255
255
255
255
255
255
255
255
255
255
255
255
255
255
255
255
255
255
222
101
34
13
9
19
12
8
6
25
86
255
255
255
255
255
255
255
255
255
255
255
255
255
255
255
180
63
25
6
9
5
1
0
0
4
3
1
1
3
47
218
222
255
255
255
255
255
255
255
255
255
255
255
255
255
34
2
0
0
0
1
1
0
1
3
6
11
3
11
6
21
40
236
255
255
255
255
255
255
255
255
255
255
255
255
26
0
0
0
1
1
29
74
34
46
54
186
186
162
2
0
2
152
255
255
255
255
255
255
255
255
255
255
255
222
4
0
0
17
47
55
101
255
222
218
218
251
255
190
1
0
0
22
255
255
255
255
255
255
255
255
255
255
255
202
9
0
2
53
255
255
255
255
255
255
255
255
255
218
2
0
0
14
255
255
255
255
255
255
255
255
255
255
255
137
2
2
9
180
255
255
255
255
255
255
255
255
255
251
9
0
0
7
178
255
255
255
255
255
255
255
255
255
255
157
16
3
10
82
255
255
255
255
255
255
255
255
255
255
3
0
0
7
160
255
255
255
255
255
255
255
255
255
255
178
40
1
1
25
255
255
255
255
255
255
255
255
222
218
0
0
0
6
160
255
255
255
255
255
255
255
255
255
255
255
130
6
2
5
59
130
160
160
144
160
137
59
23
13
0
0
0
9
236
255
255
255
255
255
255
255
255
255
255
255
207
40
9
2
3
9
12
24
35
11
20
23
4
2
1
0
0
9
255
255
255
255
255
255
255
255
255
255
255
255
255
101
24
6
0
0
1
2
9
2
2
9
21
9
11
3
2
10
148
207
160
16
16
40
255
255
255
255
255
255
255
178
160
63
4
1
1
8
19
10
5
14
148
159
138
28
8
5
36
81
51
1
0
8
255
255
255
255
255
255
255
255
255
207
111
39
47
58
157
95
50
50
160
255
255
86
4
1
3
6
2
0
0
6
255
255
255
255
255
255
255
255
255
255
255
255
255
255
255
236
218
218
236
255
255
95
3
0
0
2
3
1
16
86
255
255
255
255
255
255
255
255
255
255
255
255
255
255
255
255
255
255
255
255
255
29
1
0
0
11
50
63
130
207
255
255
255
255
255
255
255
255
255
255
255
255
255
255
255
255
255
255
255
207
100
10
0
0
2
80
255
255
255
255
255
255
255
255
255
255
255
255
255
255
255
255
255
255
255
255
255
236
218
137
11
2
1
0
7
92
255
255
255
255
255
255
255
255
255
255
255
255
255
255
255
255
255
255
255
255
255
100
36
23
8
5
3
1
0
22
255
255
255
255
255
255
255
255
255
255
255
255
255
255
255
255
255
255
236
137
55
9
3
8
62
85
10
0
0
25
255
255
255
255
255
255
255
255
255
255
255
255
255
255
255
255
255
255
160
36
7
3
8
25
178
218
15
1
4
65
255
255
255
255
255
255
255
255
255
255
255
255
255
255
255
255
255
255
35
5
2
24
100
159
255
236
11
2
5
174
255
255
255
255
255
255
255
255
255
255
255
255
255
255
255
255
255
160
4
0
4
152
255
255
255
255
8
0
1
119
255
255
255
255
255
255
255
255
255
255
255
255
255
255
255
255
255
63
1
0
6
218
255
255
255
255
16
1
3
137
255
255
255
255
255
255
255
255
255
255
255
255
255
255
255
255
255
63
1
1
14
222
255
255
207
112
7
2
11
180
255
255
255
255
255
255
255
255
255
255
255
255
255
255
255
255
255
101
14
1
9
13
25
54
46
6
1
3
40
255
255
255
255
255
255
255
255
255
255
255
255
255
255
255
255
255
255
255
86
21
2
1
0
3
2
0
0
20
100
255
255
255
255
255
255
255
255
255
255
255
255
255
255
255
255
255
255
255
218
63
13
3
1
0
1
1
13
151
236
255
255
255
255
255
255
255
255
255
255
255
255
255
255
255
255
255
255
255
251
218
186
102
9
3
10
53
134
255
255
255
255
255
255
255
255
255
255
