P2
# CREATOR: GIMP PNM Filter Version 1.1
30 30
255
255
255
255
255
255
255
255
255
255
255
255
255
255
255
255
255
255
255
255
255
255
255
255
255
255
255
255
255
255
255
255
255
255
255
255
255
255
255
255
255
255
255
255
251
218
137
139
100
160
160
255
255
255
255
255
255
255
255
255
255
255
255
255
255
255
255
255
255
255
160
100
25
10
6
3
2
4
5
6
15
139
207
255
255
255
255
255
255
255
255
255
255
255
255
255
255
255
255
64
16
2
2
0
0
0
0
1
1
0
3
41
160
255
255
255
255
255
255
255
255
255
255
255
255
255
255
178
71
10
0
1
2
4
4
1
3
8
6
5
7
41
160
255
255
255
255
255
255
255
255
255
255
255
236
130
70
44
12
1
4
16
100
159
218
172
41
9
9
52
127
157
207
255
255
255
255
255
255
255
255
255
255
255
215
31
3
2
5
11
36
160
255
255
255
218
7
0
1
61
255
255
255
255
255
255
255
255
255
255
255
255
255
255
172
2
0
0
29
159
202
236
255
255
255
190
2
0
0
12
255
255
255
255
255
255
255
255
255
255
255
255
255
255
127
2
0
4
129
236
255
255
255
251
218
80
1
0
0
16
255
255
255
255
255
255
255
255
255
255
255
255
255
255
139
2
2
8
255
255
255
255
255
218
32
3
0
0
0
15
255
255
255
255
255
255
255
255
255
255
255
255
255
255
178
16
3
28
255
255
255
255
251
186
6
0
0
0
1
14
202
255
255
255
255
255
255
255
255
255
255
255
255
255
236
8
3
6
177
218
236
218
100
10
0
0
0
5
1
4
135
255
255
255
255
207
160
160
207
255
255
255
255
255
218
8
1
2
25
50
86
26
1
0
0
0
2
14
1
1
95
255
255
255
251
137
18
14
54
222
255
255
255
255
218
19
1
1
3
1
2
1
0
0
1
7
21
31
1
2
67
255
255
130
35
3
0
0
7
218
255
255
255
255
236
110
22
8
3
0
0
1
0
2
40
255
255
45
1
1
29
45
25
10
4
0
0
0
11
218
255
255
255
255
255
236
160
100
18
5
10
21
63
101
255
255
255
111
2
1
8
6
0
1
7
2
3
11
74
251
255
255
255
255
255
255
255
207
159
159
207
255
255
255
255
255
251
133
2
1
1
2
0
3
100
139
177
218
251
255
255
255
255
255
255
255
255
255
255
255
255
255
255
255
160
56
21
11
0
0
0
9
34
55
236
255
255
255
255
255
255
255
255
255
255
255
255
255
255
255
255
255
255
255
160
27
6
2
0
0
1
117
207
255
255
255
255
255
255
255
255
255
255
255
255
255
255
255
255
255
255
255
255
218
35
12
3
11
2
1
2
127
255
255
255
255
255
255
255
255
255
255
255
255
255
255
255
255
255
255
255
236
160
40
9
0
55
218
50
2
3
50
255
255
255
255
255
255
255
255
255
255
255
255
255
255
255
255
255
255
207
137
36
8
1
16
64
255
22
0
0
18
255
255
255
255
255
255
255
255
255
255
255
255
255
255
255
255
255
255
160
41
11
10
40
101
255
255
25
0
0
25
255
255
255
255
255
255
255
255
255
255
255
255
255
255
255
255
255
255
87
24
16
99
178
255
255
160
4
0
1
60
255
255
255
255
255
255
255
255
255
255
255
255
255
255
255
255
255
186
3
1
3
177
255
255
255
148
10
2
10
148
255
255
255
255
255
255
255
255
255
255
255
255
255
255
255
255
255
117
0
0
1
190
255
255
255
54
2
1
14
160
255
255
255
255
255
255
255
255
255
255
255
255
255
255
255
255
255
117
0
0
0
119
255
255
157
18
1
3
86
255
255
255
255
255
255
255
255
255
255
255
255
255
255
255
255
255
255
165
6
0
0
5
45
41
4
0
0
9
152
255
255
255
255
255
255
255
255
255
255
255
255
255
255
255
255
255
255
255
56
4
0
0
2
1
0
0
1
54
255
255
255
255
255
255
255
255
255
255
255
255
255
255
255
255
255
255
255
255
218
54
9
1
1
1
1
3
14
157
255
255
255
255
255
255
255
255
255
255
255
