P2
# CREATOR: GIMP PNM Filter Version 1.1
30 30
255
255
255
255
255
255
255
255
255
255
255
255
255
255
255
255
255
255
255
255
255
255
255
255
255
255
255
255
255
255
255
255
255
255
255
255
255
255
255
255
255
255
255
255
255
255
255
255
255
255
255
255
255
255
255
255
255
255
255
255
255
255
255
255
255
255
255
255
255
255
218
173
117
70
70
100
192
160
160
178
255
255
255
255
255
255
255
255
255
255
255
255
255
255
255
255
255
178
130
40
15
3
1
1
1
8
21
5
6
40
207
255
255
255
255
255
255
255
255
255
255
255
255
255
255
255
130
37
5
1
0
0
0
0
1
8
4
0
0
5
160
255
255
255
255
255
255
255
255
255
255
255
255
255
255
255
25
1
0
0
0
3
6
7
28
63
12
0
0
2
145
255
255
255
255
255
255
255
255
255
255
255
255
255
255
255
9
0
0
1
17
109
218
218
222
255
159
1
0
0
122
255
255
255
255
255
255
255
255
255
255
255
255
255
255
178
8
1
0
15
152
255
255
255
255
255
255
1
0
0
50
255
255
255
255
255
255
255
255
255
255
255
255
255
255
101
9
0
2
14
218
255
255
255
255
255
207
2
0
0
10
255
255
255
255
255
255
255
255
255
255
255
255
255
255
86
5
1
0
48
251
255
255
255
255
255
157
3
0
0
5
236
255
255
255
255
255
255
255
255
255
255
255
255
255
104
11
1
14
64
255
255
255
255
255
255
137
2
0
0
7
218
255
255
255
255
255
255
255
255
255
255
255
255
255
102
1
1
13
255
255
255
255
255
255
255
45
3
0
1
9
137
255
255
255
255
255
255
207
112
100
255
255
255
255
115
1
0
5
160
255
255
255
255
236
100
9
0
1
1
3
112
255
255
255
255
207
137
25
4
3
255
255
255
255
150
3
0
1
85
164
139
139
91
54
3
0
1
4
1
3
117
255
236
218
137
58
7
1
0
3
255
255
255
255
215
23
2
1
2
7
9
3
1
1
0
0
10
21
4
6
91
255
63
15
4
7
2
2
11
40
255
255
255
255
222
63
12
1
0
0
1
1
0
0
2
25
28
35
2
2
17
40
4
0
1
9
10
40
130
255
255
255
255
255
255
160
39
7
3
1
1
8
6
21
75
236
101
1
0
0
1
6
0
1
10
95
159
255
255
255
255
255
255
255
255
207
159
136
90
31
36
130
255
236
218
190
48
0
0
0
2
6
3
14
160
255
255
255
255
255
255
255
255
255
255
255
255
255
236
218
218
236
255
129
43
17
16
0
0
0
13
137
137
202
255
255
255
255
255
255
255
255
255
255
255
255
255
255
255
255
255
255
160
25
1
1
4
0
0
0
80
255
255
255
255
255
255
255
255
255
255
255
255
255
255
255
255
255
255
255
218
45
10
1
0
2
24
3
0
2
112
255
255
255
255
255
255
255
255
255
255
255
255
255
255
255
255
255
255
255
115
8
0
1
9
40
79
5
1
5
84
255
255
255
255
255
255
255
255
255
255
255
255
255
255
255
255
255
255
134
34
1
1
12
136
222
40
3
1
6
93
255
255
255
255
255
255
255
255
255
255
255
255
255
255
255
255
255
255
25
2
2
34
137
236
177
8
0
0
7
86
255
255
255
255
255
255
255
255
255
255
255
255
255
255
255
255
255
101
6
0
12
186
251
255
137
2
0
1
40
190
255
255
255
255
255
255
255
255
255
255
255
255
255
255
255
255
218
25
1
3
29
204
255
255
110
4
2
15
160
236
255
255
255
255
255
255
255
255
255
255
255
255
255
255
255
255
218
21
2
3
22
77
101
71
36
8
14
111
255
255
255
255
255
255
255
255
255
255
255
255
255
255
255
255
255
255
218
64
25
1
1
1
1
2
9
9
36
160
255
255
255
255
255
255
255
255
255
255
255
255
255
255
255
255
255
255
255
255
130
8
1
0
0
0
21
50
137
236
255
255
255
255
255
255
255
255
255
255
255
255
255
255
255
255
255
255
255
255
207
63
18
0
0
3
127
218
236
255
255
255
255
255
255
255
255
255
255
255
255
