P2
# CREATOR: GIMP PNM Filter Version 1.1
30 30
255
255
255
255
255
255
255
255
255
255
255
255
255
255
255
255
222
218
218
251
255
255
255
255
255
255
255
255
255
255
255
255
255
255
255
255
255
255
255
218
218
218
218
218
134
115
12
10
22
218
255
255
255
255
255
255
255
255
255
255
255
255
255
255
255
255
255
251
190
15
8
2
4
3
3
2
0
0
0
34
255
255
255
255
255
255
255
255
255
255
255
255
255
255
255
255
255
35
4
0
0
0
0
0
0
0
0
0
0
35
255
255
255
255
255
255
255
255
255
255
255
255
255
255
255
160
64
4
0
0
0
0
3
2
2
0
0
0
0
37
255
255
255
255
255
255
255
255
255
255
255
255
255
255
255
25
2
0
1
2
28
102
174
173
136
28
0
0
1
186
255
255
255
255
255
255
255
255
255
255
255
255
255
255
255
3
0
0
58
159
255
255
255
255
178
33
0
0
1
130
255
255
255
255
255
255
255
255
255
255
255
255
255
255
255
1
0
0
86
255
255
255
255
255
119
6
1
1
2
78
236
255
255
255
255
255
255
255
255
255
255
255
255
255
255
4
0
0
47
251
255
255
236
112
21
1
0
1
2
27
202
255
255
255
255
255
255
255
255
255
255
255
255
255
255
18
1
0
5
60
103
93
70
11
2
1
2
0
1
3
137
255
255
255
255
218
137
58
40
63
180
255
255
255
255
64
8
1
0
1
1
1
1
2
1
9
24
1
0
3
120
255
255
236
218
55
12
2
1
10
137
255
255
255
255
160
84
6
1
1
0
0
1
10
40
112
103
3
1
4
112
255
255
112
30
6
1
2
2
12
137
255
255
255
255
255
255
112
40
20
3
6
13
129
178
255
130
7
2
9
160
137
40
10
1
1
6
28
85
137
204
255
255
255
255
255
255
255
255
255
255
255
255
255
255
255
160
2
0
1
35
21
3
1
4
4
29
160
255
255
255
255
255
255
255
255
255
255
255
255
255
255
255
255
255
255
192
4
0
0
1
2
1
7
51
100
148
207
255
255
255
255
255
255
255
255
255
255
255
255
255
255
255
255
255
255
100
4
0
0
0
5
19
100
255
255
255
255
255
255
255
255
255
255
255
255
255
255
255
255
255
255
207
160
137
144
21
2
0
0
1
62
129
207
255
255
255
255
255
255
255
255
255
255
255
255
255
255
255
255
255
236
137
41
11
21
2
1
0
0
2
160
255
255
255
255
255
255
255
255
255
255
255
255
255
255
255
255
255
255
255
160
19
3
2
3
7
22
2
0
5
178
255
255
255
255
255
255
255
255
255
255
255
255
255
255
255
255
255
255
63
25
2
1
1
26
63
116
3
2
14
251
255
255
255
255
255
255
255
255
255
255
255
255
255
255
255
255
236
160
16
1
1
3
9
101
255
137
4
0
6
218
255
255
255
255
255
255
255
255
255
255
255
255
255
255
255
255
218
23
2
1
10
117
137
222
218
8
0
0
10
218
255
255
255
255
255
255
255
255
255
255
255
255
255
255
255
255
218
8
0
4
100
255
255
255
218
3
0
1
64
222
255
255
255
255
255
255
255
255
255
255
255
255
255
255
255
255
236
6
1
2
160
255
255
255
176
1
0
1
186
255
255
255
255
255
255
255
255
255
255
255
255
255
255
255
255
255
255
34
2
5
54
193
255
255
186
4
1
8
215
255
255
255
255
255
255
255
255
255
255
255
255
255
255
255
255
255
255
101
34
2
11
86
255
255
117
3
1
13
204
255
255
255
255
255
255
255
255
255
255
255
255
255
255
255
255
255
255
255
86
9
1
21
71
101
23
2
1
15
160
255
255
255
255
255
255
255
255
255
255
255
255
255
255
255
255
255
255
255
193
74
5
1
2
3
2
1
2
26
160
255
255
255
255
255
255
255
255
255
255
255
255
255
255
255
255
255
255
255
255
218
4
0
0
0
1
33
40
137
207
255
255
255
255
255
255
255
255
255
255
255
255
255
255
255
255
255
255
255
255
255
16
0
0
0
1
236
255
255
255
255
255
255
255
255
255
255
255
255
255
