P2
# CREATOR: GIMP PNM Filter Version 1.1
30 30
255
255
255
255
255
255
255
255
255
255
255
255
255
255
255
255
255
255
255
255
255
255
255
255
255
255
255
255
255
255
255
255
255
255
255
255
255
255
255
255
255
255
255
255
255
255
255
255
255
255
255
255
255
255
255
255
255
255
255
255
255
255
255
255
255
255
255
255
255
218
127
38
26
50
44
49
34
85
146
255
255
255
255
255
255
255
255
255
255
255
255
255
255
255
255
255
255
255
236
55
17
1
0
1
2
2
0
1
16
178
255
255
255
255
255
255
255
255
255
255
255
255
255
255
255
255
255
84
40
4
1
1
1
1
1
6
0
0
4
160
255
255
255
255
255
255
255
255
255
255
255
255
255
255
236
218
115
9
1
1
9
20
36
28
44
27
1
0
2
160
255
255
255
255
255
255
255
255
255
255
255
255
255
255
139
50
20
1
1
5
86
178
255
255
255
6
0
0
8
192
255
255
255
255
255
255
255
255
255
255
255
255
255
218
9
1
1
11
34
116
251
255
255
255
139
1
0
0
3
160
255
255
255
255
255
255
255
255
255
255
255
255
255
218
4
0
0
70
218
251
255
255
255
255
45
0
0
0
1
112
255
255
255
255
255
255
255
255
255
255
255
255
255
218
6
0
1
52
255
255
255
255
255
255
28
0
0
0
1
51
255
255
255
255
255
255
255
255
255
255
255
255
255
255
63
3
1
28
255
255
255
255
236
160
21
0
0
0
0
25
255
255
255
255
255
255
255
255
255
255
255
255
255
255
54
1
1
13
255
255
255
255
202
31
5
3
5
2
2
27
255
255
255
205
137
137
175
255
255
255
255
255
255
255
80
4
1
6
16
40
38
14
6
1
0
1
16
2
4
21
207
255
112
21
3
7
86
255
255
255
255
255
255
255
152
40
2
0
0
1
0
0
0
0
0
1
25
10
1
5
68
162
30
2
0
5
86
255
255
255
255
255
255
255
255
255
9
0
0
0
0
1
1
0
2
44
124
63
4
0
1
5
4
3
4
39
155
255
255
255
255
255
255
255
255
255
79
9
2
1
7
46
41
64
64
255
255
130
4
0
0
1
8
85
137
236
255
255
255
255
255
255
255
255
255
255
207
159
111
130
160
236
255
255
255
255
236
81
3
0
0
4
46
178
255
255
255
255
255
255
255
255
255
255
255
255
255
255
255
255
255
255
255
255
178
101
21
3
0
0
1
50
218
255
255
255
255
255
255
255
255
255
255
255
255
255
255
255
255
255
255
255
255
236
137
32
8
0
0
0
2
135
236
255
255
255
255
255
255
255
255
255
255
255
255
255
255
255
255
255
255
255
255
93
14
5
6
13
1
0
1
177
255
255
255
255
255
255
255
255
255
255
255
255
255
255
255
255
255
255
255
255
101
9
0
1
54
218
10
1
1
96
255
255
255
255
255
255
255
255
255
255
255
255
255
255
255
255
255
255
160
64
25
1
1
3
71
207
54
4
5
100
255
255
255
255
255
255
255
255
255
255
255
255
255
255
255
255
255
255
160
7
1
2
10
85
178
160
21
3
5
32
218
255
255
255
255
255
255
255
255
255
255
255
255
255
255
255
255
255
160
8
0
0
44
255
255
148
11
2
1
41
218
255
255
255
255
255
255
255
255
255
255
255
255
255
255
255
255
255
255
29
1
0
21
218
255
41
2
0
3
55
218
255
255
255
255
255
255
255
255
255
255
255
255
255
255
255
255
255
255
137
15
3
5
11
18
6
0
0
10
222
255
255
255
255
255
255
255
255
255
255
255
255
255
255
255
255
255
255
255
236
160
40
3
1
1
0
0
1
45
255
255
255
255
255
255
255
255
255
255
255
255
255
255
255
255
255
255
255
255
255
255
101
40
10
1
1
4
34
112
255
255
255
255
255
255
255
255
255
255
255
255
255
255
255
255
255
255
255
255
255
255
255
255
168
69
62
106
236
255
255
255
255
255
255
255
255
255
255
255
255
255
255
255
255
255
255
255
255
255
255
255
255
255
255
255
255
255
255
255
255
255
255
255
255
255
255
255
255
255
