P2
# CREATOR: GIMP PNM Filter Version 1.1
30 30
255
255
255
255
255
255
255
255
255
255
255
255
255
255
255
255
255
255
255
255
255
255
255
255
255
255
255
255
255
255
255
255
255
255
255
255
255
255
255
255
218
137
85
63
63
63
63
63
62
86
137
222
255
255
255
255
255
255
255
255
255
255
255
255
255
255
255
160
63
16
6
3
2
2
2
2
2
2
2
2
13
101
255
255
255
255
255
255
255
255
255
255
255
255
255
160
40
10
2
1
0
1
2
2
2
2
2
2
2
2
6
101
255
255
255
255
255
255
255
255
255
255
255
255
160
16
2
0
2
3
6
16
40
63
63
63
63
25
14
10
54
134
255
255
255
255
255
255
255
255
255
255
255
255
63
2
0
5
34
137
218
255
255
255
255
255
255
16
0
1
73
255
255
255
255
255
255
255
255
255
255
255
255
255
16
1
2
85
255
255
255
255
255
255
255
255
255
6
0
0
29
255
255
255
255
255
255
255
255
255
255
255
255
255
10
0
4
186
255
255
255
255
255
255
255
255
255
6
0
0
13
255
255
255
255
255
255
255
255
255
255
255
255
255
21
1
3
86
255
255
255
255
255
255
255
255
218
9
0
0
16
255
255
255
255
255
255
255
255
255
255
255
255
255
86
8
1
22
160
255
255
255
255
255
255
255
86
4
0
0
10
255
255
255
255
255
255
255
255
255
255
255
255
255
218
40
3
2
25
137
255
255
255
255
255
100
14
1
0
0
6
218
255
255
255
255
255
255
255
255
255
255
255
255
255
160
25
1
3
22
85
117
159
159
117
21
1
2
3
1
3
137
255
255
255
160
160
160
255
255
255
255
255
255
255
255
101
16
2
2
2
3
3
3
3
1
2
16
40
2
2
34
255
255
160
40
20
64
255
255
255
255
255
255
255
255
255
160
40
5
2
1
1
1
1
5
40
160
160
6
0
10
137
40
10
2
8
64
255
255
255
255
255
255
255
255
255
255
159
100
40
25
16
16
25
63
159
255
255
16
1
1
12
3
0
5
40
160
255
255
255
255
255
255
255
255
255
255
255
255
255
255
255
255
255
255
255
255
255
34
0
0
0
2
10
40
160
255
255
255
255
255
255
255
255
255
255
255
255
255
255
255
255
255
255
255
255
160
40
6
0
0
1
40
160
255
255
255
255
255
255
255
255
255
255
255
255
255
255
255
255
255
255
255
255
255
101
25
3
0
0
0
2
218
255
255
255
255
255
255
255
255
255
255
255
255
255
255
255
255
255
255
255
255
255
64
16
1
2
10
1
0
4
218
255
255
255
255
255
255
255
255
255
255
255
255
255
255
255
255
255
255
255
255
64
16
0
8
40
160
10
1
3
186
255
255
255
255
255
255
255
255
255
255
255
255
255
255
255
255
255
255
255
101
16
0
12
55
218
255
16
1
3
159
255
255
255
255
255
255
255
255
255
255
255
255
255
255
255
255
255
255
255
25
1
3
55
255
255
255
10
1
3
186
255
255
255
255
255
255
255
255
255
255
255
255
255
255
255
255
255
255
255
10
0
4
159
255
255
218
6
0
6
218
255
255
255
255
255
255
255
255
255
255
255
255
255
255
255
255
255
255
255
25
1
2
29
137
218
137
3
1
16
255
255
255
255
255
255
255
255
255
255
255
255
255
255
255
255
255
255
255
255
101
16
1
2
3
6
3
1
2
63
255
255
255
255
255
255
255
255
255
255
255
255
255
255
255
255
255
255
255
255
255
101
25
3
1
0
1
0
16
160
255
255
255
255
255
255
255
255
255
255
255
255
255
255
255
255
255
255
255
255
255
255
159
63
16
6
3
16
64
255
255
255
255
255
255
255
255
255
255
255
255
255
255
255
255
255
255
255
255
255
255
255
255
255
255
218
218
218
255
255
255
255
255
255
255
255
255
255
255
255
255
255
255
255
255
255
255
255
255
255
255
255
255
255
255
255
255
255
255
255
255
255
255
255
255
255
255
255
255
255
255
255
255
255
255
255
255
255
255
255
255
255
255
255
255
255
255
255
255
255
255
255
255
255
255
255
255
255
