P2
# CREATOR: GIMP PNM Filter Version 1.1
30 30
255
255
255
255
255
255
255
255
255
255
255
255
255
255
255
255
255
255
255
255
255
255
255
255
255
255
255
255
255
255
255
255
255
255
255
255
255
186
130
52
44
8
5
7
41
17
13
11
13
8
22
137
218
255
255
255
255
255
255
255
255
255
255
255
255
236
160
7
1
0
1
1
0
0
4
3
0
1
0
0
2
33
64
255
255
255
255
255
255
255
255
255
255
255
255
115
23
0
0
0
1
1
0
0
4
6
2
0
0
0
3
8
64
255
255
255
255
255
255
255
255
255
255
255
207
54
3
1
1
1
20
117
87
79
85
144
110
1
0
1
37
101
101
255
255
255
255
255
255
255
255
255
255
255
112
11
4
21
111
186
202
255
255
255
255
255
207
1
0
0
50
255
255
255
255
255
255
255
255
255
255
255
255
134
6
0
1
62
251
255
255
255
255
255
255
255
157
0
0
0
50
255
255
255
255
255
255
255
255
255
255
255
255
101
1
0
0
81
255
255
255
255
255
255
255
255
137
1
0
0
83
255
255
255
255
255
255
255
255
255
255
255
255
101
3
0
1
58
251
255
255
255
255
255
255
160
41
1
0
0
10
255
255
255
255
255
255
255
255
255
255
255
255
222
54
3
2
9
55
101
255
255
255
148
137
34
7
0
0
0
7
236
255
255
255
255
255
255
255
255
255
255
255
255
160
25
4
3
2
13
40
26
13
5
3
4
5
1
0
0
1
218
255
255
255
255
255
255
255
255
255
255
255
255
255
134
74
5
1
1
4
1
0
0
1
6
81
46
2
1
5
47
157
255
236
160
160
178
255
255
255
255
255
255
255
255
218
63
13
5
4
1
0
0
6
63
178
130
25
2
1
2
87
55
35
9
15
71
255
255
255
255
255
255
255
255
251
218
186
118
116
25
11
21
103
255
255
236
177
2
0
1
9
5
3
3
6
63
255
255
255
255
255
255
255
255
255
255
255
255
251
218
218
222
255
255
255
207
62
1
0
0
1
1
15
14
36
112
255
255
255
255
255
255
255
255
255
255
255
255
255
255
255
255
255
207
160
100
3
0
0
1
2
8
104
218
218
236
255
255
255
255
255
255
255
255
255
255
255
255
255
255
236
160
160
28
12
8
3
0
0
3
58
111
207
255
255
255
255
255
255
255
255
255
255
255
255
255
255
255
255
255
186
50
22
10
0
9
34
5
0
2
28
218
255
255
255
255
255
255
255
255
255
255
255
255
255
255
255
255
255
207
34
8
3
3
9
34
192
47
0
0
6
218
255
255
255
255
255
255
255
255
255
255
255
255
255
255
255
144
63
40
6
1
10
27
58
218
255
53
0
0
6
218
255
255
255
255
255
255
255
255
255
255
255
255
255
255
255
100
5
3
5
19
44
159
159
236
255
40
0
0
31
255
255
255
255
255
255
255
255
255
255
255
255
255
255
255
255
100
3
1
16
160
207
255
255
255
236
70
9
10
112
255
255
255
255
255
255
255
255
255
255
255
255
255
255
255
255
75
6
3
25
255
255
255
255
255
202
9
2
4
100
255
255
255
255
255
255
255
255
255
255
255
255
255
255
255
255
101
2
3
21
127
151
190
236
207
117
2
0
1
59
255
255
255
255
255
255
255
255
255
255
255
255
255
255
255
255
101
16
5
6
3
3
11
75
32
7
1
0
1
64
255
255
255
255
255
255
255
255
255
255
255
255
255
255
255
255
255
160
100
16
1
1
4
11
1
0
0
3
38
160
255
255
255
255
255
255
255
255
255
255
255
255
255
255
255
255
255
255
207
87
10
7
13
9
0
0
1
27
101
255
255
255
255
255
255
255
255
255
255
255
255
255
255
255
255
255
255
255
255
236
218
218
165
75
9
11
49
177
222
255
255
255
255
255
255
255
255
255
255
255
255
255
255
255
255
255
255
255
255
255
255
255
255
207
159
159
207
255
255
255
255
255
255
255
255
255
255
255
255
255
255
255
255
255
255
255
255
255
255
255
255
255
255
255
255
255
255
255
255
255
255
255
255
255
255
255
255
255
