P2
# CREATOR: GIMP PNM Filter Version 1.1
30 30
255
255
255
255
255
255
255
255
255
255
255
255
255
255
255
255
255
255
255
255
255
255
255
255
255
255
255
255
255
255
255
255
255
255
255
255
232
186
186
116
63
51
84
82
32
16
17
34
35
39
86
152
255
255
255
255
255
255
255
255
255
255
255
255
255
134
13
0
0
3
2
0
3
2
1
0
0
0
0
0
2
25
255
255
255
255
255
255
255
255
255
255
255
101
64
6
1
0
0
1
0
0
0
2
1
0
0
0
0
0
1
25
255
255
255
255
255
255
255
255
255
255
160
25
3
2
0
0
1
3
11
7
24
20
43
3
0
0
0
2
37
71
255
255
255
255
255
255
255
255
255
255
63
2
0
1
23
54
215
190
190
218
251
255
255
160
4
0
0
5
160
255
255
255
255
255
255
255
255
255
255
255
55
1
0
0
86
255
255
255
255
255
255
255
255
148
4
0
0
2
160
255
255
255
255
255
255
255
255
255
255
255
127
6
0
3
86
255
255
255
255
255
255
255
255
111
5
0
0
1
123
255
255
255
255
255
255
255
255
255
255
255
190
14
2
7
81
255
255
255
255
255
255
219
130
16
1
0
0
1
137
255
255
255
255
255
255
255
255
255
255
255
218
50
7
3
63
178
255
255
255
236
218
74
8
1
1
1
1
2
96
255
255
255
236
100
70
70
160
236
255
255
236
136
34
10
8
34
34
25
10
8
9
13
2
1
13
32
6
6
82
207
160
119
60
5
1
4
58
218
255
255
255
255
218
58
6
1
0
0
0
0
0
6
23
34
100
41
1
1
27
160
48
10
6
0
1
4
58
218
255
255
255
255
236
160
25
1
0
0
0
0
0
34
178
255
255
50
0
0
1
4
8
4
2
5
27
69
159
236
255
255
255
255
255
255
111
39
15
25
26
29
50
142
255
255
207
44
1
0
0
1
3
16
70
86
222
255
255
255
255
255
255
255
255
255
255
255
255
255
255
255
255
236
157
137
38
6
0
0
1
2
10
63
255
255
255
255
255
255
255
255
255
255
255
255
255
255
255
255
255
218
218
186
50
9
3
0
0
0
6
148
160
178
255
255
255
255
255
255
255
255
255
255
255
255
255
255
255
255
255
64
44
14
5
1
1
6
1
0
11
157
255
255
255
255
255
255
255
255
255
255
255
255
255
255
255
255
255
207
160
16
3
5
3
1
12
91
12
1
0
34
255
255
255
255
255
255
255
255
255
255
255
255
255
255
255
255
236
100
30
4
3
6
25
25
64
218
16
0
0
29
255
255
255
255
255
255
255
255
255
255
255
255
255
255
255
255
137
9
2
3
33
64
255
255
255
255
5
0
0
46
255
255
255
255
255
255
255
255
255
255
255
255
255
255
255
255
81
3
2
32
177
218
255
255
255
255
16
1
2
119
255
255
255
255
255
255
255
255
255
255
255
255
255
255
255
255
4
1
1
96
255
255
255
255
255
101
21
3
7
63
255
255
255
255
255
255
255
255
255
255
255
255
255
255
255
178
2
0
2
218
255
255
255
255
236
63
3
2
5
86
255
255
255
255
255
255
255
255
255
255
255
255
255
255
255
160
1
0
1
127
236
255
255
255
183
9
1
0
16
115
255
255
255
255
255
255
255
255
255
255
255
255
255
255
255
160
15
0
0
1
25
144
160
160
24
1
0
2
55
218
255
255
255
255
255
255
255
255
255
255
255
255
255
255
255
236
86
12
0
0
2
6
8
16
1
0
0
17
218
255
255
255
255
255
255
255
255
255
255
255
255
255
255
255
255
255
255
95
10
2
1
1
1
6
1
0
2
115
251
255
255
255
255
255
255
255
255
255
255
255
255
255
255
255
255
255
255
255
236
137
34
3
3
18
8
8
25
255
255
255
255
255
255
255
255
255
255
255
255
255
255
255
255
255
255
255
255
255
255
255
236
136
136
145
218
218
222
255
255
255
255
255
255
255
255
255
255
255
255
255
255
255
255
255
255
255
255
255
255
255
255
255
255
255
255
255
255
255
255
255
255
255
255
255
255
255
255
255
255
