P2
# CREATOR: GIMP PNM Filter Version 1.1
30 30
255
255
255
255
255
255
255
255
255
255
255
255
255
255
255
255
207
160
111
111
137
207
255
255
255
255
255
255
255
255
255
255
255
255
255
255
255
255
222
218
117
109
46
40
32
55
40
8
2
2
12
160
255
255
255
255
255
255
255
255
255
255
255
255
255
255
255
255
44
5
0
1
1
1
1
4
1
0
0
0
12
160
255
255
255
255
255
255
255
255
255
255
255
255
255
255
152
23
3
0
0
1
1
2
2
3
1
0
2
11
63
207
255
255
255
255
255
255
255
255
255
255
255
255
255
178
34
2
0
0
0
18
24
85
69
48
2
0
2
50
255
255
255
255
255
255
255
255
255
255
255
255
255
255
255
68
1
0
1
8
86
236
255
255
255
80
1
0
0
32
255
255
255
255
255
255
255
255
255
255
255
255
255
255
255
23
0
0
3
147
178
255
255
255
255
62
0
0
0
28
255
255
255
255
255
255
255
255
255
255
255
255
255
255
255
9
0
0
9
255
255
255
255
255
178
35
0
0
0
17
255
255
255
255
255
255
255
255
255
255
255
255
255
255
255
7
0
0
27
255
255
255
236
160
82
10
1
0
0
17
255
255
255
255
255
255
255
255
199
111
63
255
255
255
255
18
0
1
20
93
65
58
21
8
6
3
2
1
2
10
222
255
255
255
255
255
255
255
34
2
0
255
255
255
255
100
16
3
1
1
2
4
1
2
3
3
20
8
3
9
218
255
255
255
255
255
100
40
5
0
0
255
255
255
255
255
101
21
0
0
1
3
3
10
15
21
100
13
0
4
137
255
255
236
202
130
13
2
1
9
14
255
255
255
255
255
178
93
7
3
9
79
99
144
159
159
207
35
4
3
53
193
255
160
23
2
0
1
10
160
255
255
255
255
255
255
255
255
178
159
159
236
255
255
255
255
255
160
21
1
2
21
21
40
4
1
1
14
100
255
255
255
255
255
255
255
255
255
255
255
255
255
255
255
255
255
255
255
19
0
0
0
10
0
11
9
15
96
236
255
255
255
255
255
255
255
255
255
255
255
255
255
255
255
255
255
255
207
22
0
0
0
9
64
64
255
255
255
255
255
255
255
255
255
255
255
255
255
255
255
255
255
255
255
255
255
255
160
8
0
0
1
151
255
255
255
255
255
255
255
255
255
255
255
255
255
255
255
255
255
255
255
255
255
255
101
63
16
9
1
0
1
22
255
255
255
255
255
255
255
255
255
255
255
255
255
255
255
255
255
255
255
178
160
63
15
2
6
17
5
1
0
20
255
255
255
255
255
255
255
255
255
255
255
255
255
255
255
255
255
255
144
21
8
10
3
7
14
64
21
0
1
18
255
255
255
255
255
255
255
255
255
255
255
255
255
255
255
255
222
101
21
0
0
5
47
55
186
255
32
3
7
132
255
255
255
255
255
255
255
255
255
255
255
255
255
255
255
255
86
21
3
0
1
34
236
255
255
255
29
1
1
47
255
255
255
255
255
255
255
255
255
255
255
255
255
255
255
165
14
1
3
21
54
144
255
255
251
86
15
0
1
44
255
255
255
255
255
255
255
255
255
255
255
255
255
255
255
34
1
0
14
222
255
255
255
255
218
11
0
0
2
58
255
255
255
255
255
255
255
255
255
255
255
255
255
255
255
34
0
1
27
130
160
207
222
202
111
2
0
1
28
160
255
255
255
255
255
255
255
255
255
255
255
255
255
255
255
55
21
6
20
16
10
27
37
17
5
1
0
3
85
207
255
255
255
255
255
255
255
255
255
255
255
255
255
255
255
255
160
41
8
2
0
1
1
0
0
2
5
31
202
255
255
255
255
255
255
255
255
255
255
255
255
255
255
255
255
255
207
137
26
2
1
1
1
0
1
28
96
148
236
255
255
255
255
255
255
255
255
255
255
255
255
255
255
255
255
255
255
218
64
34
28
28
11
11
28
177
255
255
255
255
255
255
255
255
255
255
255
255
255
255
255
255
255
255
255
255
255
255
255
255
255
255
255
255
255
255
255
255
255
255
255
255
255
255
255
255
255
255
