P2
# CREATOR: GIMP PNM Filter Version 1.1
30 30
255
255
255
255
255
255
255
255
255
255
255
255
255
255
255
255
255
255
255
255
255
255
255
255
255
255
255
255
255
255
255
255
255
255
255
255
255
255
255
255
222
31
3
2
17
137
130
56
55
137
251
255
255
255
255
255
255
255
255
255
255
255
255
255
255
255
255
134
37
8
10
1
0
0
3
10
25
8
7
40
218
255
255
255
255
255
255
255
255
255
255
255
255
255
255
255
255
51
1
0
0
0
0
0
3
5
11
5
2
13
215
255
255
255
255
255
255
255
255
255
255
255
255
255
255
255
255
16
0
0
1
3
19
61
86
40
44
2
0
1
119
255
255
255
255
255
255
255
255
255
255
255
255
255
255
255
218
9
0
0
37
96
157
207
255
255
186
2
0
0
12
157
255
255
255
255
255
255
255
255
255
255
255
255
255
255
218
12
1
10
164
255
255
255
255
255
135
2
0
0
1
96
255
255
255
255
255
255
255
255
255
255
255
255
255
255
218
16
3
6
137
255
255
255
255
218
83
7
1
0
1
34
236
255
255
255
178
101
101
178
255
255
255
255
255
255
255
54
1
2
54
255
255
251
190
47
9
2
2
1
0
11
177
255
255
178
100
24
35
160
255
255
255
255
255
255
255
96
8
0
4
7
44
34
6
1
0
8
12
1
0
3
127
255
236
50
8
5
35
160
255
255
255
255
255
255
255
218
64
4
0
0
0
1
0
0
1
54
85
8
0
2
41
130
82
3
0
1
74
236
255
255
255
255
255
255
255
255
255
16
5
0
0
1
0
1
12
222
222
38
1
1
4
12
8
1
0
4
93
255
255
255
255
255
255
255
255
255
255
218
152
60
43
40
58
92
147
255
255
130
1
0
0
1
1
3
24
69
178
255
255
255
255
255
255
255
255
255
255
255
255
255
255
255
255
255
255
255
255
127
1
0
0
2
22
40
207
255
255
255
255
255
255
255
255
255
255
255
255
255
255
255
255
255
255
255
255
255
160
21
0
0
0
15
186
218
255
255
255
255
255
255
255
255
255
255
255
255
255
255
255
255
255
255
255
255
255
112
40
1
0
0
1
19
255
255
255
255
255
255
255
255
255
255
255
255
255
255
255
255
255
255
255
255
255
255
255
40
3
1
0
0
0
22
255
255
255
255
255
255
255
255
255
255
255
255
255
255
255
255
255
255
255
255
204
86
22
2
1
5
3
0
1
44
255
255
255
255
255
255
255
255
255
255
255
255
255
255
255
255
255
255
255
255
127
6
1
1
11
85
34
11
13
127
255
255
255
255
255
255
255
255
255
255
255
255
255
255
255
255
255
255
255
255
86
1
0
3
40
160
222
34
7
16
124
255
255
255
255
255
255
255
255
255
255
255
255
255
255
255
255
255
255
255
113
9
9
68
255
255
207
12
0
0
45
255
255
255
255
255
255
255
255
255
255
255
255
255
255
255
255
255
178
71
5
4
11
165
255
255
160
4
0
0
29
255
255
255
255
255
255
255
255
255
255
255
255
255
255
255
255
255
63
6
0
0
9
218
255
255
160
4
0
2
69
255
255
255
255
255
255
255
255
255
255
255
255
255
255
255
255
255
63
1
0
0
7
211
255
255
82
1
0
4
190
255
255
255
255
255
255
255
255
255
255
255
255
255
255
255
255
255
93
13
0
2
9
172
255
255
56
0
0
12
255
255
255
255
255
255
255
255
255
255
255
255
255
255
255
255
255
255
255
64
10
0
2
15
39
96
6
0
0
9
255
255
255
255
255
255
255
255
255
255
255
255
255
255
255
255
255
255
255
255
70
25
3
3
1
2
1
0
0
16
255
255
255
255
255
255
255
255
255
255
255
255
255
255
255
255
255
255
255
255
255
160
40
9
2
1
1
1
2
41
255
255
255
255
255
255
255
255
255
255
255
255
255
255
255
255
255
255
255
255
255
255
236
177
47
15
19
72
160
178
255
255
255
255
255
255
255
255
255
255
255
255
255
255
255
255
255
255
255
255
255
255
255
255
255
255
255
255
255
255
255
255
255
255
255
255
255
