P2
# CREATOR: GIMP PNM Filter Version 1.1
30 30
255
255
255
255
255
255
255
255
255
255
255
255
255
255
255
255
255
255
255
255
255
255
255
255
255
255
255
255
255
255
255
255
255
255
255
255
255
255
255
255
134
101
86
162
186
218
218
218
218
255
255
255
255
255
255
255
255
255
255
255
255
255
255
255
255
255
236
160
90
61
16
4
3
1
1
2
13
13
16
64
160
255
255
255
255
255
255
255
255
255
255
255
255
255
255
152
21
3
1
2
1
1
0
0
0
1
2
2
8
32
160
255
255
255
255
255
255
255
255
255
255
255
255
255
160
14
1
0
0
2
2
9
7
2
2
2
2
3
6
52
160
255
255
255
255
255
255
255
255
255
255
255
255
255
40
1
0
0
4
43
85
143
190
218
247
100
6
0
12
160
255
255
255
255
255
255
255
255
255
255
255
255
255
255
10
0
0
8
176
236
255
255
255
255
218
11
0
0
3
137
251
255
255
255
255
255
255
255
255
255
255
255
255
255
25
1
0
5
53
255
255
255
207
160
96
3
0
0
3
51
218
255
255
255
255
255
255
255
255
255
255
255
255
255
100
29
1
0
16
178
255
255
160
48
17
2
0
0
1
24
215
255
255
255
255
255
255
255
255
255
255
255
255
255
255
190
5
0
0
13
25
28
26
8
2
2
7
4
1
10
190
255
255
255
255
255
255
255
255
255
255
255
255
255
255
251
29
0
0
0
0
2
2
1
1
5
43
12
2
8
137
236
255
255
255
255
255
255
255
255
255
255
255
255
255
255
50
2
0
0
0
1
1
2
3
39
134
7
1
1
50
218
148
50
13
23
96
255
255
255
255
255
255
255
255
255
203
100
12
5
9
18
19
53
92
144
218
14
0
1
14
186
40
2
0
1
21
255
255
255
255
255
255
255
255
255
255
207
147
136
144
147
159
207
255
255
236
40
3
0
4
32
6
0
0
1
21
255
255
255
255
255
255
255
255
255
255
255
255
255
255
255
255
255
255
255
255
112
1
0
1
5
1
7
21
70
111
255
255
255
255
255
255
255
255
255
255
255
255
255
255
255
255
255
178
160
160
41
0
0
0
2
12
40
218
255
255
255
255
255
255
255
255
255
255
255
255
255
255
255
255
255
255
180
12
1
1
8
0
0
0
27
159
207
255
255
255
255
255
255
255
255
255
255
255
255
255
255
255
255
236
160
112
28
1
0
0
1
0
0
0
36
255
255
255
255
255
255
255
255
255
255
255
255
255
255
255
255
255
255
186
50
13
4
0
1
2
12
2
1
1
63
255
255
255
255
255
255
255
255
255
255
255
255
255
255
255
255
255
255
55
12
4
6
14
54
154
137
20
3
10
57
255
255
255
255
255
255
255
255
255
255
255
255
255
255
255
251
177
137
32
7
28
111
159
236
255
207
49
8
11
129
255
255
255
255
255
255
255
255
255
255
255
255
255
255
255
218
28
4
3
44
101
255
255
255
255
255
17
0
1
49
255
255
255
255
255
255
255
255
255
255
255
255
255
255
255
218
14
0
2
65
160
160
236
255
255
236
9
0
0
58
251
255
255
255
255
255
255
255
255
255
255
255
255
255
255
222
20
2
2
28
27
58
218
255
255
218
2
0
0
23
218
255
255
255
255
255
255
255
255
255
255
255
255
255
255
255
93
27
11
12
10
31
117
207
255
159
3
0
1
48
218
255
255
255
255
255
255
255
255
255
255
255
255
255
255
255
178
136
36
25
10
6
8
55
37
8
0
0
2
86
222
255
255
255
255
255
255
255
255
255
255
255
255
255
255
255
255
236
159
159
28
2
8
6
0
0
0
0
18
218
255
255
255
255
255
255
255
255
255
255
255
255
255
255
255
255
255
255
255
255
82
63
40
11
0
0
0
4
86
222
255
255
255
255
255
255
255
255
255
255
255
255
255
255
255
255
255
255
255
255
255
255
236
72
15
6
18
51
218
255
255
255
255
255
255
255
255
255
255
255
255
255
255
255
255
255
255
255
255
255
255
255
255
255
255
255
255
255
255
255
255
255
255
255
255
255
255
255
255
