P2
# CREATOR: GIMP PNM Filter Version 1.1
30 30
255
255
255
255
255
255
255
255
255
255
255
255
255
255
255
255
255
255
255
255
255
255
255
255
255
255
255
255
255
255
255
255
255
255
255
255
255
255
255
255
207
130
70
51
82
71
40
23
40
137
178
255
255
255
255
255
255
255
255
255
255
255
255
255
255
255
255
255
207
157
45
2
1
0
4
1
0
0
1
4
40
236
255
255
255
255
255
255
255
255
255
255
255
255
255
255
255
222
34
9
1
0
0
1
0
1
0
0
0
0
6
218
255
255
255
255
255
255
255
255
255
255
255
255
255
255
255
101
8
0
1
1
2
6
28
4
6
2
1
1
6
177
255
255
255
255
255
255
255
255
255
255
255
255
255
255
101
25
1
6
12
70
115
251
255
255
255
218
13
1
1
10
180
255
255
255
255
255
255
255
255
255
255
255
255
157
22
2
11
86
222
255
255
255
255
255
255
255
4
0
0
0
137
255
255
255
255
255
255
255
255
255
255
255
255
137
1
1
4
218
255
255
255
255
255
255
255
236
1
0
0
0
137
255
255
255
255
255
255
255
255
255
255
255
255
74
0
0
4
255
255
255
255
255
255
255
251
130
0
0
0
1
204
255
255
255
255
255
255
255
255
255
255
255
255
102
0
0
3
255
255
255
255
255
255
255
152
14
0
0
0
20
255
255
255
255
255
255
255
255
255
255
255
255
255
117
2
0
2
27
255
255
255
255
255
255
117
3
0
0
0
49
255
255
255
255
255
255
255
255
255
255
255
255
255
218
35
1
0
3
63
139
207
255
236
160
22
1
0
0
1
13
168
255
255
255
255
255
255
255
255
255
255
255
255
255
137
1
0
0
3
4
25
21
24
9
4
1
8
1
0
1
100
255
255
255
255
255
255
255
255
255
255
255
255
255
204
34
4
1
0
1
6
3
3
1
2
17
58
6
1
1
100
192
68
34
49
155
255
255
255
255
255
255
255
255
255
159
87
9
3
6
17
6
5
6
36
112
218
14
1
3
44
111
3
0
1
33
255
255
255
255
255
255
255
255
255
255
160
64
63
137
218
138
147
136
218
236
218
19
0
0
8
18
1
0
0
25
255
255
255
255
255
255
255
255
255
255
255
255
255
255
255
255
255
255
255
255
236
33
0
0
0
1
2
2
7
49
255
255
255
255
255
255
255
255
255
255
255
255
255
255
255
255
255
236
130
25
11
4
0
0
0
1
21
137
177
222
255
255
255
255
255
255
255
255
255
255
255
255
255
255
255
255
255
218
36
1
0
1
0
0
0
29
154
255
255
255
255
255
255
255
255
255
255
255
255
255
255
255
255
255
255
255
124
74
13
1
1
5
2
1
3
160
255
255
255
255
255
255
255
255
255
255
255
255
255
255
255
255
255
255
207
160
40
4
6
46
95
129
2
0
5
207
255
255
255
255
255
255
255
255
255
255
255
255
255
255
255
255
255
236
40
8
2
4
9
137
255
133
1
0
3
255
255
255
255
255
255
255
255
255
255
255
255
255
255
255
255
255
255
218
14
0
3
46
86
175
236
21
1
0
12
255
255
255
255
255
255
255
255
255
255
255
255
255
255
255
255
255
255
186
5
1
6
151
255
255
160
6
0
4
86
255
255
255
255
255
255
255
255
255
255
255
255
255
255
255
255
255
255
202
33
2
12
28
51
41
36
3
5
25
236
255
255
255
255
255
255
255
255
255
255
255
255
255
255
255
255
255
255
218
64
16
3
1
0
0
1
12
63
178
255
255
255
255
255
255
255
255
255
255
255
255
255
255
255
255
255
255
255
255
255
101
54
2
0
0
2
30
160
255
255
255
255
255
255
255
255
255
255
255
255
255
255
255
255
255
255
255
255
255
255
255
177
28
13
16
58
129
207
255
255
255
255
255
255
255
255
255
255
255
255
255
255
255
255
255
255
255
255
255
255
255
255
255
255
255
255
255
255
255
255
255
255
255
255
255
255
255
255
255
255
255
255
255
255
255
255
255
255
255
255
255
255
255
255
255
255
255
255
255
255
255
255
255
255
255
255
255
255
