P2
# CREATOR: GIMP PNM Filter Version 1.1
30 30
255
255
255
255
255
255
255
255
255
255
255
255
255
255
255
255
255
255
255
255
255
255
255
255
255
255
255
255
255
255
255
255
255
255
255
255
255
255
255
255
255
255
255
251
218
218
222
255
255
255
255
255
255
255
255
255
255
255
255
255
255
255
255
255
255
255
255
255
255
236
160
160
63
54
10
25
63
178
160
160
236
255
255
255
255
255
255
255
255
255
255
255
255
255
255
255
255
255
190
74
20
3
0
0
0
2
17
54
21
50
218
255
255
255
255
255
255
255
255
255
255
255
255
255
255
255
236
160
35
6
1
2
0
0
0
7
6
2
1
18
199
255
255
255
255
255
255
255
255
255
255
255
255
255
255
236
46
3
1
1
8
10
4
4
24
119
7
0
0
2
127
255
255
255
255
255
255
255
255
255
255
255
255
255
255
137
3
0
0
18
86
222
255
255
255
255
5
0
0
1
137
255
255
255
255
255
255
255
255
255
255
255
255
255
255
137
1
0
1
96
255
255
255
255
255
255
6
0
0
0
43
222
255
255
255
255
255
255
255
255
255
255
255
255
255
152
2
0
4
236
255
255
255
255
255
255
5
0
0
0
21
218
255
255
255
255
255
255
255
255
255
255
255
255
255
255
10
2
4
160
255
255
255
255
255
255
14
0
0
0
9
86
222
255
255
255
255
255
255
255
255
255
255
255
255
178
25
3
4
100
255
255
255
255
255
255
24
2
1
1
3
33
218
255
255
255
255
255
255
255
255
255
255
255
255
160
17
1
4
60
255
255
255
255
255
232
54
1
1
0
1
14
218
255
255
255
255
255
255
255
255
255
255
255
255
160
36
1
1
6
139
218
218
251
255
186
7
1
0
0
1
29
204
255
255
255
255
255
255
255
255
255
255
255
255
236
218
14
0
0
1
44
50
117
35
21
2
1
9
2
1
2
58
207
222
101
101
134
255
255
255
255
255
255
255
255
255
63
1
0
0
11
5
2
1
0
2
16
82
34
0
0
16
139
74
11
6
86
255
255
255
255
255
255
255
255
255
255
4
1
2
19
2
0
0
1
8
64
255
44
1
1
2
21
9
1
9
86
255
255
255
255
255
255
255
255
255
255
159
159
159
56
7
1
2
17
159
159
255
152
7
1
0
1
2
11
47
190
255
255
255
255
255
255
255
255
255
255
255
255
255
160
148
85
136
147
255
255
190
33
0
0
0
1
25
101
222
255
255
255
255
255
255
255
255
255
255
255
255
255
255
255
255
255
255
251
218
190
64
6
0
0
0
9
155
255
255
255
255
255
255
255
255
255
255
255
255
255
255
255
255
255
255
255
255
202
54
16
3
1
0
0
2
23
255
255
255
255
255
255
255
255
255
255
255
255
255
255
255
255
255
255
255
255
160
85
7
2
1
2
21
9
4
40
255
255
255
255
255
255
255
255
255
255
255
255
255
255
255
255
255
255
218
115
22
7
3
7
8
21
35
8
4
39
255
255
255
255
255
255
255
255
255
255
255
255
255
255
255
255
255
255
52
5
1
1
22
99
152
218
20
4
8
133
255
255
255
255
255
255
255
255
255
255
255
255
255
255
255
255
255
255
15
0
0
4
137
255
255
160
4
1
3
218
255
255
255
255
255
255
255
255
255
255
255
255
255
255
255
255
255
255
14
0
0
5
87
81
100
9
1
0
16
222
255
255
255
255
255
255
255
255
255
255
255
255
255
255
255
255
255
255
45
7
4
5
2
1
2
0
0
6
64
255
255
255
255
255
255
255
255
255
255
255
255
255
255
255
255
255
255
255
202
137
117
17
1
0
1
2
21
63
255
255
255
255
255
255
255
255
255
255
255
255
255
255
255
255
255
255
255
255
255
255
251
86
29
10
21
55
180
255
255
255
255
255
255
255
255
255
255
255
255
255
255
255
255
255
255
255
255
255
255
255
255
255
255
255
255
255
255
255
255
255
255
255
255
255
255
255
255
255
255
255
255
255
255
255
255
255
255
255
255
255
255
255
255
255
255
255
255
255
255
255
255
255
255
255
255
255
255
