P2
# CREATOR: GIMP PNM Filter Version 1.1
30 30
255
255
255
255
255
255
255
255
255
255
255
192
137
134
164
218
222
255
255
255
255
255
255
255
255
255
255
255
255
255
255
255
255
255
255
255
255
236
100
100
112
100
11
6
9
15
31
75
99
168
255
255
255
255
255
255
255
255
255
255
255
255
255
255
255
255
255
202
13
2
2
8
2
1
1
0
0
0
5
100
255
255
255
255
255
255
255
255
255
255
255
255
255
255
255
255
255
34
1
0
0
1
5
3
1
0
0
0
2
63
207
255
255
255
255
255
255
255
255
255
255
255
255
255
255
218
64
9
0
1
4
10
19
30
55
18
4
2
5
27
148
255
255
255
255
255
255
255
255
255
255
255
255
255
255
218
21
1
3
19
152
177
159
159
207
236
130
35
4
8
98
255
255
255
255
255
255
255
255
255
255
255
255
255
255
218
15
1
7
150
255
255
255
255
255
255
112
1
0
0
62
236
255
255
255
255
255
255
255
255
255
255
255
255
255
255
17
1
0
20
165
255
255
255
255
255
63
0
0
0
10
160
255
255
255
255
255
255
255
255
255
255
255
255
255
255
40
0
0
3
137
255
255
255
255
255
81
0
0
0
3
148
255
255
255
255
255
255
255
255
255
255
255
255
255
236
49
1
0
1
85
255
255
255
255
255
148
19
1
0
2
112
255
255
255
255
255
255
255
255
255
255
255
255
255
218
54
1
0
1
117
255
255
255
207
160
112
51
2
0
4
112
255
255
255
218
64
64
101
255
255
255
255
255
255
218
58
3
0
1
4
16
18
56
35
22
16
9
3
1
2
70
255
160
100
21
8
3
101
255
255
255
255
255
255
236
159
72
14
1
0
0
1
3
4
1
1
8
23
5
6
85
88
16
2
2
0
16
101
255
255
255
255
255
255
255
255
218
64
10
0
0
0
1
0
1
4
38
127
35
5
9
4
1
1
2
16
64
255
255
255
255
255
255
255
255
255
255
255
113
19
6
1
2
9
16
63
139
255
73
1
0
0
0
6
86
160
255
255
255
255
255
255
255
255
255
255
255
255
255
255
93
40
34
130
218
255
255
218
26
0
0
0
10
64
255
255
255
255
255
255
255
255
255
255
255
255
255
255
255
255
255
255
255
255
236
218
137
37
6
0
0
0
40
255
255
255
255
255
255
255
255
255
255
255
255
255
255
255
255
255
255
255
255
236
111
31
9
4
2
7
2
3
87
255
255
255
255
255
255
255
255
255
255
255
255
255
255
255
255
255
255
255
112
16
3
1
1
5
16
6
1
8
137
255
255
255
255
255
255
255
255
255
255
255
255
255
255
255
255
255
255
178
63
2
1
1
7
70
92
3
2
9
218
255
255
255
255
255
255
255
255
255
255
255
255
255
255
255
255
101
40
16
8
2
4
25
112
192
60
1
0
10
251
255
255
255
255
255
255
255
255
255
255
255
255
255
255
255
255
63
1
1
5
50
186
236
255
218
25
0
0
13
255
255
255
255
255
255
255
255
255
255
255
255
255
255
255
255
255
6
0
0
6
95
205
255
255
218
14
1
1
45
255
255
255
255
255
255
255
255
255
255
255
255
255
255
255
255
255
16
0
0
1
13
22
54
106
232
16
3
5
160
255
255
255
255
255
255
255
255
255
255
255
255
255
255
255
255
255
25
4
1
2
5
1
0
1
21
2
2
10
207
255
255
255
255
255
255
255
255
255
255
255
255
255
255
255
255
255
255
147
87
39
38
2
0
0
2
1
13
40
255
255
255
255
255
255
255
255
255
255
255
255
255
255
255
255
255
255
255
255
255
255
218
45
14
3
4
10
100
160
255
255
255
255
255
255
255
255
255
255
255
255
255
255
255
255
255
255
255
255
255
255
255
255
255
159
159
159
255
255
255
255
255
255
255
255
255
255
255
255
255
255
255
255
255
255
255
255
255
255
255
255
255
255
255
255
255
255
255
255
255
255
255
255
255
255
255
255
255
255
255
255
255
255
255
255
255
255
255
255
255
255
255
255
255
255
255
255
255
255
255
255
255
255
255
255
255
255
255
