P2
# CREATOR: GIMP PNM Filter Version 1.1
30 30
255
255
255
255
255
255
255
255
255
255
255
255
255
255
255
255
255
255
255
255
255
255
255
255
255
255
255
255
255
255
255
255
255
255
255
255
255
255
255
218
218
55
45
24
74
95
160
186
215
236
255
255
255
255
255
255
255
255
255
255
255
255
255
255
255
222
218
137
110
22
8
3
0
0
0
3
7
14
50
160
255
255
255
255
255
255
255
255
255
255
255
255
255
255
255
88
11
3
3
2
1
1
1
0
0
1
3
8
32
160
255
255
255
255
255
255
255
255
255
255
255
255
255
222
115
14
0
0
3
3
6
14
11
11
9
24
15
9
19
104
255
255
255
255
255
255
255
255
255
255
255
255
255
101
21
1
0
3
21
100
159
236
255
255
255
255
34
2
2
85
255
255
255
255
255
255
255
255
255
255
255
255
130
16
2
3
21
86
222
255
255
255
255
255
255
255
13
0
0
37
255
255
255
255
255
255
255
255
255
255
255
255
81
1
1
17
190
251
255
255
255
255
255
255
255
160
3
0
0
8
178
255
255
255
255
255
255
255
255
255
255
255
40
0
0
6
207
255
255
255
255
255
255
255
255
86
1
0
0
3
160
255
255
255
255
255
255
255
255
255
255
255
82
1
0
3
111
255
255
255
255
255
255
255
236
22
1
0
0
6
139
255
255
255
255
255
255
255
255
255
255
255
130
10
0
1
25
255
255
255
255
255
218
152
86
6
1
0
1
13
187
255
255
255
255
255
236
160
160
178
255
255
255
130
8
1
11
74
151
139
148
130
40
14
6
4
13
3
1
1
85
255
255
255
255
255
218
58
38
101
255
255
255
207
54
4
0
1
4
8
4
3
1
1
7
23
86
5
0
0
21
236
255
255
255
112
85
23
35
101
255
255
255
255
218
13
1
0
2
2
3
0
0
7
63
160
236
10
0
0
9
218
255
218
74
2
0
4
137
178
255
255
255
255
218
55
19
13
13
17
9
7
8
45
255
255
255
20
1
1
16
186
137
40
7
0
0
6
218
255
255
255
255
255
255
255
255
255
222
218
218
215
218
218
255
255
255
25
3
3
11
22
6
3
1
1
6
39
236
255
255
255
255
255
255
255
255
255
255
255
255
255
255
255
255
255
134
34
2
0
0
1
3
2
14
86
218
255
255
255
255
255
255
255
255
255
255
255
255
255
255
255
255
255
255
160
44
7
1
0
0
3
14
36
100
255
255
255
255
255
255
255
255
255
255
255
255
255
255
255
255
255
255
255
236
40
3
1
1
0
0
20
218
218
236
255
255
255
255
255
255
255
255
255
255
255
255
255
255
255
255
255
255
178
34
2
0
2
3
1
8
86
255
255
255
255
255
255
255
255
255
255
255
255
255
255
255
255
255
255
255
255
134
63
3
0
3
24
6
3
16
152
255
255
255
255
255
255
255
255
255
255
255
255
255
255
255
255
255
251
218
177
55
9
2
6
25
65
9
3
14
160
255
255
255
255
255
255
255
255
255
255
255
255
255
255
255
255
222
117
34
21
8
9
29
159
202
100
5
2
23
160
255
255
255
255
255
255
255
255
255
255
255
255
255
255
255
255
101
4
1
1
17
41
137
251
222
40
2
2
34
236
255
255
255
255
255
255
255
255
255
255
255
255
255
255
222
101
28
1
0
4
84
160
207
255
154
9
1
1
45
255
255
255
255
255
255
255
255
255
255
255
255
255
255
255
218
49
3
1
2
30
255
255
255
255
73
1
0
5
64
255
255
255
255
255
255
255
255
255
255
255
255
255
255
255
218
54
3
1
5
68
165
236
160
130
15
1
2
47
218
255
255
255
255
255
255
255
255
255
255
255
255
255
255
255
251
186
14
1
1
2
8
4
4
9
4
3
21
180
255
255
255
255
255
255
255
255
255
255
255
255
255
255
255
255
255
236
63
8
1
2
0
1
1
9
12
30
100
255
255
255
255
255
255
255
255
255
255
255
255
255
255
255
255
255
255
255
178
103
63
23
14
4
10
44
111
159
207
255
255
255
255
255
255
255
255
255
255
255
255
