P2
# CREATOR: GIMP PNM Filter Version 1.1
30 30
255
255
255
255
255
255
255
255
255
255
255
255
255
255
255
255
255
255
255
255
255
255
255
255
255
255
255
255
255
255
255
255
255
255
255
255
255
255
137
28
12
16
58
90
44
21
29
60
152
255
255
255
255
255
255
255
255
255
255
255
255
255
255
255
255
255
255
192
21
1
0
0
1
3
0
0
0
0
3
21
34
143
255
255
255
255
255
255
255
255
255
255
255
255
251
218
86
35
1
0
0
0
0
0
0
0
0
0
0
0
0
79
255
255
255
255
255
255
255
255
255
255
255
255
218
63
13
2
1
1
6
34
8
6
3
2
1
2
0
0
0
39
255
255
255
255
255
255
255
255
255
255
255
255
137
13
2
7
15
54
123
236
218
218
218
255
255
111
1
0
0
6
218
255
255
255
255
255
255
255
255
255
255
255
35
3
3
72
218
255
255
255
255
255
255
255
255
93
1
0
0
5
218
255
255
255
255
255
255
255
255
255
255
160
7
0
6
148
255
255
255
255
255
255
255
255
222
44
1
0
0
9
218
255
255
255
255
255
255
255
255
255
255
160
3
1
8
190
255
255
255
255
255
255
255
255
152
22
1
0
0
24
236
255
255
255
255
255
255
255
255
255
255
160
21
2
7
86
255
255
255
255
255
255
255
255
86
6
1
0
0
6
148
255
255
255
255
255
255
255
255
255
255
255
152
7
3
20
219
218
218
251
202
186
186
148
25
5
2
1
0
3
137
255
255
255
255
255
255
255
255
255
255
255
222
10
0
1
8
10
11
24
8
5
3
10
1
1
11
10
4
16
152
255
255
255
255
222
72
22
25
255
255
255
255
25
2
0
0
1
0
0
0
0
2
0
2
13
39
20
5
22
93
255
255
255
255
101
13
1
6
255
255
255
255
134
25
5
1
1
0
0
0
2
6
28
34
136
117
12
2
3
101
205
74
46
23
16
2
2
14
255
255
255
255
255
255
190
86
65
28
28
29
100
207
255
255
255
202
19
1
3
27
5
0
0
2
2
18
74
190
255
255
255
255
255
255
255
255
255
255
255
255
255
255
255
255
255
222
40
1
1
3
0
0
0
2
16
64
218
255
255
255
255
255
255
255
255
255
255
255
255
255
255
255
255
255
178
157
37
1
0
0
0
0
3
83
159
255
255
255
255
255
255
255
255
255
255
255
255
255
255
255
255
255
255
255
101
32
8
0
0
0
11
74
222
255
255
255
255
255
255
255
255
255
255
255
255
255
255
255
255
255
255
255
255
152
16
5
2
0
0
1
55
218
255
255
255
255
255
255
255
255
255
255
255
255
255
255
255
255
255
255
255
255
255
86
6
2
12
2
3
20
251
255
255
255
255
255
255
255
255
255
255
255
255
255
255
255
255
255
222
218
137
37
25
21
7
15
34
4
1
25
255
255
255
255
255
255
255
255
255
255
255
255
255
255
255
255
255
255
101
53
28
3
1
4
63
112
55
3
4
37
255
255
255
255
255
255
255
255
255
255
255
255
255
255
255
255
255
255
25
6
3
2
0
5
101
157
13
2
8
86
255
255
255
255
255
255
255
255
255
255
255
255
255
255
255
255
255
109
8
0
7
19
22
85
178
96
6
1
7
160
255
255
255
255
255
255
255
255
255
255
255
255
255
255
255
255
255
63
1
3
24
160
160
232
218
68
3
1
20
160
255
255
255
255
255
255
255
255
255
255
255
255
255
255
255
255
255
17
1
1
94
255
255
218
40
5
2
14
115
255
255
255
255
255
255
255
255
255
255
255
255
255
255
255
255
255
255
20
0
1
48
255
255
44
5
0
6
100
236
255
255
255
255
255
255
255
255
255
255
255
255
255
255
255
255
255
255
21
1
0
21
29
15
5
0
1
21
160
255
255
255
255
255
255
255
255
255
255
255
255
255
255
255
255
255
255
255
97
12
2
2
0
1
1
3
12
160
255
255
255
255
255
255
255
255
255
255
255
255
255
255
255
255
255
255
255
255
207
159
25
1
1
2
11
40
159
207
255
255
255
255
255
255
255
255
255
255
255
