P2
# CREATOR: GIMP PNM Filter Version 1.1
30 30
255
255
255
255
255
255
255
255
255
255
255
255
255
255
255
255
255
255
255
255
255
255
255
255
255
255
255
255
255
255
255
255
255
255
255
255
255
255
255
255
218
186
117
85
63
63
63
82
100
160
207
255
255
255
255
255
255
255
255
255
255
255
255
255
255
255
160
63
25
10
6
3
3
2
2
2
2
5
12
48
160
255
255
255
255
255
255
255
255
255
255
255
255
255
255
101
25
3
1
1
0
1
1
2
2
2
2
5
12
48
160
255
255
255
255
255
255
255
255
255
255
255
255
255
101
25
1
2
3
3
6
10
25
40
63
63
16
21
25
160
207
255
255
255
255
255
255
255
255
255
255
255
255
255
16
1
2
34
117
186
218
255
255
255
255
255
10
0
4
160
255
255
255
255
255
255
255
255
255
255
255
255
255
218
4
0
6
218
255
255
255
255
255
255
255
255
2
0
0
100
255
255
255
255
255
255
255
255
255
255
255
255
255
186
3
1
9
255
255
255
255
255
255
255
255
255
2
0
0
40
255
255
255
255
255
255
255
255
255
255
255
255
255
186
3
1
10
255
255
255
255
255
255
255
255
218
3
0
0
16
255
255
255
255
255
255
255
255
255
255
255
255
255
218
16
0
5
55
218
255
255
255
255
255
255
85
2
0
0
6
160
255
255
255
255
255
255
255
255
255
255
255
255
255
64
16
0
5
16
40
63
63
63
40
25
5
1
1
1
2
100
255
255
255
255
255
255
255
255
255
255
255
255
255
255
64
16
1
1
2
2
2
2
1
0
0
2
4
1
2
63
255
255
255
255
255
255
160
160
160
255
255
255
255
255
255
101
25
5
2
2
2
2
1
0
2
40
54
2
2
40
255
255
255
255
160
40
10
8
64
255
255
255
255
255
255
255
218
136
85
63
63
63
39
53
85
218
117
3
1
25
255
255
160
40
10
2
0
8
64
255
255
255
255
255
255
255
255
255
255
255
255
255
255
255
255
255
186
3
1
10
160
40
10
2
0
2
10
40
160
255
255
255
255
255
255
255
255
255
255
255
255
255
255
255
255
255
218
3
0
1
10
2
0
2
10
40
159
255
255
255
255
255
255
255
255
255
255
255
255
255
255
255
255
255
255
160
63
0
0
0
0
2
10
40
159
255
255
255
255
255
255
255
255
255
255
255
255
255
255
255
255
255
218
137
54
16
3
0
0
0
10
40
160
255
255
255
255
255
255
255
255
255
255
255
255
255
255
255
255
255
255
160
40
8
2
1
1
0
0
2
159
255
255
255
255
255
255
255
255
255
255
255
255
255
255
255
255
255
255
255
101
25
3
1
2
8
14
1
2
25
255
255
255
255
255
255
255
255
255
255
255
255
255
255
255
255
255
255
218
64
16
1
3
16
54
137
21
2
2
100
255
255
255
255
255
255
255
255
255
255
255
255
255
255
255
255
255
255
186
13
1
5
40
160
255
218
10
0
6
160
255
255
255
255
255
255
255
255
255
255
255
255
255
255
255
255
255
255
186
8
1
5
85
255
255
137
3
1
16
255
255
255
255
255
255
255
255
255
255
255
255
255
255
255
255
255
255
255
218
40
2
1
14
74
159
29
2
3
63
255
255
255
255
255
255
255
255
255
255
255
255
255
255
255
255
255
255
255
255
160
16
2
1
3
3
2
1
25
160
255
255
255
255
255
255
255
255
255
255
255
255
255
255
255
255
255
255
255
255
255
160
40
8
1
1
0
16
101
255
255
255
255
255
255
255
255
255
255
255
255
255
255
255
255
255
255
255
255
255
255
255
218
86
34
10
25
64
255
255
255
255
255
255
255
255
255
255
255
255
255
255
255
255
255
255
255
255
255
255
255
255
255
255
255
255
255
255
255
255
255
255
255
255
255
255
255
255
255
255
255
255
255
255
255
255
255
255
255
255
255
255
255
255
255
255
255
255
255
255
255
255
255
255
255
255
255
255
255
255
255
255
255
255
255
255
255
255
255
255
255
255
255
255
255
255
255
255
255
255
255
255
255
255
255
255
255
255
255
255
255
