P2
# CREATOR: GIMP PNM Filter Version 1.1
30 30
255
255
255
255
255
255
255
255
255
255
255
255
255
255
255
255
255
255
255
255
255
255
255
255
255
255
255
255
255
255
255
255
255
255
255
255
255
255
255
255
255
255
255
255
255
255
255
255
255
255
255
255
255
255
255
255
255
255
255
255
255
255
255
255
255
255
255
255
255
255
255
255
218
186
159
159
159
186
218
255
255
255
255
255
255
255
255
255
255
255
255
255
255
255
255
255
255
255
255
160
63
16
6
3
3
3
3
3
4
10
40
178
255
255
255
255
255
255
255
255
255
255
255
255
255
255
255
255
101
25
3
1
0
1
1
1
1
1
0
0
10
101
255
255
255
255
255
255
255
255
255
255
255
255
255
255
255
160
16
1
1
3
6
10
16
16
6
3
2
3
10
101
255
255
255
255
255
255
255
255
255
255
255
255
255
255
255
40
2
1
21
136
218
255
255
255
16
0
1
46
159
178
255
255
255
255
255
255
255
255
255
255
255
255
255
255
160
10
0
9
137
255
255
255
255
255
8
0
0
18
255
255
255
255
255
255
255
255
255
255
255
255
255
255
255
255
63
2
2
34
255
255
255
255
255
255
21
0
0
2
255
255
255
255
255
255
255
255
255
255
255
255
255
255
255
255
16
1
3
137
255
255
255
255
255
255
137
0
0
0
186
255
255
255
255
255
255
255
255
255
255
255
255
255
255
255
10
0
4
186
255
255
255
255
255
255
255
1
0
0
117
255
255
255
255
255
255
255
255
255
255
255
255
255
255
255
16
1
3
137
255
255
255
255
255
255
255
3
0
0
25
255
255
255
255
255
255
255
255
255
255
255
255
255
255
255
63
3
1
18
100
186
218
218
186
117
54
4
0
0
9
160
255
255
255
64
64
64
255
255
255
255
255
255
255
255
160
25
1
1
3
3
4
4
3
3
2
1
2
1
2
100
255
160
40
10
0
64
255
255
255
255
255
255
255
255
255
101
16
2
1
1
0
0
1
1
2
13
25
2
2
16
40
10
2
0
16
64
255
255
255
255
255
255
255
255
255
255
159
63
25
10
6
6
10
25
54
137
137
5
0
1
3
0
2
16
64
255
255
255
255
255
255
255
255
255
255
255
255
255
255
255
255
255
255
255
255
218
137
2
0
0
1
10
40
160
255
255
255
255
255
255
255
255
255
255
255
255
255
255
255
255
255
255
255
218
86
22
5
1
0
0
9
160
255
255
255
255
255
255
255
255
255
255
255
255
255
255
255
255
255
255
255
255
160
40
8
1
1
2
0
0
14
255
255
255
255
255
255
255
255
255
255
255
255
255
255
255
255
255
255
255
255
64
16
2
1
5
16
46
2
0
10
255
255
255
255
255
255
255
255
255
255
255
255
255
255
255
255
255
255
218
64
16
0
3
21
86
218
186
3
1
10
255
255
255
255
255
255
255
255
255
255
255
255
255
255
255
255
255
255
86
13
1
14
40
159
255
255
117
3
1
25
255
255
255
255
255
255
255
255
255
255
255
255
255
255
255
255
255
255
86
1
5
29
218
255
255
255
34
2
2
63
255
255
255
255
255
255
255
255
255
255
255
255
255
255
255
255
255
255
101
16
1
4
16
40
63
63
6
0
10
160
255
255
255
255
255
255
255
255
255
255
255
255
255
255
255
255
255
255
255
64
13
1
1
2
2
5
2
8
40
255
255
255
255
255
255
255
255
255
255
255
255
255
255
255
255
255
255
255
255
218
86
21
5
2
2
5
16
64
160
255
255
255
255
255
255
255
255
255
255
255
255
255
255
255
255
255
255
255
255
255
255
218
137
85
63
100
160
255
255
255
255
255
255
255
255
255
255
255
255
255
255
255
255
255
255
255
255
255
255
255
255
255
255
255
255
255
255
255
255
255
255
255
255
255
255
255
255
255
255
255
255
255
255
255
255
255
255
255
255
255
255
255
255
255
255
255
255
255
255
255
255
255
255
255
255
255
255
255
255
255
255
255
255
255
255
255
255
255
255
255
255
255
255
255
255
255
255
255
255
255
255
255
255
255
255
255
255
255
