P2
# CREATOR: GIMP PNM Filter Version 1.1
30 30
255
255
255
255
255
255
255
255
255
255
255
255
255
255
255
255
255
255
255
255
255
255
255
255
255
255
255
255
255
255
255
255
255
255
255
255
255
255
218
137
54
25
16
16
16
16
16
16
10
21
40
160
207
255
255
255
255
255
255
255
255
255
255
255
255
255
255
160
40
8
2
1
1
1
1
1
1
1
1
0
12
48
160
255
255
255
255
255
255
255
255
255
255
255
255
255
160
16
2
1
2
3
3
3
3
3
3
3
3
3
3
19
160
255
255
255
255
255
255
255
255
255
255
255
255
218
40
2
1
10
54
116
159
159
159
159
159
159
136
4
1
6
177
255
255
255
255
255
255
255
255
255
255
255
255
86
8
1
14
100
255
255
255
255
255
255
255
255
186
1
0
1
137
255
255
255
255
255
255
255
255
255
255
255
255
34
1
3
74
255
255
255
255
255
255
255
255
255
218
1
0
0
73
255
255
255
255
255
255
255
255
255
255
255
255
16
1
3
159
255
255
255
255
255
255
255
255
255
255
4
0
0
34
255
255
255
255
255
255
255
255
255
255
255
255
25
1
3
117
255
255
255
255
255
255
255
255
255
255
9
0
0
18
255
255
255
255
255
255
255
255
255
255
255
255
63
3
2
34
218
255
255
255
255
255
255
255
255
160
9
0
0
9
255
255
255
255
255
255
255
255
255
255
255
255
160
25
1
5
35
160
255
255
255
255
255
255
186
35
3
0
0
6
218
255
255
255
255
255
255
255
255
255
255
255
255
101
16
0
2
10
25
85
117
159
159
117
29
4
1
1
1
3
137
255
255
255
255
255
255
255
255
255
255
255
255
255
64
16
2
0
2
2
3
3
3
3
2
1
16
16
2
2
86
255
255
255
255
255
255
255
255
255
255
255
255
255
255
160
40
10
2
2
1
1
1
1
3
25
101
63
2
2
63
255
255
255
255
255
255
255
255
255
255
255
255
255
255
255
255
160
100
40
25
16
16
25
63
160
255
63
2
2
63
255
255
255
255
255
255
255
255
255
255
255
255
255
255
255
255
255
255
255
255
255
255
255
255
255
255
63
2
2
63
255
218
54
34
40
218
255
255
255
255
255
255
255
255
255
255
255
255
255
255
255
255
255
255
255
255
63
2
2
40
63
16
2
0
13
218
255
255
255
255
255
255
255
255
255
255
255
255
255
255
255
255
255
255
255
218
34
0
0
2
2
1
0
2
16
218
255
255
255
255
255
255
255
255
255
255
255
255
255
255
255
255
160
63
16
6
1
0
0
0
2
5
16
63
160
255
255
255
255
255
255
255
255
255
255
255
255
255
255
255
255
64
16
2
1
0
0
0
0
3
34
137
218
255
255
255
255
255
255
255
255
255
255
255
255
255
255
255
255
255
64
16
0
2
3
6
1
0
3
117
255
255
255
255
255
255
255
255
255
255
255
255
255
255
255
255
255
255
218
64
16
0
10
34
137
117
5
1
16
218
255
255
255
255
255
255
255
255
255
255
255
255
255
255
255
255
255
255
86
13
1
22
64
255
218
34
2
3
63
255
255
255
255
255
255
255
255
255
255
255
255
255
255
255
255
255
255
255
34
1
5
86
255
255
137
8
1
16
160
255
255
255
255
255
255
255
255
255
255
255
255
255
255
255
255
255
255
255
25
2
6
74
86
54
13
1
5
63
255
255
255
255
255
255
255
255
255
255
255
255
255
255
255
255
255
255
255
255
64
13
2
2
3
1
1
2
40
160
255
255
255
255
255
255
255
255
255
255
255
255
255
255
255
255
255
255
255
255
218
55
7
2
1
1
2
16
160
255
255
255
255
255
255
255
255
255
255
255
255
255
255
255
255
255
255
255
255
255
255
159
100
39
40
40
100
159
255
255
255
255
255
255
255
255
255
255
255
255
255
255
255
255
255
255
255
255
255
255
255
255
255
255
255
255
255
255
255
255
255
255
255
255
255
255
255
255
255
255
255
255
255
255
255
255
255
255
255
255
255
255
255
255
255
255
255
255
255
255
255
255
255
255
255
255
255
255
255
