P2
# CREATOR: GIMP PNM Filter Version 1.1
30 30
255
255
255
255
255
255
255
255
255
255
255
255
255
255
255
255
255
255
255
255
255
255
255
255
255
255
255
255
255
255
255
255
255
255
255
255
255
255
255
255
255
218
137
85
63
63
63
63
63
82
100
160
207
255
255
255
255
255
255
255
255
255
255
255
255
255
255
218
137
54
16
6
3
2
2
2
2
2
2
5
12
48
160
255
255
255
255
255
255
255
255
255
255
255
255
255
101
25
5
2
1
0
1
2
2
2
2
1
1
1
10
48
160
255
255
255
255
255
255
255
255
255
255
255
255
100
4
0
1
2
3
6
16
40
63
62
53
4
0
2
53
159
207
255
255
255
255
255
255
255
255
255
255
255
255
63
0
0
4
54
136
218
255
255
255
255
218
2
0
0
85
255
255
255
255
255
255
255
255
255
255
255
255
255
255
40
1
1
34
255
255
255
255
255
255
255
218
1
0
0
54
255
255
255
255
255
255
255
255
255
255
255
255
255
255
85
2
2
40
255
255
255
255
255
255
255
160
1
0
0
53
255
255
255
255
255
255
255
255
255
255
255
255
255
255
137
5
1
16
218
255
255
255
255
218
86
22
1
0
0
34
255
255
255
255
255
255
255
255
255
255
255
255
255
255
218
25
1
3
35
160
255
218
137
34
8
1
3
1
1
16
255
255
255
218
137
34
40
64
255
255
255
255
255
255
255
101
16
0
2
4
4
4
3
2
1
8
34
4
0
6
218
218
86
22
5
2
0
64
255
255
255
255
255
255
255
255
64
16
2
0
0
0
1
3
21
86
218
16
1
3
46
22
5
1
1
2
16
64
255
255
255
255
255
255
255
255
255
160
40
10
4
6
16
63
159
255
255
40
1
0
3
1
1
5
16
63
159
255
255
255
255
255
255
255
255
255
255
255
255
255
255
255
255
255
255
255
160
10
0
0
0
5
21
86
218
255
255
255
255
255
255
255
255
255
255
255
255
255
255
255
255
255
255
255
160
40
10
1
0
0
5
86
218
255
255
255
255
255
255
255
255
255
255
255
255
255
255
255
255
255
255
255
160
40
10
2
0
1
0
1
39
255
255
255
255
255
255
255
255
255
255
255
255
255
255
255
255
255
255
255
255
101
25
3
0
2
10
13
1
2
40
255
255
255
255
255
255
255
255
255
255
255
255
255
255
255
255
255
255
255
64
16
1
2
10
40
159
117
3
1
25
255
255
255
255
255
255
255
255
255
255
255
255
255
255
255
255
255
218
64
16
0
8
40
160
255
255
159
3
1
16
255
255
255
255
255
255
255
255
255
255
255
255
255
255
255
255
218
55
13
1
21
55
218
255
255
255
159
3
1
16
255
255
255
255
255
255
255
255
255
255
255
255
255
255
255
255
186
11
1
10
101
255
255
255
255
255
159
3
1
16
255
255
255
255
255
255
255
255
255
255
255
255
255
255
255
255
186
13
1
13
86
218
255
255
255
255
117
3
1
25
255
255
255
255
255
255
255
255
255
255
255
255
255
255
255
255
218
64
16
1
5
22
86
218
255
255
86
2
2
40
255
255
255
255
255
255
255
255
255
255
255
255
255
255
255
255
255
255
64
13
1
1
5
16
63
160
63
2
2
63
255
255
255
255
255
255
255
255
255
255
255
255
255
255
255
255
255
255
218
86
21
5
1
1
3
10
4
1
2
100
255
255
255
255
255
255
255
255
255
255
255
255
255
255
255
255
255
255
255
255
218
86
21
5
2
1
1
0
16
160
255
255
255
255
255
255
255
255
255
255
255
255
255
255
255
255
255
255
255
255
255
255
218
137
34
8
3
16
64
255
255
255
255
255
255
255
255
255
255
255
255
255
255
255
255
255
255
255
255
255
255
255
255
255
218
186
186
218
255
255
255
255
255
255
255
255
255
255
255
255
255
255
255
255
255
255
255
255
255
255
255
255
255
255
255
255
255
255
255
255
255
255
255
255
255
255
255
255
255
255
255
255
255
255
255
255
255
255
255
255
255
255
255
255
255
255
255
255
255
255
255
255
255
255
255
255
255
255
255
