P2
# CREATOR: GIMP PNM Filter Version 1.1
30 30
255
255
255
255
255
255
255
255
255
255
255
255
255
255
255
255
255
255
255
255
255
255
255
255
255
255
255
255
255
255
255
255
255
255
255
255
255
255
251
218
177
87
63
32
59
137
190
202
218
251
255
255
255
255
255
255
255
255
255
255
255
255
255
255
255
255
255
255
152
25
13
3
3
3
6
7
5
6
16
86
255
255
255
255
255
255
255
255
255
255
255
255
255
255
255
255
192
53
21
1
2
3
2
2
2
1
0
2
3
86
255
255
255
255
255
255
255
255
255
255
255
255
255
255
160
64
34
3
0
1
16
33
63
24
8
2
2
2
6
29
236
255
255
255
255
255
255
255
255
255
255
255
255
255
112
20
11
3
1
13
186
236
207
160
104
110
29
2
0
2
54
222
255
255
255
255
255
255
255
255
255
255
255
255
33
4
4
41
86
124
251
255
255
255
255
255
55
0
0
0
6
218
255
255
255
255
255
255
255
255
255
255
207
130
16
2
10
186
255
255
255
255
255
255
255
255
99
2
0
0
1
137
255
255
255
255
255
255
255
255
255
255
160
12
1
1
21
202
255
255
255
255
255
255
255
255
255
7
0
0
1
146
255
255
255
255
255
255
255
255
255
255
160
7
0
2
81
251
255
255
255
255
255
255
255
255
255
44
0
0
1
86
255
255
255
255
255
255
255
255
255
255
207
13
1
1
95
255
255
255
255
255
255
255
255
255
255
137
1
0
0
93
255
255
255
255
255
255
255
255
255
255
255
54
1
3
46
236
255
255
255
255
255
255
255
255
255
93
1
0
0
60
255
255
255
255
255
255
255
255
255
255
255
106
10
0
7
84
255
255
255
255
255
255
255
255
160
25
0
0
0
55
255
255
255
255
255
255
255
255
255
255
255
218
35
1
0
12
119
139
255
255
255
255
255
236
137
11
1
0
1
68
236
255
255
255
255
255
255
255
255
255
255
255
152
3
0
0
4
16
236
255
255
236
137
30
7
8
9
5
4
31
160
255
255
236
160
100
112
160
255
255
255
255
251
22
2
0
0
2
98
86
70
33
1
0
0
6
119
72
13
15
139
255
255
152
23
4
9
64
255
255
255
255
255
88
75
2
0
1
5
1
3
1
0
0
0
13
152
28
3
5
130
255
134
54
3
1
8
64
255
255
255
255
255
255
255
45
28
5
1
0
2
1
0
0
10
101
222
40
3
13
172
160
11
1
1
14
70
159
255
255
255
255
255
255
255
218
186
38
11
9
22
27
33
77
202
255
255
16
0
0
2
15
2
0
2
117
236
255
255
255
255
255
255
255
255
255
251
218
218
222
255
255
255
255
255
255
160
18
0
0
0
15
5
5
13
157
255
255
255
255
255
255
255
255
255
255
255
255
255
255
255
255
255
255
255
255
64
2
0
0
1
40
147
152
218
236
255
255
255
255
255
255
255
255
255
255
255
255
255
255
255
255
255
160
63
10
4
1
0
1
46
255
255
255
255
255
255
255
255
255
255
255
255
255
255
255
255
255
255
255
255
207
148
25
3
0
0
1
0
1
86
255
255
255
255
255
255
255
255
255
255
255
255
255
255
255
255
255
255
255
236
54
9
1
1
0
1
0
0
7
137
255
255
255
255
255
255
255
255
255
255
255
255
255
255
255
255
255
251
137
86
8
1
1
7
33
17
1
1
31
255
255
255
255
255
255
255
255
255
255
255
255
255
255
255
255
255
255
164
9
3
1
6
16
110
124
11
0
0
38
255
255
255
255
255
255
255
255
255
255
255
255
255
255
255
255
255
236
53
0
0
2
88
165
160
45
2
0
1
53
255
255
255
255
255
255
255
255
255
255
255
255
255
255
255
255
255
218
19
0
0
1
12
13
7
2
0
1
19
152
255
255
255
255
255
255
255
255
255
255
255
255
255
255
255
255
255
218
32
1
0
0
1
0
0
0
0
7
127
255
255
255
255
255
255
255
255
255
255
255
255
255
255
255
255
255
255
236
160
47
3
1
1
0
0
1
6
43
202
255
255
255
255
255
255
255
255
255
255
