P2
# CREATOR: GIMP PNM Filter Version 1.1
30 30
255
255
255
255
255
255
255
255
255
255
255
255
255
255
255
255
255
255
255
255
255
255
255
255
255
255
255
255
255
255
255
255
255
255
255
255
255
255
255
255
255
255
255
255
255
255
218
218
218
255
255
255
255
255
255
255
255
255
255
255
255
255
255
255
255
255
255
255
218
218
45
32
20
35
36
38
29
25
39
160
236
255
255
255
255
255
255
255
255
255
255
255
255
255
255
255
117
40
9
6
2
0
2
1
0
0
1
0
9
58
218
255
255
255
255
255
255
255
255
255
255
255
255
255
255
255
22
1
0
1
0
3
2
1
0
0
0
1
7
58
218
255
255
255
255
255
255
255
255
255
255
255
255
255
255
101
9
0
1
8
19
60
94
38
36
2
0
0
22
160
236
255
255
255
255
255
255
255
255
255
255
255
255
255
222
34
1
3
29
219
255
255
255
255
255
3
0
0
6
178
255
255
255
255
255
255
255
255
255
255
255
255
255
255
101
7
2
6
148
255
255
255
255
255
255
1
0
0
0
112
255
255
255
255
255
255
255
255
255
255
255
255
255
255
101
5
1
4
65
255
255
255
255
207
148
0
0
0
0
40
255
255
255
255
255
255
255
255
255
255
255
255
255
255
134
25
0
1
54
218
218
255
255
130
26
0
0
0
0
58
255
255
255
255
255
255
255
255
255
255
255
255
255
255
255
70
1
1
1
18
48
137
60
6
1
0
0
0
2
65
255
255
255
255
255
255
255
255
255
255
255
255
255
255
255
165
9
0
0
1
5
7
2
0
1
2
4
3
19
100
236
255
255
255
255
255
255
255
255
255
255
255
255
255
255
255
25
2
0
1
2
1
1
0
6
40
82
5
2
6
115
160
160
148
130
100
112
207
255
255
255
255
255
255
255
255
160
87
29
13
9
16
11
26
137
236
236
19
0
1
63
51
19
21
6
2
12
160
255
255
255
255
255
255
255
255
255
255
236
159
159
144
159
159
207
255
255
35
3
1
4
8
3
5
1
1
12
160
255
255
255
255
255
255
255
255
255
255
255
255
255
255
255
255
255
255
236
32
1
0
0
1
16
14
7
22
70
207
255
255
255
255
255
255
255
255
255
255
255
255
255
255
255
255
255
255
177
6
0
0
0
18
71
159
159
236
255
255
255
255
255
255
255
255
255
255
255
255
255
255
255
255
255
152
25
10
13
1
0
0
2
56
255
255
255
255
255
255
255
255
255
255
255
255
255
255
255
255
255
255
255
112
40
6
1
0
6
9
1
1
13
218
255
255
255
255
255
255
255
255
255
255
255
255
255
255
255
255
255
236
190
9
1
0
0
1
15
62
7
3
25
177
255
255
255
255
255
255
255
255
255
255
255
255
255
255
255
255
255
137
36
1
0
1
5
31
202
93
8
3
15
157
255
255
255
255
255
255
255
255
255
255
255
255
255
255
255
255
255
44
1
0
4
27
148
160
236
100
5
1
19
160
255
255
255
255
255
255
255
255
255
255
255
255
255
255
255
255
255
28
0
0
51
222
255
255
255
55
1
0
10
207
255
255
255
255
255
255
255
255
255
255
255
255
255
255
255
255
255
45
4
6
74
255
255
255
255
44
1
0
24
255
255
255
255
255
255
255
255
255
255
255
255
255
255
255
255
255
255
152
31
1
6
23
218
202
93
10
1
2
34
255
255
255
255
255
255
255
255
255
255
255
255
255
255
255
255
255
255
218
50
2
0
13
25
20
12
3
5
63
222
255
255
255
255
255
255
255
255
255
255
255
255
255
255
255
255
255
255
236
136
10
11
10
3
0
1
3
25
160
255
255
255
255
255
255
255
255
255
255
255
255
255
255
255
255
255
255
255
255
255
255
255
112
8
1
1
34
178
255
255
255
255
255
255
255
255
255
255
255
255
255
255
255
255
255
255
255
255
255
255
255
255
207
111
25
26
59
255
255
255
255
255
255
255
255
255
255
255
255
255
255
255
255
255
255
255
255
255
255
255
255
255
255
255
218
218
218
255
255
255
255
255
255
255
255
255
255
255
255
255
