P2
# CREATOR: GIMP PNM Filter Version 1.1
30 30
255
255
255
255
255
255
255
255
255
255
255
255
255
255
255
255
255
255
255
255
255
255
255
255
255
255
255
255
255
255
255
255
255
255
255
255
255
255
255
255
255
255
255
255
255
255
255
255
255
255
255
255
255
255
255
255
255
255
255
255
255
255
255
255
255
255
255
255
255
255
255
255
255
255
255
255
255
255
255
255
255
255
255
255
255
255
255
255
255
255
255
255
255
255
255
255
255
255
255
255
255
255
255
255
255
207
160
160
207
255
255
255
255
255
255
255
255
255
255
255
255
255
255
255
255
255
255
255
255
255
255
255
255
255
255
160
48
48
160
255
255
255
255
255
255
255
255
255
255
255
255
255
255
255
255
255
255
255
255
255
255
255
255
255
255
160
48
48
160
255
255
255
255
255
255
255
255
255
255
255
255
255
255
255
255
255
255
255
255
255
255
255
255
255
255
207
160
160
207
255
255
255
255
255
255
255
255
255
255
255
255
255
255
255
255
255
255
255
255
255
255
255
255
255
255
255
255
255
255
255
255
255
255
255
255
255
255
255
255
255
255
255
255
255
255
255
255
255
255
255
255
255
255
255
255
255
255
255
255
255
255
255
255
255
255
255
255
255
255
255
255
255
255
255
255
255
255
255
255
255
255
255
255
255
255
236
218
218
236
255
255
255
255
255
255
255
255
255
255
255
255
255
255
255
255
255
255
255
255
255
255
255
255
255
255
160
47
36
100
207
255
255
255
255
255
255
255
255
255
255
255
255
255
255
255
255
255
255
255
255
255
255
255
255
255
100
4
1
12
160
255
255
255
255
255
255
255
255
255
255
255
255
255
255
255
255
255
255
255
255
255
255
255
255
255
112
1
0
3
112
255
255
255
255
255
255
255
255
255
255
255
255
255
255
255
255
255
255
255
255
255
255
255
255
255
86
1
0
0
82
255
255
255
255
255
255
255
255
255
255
255
255
255
255
255
255
255
160
160
160
255
255
255
255
255
55
1
0
1
101
255
255
255
255
255
255
255
255
255
255
255
255
255
255
255
255
109
16
8
45
255
255
255
255
255
9
0
0
8
178
255
255
255
255
255
255
255
255
255
255
255
255
255
255
255
255
63
1
1
22
207
255
255
255
255
3
0
0
22
255
255
255
255
255
255
255
255
255
255
255
255
255
255
255
255
255
63
2
0
3
93
255
255
255
255
3
0
0
34
255
255
255
255
255
255
255
255
255
255
255
255
255
255
255
255
255
105
2
0
0
60
255
255
255
207
22
1
1
53
255
255
255
255
255
255
255
255
255
255
255
255
255
255
255
255
255
135
0
0
0
37
255
255
255
112
0
0
1
100
255
255
255
255
255
255
255
255
255
255
255
255
255
255
255
255
255
117
0
0
0
50
255
255
255
100
0
0
0
160
255
255
255
255
255
255
255
255
255
255
255
255
255
255
255
255
255
202
5
0
0
5
53
205
70
9
0
0
1
255
255
255
255
255
255
255
255
255
255
255
255
255
255
255
255
255
255
222
63
7
0
0
6
34
3
0
0
8
85
255
255
255
255
255
255
255
255
255
255
255
255
255
255
255
255
255
255
255
255
54
0
0
1
3
1
0
0
25
255
255
255
255
255
255
255
255
255
255
255
255
255
255
255
255
255
255
255
255
255
99
28
7
3
5
20
16
38
82
255
255
255
255
255
255
255
255
255
255
255
255
255
255
255
255
255
255
255
255
255
222
218
126
97
99
178
255
255
255
255
255
255
255
255
255
255
255
255
255
255
255
255
255
255
255
255
255
255
255
255
255
255
255
255
255
255
255
255
255
255
255
255
255
255
255
255
255
255
255
255
255
255
255
255
255
255
255
255
255
255
255
255
255
255
255
255
255
255
255
255
255
255
255
255
255
255
255
255
255
255
255
255
255
255
255
255
255
255
255
255
255
255
255
255
255
255
255
255
255
255
255
255
255
255
255
255
255
255
255
255
255
255
255
255
255
255
255
255
255
255
255
255
255
255
255
255
255
255
255
255
255
255
255
255
255
255
255
255
255
255
255
255
255
