P2
# CREATOR: GIMP PNM Filter Version 1.1
30 30
255
255
255
255
255
255
255
255
255
255
255
255
255
255
255
255
255
255
255
255
255
255
255
255
255
255
255
255
255
255
255
255
255
255
255
255
255
255
255
255
255
255
255
255
255
255
255
255
255
255
255
255
255
255
255
255
255
255
255
255
255
255
255
255
255
255
255
255
255
255
255
255
255
255
255
251
218
218
222
255
255
255
255
255
255
255
255
255
255
255
255
255
255
255
255
255
255
255
255
255
255
255
255
255
255
218
63
53
101
255
255
255
255
255
255
255
255
255
255
255
255
255
255
255
255
255
255
255
255
255
255
255
255
255
255
218
53
24
101
255
255
255
255
255
255
255
255
255
255
255
255
255
255
255
255
255
255
255
255
255
255
255
255
255
255
222
101
101
134
255
255
255
255
255
255
255
255
255
255
255
255
255
255
255
255
255
255
255
255
255
255
255
255
255
255
255
255
255
255
255
255
255
255
255
255
255
255
255
255
255
255
255
255
255
255
255
255
255
255
255
255
255
255
255
255
255
255
255
255
255
255
255
255
255
255
255
255
255
255
255
255
255
255
255
255
255
255
255
255
255
255
255
255
255
255
236
160
160
178
255
255
255
255
255
255
255
255
255
255
255
255
255
255
255
255
255
255
255
255
255
255
255
255
255
255
218
15
10
25
255
255
255
255
255
255
255
255
255
255
255
255
255
255
255
255
255
255
255
255
255
255
255
255
255
255
218
4
0
6
255
255
255
255
255
255
255
255
255
255
255
255
255
255
255
255
255
255
255
255
255
255
255
255
255
255
236
4
0
3
218
255
255
255
255
255
255
255
255
255
255
255
255
255
255
255
255
255
255
255
255
255
255
255
255
255
255
17
2
8
202
255
255
255
255
255
255
255
255
255
255
255
255
255
255
255
255
255
255
255
255
255
255
255
255
255
101
2
1
3
151
255
255
255
255
255
255
255
255
255
255
255
255
255
255
255
207
137
137
177
255
255
255
255
255
255
81
1
0
1
111
255
255
255
255
255
255
255
255
255
255
255
255
255
255
255
160
12
10
40
255
255
255
255
255
255
24
0
0
0
93
255
255
255
255
255
255
255
255
255
255
255
255
255
255
255
34
0
0
10
255
255
255
255
255
255
12
0
0
7
130
255
255
255
255
255
255
255
255
255
255
255
255
255
255
255
15
0
0
12
255
255
255
255
255
255
4
0
1
58
207
255
255
255
255
255
255
255
255
255
255
255
255
255
255
255
9
0
0
21
207
255
255
255
255
165
2
0
4
251
255
255
255
255
255
255
255
255
255
255
255
255
255
255
255
255
54
3
1
10
84
255
255
255
255
70
0
0
7
255
255
255
255
255
255
255
255
255
255
255
255
255
255
255
255
255
134
54
2
1
16
160
255
255
255
16
0
0
25
255
255
255
255
255
255
255
255
255
255
255
255
255
255
255
255
255
255
177
20
2
2
28
95
255
218
7
0
2
104
255
255
255
255
255
255
255
255
255
255
255
255
255
255
255
255
255
255
251
85
2
0
0
4
45
82
7
2
22
236
255
255
255
255
255
255
255
255
255
255
255
255
255
255
255
255
255
255
255
160
6
0
0
0
2
2
0
9
101
255
255
255
255
255
255
255
255
255
255
255
255
255
255
255
255
255
255
255
255
207
28
5
1
1
2
1
1
34
255
255
255
255
255
255
255
255
255
255
255
255
255
255
255
255
255
255
255
255
255
255
255
207
92
85
36
15
16
87
255
255
255
255
255
255
255
255
255
255
255
255
255
255
255
255
255
255
255
255
255
255
255
255
255
255
255
255
255
255
255
255
255
255
255
255
255
255
255
255
255
255
255
255
255
255
255
255
255
255
255
255
255
255
255
255
255
255
255
255
255
255
255
255
255
255
255
255
255
255
255
255
255
255
255
255
255
255
255
255
255
255
255
255
255
255
255
255
255
255
255
255
255
255
255
255
255
255
255
255
255
255
255
255
255
255
255
255
255
255
255
255
255
255
255
255
255
255
255
255
255
255
255
255
255
255
255
255
255
255
255
255
255
255
255
