P2
# CREATOR: GIMP PNM Filter Version 1.1
30 30
255
255
255
255
255
255
255
255
255
255
255
255
255
255
255
255
255
255
255
255
255
255
255
255
255
255
255
255
255
255
255
255
255
255
255
255
255
255
255
255
255
255
255
255
255
255
255
255
255
255
255
255
255
255
255
255
255
255
255
255
255
255
255
255
255
255
255
255
255
255
255
255
255
255
255
255
255
255
255
255
255
255
255
255
255
255
255
255
255
255
255
255
255
255
255
255
255
255
255
255
255
255
255
255
236
160
160
178
255
255
255
255
255
255
255
255
255
255
255
255
255
255
255
255
255
255
255
255
255
255
255
255
255
255
218
58
38
101
255
255
255
255
255
255
255
255
255
255
255
255
255
255
255
255
255
255
255
255
255
255
255
255
255
255
218
58
38
101
255
255
255
255
255
255
255
255
255
255
255
255
255
255
255
255
255
255
255
255
255
255
255
255
255
255
236
159
159
178
255
255
255
255
255
255
255
255
255
255
255
255
255
255
255
255
255
255
255
255
255
255
255
255
255
255
255
255
255
255
255
255
255
255
255
255
255
255
255
255
255
255
255
255
255
255
255
255
255
255
255
255
255
255
255
255
255
255
255
255
255
255
255
255
255
255
255
255
255
255
255
255
255
255
255
255
255
255
255
255
255
255
255
255
255
255
255
255
255
255
255
255
255
255
255
255
255
255
255
255
255
255
255
255
255
255
255
255
255
255
255
255
255
255
255
255
160
56
55
137
251
255
255
255
255
255
255
255
255
255
255
255
255
255
255
255
255
255
255
255
255
255
255
255
255
236
100
8
5
40
218
255
255
255
255
255
255
255
255
255
255
255
255
255
255
255
255
255
255
255
255
255
255
255
255
218
16
1
0
7
218
255
255
255
255
255
255
255
255
255
255
255
255
255
255
255
255
255
255
255
255
255
255
255
255
218
4
0
0
13
180
255
255
255
255
255
255
255
255
255
255
255
255
255
255
255
222
101
71
84
160
236
255
255
255
236
6
0
0
9
160
255
255
255
255
255
255
255
255
255
255
255
255
255
255
255
218
19
2
4
47
218
255
255
255
255
30
2
1
14
160
255
255
255
255
255
255
255
255
255
255
255
255
255
255
255
218
7
0
0
30
218
255
255
255
255
130
6
1
23
207
255
255
255
255
255
255
255
255
255
255
255
255
255
255
255
251
13
0
0
46
236
255
255
255
255
95
2
1
20
255
255
255
255
255
255
255
255
255
255
255
255
255
255
255
255
255
45
1
1
13
160
255
255
255
251
74
2
2
53
255
255
255
255
255
255
255
255
255
255
255
255
255
255
255
255
255
80
2
0
5
160
255
255
255
218
25
2
5
100
255
255
255
255
255
255
255
255
255
255
255
255
255
255
255
255
255
137
4
1
6
139
255
255
255
218
30
9
40
192
255
255
255
255
255
255
255
255
255
255
255
255
255
255
255
255
255
192
24
3
5
85
178
255
236
100
14
6
26
218
255
255
255
255
255
255
255
255
255
255
255
255
255
255
255
255
255
255
40
1
0
5
23
40
63
16
2
5
50
218
255
255
255
255
255
255
255
255
255
255
255
255
255
255
255
255
255
255
87
6
2
4
1
2
6
6
6
24
136
236
255
255
255
255
255
255
255
255
255
255
255
255
255
255
255
255
255
255
160
59
40
25
8
2
7
35
86
152
251
255
255
255
255
255
255
255
255
255
255
255
255
255
255
255
255
255
255
255
255
255
255
218
126
85
99
178
255
255
255
255
255
255
255
255
255
255
255
255
255
255
255
255
255
255
255
255
255
255
255
255
255
255
255
255
255
255
255
255
255
255
255
255
255
255
255
255
255
255
255
255
255
255
255
255
255
255
255
255
255
255
255
255
255
255
255
255
255
255
255
255
255
255
255
255
255
255
255
255
255
255
255
255
255
255
255
255
255
255
255
255
255
255
255
255
255
255
255
255
255
255
255
255
255
255
255
255
255
255
255
255
255
255
255
255
255
255
255
255
255
255
255
255
255
255
255
255
255
255
255
255
255
255
255
255
255
255
255
255
255
255
255
255
255
