P2
# CREATOR: GIMP PNM Filter Version 1.1
30 30
255
255
255
255
255
255
255
255
255
255
255
255
255
255
255
255
255
255
255
255
255
255
255
255
255
255
255
255
255
255
255
255
255
255
255
255
255
255
255
255
255
255
255
255
255
255
255
255
255
255
255
255
255
255
255
255
255
255
255
255
255
255
255
255
255
255
255
255
255
255
255
255
255
255
255
255
255
255
255
255
255
255
255
255
255
255
255
255
255
255
255
255
255
255
255
255
255
255
255
255
255
255
255
255
255
255
236
218
218
236
255
255
255
255
255
255
255
255
255
255
255
255
255
255
255
255
255
255
255
255
255
255
255
255
255
255
160
58
58
160
255
255
255
255
255
255
255
255
255
255
255
255
255
255
255
255
255
255
255
255
255
255
255
255
255
255
160
38
38
160
255
255
255
255
255
255
255
255
255
255
255
255
255
255
255
255
255
255
255
255
255
255
255
255
255
255
178
101
101
178
255
255
255
255
255
255
255
255
255
255
255
255
255
255
255
255
255
255
255
255
255
255
255
255
255
255
255
255
255
255
255
255
255
255
255
255
255
255
255
255
255
255
255
255
255
255
255
255
255
255
255
255
255
255
255
255
255
255
255
255
255
255
255
255
255
255
255
255
255
255
255
255
255
255
255
255
255
255
255
255
255
255
255
255
255
255
255
255
255
255
255
255
255
255
255
255
255
255
255
255
255
255
255
255
255
255
255
255
255
255
255
255
255
255
255
255
255
255
255
255
255
255
255
255
255
255
255
255
255
255
255
255
255
255
255
255
255
255
255
255
255
255
255
255
255
255
207
160
160
207
255
255
255
255
255
255
255
255
255
255
255
255
255
255
255
255
255
255
255
255
255
255
255
255
255
215
32
7
10
112
255
255
255
255
255
255
255
255
255
255
255
255
255
255
255
255
255
255
255
255
255
255
255
255
255
186
6
0
1
63
255
255
255
255
255
255
255
255
255
255
255
255
255
255
255
255
255
255
255
255
255
255
255
255
255
186
2
0
1
82
255
255
255
255
255
255
255
255
255
255
255
255
255
255
255
255
255
255
255
255
255
255
255
255
255
205
6
1
6
178
255
255
255
255
255
255
255
255
255
255
255
255
255
255
255
255
255
255
255
255
255
255
255
255
255
177
4
0
8
255
255
255
255
255
255
255
255
255
255
255
255
255
255
255
255
255
255
222
101
101
134
255
255
255
255
137
3
0
6
134
255
255
255
255
255
255
255
255
255
255
255
255
255
255
255
255
255
202
45
21
93
255
255
255
255
97
6
1
3
101
255
255
255
255
255
255
255
255
255
255
255
255
255
255
255
255
255
137
9
7
40
255
255
255
255
70
0
0
1
71
255
255
255
255
255
255
255
255
255
255
255
255
255
255
255
255
255
157
9
4
35
255
255
255
255
38
0
0
1
139
255
255
255
255
255
255
255
255
255
255
255
255
255
255
255
255
255
178
6
3
10
236
255
255
255
28
0
0
2
160
255
255
255
255
255
255
255
255
255
255
255
255
255
255
255
255
255
255
25
0
8
137
255
137
40
6
0
0
34
236
255
255
255
255
255
255
255
255
255
255
255
255
255
255
255
255
255
255
40
3
1
9
34
7
1
0
3
13
95
255
255
255
255
255
255
255
255
255
255
255
255
255
255
255
255
255
255
255
178
25
1
1
0
0
0
0
8
137
207
255
255
255
255
255
255
255
255
255
255
255
255
255
255
255
255
255
255
255
255
101
16
1
0
0
0
1
31
218
255
255
255
255
255
255
255
255
255
255
255
255
255
255
255
255
255
255
255
255
255
255
130
56
15
23
33
100
148
236
255
255
255
255
255
255
255
255
255
255
255
255
255
255
255
255
255
255
255
255
255
255
255
255
255
255
255
255
255
255
255
255
255
255
255
255
255
255
255
255
255
255
255
255
255
255
255
255
255
255
255
255
255
255
255
255
255
255
255
255
255
255
255
255
255
255
255
255
255
255
255
255
255
255
255
255
255
255
255
255
255
255
255
255
255
255
255
255
255
255
255
255
255
255
255
255
255
255
255
255
255
255
255
