P2
# CREATOR: GIMP PNM Filter Version 1.1
30 30
255
255
255
255
255
255
255
255
255
255
255
255
255
255
255
255
255
255
255
255
255
255
255
255
255
255
255
255
255
255
255
255
255
255
255
255
255
255
255
255
255
255
255
255
255
255
255
255
255
255
255
255
255
255
255
255
255
255
255
255
255
255
255
255
255
255
255
255
255
255
255
255
255
255
255
236
160
160
178
255
255
255
255
255
255
255
255
255
255
255
255
255
255
255
255
255
255
255
255
255
255
255
255
255
255
218
58
38
101
255
255
255
255
255
255
255
255
255
255
255
255
255
255
255
255
255
255
255
255
255
255
255
255
255
255
218
58
38
101
255
255
255
255
255
255
255
255
255
255
255
255
255
255
255
255
255
255
255
255
255
255
255
255
255
255
236
160
160
178
255
255
255
255
255
255
255
255
255
255
255
255
255
255
255
255
255
255
255
255
255
255
255
255
255
255
255
255
255
255
255
255
255
255
255
255
255
255
255
255
255
255
255
255
255
255
255
255
255
255
255
255
255
255
255
255
255
255
255
255
255
255
255
255
255
255
255
255
255
255
255
255
255
255
255
255
255
255
255
255
255
255
255
255
255
255
255
255
255
255
255
255
255
255
255
255
255
255
255
255
255
255
255
255
255
255
255
255
255
255
255
255
255
255
255
255
255
155
86
86
175
255
255
255
255
255
255
255
255
255
255
255
255
255
255
255
255
255
255
255
255
255
255
255
255
255
255
63
8
9
137
255
255
255
255
255
255
255
255
255
255
255
255
255
255
255
255
255
255
255
255
255
255
255
255
255
255
63
3
5
54
178
255
255
255
255
255
255
255
255
255
255
255
255
255
255
255
255
255
255
255
255
255
255
255
255
255
87
21
5
22
160
255
255
255
255
255
255
255
255
255
255
255
255
255
255
255
255
255
255
255
255
255
255
255
255
255
137
6
2
14
160
255
255
255
255
255
255
255
255
255
255
255
255
255
255
255
255
255
255
255
255
255
255
255
255
255
137
4
1
21
236
255
255
255
255
255
255
255
255
255
255
255
255
255
255
255
255
255
218
218
218
255
255
255
255
255
202
3
1
5
251
255
255
255
255
255
255
255
255
255
255
255
255
255
255
255
207
160
40
42
64
255
255
255
255
255
255
2
0
1
186
255
255
255
255
255
255
255
255
255
255
255
255
255
255
255
130
24
5
4
52
255
255
255
255
255
255
2
0
1
186
255
255
255
255
255
255
255
255
255
255
255
255
255
255
255
93
4
0
5
63
255
255
255
255
255
255
3
0
2
165
255
255
255
255
255
255
255
255
255
255
255
255
255
255
255
103
2
1
6
137
255
255
255
255
255
255
2
0
1
218
255
255
255
255
255
255
255
255
255
255
255
255
255
255
255
151
6
1
2
32
236
255
255
255
255
255
2
0
1
218
255
255
255
255
255
255
255
255
255
255
255
255
255
255
255
202
36
2
0
4
137
255
255
222
218
85
3
1
9
251
255
255
255
255
255
255
255
255
255
255
255
255
255
255
255
236
159
10
0
0
15
25
25
19
8
3
1
3
63
255
255
255
255
255
255
255
255
255
255
255
255
255
255
255
255
255
255
70
5
1
1
0
1
1
0
0
4
16
160
255
255
255
255
255
255
255
255
255
255
255
255
255
255
255
255
255
255
160
64
6
0
0
1
2
1
4
87
160
255
255
255
255
255
255
255
255
255
255
255
255
255
255
255
255
255
255
255
255
255
63
18
13
46
74
85
136
236
255
255
255
255
255
255
255
255
255
255
255
255
255
255
255
255
255
255
255
255
255
255
255
255
255
255
255
255
255
255
255
255
255
255
255
255
255
255
255
255
255
255
255
255
255
255
255
255
255
255
255
255
255
255
255
255
255
255
255
255
255
255
255
255
255
255
255
255
255
255
255
255
255
255
255
255
255
255
255
255
255
255
255
255
255
255
255
255
255
255
255
255
255
255
255
255
255
255
255
255
255
255
255
255
255
255
255
255
255
255
255
255
255
255
255
255
255
255
255
255
255
255
255
255
255
255
255
255
255
255
255
255
255
