P2
# CREATOR: GIMP PNM Filter Version 1.1
30 30
255
255
255
255
255
255
255
255
255
255
255
255
255
255
255
255
255
255
255
255
255
255
255
255
255
255
255
255
255
255
255
255
255
255
255
255
255
255
255
255
255
255
255
255
255
255
255
255
255
255
255
255
255
255
255
255
255
255
255
255
255
255
255
255
255
255
255
255
255
255
255
255
255
255
255
255
255
255
255
255
255
255
255
255
255
255
255
255
255
255
255
255
255
255
255
255
255
255
255
255
255
255
255
255
255
222
101
101
134
255
255
255
255
255
255
255
255
255
255
255
255
255
255
255
255
255
255
255
255
255
255
255
255
255
255
218
53
24
101
255
255
255
255
255
255
255
255
255
255
255
255
255
255
255
255
255
255
255
255
255
255
255
255
255
255
218
63
53
101
255
255
255
255
255
255
255
255
255
255
255
255
255
255
255
255
255
255
255
255
255
255
255
255
255
255
251
218
218
222
255
255
255
255
255
255
255
255
255
255
255
255
255
255
255
255
255
255
255
255
255
255
255
255
255
255
255
255
255
255
255
255
255
255
255
255
255
255
255
255
255
255
255
255
255
255
255
255
255
255
255
255
255
255
255
255
255
255
255
255
255
255
255
255
255
255
255
255
255
255
255
255
255
255
255
255
255
255
255
255
255
255
255
255
255
255
255
255
255
255
255
255
255
255
255
255
255
255
255
255
255
255
255
255
255
255
255
255
255
255
255
255
255
255
255
255
255
101
101
101
255
255
255
255
255
255
255
255
255
255
255
255
255
255
255
255
255
255
255
255
255
255
255
255
255
255
219
21
4
30
255
255
255
255
255
255
255
255
255
255
255
255
255
255
255
255
255
255
255
255
255
255
255
255
255
255
186
2
0
4
178
255
255
255
255
255
255
255
255
255
255
255
255
255
255
255
255
255
255
255
255
255
255
255
255
255
186
6
1
3
130
255
255
255
255
255
255
255
255
255
255
255
255
255
255
255
255
255
255
255
255
255
255
255
255
255
178
21
3
3
85
251
255
255
255
255
255
255
255
255
255
255
255
255
255
255
255
255
255
160
160
160
255
255
255
255
160
18
2
3
31
218
255
255
255
255
255
255
255
255
255
255
255
255
255
255
255
255
144
6
3
17
255
255
255
255
160
4
0
0
20
218
255
255
255
255
255
255
255
255
255
255
255
255
255
255
255
236
54
0
0
6
255
255
255
255
180
6
0
1
46
222
255
255
255
255
255
255
255
255
255
255
255
255
255
255
255
190
5
0
0
6
255
255
255
255
218
5
1
2
88
255
255
255
255
255
255
255
255
255
255
255
255
255
255
255
255
186
2
0
0
23
255
255
255
255
218
10
1
3
160
255
255
255
255
255
255
255
255
255
255
255
255
255
255
255
255
202
10
0
0
9
207
255
255
255
178
18
2
11
160
255
255
255
255
255
255
255
255
255
255
255
255
255
255
255
255
251
96
2
0
1
70
85
118
177
38
2
3
50
255
255
255
255
255
255
255
255
255
255
255
255
255
255
255
255
255
255
255
10
2
1
4
1
3
5
1
0
2
117
255
255
255
255
255
255
255
255
255
255
255
255
255
255
255
255
255
255
255
130
100
40
3
0
0
0
0
1
12
154
255
255
255
255
255
255
255
255
255
255
255
255
255
255
255
255
255
255
255
255
255
144
44
4
1
1
3
16
137
236
255
255
255
255
255
255
255
255
255
255
255
255
255
255
255
255
255
255
255
255
255
255
236
112
87
66
127
157
236
255
255
255
255
255
255
255
255
255
255
255
255
255
255
255
255
255
255
255
255
255
255
255
255
255
255
255
255
255
255
255
255
255
255
255
255
255
255
255
255
255
255
255
255
255
255
255
255
255
255
255
255
255
255
255
255
255
255
255
255
255
255
255
255
255
255
255
255
255
255
255
255
255
255
255
255
255
255
255
255
255
255
255
255
255
255
255
255
255
255
255
255
255
255
255
255
255
255
255
255
255
255
255
255
255
255
255
255
255
255
255
255
255
255
255
255
255
255
255
255
255
255
255
255
255
255
255
255
255
255
255
255
255
