P2
# CREATOR: GIMP PNM Filter Version 1.1
30 30
255
255
255
255
255
255
255
255
255
255
255
255
255
255
255
255
255
255
255
255
255
255
255
255
255
255
255
255
255
255
255
255
255
255
255
255
255
255
255
255
255
255
255
255
255
255
255
255
255
255
255
255
255
255
255
255
255
255
255
255
255
255
255
255
255
255
255
255
255
255
255
255
255
255
255
255
255
255
255
255
255
255
255
255
255
255
255
255
255
255
255
255
255
255
255
255
255
255
255
255
255
255
255
255
255
255
101
101
101
255
255
255
255
255
255
255
255
255
255
255
255
255
255
255
255
255
255
255
255
255
255
255
255
255
255
255
64
13
64
255
255
255
255
255
255
255
255
255
255
255
255
255
255
255
255
255
255
255
255
255
255
255
255
255
255
255
64
52
64
255
255
255
255
255
255
255
255
255
255
255
255
255
255
255
255
255
255
255
255
255
255
255
255
255
255
255
218
218
218
255
255
255
255
255
255
255
255
255
255
255
255
255
255
255
255
255
255
255
255
255
255
255
255
255
255
255
255
255
255
255
255
255
255
255
255
255
255
255
255
255
255
255
255
255
255
255
255
255
255
255
255
255
255
255
255
255
255
255
255
255
255
255
255
255
255
255
255
255
255
255
255
255
255
255
255
255
255
255
255
255
255
255
255
255
255
255
255
255
255
255
255
255
255
255
255
255
255
255
255
255
255
255
255
255
255
255
255
255
255
255
255
255
255
255
255
255
130
40
40
130
255
255
255
255
255
255
255
255
255
255
255
255
255
255
255
255
255
255
255
255
255
255
255
255
255
255
98
5
5
87
255
255
255
255
255
255
255
255
255
255
255
255
255
255
255
255
255
255
255
255
255
255
255
255
255
255
80
2
2
37
255
255
255
255
255
255
255
255
255
255
255
255
255
255
255
255
255
255
255
255
255
255
255
255
255
255
77
4
2
47
255
255
255
255
255
255
255
255
255
255
255
255
255
255
255
255
255
255
255
255
255
255
255
255
255
255
19
0
0
33
255
255
255
255
255
255
255
255
255
255
255
255
255
255
255
255
255
255
255
255
255
255
255
255
255
255
3
0
0
12
255
255
255
255
255
255
255
255
255
255
255
255
255
255
255
255
255
255
255
255
255
255
255
255
255
255
3
0
0
12
255
255
255
255
255
255
255
255
255
255
255
255
255
255
255
255
222
177
137
157
207
255
255
255
255
255
8
0
0
28
255
255
255
255
255
255
255
255
255
255
255
255
255
255
255
255
101
33
12
41
160
255
255
255
255
218
11
3
4
111
255
255
255
255
255
255
255
255
255
255
255
255
255
255
255
255
51
3
2
21
160
255
255
255
255
218
5
0
1
100
255
255
255
255
255
255
255
255
255
255
255
255
255
255
255
255
43
2
1
44
207
255
255
255
255
186
1
0
0
78
255
255
255
255
255
255
255
255
255
255
255
255
255
255
255
255
63
2
2
40
207
255
255
255
255
60
0
0
0
45
255
255
255
255
255
255
255
255
255
255
255
255
255
255
255
255
130
15
3
9
82
207
255
255
255
46
0
0
0
54
255
255
255
255
255
255
255
255
255
255
255
255
255
255
255
255
207
63
4
2
16
137
218
255
255
16
1
0
6
93
255
255
255
255
255
255
255
255
255
255
255
255
255
255
255
255
255
130
19
6
6
8
9
24
62
14
1
5
51
222
255
255
255
255
255
255
255
255
255
255
255
255
255
255
255
255
255
207
130
100
32
1
0
1
3
2
11
54
159
255
255
255
255
255
255
255
255
255
255
255
255
255
255
255
255
255
255
255
255
255
101
10
1
0
3
12
54
218
255
255
255
255
255
255
255
255
255
255
255
255
255
255
255
255
255
255
255
255
255
255
255
159
63
44
55
136
202
251
255
255
255
255
255
255
255
255
255
255
255
255
255
255
255
255
255
255
255
255
255
255
255
255
255
255
255
255
255
255
255
255
255
255
255
255
255
255
255
255
255
255
255
255
255
255
255
255
255
255
255
255
255
255
255
255
255
255
255
255
255
255
255
255
255
255
255
255
255
255
255
255
255
