P2
# CREATOR: GIMP PNM Filter Version 1.1
30 30
255
255
255
255
255
255
255
255
255
255
255
255
255
255
255
255
255
255
255
255
255
255
255
255
255
255
255
255
255
255
255
255
255
255
255
255
255
255
255
255
255
255
255
255
255
255
255
255
255
255
255
255
255
255
255
255
255
255
255
255
255
255
255
255
255
255
255
255
255
255
255
255
255
255
255
255
255
255
255
255
255
255
255
255
255
255
255
255
255
255
255
255
255
255
255
255
255
255
255
255
255
255
255
255
236
160
160
178
255
255
255
255
255
255
255
255
255
255
255
255
255
255
255
255
255
255
255
255
255
255
255
255
255
255
218
58
38
101
255
255
255
255
255
255
255
255
255
255
255
255
255
255
255
255
255
255
255
255
255
255
255
255
255
255
218
58
38
101
255
255
255
255
255
255
255
255
255
255
255
255
255
255
255
255
255
255
255
255
255
255
255
255
255
255
236
160
160
178
255
255
255
255
255
255
255
255
255
255
255
255
255
255
255
255
255
255
255
255
255
255
255
255
255
255
255
255
255
255
255
255
255
255
255
255
255
255
255
255
255
255
255
255
255
255
255
255
255
255
255
255
255
255
255
255
255
255
255
255
255
255
255
255
255
255
255
255
255
255
255
255
255
255
255
255
255
255
255
255
255
255
255
255
255
255
255
218
218
218
255
255
255
255
255
255
255
255
255
255
255
255
255
255
255
255
255
255
255
255
255
255
255
255
255
255
255
64
52
64
255
255
255
255
255
255
255
255
255
255
255
255
255
255
255
255
255
255
255
255
255
255
255
255
255
255
255
16
3
16
255
255
255
255
255
255
255
255
255
255
255
255
255
255
255
255
255
255
255
255
255
255
255
255
255
255
255
16
0
2
63
255
255
255
255
255
255
255
255
255
255
255
255
255
255
255
255
255
255
255
255
255
255
255
255
255
255
40
2
0
40
255
255
255
255
255
255
255
255
255
255
255
255
255
255
255
255
255
255
255
255
255
255
255
255
255
178
58
5
8
37
255
255
255
255
255
255
255
255
255
255
255
255
255
255
255
255
255
255
255
255
255
255
255
255
255
160
22
6
27
127
255
255
255
255
255
255
255
255
255
255
255
255
255
255
255
255
255
255
255
178
101
101
178
255
255
160
23
2
5
100
255
255
255
255
255
255
255
255
255
255
255
255
255
255
255
255
255
255
255
100
10
10
100
255
255
202
10
1
2
112
255
255
255
255
255
255
255
255
255
255
255
255
255
255
255
255
255
255
25
3
0
3
100
255
255
202
4
0
4
155
255
255
255
255
255
255
255
255
255
255
255
255
255
255
255
255
255
255
16
0
0
14
148
255
236
54
0
0
2
218
255
255
255
255
255
255
255
255
255
255
255
255
255
255
255
255
255
207
6
0
0
40
255
255
218
6
0
0
21
218
255
255
255
255
255
255
255
255
255
255
255
255
255
255
255
255
255
160
20
3
4
43
96
132
136
3
0
1
84
251
255
255
255
255
255
255
255
255
255
255
255
255
255
255
255
255
255
160
30
7
3
2
2
1
0
0
1
9
218
255
255
255
255
255
255
255
255
255
255
255
255
255
255
255
255
255
255
207
159
54
2
0
0
0
0
0
9
63
218
255
255
255
255
255
255
255
255
255
255
255
255
255
255
255
255
255
255
255
255
93
8
2
1
0
0
1
41
218
251
255
255
255
255
255
255
255
255
255
255
255
255
255
255
255
255
255
255
255
255
178
111
62
18
6
14
41
218
255
255
255
255
255
255
255
255
255
255
255
255
255
255
255
255
255
255
255
255
255
255
255
255
207
159
159
207
255
255
255
255
255
255
255
255
255
255
255
255
255
255
255
255
255
255
255
255
255
255
255
255
255
255
255
255
255
255
255
255
255
255
255
255
255
255
255
255
255
255
255
255
255
255
255
255
255
255
255
255
255
255
255
255
255
255
255
255
255
255
255
255
255
255
255
255
255
255
255
255
255
255
255
255
255
255
255
255
255
255
255
255
255
255
255
255
255
255
255
255
255
255
255
255
255
255
255
255
255
255
255
255
255
255
255
