P2
# CREATOR: GIMP PNM Filter Version 1.1
30 30
255
255
255
255
255
255
255
255
255
255
255
255
255
255
255
255
255
255
255
255
255
255
255
255
255
255
255
255
255
255
255
255
255
255
255
255
255
255
255
255
255
255
255
255
255
255
255
255
255
255
255
255
255
255
255
255
255
255
255
255
255
255
255
255
255
255
255
255
255
255
255
255
255
255
255
255
255
255
255
255
255
255
255
255
255
255
255
255
255
255
255
255
255
255
255
255
255
255
255
255
255
255
255
255
178
160
160
236
255
255
255
255
255
255
255
255
255
255
255
255
255
255
255
255
255
255
255
255
255
255
255
255
255
255
101
38
58
218
255
255
255
255
255
255
255
255
255
255
255
255
255
255
255
255
255
255
255
255
255
255
255
255
255
255
101
38
58
218
255
255
255
255
255
255
255
255
255
255
255
255
255
255
255
255
255
255
255
255
255
255
255
255
255
255
178
160
160
236
255
255
255
255
255
255
255
255
255
255
255
255
255
255
255
255
255
255
255
255
255
255
255
255
255
255
255
255
255
255
255
255
255
255
255
255
255
255
255
255
255
255
255
255
255
255
255
255
255
255
255
255
255
255
255
255
255
255
255
255
255
255
255
255
255
255
255
255
255
255
255
255
255
255
255
255
255
255
255
255
255
255
255
255
255
255
255
255
255
255
255
255
255
255
255
255
255
255
255
255
255
255
255
255
255
255
255
255
255
255
255
255
255
255
255
255
255
255
255
255
255
255
255
255
255
255
255
255
255
255
255
255
255
255
255
255
255
255
255
255
255
255
255
255
255
255
124
63
63
165
255
255
255
255
255
255
255
255
255
255
255
255
255
255
255
255
255
255
255
255
255
255
255
255
255
255
43
2
3
84
255
255
255
255
255
255
255
255
255
255
255
255
255
255
255
255
255
255
255
255
255
255
255
255
255
255
34
0
0
34
255
255
255
255
255
255
255
255
255
255
255
255
255
255
255
255
255
255
255
255
255
255
255
255
255
255
89
2
1
21
255
255
255
255
255
255
255
255
255
255
255
255
255
255
255
255
255
255
255
255
255
255
255
255
255
255
190
6
1
8
255
255
255
255
255
255
255
255
255
255
255
255
255
255
255
255
255
255
255
255
255
255
255
255
255
255
218
4
0
6
255
255
255
255
255
255
255
255
255
255
255
255
255
255
255
255
255
255
236
137
137
148
255
255
255
255
218
3
2
5
255
255
255
255
255
255
255
255
255
255
255
255
255
255
255
255
255
255
146
11
5
32
255
255
255
255
236
9
0
10
255
255
255
255
255
255
255
255
255
255
255
255
255
255
255
255
255
121
1
0
0
10
255
255
255
255
137
3
1
10
255
255
255
255
255
255
255
255
255
255
255
255
255
255
255
255
255
81
0
0
0
28
255
255
255
255
40
3
3
63
255
255
255
255
255
255
255
255
255
255
255
255
255
255
255
255
255
58
0
0
0
94
255
255
255
205
14
1
7
160
255
255
255
255
255
255
255
255
255
255
255
255
255
255
255
255
255
86
1
0
9
202
255
255
255
137
5
2
25
255
255
255
255
255
255
255
255
255
255
255
255
255
255
255
255
255
255
130
2
0
1
23
96
75
44
34
5
8
63
255
255
255
255
255
255
255
255
255
255
255
255
255
255
255
255
255
255
178
25
0
0
1
0
1
1
3
28
86
155
255
255
255
255
255
255
255
255
255
255
255
255
255
255
255
255
255
255
255
112
10
2
0
0
0
1
3
63
255
255
255
255
255
255
255
255
255
255
255
255
255
255
255
255
255
255
255
255
255
207
148
63
15
3
4
5
26
139
255
255
255
255
255
255
255
255
255
255
255
255
255
255
255
255
255
255
255
255
255
255
255
236
218
218
192
160
160
207
255
255
255
255
255
255
255
255
255
255
255
255
255
255
255
255
255
255
255
255
255
255
255
255
255
255
255
255
255
255
255
255
255
255
255
255
255
255
255
255
255
255
255
255
255
255
255
255
255
255
255
255
255
255
255
255
255
255
255
255
255
255
255
255
255
255
255
255
255
255
255
255
255
255
255
255
