P2
# CREATOR: GIMP PNM Filter Version 1.1
30 30
255
255
255
255
255
255
255
255
255
255
255
255
255
255
255
255
255
255
255
255
255
255
255
255
255
255
255
255
255
255
255
255
255
255
255
255
255
255
255
255
255
255
255
255
222
218
218
251
255
255
255
255
255
255
255
255
255
255
255
255
255
255
255
255
255
255
255
255
255
255
255
255
255
255
101
53
63
218
255
255
255
255
255
255
255
255
255
255
255
255
255
255
255
255
255
255
255
255
255
255
255
255
255
255
101
24
53
218
255
255
255
255
255
255
255
255
255
255
255
255
255
255
255
255
255
255
255
255
255
255
255
255
255
255
134
101
101
222
255
255
255
255
255
255
255
255
255
255
255
255
255
255
255
255
255
255
255
255
255
255
255
255
255
255
255
255
255
255
255
255
255
255
255
255
255
255
255
255
255
255
255
255
255
255
255
255
255
255
255
255
255
255
255
255
255
255
255
255
255
255
255
255
255
255
255
255
255
255
255
255
255
255
255
255
255
255
255
255
255
255
255
255
255
255
255
255
255
255
255
255
255
255
255
255
255
255
255
255
255
255
255
255
255
255
255
255
255
255
255
255
255
255
255
255
53
25
25
190
255
255
255
255
255
255
255
255
255
255
255
255
255
255
255
255
255
255
255
255
255
255
255
255
255
255
13
0
3
151
255
255
255
255
255
255
255
255
255
255
255
255
255
255
255
255
255
255
255
255
255
255
255
255
255
236
3
0
1
115
255
255
255
255
255
255
255
255
255
255
255
255
255
255
255
255
255
255
255
255
255
255
255
255
255
202
2
0
1
134
255
255
255
255
255
255
255
255
255
255
255
255
255
255
255
255
255
255
255
255
255
255
255
255
255
186
3
0
2
93
255
255
255
255
255
255
255
255
255
255
255
255
255
255
255
255
236
218
218
236
255
255
255
255
255
199
3
1
1
88
255
255
255
255
255
255
255
255
255
255
255
255
255
255
255
255
160
58
58
160
255
255
255
255
255
80
2
0
2
101
255
255
255
255
255
255
255
255
255
255
255
255
255
255
255
255
100
10
10
100
255
255
255
255
255
34
0
0
8
222
255
255
255
255
255
255
255
255
255
255
255
255
255
255
255
255
103
8
8
78
255
255
255
255
255
12
0
0
44
255
255
255
255
255
255
255
255
255
255
255
255
255
255
255
255
255
95
5
1
7
52
255
255
255
255
13
1
3
121
255
255
255
255
255
255
255
255
255
255
255
255
255
255
255
255
255
137
5
0
0
25
236
255
255
71
4
1
10
218
255
255
255
255
255
255
255
255
255
255
255
255
255
255
255
255
255
148
22
1
1
6
177
255
255
40
1
4
63
222
255
255
255
255
255
255
255
255
255
255
255
255
255
255
255
255
255
236
177
33
2
6
64
45
18
2
2
9
186
255
255
255
255
255
255
255
255
255
255
255
255
255
255
255
255
255
255
255
255
112
7
1
3
1
0
0
4
100
236
255
255
255
255
255
255
255
255
255
255
255
255
255
255
255
255
255
255
255
255
207
40
5
0
0
1
0
14
160
255
255
255
255
255
255
255
255
255
255
255
255
255
255
255
255
255
255
255
255
255
255
159
40
16
19
29
75
99
255
255
255
255
255
255
255
255
255
255
255
255
255
255
255
255
255
255
255
255
255
255
255
255
255
255
255
255
255
255
255
255
255
255
255
255
255
255
255
255
255
255
255
255
255
255
255
255
255
255
255
255
255
255
255
255
255
255
255
255
255
255
255
255
255
255
255
255
255
255
255
255
255
255
255
255
255
255
255
255
255
255
255
255
255
255
255
255
255
255
255
255
255
255
255
255
255
255
255
255
255
255
255
255
255
255
255
255
255
255
255
255
255
255
255
255
255
255
255
255
255
255
255
255
255
255
255
255
255
255
255
255
255
255
255
255
255
255
255
255
255
255
255
255
255
255
255
255
255
255
255
255
255
255
255
255
255
255
255
255
255
255
255
255
255
255
255
255
255
255
255
255
255
255
255
255
255
255
255
255
255
255
255
255
255
255
255
255
255
255
255
255
255
255
255
255
255
