P2
# CREATOR: GIMP PNM Filter Version 1.1
30 30
255
255
255
255
255
255
255
255
255
255
255
255
255
255
255
255
255
255
255
255
255
255
255
255
255
255
255
255
255
255
255
255
255
255
255
255
255
255
255
255
255
255
255
255
255
255
255
255
255
255
255
255
255
255
255
255
255
255
255
255
255
255
255
255
255
255
255
255
255
255
255
255
255
255
222
218
218
251
255
255
255
255
255
255
255
255
255
255
255
255
255
255
255
255
255
255
255
255
255
255
255
255
255
255
101
53
63
218
255
255
255
255
255
255
255
255
255
255
255
255
255
255
255
255
255
255
255
255
255
255
255
255
255
255
101
24
53
218
255
255
255
255
255
255
255
255
255
255
255
255
255
255
255
255
255
255
255
255
255
255
255
255
255
255
134
101
101
222
255
255
255
255
255
255
255
255
255
255
255
255
255
255
255
255
255
255
255
255
255
255
255
255
255
255
255
255
255
255
255
255
255
255
255
255
255
255
255
255
255
255
255
255
255
255
255
255
255
255
255
255
255
255
255
255
255
255
255
255
255
255
255
255
255
255
255
255
255
255
255
255
255
255
255
255
255
255
255
255
255
255
255
255
255
255
255
255
255
255
255
255
255
255
255
255
255
255
255
255
255
255
255
255
255
255
255
255
255
255
255
255
255
255
255
255
160
64
64
160
255
255
255
255
255
255
255
255
255
255
255
255
255
255
255
255
255
255
255
255
255
255
255
255
255
255
130
11
8
51
222
255
255
255
255
255
255
255
255
255
255
255
255
255
255
255
255
255
255
255
255
255
255
255
255
255
81
3
1
17
218
255
255
255
255
255
255
255
255
255
255
255
255
255
255
255
255
255
255
255
255
255
255
255
255
255
100
2
1
10
218
255
255
255
255
255
255
255
255
255
255
255
255
255
255
255
255
255
255
255
255
255
255
255
255
255
70
1
0
6
251
255
255
255
255
255
255
255
255
255
255
255
255
255
255
255
255
255
255
101
88
86
218
251
255
255
111
0
0
3
255
255
255
255
255
255
255
255
255
255
255
255
255
255
255
255
255
255
255
23
1
2
31
218
255
255
117
1
0
5
255
255
255
255
255
255
255
255
255
255
255
255
255
255
255
255
255
255
255
16
0
0
7
218
255
255
177
3
1
8
255
255
255
255
255
255
255
255
255
255
255
255
255
255
255
255
255
255
63
6
0
0
12
222
255
255
54
1
0
14
255
255
255
255
255
255
255
255
255
255
255
255
255
255
255
255
255
255
55
0
0
5
95
255
255
236
50
0
1
9
255
255
255
255
255
255
255
255
255
255
255
255
255
255
255
255
255
255
51
1
0
3
133
255
255
160
16
0
0
4
255
255
255
255
255
255
255
255
255
255
255
255
255
255
255
255
255
255
190
3
0
1
43
134
255
137
8
0
0
6
255
255
255
255
255
255
255
255
255
255
255
255
255
255
255
255
255
255
218
9
0
0
4
86
222
48
3
1
18
95
255
255
255
255
255
255
255
255
255
255
255
255
255
255
255
255
255
255
236
81
4
0
1
4
21
7
0
3
54
255
255
255
255
255
255
255
255
255
255
255
255
255
255
255
255
255
255
255
255
207
40
4
0
0
1
1
1
9
137
255
255
255
255
255
255
255
255
255
255
255
255
255
255
255
255
255
255
255
255
255
160
54
4
0
0
1
9
88
178
255
255
255
255
255
255
255
255
255
255
255
255
255
255
255
255
255
255
255
255
255
255
251
137
51
3
5
58
255
255
255
255
255
255
255
255
255
255
255
255
255
255
255
255
255
255
255
255
255
255
255
255
255
255
192
100
100
144
255
255
255
255
255
255
255
255
255
255
255
255
255
255
255
255
255
255
255
255
255
255
255
255
255
255
255
255
255
255
255
255
255
255
255
255
255
255
255
255
255
255
255
255
255
255
255
255
255
255
255
255
255
255
255
255
255
255
255
255
255
255
255
255
255
255
255
255
255
255
255
255
255
255
255
255
255
255
255
255
255
255
255
255
255
255
255
255
255
255
255
255
255
255
255
255
255
255
255
255
255
255
255
255
255
255
