P2
# CREATOR: GIMP PNM Filter Version 1.1
30 30
255
255
255
255
255
255
255
255
255
255
255
255
255
255
255
255
255
255
255
255
255
255
255
255
255
255
255
255
255
255
255
255
255
255
255
255
255
255
255
255
255
255
255
255
255
255
255
255
255
255
255
255
255
255
255
255
255
255
255
255
255
255
255
255
255
255
255
255
255
255
255
255
255
255
255
255
255
255
255
255
255
255
255
255
255
255
255
255
255
255
255
255
255
255
255
255
255
255
255
255
255
255
255
255
255
255
255
255
255
255
255
255
255
255
255
255
255
255
255
255
255
255
255
255
255
255
255
255
255
255
255
255
255
255
255
255
255
255
255
255
255
255
255
255
255
255
255
255
255
255
255
255
255
255
255
255
255
255
255
255
255
255
255
255
255
255
255
255
255
255
255
255
255
255
255
255
255
255
255
255
255
255
255
255
255
255
255
255
255
255
255
255
255
255
255
255
255
255
255
255
255
255
255
255
255
255
255
255
255
255
255
255
255
255
255
255
255
255
255
255
255
255
255
255
255
255
255
230
207
187
207
230
255
255
255
255
255
255
255
255
255
255
255
255
255
255
255
255
255
255
255
255
255
255
255
191
95
47
25
25
25
57
115
230
255
255
255
255
255
255
255
255
255
255
255
255
255
191
143
107
143
191
255
255
127
63
16
0
6
6
6
0
51
127
255
255
255
255
255
255
255
255
255
255
255
255
127
63
16
16
16
63
95
127
63
0
15
38
45
54
45
34
6
63
152
255
255
255
255
255
255
255
255
255
230
127
63
0
16
15
15
0
28
16
12
64
95
191
255
255
255
137
46
7
76
191
255
255
255
255
255
255
255
255
115
51
6
57
71
107
71
71
4
1
9
155
255
255
255
255
255
230
95
19
19
95
230
255
255
255
255
255
255
191
57
0
47
152
255
255
255
191
8
0
4
155
255
255
255
255
255
255
191
57
6
38
172
255
255
255
255
255
255
114
16
16
86
255
255
255
255
255
15
0
2
93
255
255
255
255
255
255
255
114
16
16
86
255
255
255
255
255
255
57
6
25
172
255
255
255
255
255
38
0
0
39
230
255
255
255
255
255
255
191
38
0
47
230
255
255
255
255
255
38
0
31
230
255
255
255
255
255
77
3
0
14
172
255
255
255
255
255
255
255
57
6
25
172
255
255
255
255
230
31
0
38
255
255
255
255
255
255
129
5
1
5
129
255
255
255
255
255
255
255
85
16
16
129
255
255
255
255
230
25
6
38
255
255
255
255
255
255
172
10
0
4
107
255
255
255
255
255
255
255
107
16
16
107
255
255
255
255
230
31
0
38
255
255
255
255
255
255
230
19
0
2
77
255
255
255
255
255
255
255
107
16
16
107
255
255
255
255
255
31
0
31
255
255
255
255
255
255
255
26
0
0
34
255
255
255
255
255
255
255
107
16
16
107
255
255
255
255
255
28
0
28
255
255
255
255
255
255
255
57
0
0
16
255
255
255
255
255
255
255
107
16
16
107
255
255
255
255
255
31
0
31
255
255
255
255
255
255
255
95
2
0
18
255
255
255
255
255
255
255
85
16
16
129
255
255
255
255
255
63
12
63
255
255
255
255
255
255
255
187
25
6
54
255
255
255
255
255
255
255
68
6
25
155
255
255
255
255
255
152
152
152
255
255
255
255
255
255
255
230
127
127
152
255
255
255
255
255
255
255
91
12
51
207
255
255
255
255
255
255
255
255
255
255
255
255
255
255
255
255
255
255
255
255
255
255
255
255
255
255
152
127
127
230
255
255
255
255
255
255
255
255
255
255
255
255
255
255
255
255
255
255
255
255
255
255
255
255
255
255
255
255
255
255
255
255
255
255
255
255
255
255
255
255
255
255
255
255
255
255
255
255
255
255
255
255
255
255
255
255
255
255
255
255
255
255
255
255
255
255
255
255
255
255
255
255
255
255
255
255
255
255
255
255
255
255
255
255
255
255
255
255
255
255
255
255
255
255
255
255
255
255
255
255
255
255
255
255
255
255
255
255
255
255
255
255
255
255
255
255
255
255
255
255
255
255
255
