P2
# CREATOR: GIMP PNM Filter Version 1.1
30 30
255
255
255
255
255
255
255
255
255
255
255
255
255
255
255
255
255
255
255
255
255
255
255
255
255
255
255
255
255
255
255
255
255
255
255
255
255
255
255
255
255
255
255
255
255
255
255
255
255
255
255
255
255
255
255
255
255
255
255
255
255
255
255
255
255
255
255
255
255
255
255
255
255
255
255
255
255
255
255
255
255
255
255
255
255
255
255
255
255
255
255
255
255
255
255
255
255
255
255
255
255
255
255
255
255
255
255
255
255
255
255
255
255
255
255
255
255
255
255
255
255
255
255
255
255
255
255
255
255
255
255
255
255
255
255
255
255
255
255
255
255
255
255
255
255
255
255
255
255
255
255
255
255
255
255
255
255
255
255
255
255
255
255
255
255
255
255
255
255
255
255
255
255
255
255
255
255
255
255
255
255
255
255
255
255
255
255
255
255
255
255
255
255
255
255
255
255
255
255
255
255
255
255
255
255
255
255
255
255
255
255
255
255
255
255
255
255
255
255
255
255
255
255
255
255
255
255
255
255
255
255
255
255
255
255
255
255
255
255
255
255
255
255
255
255
255
255
255
255
255
255
255
255
255
255
255
255
191
143
107
85
68
82
137
230
255
255
255
255
255
255
255
255
255
255
255
191
114
85
85
107
129
172
230
255
191
114
57
19
16
16
6
6
46
115
230
255
255
255
255
255
255
255
255
255
152
63
16
5
16
16
16
46
115
172
95
24
6
16
15
15
25
25
6
51
127
255
255
255
255
255
255
255
255
191
76
6
9
23
15
15
15
6
38
31
16
12
38
71
107
129
155
123
51
7
63
191
255
255
255
255
255
255
255
114
19
12
58
116
129
107
85
51
2
4
4
64
172
230
255
255
255
255
114
19
19
95
255
255
255
255
255
255
230
57
6
30
172
255
255
255
255
124
7
0
8
129
255
255
255
255
255
255
191
38
0
47
230
255
255
255
255
255
172
30
6
57
230
255
255
255
255
155
5
0
6
172
255
255
255
255
255
255
255
57
6
25
172
255
255
255
255
255
103
16
16
103
255
255
255
255
255
155
5
1
4
129
255
255
255
255
255
255
255
103
16
16
103
255
255
255
255
255
68
6
25
155
255
255
255
255
255
172
13
0
4
85
255
255
255
255
255
255
255
172
25
6
57
255
255
255
255
255
68
6
25
155
255
255
255
255
255
230
23
0
1
61
255
255
255
255
255
255
255
230
38
0
38
230
255
255
255
255
85
16
16
129
255
255
255
255
255
255
46
0
0
31
255
255
255
255
255
255
255
255
57
6
25
172
255
255
255
255
129
16
16
85
255
255
255
255
255
255
103
2
0
13
230
255
255
255
255
255
255
255
85
16
16
129
255
255
255
255
155
25
6
68
255
255
255
255
255
255
191
10
0
4
129
255
255
255
255
255
255
255
107
16
16
107
255
255
255
255
207
25
6
45
255
255
255
255
255
255
255
29
1
1
58
255
255
255
255
255
255
255
107
16
16
107
255
255
255
255
230
31
0
38
255
255
255
255
255
255
255
65
1
0
28
255
255
255
255
255
255
255
107
16
16
107
255
255
255
255
233
38
0
43
255
255
255
255
255
255
255
105
3
1
30
255
255
255
255
255
255
255
129
16
16
85
255
255
255
255
230
52
23
76
255
255
255
255
255
255
255
155
25
6
68
255
255
255
255
255
255
255
172
51
12
114
255
255
255
255
230
124
105
152
255
255
255
255
255
255
255
230
127
127
152
255
255
255
255
255
255
255
230
127
127
152
255
255
255
255
252
230
230
233
255
255
255
255
255
255
255
255
255
255
255
255
255
255
255
255
255
255
255
255
255
255
255
255
255
255
255
255
255
255
255
255
255
255
255
255
255
255
255
255
255
255
255
255
255
255
255
255
255
255
255
255
255
255
255
255
255
255
255
255
255
255
255
255
255
255
255
255
255
255
255
255
255
255
255
255
255
255
255
255
255
255
255
255
255
255
255
255
255
255
255
255
255
255
255
255
255
255
255
255
255
255
255
255
255
255
255
255
255
255
255
255
255
255
