P2
# CREATOR: GIMP PNM Filter Version 1.1
30 30
255
255
255
255
255
255
255
255
255
255
255
255
255
255
255
255
255
255
255
255
255
255
255
255
255
255
255
255
255
255
255
255
255
255
255
255
255
255
255
255
255
255
255
255
255
255
255
255
255
255
255
255
255
255
255
255
255
255
255
255
255
255
255
255
255
255
255
255
255
255
255
255
255
255
255
255
255
255
255
255
255
255
255
255
255
255
255
255
255
255
255
255
255
255
255
255
255
255
255
255
255
255
255
255
255
255
255
255
255
255
255
255
255
255
255
255
255
255
255
255
255
255
255
255
255
255
255
255
255
255
255
255
255
255
255
255
255
255
255
255
255
255
255
255
255
255
255
255
255
255
255
255
255
255
255
255
255
255
255
255
255
255
255
255
255
255
255
255
255
255
255
255
255
255
255
255
255
255
255
255
255
255
255
255
255
255
255
255
255
255
255
255
255
255
255
255
255
255
255
255
255
255
255
255
255
255
255
255
255
255
255
255
255
255
255
255
255
255
255
255
255
255
255
255
255
255
255
255
255
255
255
255
255
255
255
255
255
255
255
255
255
255
255
255
255
255
255
255
255
255
255
255
255
255
255
255
255
255
255
255
255
255
255
255
255
255
255
255
255
255
255
255
255
255
255
255
255
255
255
255
255
255
255
255
255
255
255
255
255
255
255
255
255
255
255
255
255
255
255
255
255
255
255
255
255
255
255
255
255
255
255
255
255
255
255
255
255
255
255
255
255
255
255
255
255
255
255
255
255
255
255
255
255
255
255
255
255
255
255
255
255
255
255
255
255
255
255
255
255
255
255
255
255
255
255
255
255
255
255
255
255
255
255
255
255
255
255
255
255
230
172
129
107
143
191
255
191
95
47
31
31
31
57
115
230
255
255
255
255
255
255
255
255
255
255
255
255
255
191
95
38
16
16
16
63
95
95
24
0
0
0
0
0
51
127
255
255
255
255
255
255
255
255
255
255
255
255
152
63
16
5
15
15
15
0
15
8
12
31
31
31
31
23
6
63
191
255
255
255
255
255
255
255
255
255
255
191
76
6
11
52
85
107
71
16
0
1
48
191
255
255
255
114
19
19
95
255
255
255
255
255
255
255
255
255
255
95
19
12
71
172
255
255
255
24
0
1
55
255
255
255
255
191
47
0
47
191
255
255
255
255
255
255
255
255
191
47
0
47
191
255
255
255
255
48
1
1
36
255
255
255
255
255
71
16
16
143
255
255
255
255
255
255
255
255
172
16
16
57
255
255
255
255
255
107
2
0
13
255
255
255
255
255
129
16
16
85
255
255
255
255
255
255
255
255
155
25
6
68
255
255
255
255
255
191
5
0
5
207
255
255
255
255
172
25
6
57
255
255
255
255
255
255
255
255
207
25
6
45
255
255
255
255
255
255
10
0
2
140
255
255
255
255
230
38
0
38
230
255
255
255
255
255
255
255
230
31
0
38
255
255
255
255
255
255
23
0
1
78
255
255
255
255
255
57
6
25
172
255
255
255
255
255
255
255
255
28
0
28
255
255
255
255
255
255
36
1
1
55
255
255
255
255
255
85
16
16
129
255
255
255
255
255
255
255
255
31
0
31
255
255
255
255
255
255
80
4
4
80
255
255
255
255
255
143
32
32
143
255
255
255
255
255
255
255
255
63
12
63
255
255
255
255
255
255
143
63
63
143
255
255
255
255
255
191
127
127
191
255
255
255
255
255
255
255
255
152
152
152
255
255
255
255
255
255
255
255
255
255
255
255
255
255
255
255
255
255
255
255
255
255
255
255
255
255
255
255
255
255
255
255
255
255
255
255
255
255
255
255
255
255
255
255
255
255
255
255
255
255
255
255
255
255
255
255
255
255
255
255
255
255
255
255
255
255
255
255
255
255
255
255
255
255
255
255
255
255
255
255
255
255
255
255
255
255
255
255
255
255
255
255
255
255
255
255
255
255
255
255
255
255
255
255
255
255
255
255
255
255
255
255
255
255
255
255
255
255
255
255
255
255
255
255
255
255
255
255
255
255
255
255
255
255
255
255
255
255
255
255
255
255
