P2
# CREATOR: GIMP PNM Filter Version 1.1
30 30
255
255
255
255
255
255
255
255
255
255
255
255
255
255
255
255
255
255
255
255
255
255
255
255
255
255
255
255
255
255
255
255
255
255
255
255
255
255
255
255
255
255
255
255
255
255
255
255
255
255
255
255
255
255
255
255
255
255
255
255
255
255
255
255
255
255
255
255
255
255
255
255
255
255
255
255
255
255
255
255
255
255
255
255
255
255
255
255
255
255
255
255
255
255
255
255
255
255
255
255
255
255
255
255
255
255
255
255
255
255
255
255
255
255
255
255
255
255
255
255
255
255
255
255
255
255
255
255
255
255
255
255
255
255
255
255
255
255
255
255
255
255
255
255
255
255
255
255
255
255
255
255
255
255
255
255
255
255
255
255
255
255
255
255
255
255
255
255
255
255
255
255
255
255
255
255
255
255
255
255
255
255
255
255
255
255
255
255
255
255
255
255
255
255
255
255
255
255
255
255
255
255
255
255
255
255
255
255
255
255
255
255
255
255
255
255
255
255
255
255
255
255
255
255
255
255
255
255
255
255
255
255
255
255
255
255
255
255
255
255
255
255
255
255
255
255
255
255
255
255
255
255
255
255
255
255
255
255
255
255
255
255
255
255
255
255
255
255
255
255
255
255
255
255
255
255
255
255
255
255
255
255
255
255
255
255
255
255
255
255
255
255
255
255
255
255
255
255
255
255
255
255
255
255
255
255
255
255
255
255
255
255
255
255
255
255
255
255
255
255
255
255
255
255
255
255
255
255
255
255
255
255
255
255
255
255
255
255
255
255
255
255
255
255
255
255
255
255
255
255
255
255
255
255
255
255
255
255
255
255
255
255
255
255
255
255
230
172
103
57
38
38
57
114
191
255
255
255
191
114
57
38
47
95
191
255
255
255
255
255
255
255
255
255
255
191
95
38
16
6
0
0
6
19
76
152
255
152
76
19
6
0
0
32
127
255
255
255
255
255
255
255
255
255
191
63
16
4
15
25
31
31
25
11
6
63
95
63
6
16
25
31
31
24
63
127
191
255
255
255
255
255
255
230
95
16
5
43
103
172
230
230
172
64
9
10
23
0
34
86
172
230
191
143
24
32
95
255
255
255
255
255
255
172
38
4
43
143
255
255
255
255
255
172
39
0
1
21
104
230
255
255
255
191
38
0
47
230
255
255
255
255
255
103
16
16
103
255
255
255
255
255
255
255
78
2
0
17
230
255
255
255
255
255
57
6
25
172
255
255
255
255
255
57
6
25
172
255
255
255
255
255
255
255
140
4
0
10
191
255
255
255
255
255
103
16
16
103
255
255
255
255
255
38
0
31
230
255
255
255
255
255
255
255
207
8
0
3
129
255
255
255
255
255
172
30
6
57
230
255
255
255
255
38
0
31
230
255
255
255
255
255
255
255
230
29
0
2
58
255
255
255
255
255
230
57
6
30
172
255
255
255
255
57
6
25
172
255
255
255
255
255
255
255
255
58
1
0
29
255
255
255
255
255
255
85
16
16
129
255
255
255
255
85
16
16
129
255
255
255
255
255
255
255
255
116
2
0
13
255
255
255
255
255
255
107
16
16
107
255
255
255
255
129
16
16
85
255
255
255
255
255
255
255
255
172
3
0
7
255
255
255
255
255
255
129
16
16
85
255
255
255
255
157
30
7
78
255
255
255
255
255
255
255
255
230
7
0
9
255
255
255
255
255
255
172
25
6
57
255
255
255
255
207
52
23
91
255
255
255
255
255
255
255
255
255
31
0
31
255
255
255
255
255
255
230
63
0
76
255
255
255
255
230
124
105
152
255
255
255
255
255
255
255
255
255
127
127
127
255
255
255
255
255
255
255
127
127
127
255
255
255
255
252
230
230
233
255
255
255
255
255
255
255
255
255
255
255
255
255
255
255
255
255
255
255
255
255
255
255
255
255
255
255
255
255
255
255
255
255
255
255
255
255
255
255
255
255
255
255
255
255
255
255
255
255
255
255
255
255
255
255
255
255
255
255
255
255
255
255
255
255
255
255
255
255
255
255
255
255
255
255
255
255
255
255
255
255
255
255
255
