P2
# CREATOR: GIMP PNM Filter Version 1.1
30 30
255
255
255
255
255
255
255
255
255
255
255
255
255
255
255
255
255
255
255
255
255
255
255
255
255
255
255
255
255
255
255
255
255
255
255
255
255
255
255
255
255
255
255
255
255
255
255
255
255
255
255
255
255
255
255
255
255
255
255
255
255
255
255
255
255
255
255
255
255
255
255
255
255
255
255
255
255
255
255
255
255
255
255
255
255
255
255
255
255
255
255
255
255
255
255
255
255
255
255
255
255
255
255
255
255
255
255
255
255
255
255
255
255
255
255
255
255
255
255
255
255
255
255
255
255
255
255
255
255
255
255
255
255
255
255
255
255
255
255
255
255
255
255
255
255
255
255
255
255
255
255
255
255
255
255
255
255
255
255
255
255
255
255
255
255
255
255
255
255
255
255
255
255
255
255
255
255
255
255
255
255
255
255
255
255
255
255
255
255
255
255
255
255
255
255
255
255
255
255
255
255
255
255
255
255
255
255
255
255
255
255
255
255
255
255
255
255
255
255
255
255
255
255
255
255
255
255
255
255
255
255
255
255
255
255
255
255
255
255
255
255
255
255
255
255
255
255
255
255
255
255
255
255
255
255
255
255
255
255
255
255
255
255
255
255
255
255
255
255
255
255
255
255
255
255
255
255
255
255
255
255
255
255
255
255
255
255
255
255
255
255
255
255
255
255
255
255
255
255
255
255
255
255
255
255
255
255
255
255
255
255
255
255
255
255
255
255
255
255
255
255
255
255
255
255
255
255
255
255
255
255
255
255
255
255
255
255
255
255
255
255
255
255
255
255
255
255
255
255
255
255
255
255
255
255
255
255
255
255
255
255
255
255
255
255
255
255
255
255
255
255
255
255
255
255
255
255
255
255
255
255
255
255
255
255
255
255
255
255
255
255
255
255
255
255
255
143
85
51
68
85
143
191
255
230
172
103
57
38
47
95
191
255
255
255
255
255
255
255
255
255
255
255
255
255
152
31
4
3
6
16
24
95
191
127
51
16
6
0
0
16
63
127
255
255
255
255
255
255
255
255
255
255
255
191
76
3
2
11
25
15
12
12
31
47
9
15
25
31
31
16
0
63
127
255
255
255
255
255
255
255
255
255
230
95
19
10
48
105
155
129
53
2
2
7
77
103
172
230
191
95
42
0
63
152
255
255
255
255
255
255
255
255
172
38
6
57
191
255
255
255
129
7
0
5
129
255
255
255
255
255
115
28
3
38
143
255
255
255
255
255
255
255
129
16
16
85
255
255
255
255
207
11
0
3
86
255
255
255
255
255
230
71
4
5
71
255
255
255
255
255
255
255
71
16
16
143
255
255
255
255
207
19
1
0
47
230
255
255
255
255
255
143
23
0
35
191
255
255
255
255
255
255
47
0
31
191
255
255
255
255
230
38
0
1
23
172
255
255
255
255
255
255
86
16
16
114
255
255
255
255
255
230
31
0
38
255
255
255
255
255
255
57
2
1
11
129
255
255
255
255
255
255
172
25
6
57
255
255
255
255
255
230
25
6
38
255
255
255
255
255
255
85
6
1
8
107
255
255
255
255
255
255
230
38
0
38
230
255
255
255
255
205
28
0
41
255
255
255
255
255
255
143
6
1
4
107
255
255
255
255
255
255
255
57
6
25
172
255
255
255
255
207
25
5
45
255
255
255
255
255
255
191
16
0
3
97
255
255
255
255
255
255
255
85
16
16
129
255
255
255
255
207
52
23
91
255
255
255
255
255
255
255
25
1
3
116
255
255
255
255
255
255
255
107
16
16
107
255
255
255
255
233
152
152
174
255
255
255
255
255
255
255
68
6
25
155
255
255
255
255
255
255
255
107
16
16
107
255
255
255
255
255
255
255
255
255
255
255
255
255
255
255
152
127
127
230
255
255
255
255
255
255
255
143
32
32
143
255
255
255
255
255
255
255
255
255
255
255
255
255
255
255
255
255
255
255
255
255
255
255
255
255
255
191
127
127
191
255
255
255
255
255
255
255
255
255
255
255
255
255
255
255
255
255
255
255
255
255
255
255
255
255
255
255
255
255
255
255
255
255
