P2
# CREATOR: GIMP PNM Filter Version 1.1
30 30
255
255
255
255
255
255
255
255
255
255
255
255
255
255
255
255
255
255
255
255
255
255
255
255
255
255
255
255
255
255
255
255
255
255
255
255
255
255
255
255
255
255
255
255
255
255
255
255
255
255
255
255
255
255
255
255
255
255
255
255
255
255
255
255
255
255
255
255
255
255
255
255
255
255
255
255
255
255
255
255
255
255
255
255
255
255
255
255
255
255
255
255
255
255
255
255
255
255
255
255
255
255
255
255
255
255
255
255
255
255
255
255
255
255
255
255
255
255
255
255
255
255
255
255
255
255
255
255
255
255
255
255
255
255
255
255
255
255
255
255
255
255
255
255
255
255
255
255
255
255
255
255
255
255
255
255
255
255
255
255
255
255
255
255
255
255
255
255
255
255
255
255
255
255
255
255
255
255
255
255
255
255
255
255
255
255
255
255
255
255
255
255
255
255
255
255
255
255
255
255
255
255
255
255
255
255
255
255
255
255
255
255
255
255
255
255
255
255
255
255
255
255
255
255
255
255
255
255
255
255
255
255
255
255
255
255
255
255
255
255
255
255
255
255
255
255
255
255
255
255
255
255
255
255
255
255
255
255
255
255
255
255
255
255
255
255
255
255
255
255
255
255
255
255
255
255
255
255
255
255
255
255
255
255
255
255
255
255
255
255
255
255
255
255
255
255
255
255
255
255
255
255
255
255
255
255
255
255
255
255
255
255
255
255
255
255
255
255
255
255
255
255
255
255
255
255
255
255
255
255
255
255
255
255
255
255
255
255
255
255
255
255
255
255
255
255
255
255
255
255
255
255
255
255
255
255
255
255
255
255
255
255
255
255
255
255
255
255
255
255
255
255
255
255
255
255
230
207
187
207
230
255
255
255
255
255
255
255
255
255
255
255
255
255
255
255
255
255
255
230
207
187
207
230
255
152
76
30
25
25
38
69
137
230
255
255
255
255
255
255
255
255
255
255
255
255
255
152
76
38
25
25
25
63
76
63
6
5
6
6
0
6
51
127
255
255
255
255
255
255
255
255
255
255
255
230
127
63
7
0
6
6
6
0
18
3
18
41
54
45
38
25
6
63
127
255
255
255
255
255
255
255
255
255
255
137
51
6
27
38
45
54
45
13
0
4
58
207
255
255
230
137
51
0
63
191
255
255
255
255
255
255
255
255
230
69
6
27
124
230
255
255
255
22
0
1
70
255
255
255
255
255
95
16
16
95
255
255
255
255
255
255
255
255
172
30
6
57
230
255
255
255
255
36
0
0
41
255
255
255
255
255
191
38
0
47
230
255
255
255
255
255
255
255
86
16
16
114
255
255
255
255
255
49
1
0
28
230
255
255
255
255
255
57
6
25
172
255
255
255
255
255
255
230
47
0
38
191
255
255
255
255
255
54
1
0
19
207
255
255
255
255
255
85
16
16
129
255
255
255
255
255
255
172
25
6
57
255
255
255
255
255
255
49
1
0
22
207
255
255
255
255
255
129
16
16
85
255
255
255
255
255
255
129
16
16
85
255
255
255
255
255
255
36
0
0
41
230
255
255
255
255
255
155
25
6
68
255
255
255
255
255
255
107
16
16
107
255
255
255
255
255
255
27
0
1
62
255
255
255
255
255
255
187
25
6
54
255
255
255
255
255
255
115
19
19
115
255
255
255
255
255
255
30
1
3
105
255
255
255
255
255
255
187
25
6
54
255
255
255
255
255
255
143
38
38
143
255
255
255
255
255
255
68
6
25
155
255
255
255
255
255
255
187
25
6
54
255
255
255
255
255
255
191
115
115
191
255
255
255
255
255
255
152
127
127
230
255
255
255
255
255
255
207
51
12
91
255
255
255
255
255
255
242
230
230
242
255
255
255
255
255
255
255
255
255
255
255
255
255
255
255
255
230
127
127
152
255
255
255
255
255
255
255
255
255
255
255
255
255
255
255
255
255
255
255
255
255
255
255
255
255
255
255
255
255
255
255
255
255
255
255
255
255
255
255
255
255
255
255
255
255
255
255
255
255
255
255
255
255
255
255
255
255
255
255
255
255
255
255
255
