P2
# CREATOR: GIMP PNM Filter Version 1.1
30 30
255
255
255
255
255
255
255
255
255
255
255
255
255
255
255
255
255
255
255
255
255
255
255
255
255
255
255
255
255
255
255
255
255
255
255
255
255
255
255
255
255
255
255
255
255
255
255
255
255
255
255
255
255
255
255
255
255
255
255
255
255
255
255
255
255
255
255
255
255
255
255
255
255
255
255
255
255
255
255
255
255
255
255
255
255
255
255
255
255
255
255
255
255
255
255
255
255
255
255
255
255
255
255
255
255
255
255
255
255
255
255
255
255
255
255
255
255
255
255
255
255
255
255
255
255
255
255
255
255
255
255
255
255
255
255
255
255
255
255
255
255
255
255
255
255
255
255
255
255
255
255
255
255
255
255
255
255
255
255
255
255
255
255
255
255
255
255
255
255
255
255
255
255
255
255
255
255
255
255
255
255
255
255
255
255
255
255
255
255
255
255
255
255
255
255
255
255
255
255
255
255
255
255
255
255
255
255
255
255
255
255
255
255
255
255
255
255
255
255
255
255
255
255
255
255
255
255
255
255
255
255
255
255
255
255
255
255
255
255
255
255
255
255
255
255
255
255
255
255
255
255
255
255
255
255
255
255
255
255
255
255
255
255
255
255
255
255
255
255
255
255
255
255
255
255
255
255
255
255
255
255
255
255
255
255
255
255
255
255
255
255
255
255
255
255
255
255
255
255
255
255
255
255
255
255
255
255
255
255
255
255
255
255
255
255
255
255
255
255
255
255
255
255
255
255
255
255
255
255
255
255
255
255
255
255
255
255
255
255
255
255
255
255
255
255
255
255
255
255
255
255
255
255
255
255
255
255
255
255
255
255
255
255
255
255
255
255
255
230
172
155
172
230
255
255
255
255
230
172
129
143
191
255
255
255
255
255
255
255
255
255
255
255
255
255
255
255
152
76
30
16
30
57
114
191
255
152
76
30
16
16
57
115
230
255
255
255
255
255
255
255
255
255
255
255
255
127
63
6
6
16
6
6
19
76
76
63
6
6
16
16
0
46
115
230
255
255
255
255
255
255
255
255
255
255
127
63
0
30
57
68
57
30
12
4
15
0
23
57
85
71
47
6
51
127
255
255
255
255
255
255
255
255
255
191
63
0
42
115
230
255
230
172
64
4
1
5
78
230
255
255
152
76
7
63
127
255
255
255
255
255
255
255
255
114
16
16
86
255
255
255
255
255
172
10
0
4
129
255
255
255
255
152
57
0
63
191
255
255
255
255
255
255
255
57
6
25
172
255
255
255
255
255
255
12
0
2
103
255
255
255
255
255
86
16
16
114
255
255
255
255
255
255
230
38
0
38
230
255
255
255
255
255
255
19
0
0
68
255
255
255
255
255
155
25
6
68
255
255
255
255
255
255
207
25
6
45
255
255
255
255
255
255
255
27
0
0
49
255
255
255
255
255
207
25
6
45
255
255
255
255
255
255
187
25
6
54
255
255
255
255
255
255
255
41
0
0
36
255
255
255
255
255
230
38
0
38
230
255
255
255
255
255
187
25
6
54
255
255
255
255
255
255
255
52
1
0
34
255
255
255
255
255
255
45
6
25
207
255
255
255
255
255
198
19
4
36
255
255
255
255
255
255
255
41
0
0
27
255
255
255
255
255
255
54
6
25
187
255
255
255
255
255
207
28
0
45
255
255
255
255
255
255
255
45
0
0
45
255
255
255
255
255
255
91
12
51
207
255
255
255
255
255
230
57
38
76
255
255
255
255
255
255
255
80
8
8
80
255
255
255
255
255
255
152
127
127
230
255
255
255
255
255
242
191
191
203
255
255
255
255
255
255
255
191
127
127
191
255
255
255
255
255
255
255
255
255
255
255
255
255
255
255
255
255
255
255
255
255
255
255
255
255
255
255
255
255
255
255
255
255
255
255
255
255
255
255
255
255
255
255
255
255
255
255
255
255
255
255
255
255
255
255
255
255
255
255
255
255
255
255
255
255
255
255
255
255
255
255
255
255
255
255
255
255
255
255
255
255
255
255
255
255
255
255
255
255
255
255
255
255
255
255
255
255
255
255
255
255
255
255
