P2
# CREATOR: GIMP PNM Filter Version 1.1
30 30
255
255
255
255
255
255
255
255
255
255
255
255
255
255
255
255
255
255
255
255
255
255
255
255
255
255
255
255
255
255
255
255
255
255
255
255
255
255
255
255
255
255
255
255
255
255
255
255
255
255
255
255
255
255
255
255
255
255
255
255
255
255
255
255
255
255
255
255
255
255
255
255
255
255
255
255
255
255
255
255
255
255
255
255
255
255
255
255
255
255
255
255
255
255
255
255
255
255
255
255
255
255
255
255
255
255
255
255
255
255
255
255
255
255
255
255
255
255
255
255
255
255
255
255
255
255
255
255
255
255
255
255
255
255
255
255
255
255
255
255
255
255
255
255
255
255
255
255
255
255
255
255
255
255
255
255
255
255
255
255
255
255
255
255
255
255
255
255
255
255
255
255
255
255
255
255
255
255
255
255
255
255
255
255
255
255
255
255
255
255
255
255
255
255
255
255
255
255
255
255
255
255
255
255
255
255
255
255
255
255
255
255
255
255
255
255
255
255
255
255
255
255
255
255
255
255
255
255
255
255
255
255
255
255
255
255
255
255
255
255
255
255
255
255
255
255
255
255
255
255
255
255
255
255
255
255
255
255
255
255
255
255
255
255
255
255
255
255
255
255
255
255
255
255
255
255
255
255
255
255
255
255
255
255
255
255
255
255
255
255
255
255
255
255
255
255
255
255
255
255
255
255
255
255
255
255
255
255
255
255
255
255
255
255
255
255
255
255
255
255
255
255
255
255
255
255
255
255
255
255
255
255
255
255
255
255
255
255
255
255
255
255
255
255
255
255
255
255
255
255
255
255
255
255
255
255
255
255
255
255
255
255
255
255
255
255
255
191
143
107
85
85
103
172
230
255
230
172
86
47
38
57
114
191
255
255
255
255
255
255
255
255
255
255
255
230
127
63
19
16
16
6
16
38
95
191
127
51
16
0
0
6
19
76
152
255
255
255
255
255
255
255
255
255
255
115
51
6
19
15
15
25
15
4
16
31
47
6
15
31
31
25
14
6
63
152
255
255
255
255
255
255
255
255
191
57
0
35
85
107
129
129
103
43
4
4
0
43
114
191
230
172
78
22
6
76
191
255
255
255
255
255
255
255
95
16
16
95
255
255
255
255
255
143
16
0
3
64
255
255
255
255
207
78
14
19
114
255
255
255
255
255
255
230
47
0
38
191
255
255
255
255
255
255
19
0
1
87
255
255
255
255
255
172
25
6
57
255
255
255
255
255
255
172
25
6
57
255
255
255
255
255
255
255
38
0
1
43
255
255
255
255
255
230
38
0
38
230
255
255
255
255
255
129
16
16
85
255
255
255
255
255
255
255
64
2
0
23
230
255
255
255
255
255
57
6
25
172
255
255
255
255
255
129
16
16
85
255
255
255
255
255
255
255
129
3
0
8
207
255
255
255
255
255
85
16
16
129
255
255
255
255
255
155
25
6
68
255
255
255
255
255
255
255
172
7
0
5
155
255
255
255
255
255
129
16
16
85
255
255
255
255
255
187
25
6
54
255
255
255
255
255
255
255
230
12
0
2
116
255
255
255
255
255
155
25
6
68
255
255
255
255
255
136
19
4
60
255
255
255
255
255
255
255
255
21
1
3
129
255
255
255
255
255
207
25
6
45
255
255
255
255
255
129
12
12
85
255
255
255
255
255
255
255
255
57
0
31
172
255
255
255
255
255
230
63
0
76
255
255
255
255
255
143
47
47
143
255
255
255
255
255
255
255
255
127
127
127
255
255
255
255
255
255
255
127
127
127
255
255
255
255
255
223
191
191
223
255
255
255
255
255
255
255
255
255
255
255
255
255
255
255
255
255
255
255
255
255
255
255
255
255
255
255
255
255
255
255
255
255
255
255
255
255
255
255
255
255
255
255
255
255
255
255
255
255
255
255
255
255
255
255
255
255
255
255
255
255
255
255
255
255
255
255
255
255
255
255
255
255
255
255
255
255
255
255
255
255
255
255
255
255
255
255
255
255
255
255
255
255
255
255
255
255
255
255
255
255
255
255
255
255
255
255
255
255
255
255
255
255
255
