P2
# CREATOR: GIMP PNM Filter Version 1.1
30 30
255
255
255
255
255
255
255
255
255
255
255
255
255
255
255
255
255
255
255
255
255
255
255
255
255
255
255
255
255
255
255
255
255
255
255
255
255
255
255
255
255
255
255
255
255
255
255
255
255
255
255
255
255
255
255
255
255
255
255
255
255
255
255
255
255
255
255
255
255
255
255
255
255
255
255
255
255
255
255
255
255
255
255
255
255
255
255
255
255
255
255
255
255
255
255
255
255
255
255
255
255
255
255
255
255
255
255
255
255
255
255
255
255
255
255
255
255
255
255
255
255
255
255
255
255
255
255
255
255
255
255
255
255
255
255
255
255
255
255
255
255
255
255
255
255
255
255
255
255
255
255
255
255
255
255
255
255
255
255
255
255
255
255
255
255
255
255
255
255
255
255
255
255
255
255
255
255
255
255
255
255
255
255
255
255
255
255
255
255
255
255
255
255
255
255
255
255
255
255
255
255
255
255
255
255
255
255
255
255
255
255
255
255
255
255
255
255
255
255
255
255
255
255
255
255
255
255
255
255
255
255
255
255
255
255
255
255
255
255
255
255
255
255
255
255
255
255
255
255
255
255
255
255
255
255
255
255
255
255
255
255
255
255
255
255
255
255
255
255
255
255
255
255
255
255
255
255
255
255
255
255
255
255
255
255
255
255
255
255
255
255
255
255
255
255
255
255
255
255
255
255
255
255
255
255
255
255
255
255
255
255
255
255
255
255
255
255
255
255
255
255
255
255
255
255
255
255
255
255
255
255
255
255
255
255
255
255
255
255
255
255
255
255
255
255
255
255
255
255
255
255
255
255
255
255
255
255
255
255
255
255
255
255
255
255
255
255
255
255
255
255
255
255
255
255
255
255
255
255
255
255
255
255
255
255
255
255
255
255
255
255
255
255
255
255
255
255
255
255
255
255
255
255
255
255
255
255
255
255
255
255
255
255
255
255
255
255
255
255
255
255
255
255
255
255
255
255
255
230
207
207
230
255
255
255
255
255
230
172
129
107
143
191
255
255
255
255
255
255
255
255
255
255
255
255
255
152
76
38
25
38
95
191
255
255
191
95
47
25
16
16
16
63
127
255
255
255
255
255
255
255
255
255
255
191
127
63
9
0
6
4
16
63
191
152
76
19
0
6
16
15
15
0
63
127
255
255
255
255
255
255
255
255
255
114
32
16
34
38
45
34
7
14
47
47
7
16
38
57
85
107
71
35
0
63
191
255
255
255
255
255
255
255
255
57
6
23
155
230
255
143
71
8
5
2
34
95
191
255
255
255
255
95
16
16
95
255
255
255
255
255
255
255
230
38
0
38
230
255
255
255
191
13
0
3
93
230
255
255
255
255
255
191
47
0
47
191
255
255
255
255
255
255
172
25
6
57
255
255
255
255
255
10
0
3
129
255
255
255
255
255
255
255
86
16
16
114
255
255
255
255
255
255
129
16
16
85
255
255
255
255
255
12
0
2
116
255
255
255
255
255
255
255
172
25
6
57
255
255
255
255
255
255
107
16
16
107
255
255
255
255
255
32
0
1
48
255
255
255
255
255
255
255
230
38
0
38
230
255
255
255
255
255
80
8
8
80
255
255
255
255
255
64
2
0
23
255
255
255
255
255
255
255
255
57
6
25
172
255
255
255
255
255
64
3
3
76
255
255
255
255
255
129
2
0
10
230
255
255
255
255
255
255
255
85
16
16
129
255
255
255
255
255
64
4
7
97
255
255
255
255
255
172
9
0
11
207
255
255
255
255
255
255
255
107
16
16
107
255
255
255
255
255
114
38
57
172
255
255
255
255
255
230
45
6
30
207
255
255
255
255
255
255
255
143
32
32
143
255
255
255
255
255
203
191
191
242
255
255
255
255
255
255
152
127
127
230
255
255
255
255
255
255
255
191
127
127
191
255
255
255
255
255
255
255
255
255
255
255
255
255
255
255
255
255
255
255
255
255
255
255
255
255
255
255
255
255
255
255
255
255
255
255
255
255
255
255
255
255
255
255
255
255
255
255
255
255
255
255
255
255
255
255
255
255
255
255
255
255
255
255
