P2
# CREATOR: GIMP PNM Filter Version 1.1
30 30
255
255
255
255
255
255
255
255
255
255
255
255
255
255
255
255
255
255
255
255
255
255
255
255
255
255
255
255
255
255
255
255
255
255
255
255
255
255
255
255
255
255
255
255
255
255
255
255
255
255
255
255
255
255
255
255
255
255
255
255
255
255
255
255
255
255
255
255
255
255
255
255
255
255
255
255
255
255
255
255
255
255
255
255
255
255
255
255
255
255
255
255
255
255
255
255
255
255
255
255
255
255
255
255
255
255
255
255
255
255
255
255
255
255
255
255
255
255
255
255
255
255
255
255
255
255
255
255
255
255
255
255
255
255
255
255
255
255
255
255
255
255
255
255
255
255
255
255
255
255
255
255
255
255
255
255
255
255
255
255
255
255
255
255
255
255
255
255
255
255
255
255
255
255
255
255
255
255
255
255
255
255
255
255
255
255
255
255
255
255
255
255
255
255
255
255
255
255
255
255
255
255
255
255
255
255
255
255
255
255
255
255
255
255
255
255
255
255
255
255
255
255
255
255
255
255
255
255
255
255
255
255
255
255
255
255
255
255
255
255
255
255
255
255
255
255
255
255
255
255
255
255
255
255
255
255
255
255
255
255
255
255
255
255
255
255
255
255
255
255
255
255
255
255
255
255
255
255
255
255
255
255
255
255
255
255
255
255
255
255
255
255
255
255
255
255
255
255
255
255
255
255
255
255
255
255
255
255
255
255
255
255
255
255
255
255
255
255
255
255
255
255
255
255
255
255
255
255
255
255
255
255
255
255
255
255
255
255
255
255
191
143
107
129
172
230
255
255
255
255
255
255
191
114
64
85
143
255
255
255
255
255
255
255
255
255
255
255
191
95
47
16
16
16
38
95
191
255
255
191
114
57
38
16
3
5
38
152
255
255
255
255
255
255
255
255
230
127
63
19
0
16
16
16
4
16
63
172
137
68
19
6
0
16
12
2
3
63
230
255
255
255
255
255
255
255
115
51
6
19
47
71
107
85
43
5
8
23
28
6
16
25
47
86
97
28
3
25
172
255
255
255
255
255
255
191
57
0
35
114
191
255
255
255
143
43
1
1
2
38
86
172
230
255
255
93
14
14
103
255
255
255
255
255
255
95
16
16
95
255
255
255
255
255
255
69
3
0
13
124
230
255
255
255
255
155
25
6
68
255
255
255
255
255
230
47
0
38
191
255
255
255
255
255
255
74
1
0
14
172
255
255
255
255
255
187
25
6
54
255
255
255
255
255
172
25
6
57
255
255
255
255
255
255
255
68
2
1
10
129
255
255
255
255
255
187
25
6
54
255
255
255
255
255
129
16
16
85
255
255
255
255
255
255
255
85
6
1
8
107
255
255
255
255
255
187
25
6
54
255
255
255
255
255
107
16
16
107
255
255
255
255
255
255
255
129
6
1
5
107
255
255
255
255
255
187
25
6
54
255
255
255
255
255
107
16
16
107
255
255
255
255
255
255
255
172
10
0
4
107
255
255
255
255
255
187
25
6
54
255
255
255
255
255
85
16
16
129
255
255
255
255
255
255
255
230
16
0
2
97
255
255
255
255
255
187
25
6
54
255
255
255
255
255
62
5
23
154
255
255
255
255
255
255
255
255
25
1
3
116
255
255
255
255
255
187
25
6
54
255
255
255
255
255
54
5
25
187
255
255
255
255
255
255
255
255
68
6
25
155
255
255
255
255
255
187
25
6
54
255
255
255
255
255
91
23
52
207
255
255
255
255
255
255
255
255
152
127
127
230
255
255
255
255
255
207
51
12
91
255
255
255
255
255
174
152
152
233
255
255
255
255
255
255
255
255
255
255
255
255
255
255
255
255
255
230
127
127
152
255
255
255
255
255
255
255
255
255
255
255
255
255
255
255
255
255
255
255
255
255
255
255
255
255
255
255
255
255
255
255
255
255
255
255
255
255
255
255
255
255
255
255
255
255
255
255
255
255
255
255
255
255
255
255
255
255
255
255
255
255
255
255
255
255
255
255
255
255
255
255
255
255
255
255
255
255
255
255
255
255
255
255
255
255
255
255
255
255
255
255
255
