P2
# CREATOR: GIMP PNM Filter Version 1.1
30 30
255
255
255
255
255
255
255
255
255
255
255
255
255
255
255
255
255
255
255
255
255
255
255
255
255
255
255
255
255
255
255
255
255
255
255
255
255
255
255
255
255
255
255
255
255
255
255
255
255
255
255
255
255
255
255
255
255
255
255
255
255
255
255
255
255
255
255
255
255
255
255
255
255
255
255
255
255
255
255
255
255
255
255
255
255
255
255
255
255
255
255
255
255
255
255
255
255
255
255
255
255
255
255
255
255
255
255
255
255
255
255
255
255
255
255
255
255
255
255
255
255
255
255
255
255
255
255
255
255
255
255
255
255
255
255
255
255
255
255
255
255
255
255
255
255
255
255
255
255
255
255
255
255
255
255
255
255
255
255
255
255
255
255
255
255
255
255
255
255
255
255
255
255
255
255
255
255
255
255
255
255
255
255
255
255
255
255
255
255
255
255
255
255
255
255
255
255
255
255
255
255
255
255
255
255
255
255
255
255
255
255
255
255
255
255
255
255
255
255
255
255
255
255
255
255
255
255
255
255
255
255
255
255
255
255
255
255
255
255
255
255
255
255
255
255
255
255
255
255
255
255
255
255
255
255
255
255
255
255
255
255
255
255
255
255
255
255
255
255
255
255
255
255
255
255
255
255
255
255
255
255
255
255
255
255
255
255
255
255
255
255
255
255
255
255
255
255
255
255
255
255
255
255
255
255
255
255
255
255
255
255
255
255
255
255
255
255
255
255
255
255
255
255
255
255
255
255
255
255
255
255
255
255
255
255
255
255
255
255
255
255
255
255
255
255
255
255
255
255
255
255
255
255
255
255
255
255
255
255
255
255
255
255
255
255
255
255
255
255
255
255
255
255
255
255
255
230
172
103
68
68
114
191
255
255
255
255
255
255
255
255
255
255
255
255
255
255
255
143
85
51
54
54
91
152
255
127
51
16
6
6
19
76
152
255
255
255
255
255
255
255
255
255
255
255
255
255
152
31
4
3
6
6
6
57
63
63
7
15
25
25
12
6
63
191
255
255
255
255
255
255
255
255
255
255
255
191
76
3
2
11
25
25
25
0
12
4
51
103
155
155
64
11
16
95
230
255
255
255
255
255
255
255
255
255
230
95
19
10
48
105
187
187
103
17
0
4
77
255
255
255
172
62
5
38
137
255
255
255
255
255
255
255
255
255
172
38
6
57
191
255
255
255
255
24
0
1
73
255
255
255
255
124
25
6
82
255
255
255
255
255
255
255
255
255
103
16
16
103
255
255
255
255
255
43
1
1
43
255
255
255
255
207
25
6
45
255
255
255
255
255
255
255
255
255
68
6
25
155
255
255
255
255
255
87
1
0
19
255
255
255
255
230
38
0
38
230
255
255
255
255
255
255
255
255
54
6
25
187
255
255
255
255
255
155
4
0
8
230
255
255
255
255
57
6
25
172
255
255
255
255
255
255
255
255
45
6
25
207
255
255
255
255
255
230
8
0
4
155
255
255
255
255
103
16
16
103
255
255
255
255
255
255
255
255
38
0
31
230
255
255
255
255
255
255
19
0
1
87
255
255
255
255
155
25
6
68
255
255
255
255
255
255
255
243
47
0
51
255
255
255
255
255
255
255
48
2
2
72
255
255
255
255
207
25
6
45
255
255
255
255
255
255
255
230
57
38
76
255
255
255
255
255
255
255
107
16
16
107
255
255
255
255
230
63
0
76
255
255
255
255
255
255
255
230
115
76
152
255
255
255
255
255
255
255
191
127
127
191
255
255
255
255
255
127
127
127
255
255
255
255
255
255
255
242
191
191
203
255
255
255
255
255
255
255
255
255
255
255
255
255
255
255
255
255
255
255
255
255
255
255
255
255
255
255
255
255
255
255
255
255
255
255
255
255
255
255
255
255
255
255
255
255
255
255
255
255
255
255
255
255
255
255
255
255
255
255
255
255
255
255
255
255
255
255
255
255
255
255
255
255
255
255
255
255
255
255
255
255
255
255
255
255
255
255
255
255
255
255
255
255
255
255
255
255
255
255
255
255
255
255
255
255
255
255
255
255
255
255
255
255
