P2
# CREATOR: GIMP PNM Filter Version 1.1
30 30
255
255
255
255
255
255
255
255
255
255
255
255
255
255
255
255
255
255
255
255
255
255
255
255
255
255
255
255
255
255
255
255
255
255
255
255
255
255
255
255
255
255
255
255
255
255
255
255
255
255
255
255
255
255
255
255
255
255
255
255
255
255
255
255
255
255
255
255
255
255
255
255
255
255
255
255
255
255
255
255
255
255
255
255
255
255
255
255
255
255
255
255
255
255
255
255
255
255
255
255
255
255
255
255
255
255
255
255
255
255
255
255
255
255
255
255
255
255
255
255
255
255
255
255
255
255
255
255
255
255
255
255
255
255
255
255
255
255
255
255
255
255
255
255
255
255
255
255
255
255
255
255
255
255
255
255
255
255
255
255
255
255
255
255
255
255
255
255
255
255
255
255
255
255
255
255
255
255
255
255
255
255
255
255
255
255
255
255
255
255
255
255
255
255
255
255
255
255
255
255
255
255
255
255
255
255
255
255
255
255
255
255
255
255
255
255
255
255
255
255
255
255
255
255
255
255
255
255
255
255
255
255
255
255
255
255
255
255
255
255
255
255
255
255
255
255
255
255
255
255
255
255
255
255
255
255
255
255
255
255
255
255
255
255
255
255
255
255
255
255
255
255
255
255
255
255
255
255
255
255
255
255
255
255
255
255
255
255
255
255
255
255
255
255
255
255
255
255
255
255
255
255
255
255
255
255
255
255
255
255
255
255
255
255
255
255
255
255
255
255
255
255
255
255
255
255
255
255
255
255
255
255
255
255
255
255
255
255
255
255
255
255
255
255
255
255
255
255
255
255
255
255
255
255
255
255
255
255
255
255
255
255
255
255
255
255
255
255
255
255
255
255
255
255
255
255
191
143
85
57
38
31
35
71
143
255
255
255
255
255
255
255
255
255
255
255
255
143
85
51
68
114
191
255
255
152
76
19
16
6
0
0
0
8
63
255
255
255
255
255
255
255
255
255
255
230
127
31
5
3
6
19
76
137
127
63
7
16
15
25
31
31
15
5
31
127
230
255
255
255
255
255
255
255
255
137
51
3
4
12
25
8
3
16
28
6
41
71
129
172
230
255
143
64
7
51
172
255
255
255
255
255
255
255
191
69
6
21
69
116
155
48
2
1
1
27
124
230
255
255
255
255
255
103
16
16
103
255
255
255
255
255
255
255
114
19
16
86
230
255
255
129
14
0
1
42
230
255
255
255
255
255
255
172
25
6
57
255
255
255
255
255
255
255
57
6
25
172
255
255
255
255
52
1
1
30
255
255
255
255
255
255
255
230
38
0
38
230
255
255
255
255
255
191
38
0
47
230
255
255
255
255
116
2
0
13
255
255
255
255
255
255
255
255
57
6
25
172
255
255
255
255
255
143
16
16
71
255
255
255
255
255
207
5
0
5
207
255
255
255
255
255
255
255
85
16
16
129
255
255
255
255
255
107
16
16
107
255
255
255
255
255
255
13
0
2
116
255
255
255
255
255
255
255
107
16
16
107
255
255
255
255
255
107
16
16
107
255
255
255
255
255
255
29
1
1
66
255
255
255
255
255
255
255
129
16
16
85
255
255
255
255
255
125
24
24
125
255
255
255
255
255
255
73
2
2
48
255
255
255
255
255
255
255
172
51
12
114
255
255
255
255
255
143
47
47
143
255
255
255
255
255
255
129
25
6
85
255
255
255
255
255
255
255
230
127
127
152
255
255
255
255
255
191
95
95
191
255
255
255
255
255
255
230
127
127
152
255
255
255
255
255
255
255
255
255
255
255
255
255
255
255
255
223
191
191
223
255
255
255
255
255
255
255
255
255
255
255
255
255
255
255
255
255
255
255
255
255
255
255
255
255
255
255
255
255
255
255
255
255
255
255
255
255
255
255
255
255
255
255
255
255
255
255
255
255
255
255
255
255
255
255
255
255
255
255
255
255
255
255
255
255
255
255
255
255
255
255
255
255
255
255
255
255
255
255
255
255
255
255
255
255
255
255
255
255
255
255
255
255
255
255
255
255
255
255
255
255
255
255
255
255
255
255
255
255
255
255
255
255
255
