P2
# CREATOR: GIMP PNM Filter Version 1.1
30 30
255
255
255
255
255
255
255
255
255
255
255
255
255
255
255
255
255
255
255
255
255
255
255
255
255
255
255
255
255
255
255
255
255
255
255
255
255
255
255
255
255
255
255
255
255
255
255
255
255
255
255
255
255
255
255
255
255
255
255
255
255
255
255
255
255
255
255
255
255
255
255
255
255
255
255
255
255
255
255
255
255
255
255
255
255
255
255
255
255
255
255
255
255
255
255
255
255
255
255
255
255
255
255
255
255
255
255
255
255
255
255
255
255
255
255
255
255
255
255
255
255
255
255
255
255
255
255
255
255
255
255
255
255
255
255
255
255
255
255
255
255
255
255
255
255
255
255
255
255
255
255
255
255
255
255
255
255
255
255
255
255
255
255
255
255
255
255
255
255
255
255
255
255
255
255
255
255
255
255
255
255
255
255
255
255
255
255
255
255
255
255
255
255
255
255
255
255
255
255
255
255
255
255
255
255
255
255
255
255
255
255
255
255
255
255
255
255
255
255
255
255
255
255
255
255
255
255
255
255
255
255
255
255
255
255
255
255
255
255
255
255
255
255
255
255
255
255
255
255
255
255
255
255
255
255
255
255
255
255
255
255
255
255
255
255
255
255
255
255
255
255
255
255
255
255
255
255
255
255
255
255
255
255
255
255
255
255
255
255
255
255
255
255
255
255
255
255
255
255
255
255
255
255
255
255
255
255
230
172
129
107
143
191
255
255
191
114
68
54
68
114
191
255
255
255
255
255
255
255
255
255
255
255
255
255
191
95
47
25
16
16
19
76
152
152
63
16
5
6
6
24
95
191
255
255
255
255
255
255
255
255
255
255
255
191
63
16
0
6
16
16
14
6
47
45
6
9
23
25
25
12
16
63
191
255
255
255
255
255
255
255
255
255
255
95
16
4
28
57
85
107
64
16
2
6
13
64
140
187
155
64
9
16
95
191
255
255
255
255
255
255
255
255
230
47
0
28
143
255
255
255
207
42
1
0
30
191
255
255
255
143
71
12
24
95
255
255
255
255
255
255
255
255
172
25
6
57
255
255
255
255
255
84
1
0
18
255
255
255
255
255
191
47
0
47
191
255
255
255
255
255
255
255
129
16
16
85
255
255
255
255
255
140
4
0
10
230
255
255
255
255
255
95
16
16
95
255
255
255
255
255
255
255
107
16
16
107
255
255
255
255
255
207
5
0
4
172
255
255
255
255
255
191
47
0
47
191
255
255
255
255
255
255
107
16
16
107
255
255
255
255
255
230
10
0
2
129
255
255
255
255
255
255
86
16
16
114
255
255
255
255
255
255
107
16
16
107
255
255
255
255
255
255
16
0
2
97
255
255
255
255
255
255
172
30
6
57
230
255
255
255
255
255
107
16
16
107
255
255
255
255
255
255
24
0
1
72
255
255
255
255
255
255
230
57
6
30
172
255
255
255
255
255
107
16
16
107
255
255
255
255
255
255
36
1
1
54
255
255
255
255
255
255
255
64
8
8
97
255
255
255
255
255
107
16
16
107
255
255
255
255
255
255
45
1
1
45
255
255
255
255
255
255
255
80
4
4
80
255
255
255
255
255
125
24
24
125
255
255
255
255
255
255
60
2
2
60
255
255
255
255
255
255
255
97
8
8
64
255
255
255
255
255
143
47
47
143
255
255
255
255
255
255
107
16
16
107
255
255
255
255
255
255
255
129
25
6
85
255
255
255
255
255
191
95
95
191
255
255
255
255
255
255
191
127
127
191
255
255
255
255
255
255
255
172
32
32
114
255
255
255
255
255
223
191
191
223
255
255
255
255
255
255
255
255
255
255
255
255
255
255
255
255
255
191
127
127
191
255
255
255
255
255
255
255
255
255
255
255
255
255
255
255
255
255
255
255
255
255
255
255
255
255
255
255
255
255
255
255
255
255
255
255
255
255
255
255
255
255
255
255
255
255
255
255
255
255
255
255
255
255
255
255
255
255
255
255
255
255
255
255
255
255
255
255
255
255
255
255
255
255
255
255
255
255
255
255
255
255
255
255
255
255
255
255
255
255
255
255
255
255
