P2
# CREATOR: GIMP PNM Filter Version 1.1
30 30
255
255
255
255
255
255
255
255
255
255
255
255
255
255
255
255
255
255
255
255
255
255
255
255
255
255
255
255
255
255
255
255
255
255
255
255
255
255
255
255
255
255
255
255
255
255
255
255
255
255
255
255
255
255
255
255
255
255
255
255
255
255
255
255
255
255
255
255
255
255
255
255
255
255
255
255
255
255
255
255
255
255
255
255
255
255
255
255
255
255
255
255
255
255
255
255
255
255
255
255
255
255
255
255
255
255
255
255
255
255
255
255
255
255
255
255
255
255
255
255
255
255
255
255
255
255
255
255
255
255
255
255
255
255
255
255
255
255
255
255
255
255
255
255
255
255
255
255
255
255
255
255
255
255
255
255
255
255
255
255
255
255
255
255
255
255
255
255
255
255
255
255
255
255
255
255
255
255
255
255
255
255
255
255
255
255
255
255
255
255
255
255
255
255
255
255
255
255
255
255
255
255
255
255
255
255
255
255
255
255
255
255
255
255
255
255
255
255
255
255
255
255
255
255
255
255
255
255
255
255
255
255
255
255
255
255
255
255
255
255
255
255
255
255
255
255
255
255
255
255
255
255
255
255
255
255
255
255
255
255
255
255
255
255
255
255
255
255
255
255
255
255
255
255
255
255
255
255
255
255
255
255
255
255
255
255
255
255
255
255
255
255
255
255
255
255
255
255
255
255
255
255
255
255
255
255
255
255
255
255
255
255
255
255
255
255
255
255
255
255
255
255
255
255
255
255
255
255
255
255
255
255
255
255
255
255
255
255
255
255
255
255
255
255
255
255
255
255
255
255
255
255
255
255
255
255
255
255
255
255
255
255
255
255
255
255
255
255
230
230
230
255
255
255
255
255
191
114
68
68
114
191
255
255
255
255
255
255
255
255
255
255
255
255
255
255
255
127
63
30
57
114
191
255
255
152
76
19
6
6
16
63
127
255
255
255
255
255
255
255
255
255
255
255
255
255
127
63
0
6
6
16
63
127
127
63
6
16
25
25
11
0
63
191
255
255
255
255
255
255
255
255
255
255
255
127
63
0
38
38
30
15
0
47
31
0
28
86
155
155
64
18
16
95
191
255
255
255
255
255
255
255
255
255
191
63
0
47
127
230
172
86
42
0
4
8
64
230
255
255
191
95
16
24
95
255
255
255
255
255
255
255
255
255
114
16
16
86
255
255
255
255
115
10
0
5
116
255
255
255
255
191
38
0
47
230
255
255
255
255
255
255
255
255
57
6
25
172
255
255
255
255
230
19
0
3
87
255
255
255
255
255
57
6
25
172
255
255
255
255
255
255
255
255
38
0
31
230
255
255
255
255
255
29
1
1
66
255
255
255
255
255
103
16
16
103
255
255
255
255
255
255
255
230
31
0
38
255
255
255
255
255
255
45
1
1
45
255
255
255
255
255
172
25
6
57
255
255
255
255
255
255
255
207
25
6
45
255
255
255
255
255
255
55
1
1
36
255
255
255
255
255
230
38
0
38
230
255
255
255
255
255
255
185
23
5
49
255
255
255
255
255
255
87
3
1
38
255
255
255
255
255
255
57
6
25
172
255
255
255
255
255
255
187
25
5
54
255
255
255
255
255
255
155
25
6
68
255
255
255
255
255
255
85
16
16
129
255
255
255
255
255
255
207
52
23
91
255
255
255
255
255
255
230
127
127
152
255
255
255
255
255
255
129
16
16
85
255
255
255
255
255
255
233
152
152
174
255
255
255
255
255
255
255
255
255
255
255
255
255
255
255
255
172
25
6
57
255
255
255
255
255
255
255
255
255
255
255
255
255
255
255
255
255
255
255
255
255
255
255
255
255
255
230
63
0
76
255
255
255
255
255
255
255
255
255
255
255
255
255
255
255
255
255
255
255
255
255
255
255
255
255
255
255
127
127
127
255
255
255
255
255
255
255
255
255
255
255
255
255
255
255
255
255
255
255
255
255
255
255
255
255
255
255
255
255
255
255
255
255
255
255
255
255
255
255
255
255
255
255
255
255
255
255
255
255
255
255
255
255
255
255
255
255
255
255
255
255
255
255
255
