P2
# CREATOR: GIMP PNM Filter Version 1.1
30 30
255
255
255
255
255
255
255
255
255
255
255
255
255
255
255
255
255
255
255
255
255
255
255
255
255
255
255
255
255
255
255
255
255
255
255
255
255
255
255
255
255
255
255
255
255
255
255
255
255
255
255
255
255
255
255
255
255
255
255
255
255
255
255
255
255
255
255
255
255
255
255
255
255
255
255
255
255
255
255
255
255
255
255
255
255
255
255
255
255
255
255
255
255
255
255
255
255
255
255
255
255
255
255
255
255
255
255
255
255
255
255
255
255
255
255
255
255
255
255
255
255
255
255
255
255
255
255
255
255
255
255
255
255
255
255
255
255
255
255
255
255
255
255
255
255
255
255
255
255
255
255
255
255
255
255
255
255
255
255
255
255
255
255
255
255
255
255
255
255
255
255
255
255
255
255
255
255
255
255
255
255
255
255
255
255
255
255
255
255
255
255
255
255
255
255
255
255
255
255
255
255
255
255
255
255
255
255
255
255
255
255
255
255
255
255
255
255
255
255
255
255
255
255
255
255
255
255
255
255
255
255
255
255
255
255
255
255
255
255
255
255
255
255
255
255
255
255
255
255
255
255
255
255
255
255
255
255
255
255
255
255
255
255
255
255
255
255
255
255
255
255
255
255
255
255
255
255
255
255
255
255
255
255
255
255
255
255
255
255
255
255
255
255
255
255
255
255
255
255
255
255
255
255
255
255
255
255
255
255
255
255
255
255
255
255
255
255
255
255
255
255
255
255
255
255
255
255
255
255
255
255
255
255
255
255
255
255
255
255
255
255
255
255
255
255
255
255
255
255
255
255
255
255
255
255
255
255
255
255
255
255
255
255
255
255
255
255
255
255
230
207
207
230
255
255
255
255
255
255
255
255
255
255
255
255
255
255
255
255
255
255
255
255
255
255
255
255
230
115
57
19
25
63
191
255
255
255
255
255
255
255
255
255
255
255
255
255
255
255
255
255
255
255
255
255
255
191
63
25
0
4
2
16
95
230
255
191
143
107
85
68
82
137
230
255
255
255
255
255
255
255
255
255
255
255
191
95
16
2
28
34
20
3
38
172
127
63
16
16
16
6
6
51
127
255
255
255
255
255
255
255
255
255
255
255
95
24
10
57
114
255
114
19
14
43
57
0
16
15
15
25
19
6
63
191
255
255
255
255
255
255
255
255
255
191
47
0
47
191
255
255
191
57
3
8
4
57
71
107
129
155
92
17
19
95
255
255
255
255
255
255
255
255
255
143
16
16
71
255
255
255
255
93
4
0
15
152
255
255
255
255
191
38
0
47
230
255
255
255
255
255
255
255
255
85
16
16
129
255
255
255
255
140
3
0
10
230
255
255
255
255
255
57
6
25
172
255
255
255
255
255
255
255
255
57
6
25
172
255
255
255
255
169
5
0
7
172
255
255
255
255
255
103
16
16
103
255
255
255
255
255
255
255
230
38
0
38
230
255
255
255
255
207
8
0
3
129
255
255
255
255
255
172
25
6
57
255
255
255
255
255
255
255
172
25
6
57
255
255
255
255
255
230
13
0
2
107
255
255
255
255
255
230
38
0
38
230
255
255
255
255
255
255
129
16
16
85
255
255
255
255
255
255
16
0
2
97
255
255
255
255
255
255
45
6
25
207
255
255
255
255
255
255
85
16
16
129
255
255
255
255
255
255
24
0
1
72
255
255
255
255
255
255
68
6
25
155
255
255
255
255
255
255
114
12
51
172
255
255
255
255
255
255
48
2
2
72
255
255
255
255
255
255
85
16
16
129
255
255
255
255
255
255
152
127
127
230
255
255
255
255
255
255
107
16
16
107
255
255
255
255
255
255
143
32
32
143
255
255
255
255
255
255
255
255
255
255
255
255
255
255
255
255
191
127
127
191
255
255
255
255
255
255
191
127
127
191
255
255
255
255
255
255
255
255
255
255
255
255
255
255
255
255
255
255
255
255
255
255
255
255
255
255
255
255
255
255
255
255
255
255
255
255
255
255
255
255
255
255
255
255
255
255
255
255
255
255
255
255
255
255
255
255
255
255
255
255
255
255
255
255
