P2
# CREATOR: GIMP PNM Filter Version 1.1
30 30
255
255
255
255
255
255
255
255
255
255
255
255
255
255
255
255
255
255
255
255
255
255
255
255
255
255
255
255
255
255
255
255
255
255
255
255
255
255
255
255
255
255
255
255
255
255
255
255
255
255
255
255
255
255
255
255
255
255
255
255
255
255
255
255
255
255
255
255
255
255
255
255
255
255
255
255
255
255
255
255
255
255
255
255
255
255
255
255
255
255
255
255
255
255
255
255
255
255
255
255
255
255
255
255
255
255
255
255
255
255
255
255
255
255
255
255
255
255
255
255
255
255
255
255
255
255
255
255
255
255
255
255
255
255
255
255
255
255
255
255
255
255
255
255
255
255
255
255
255
255
255
255
255
255
255
255
255
255
255
255
255
255
255
255
255
255
255
255
255
255
255
255
255
255
255
255
255
255
255
255
255
255
255
255
255
255
255
255
255
255
255
255
255
255
255
255
255
255
255
255
255
255
255
255
255
255
255
255
255
255
255
255
255
255
255
255
255
255
255
255
255
255
255
255
255
255
255
255
255
255
255
255
255
255
255
255
255
255
255
255
255
255
255
255
255
255
255
255
255
255
255
255
255
255
255
255
255
255
255
255
255
255
255
255
255
255
255
255
255
255
255
255
255
255
255
255
255
255
255
255
255
255
255
255
255
255
255
255
255
255
255
255
255
255
255
255
255
255
255
255
255
255
255
255
255
255
255
255
255
255
255
255
255
255
255
255
255
255
255
255
255
255
255
255
255
255
255
255
255
255
255
255
255
255
255
255
255
255
255
255
255
255
255
255
255
255
255
255
255
255
255
255
255
255
255
255
255
255
255
255
255
255
255
255
255
255
255
255
255
255
255
255
255
255
255
255
191
95
47
38
76
152
255
255
255
255
255
255
255
255
255
255
255
255
255
255
255
255
230
207
187
187
207
230
255
152
63
16
0
0
6
57
115
230
255
255
255
255
255
255
255
255
255
255
255
255
255
191
95
38
25
25
25
63
76
76
6
11
28
31
25
0
51
127
255
255
255
255
255
255
255
255
255
255
255
255
191
63
16
4
6
6
6
0
18
4
28
86
172
230
115
57
7
63
127
230
255
255
255
255
255
255
255
255
255
230
95
16
5
34
54
54
45
16
0
4
53
230
255
255
255
152
68
7
51
172
255
255
255
255
255
255
255
255
255
172
38
4
43
143
255
255
255
23
1
1
73
255
255
255
255
255
114
16
16
86
255
255
255
255
255
255
255
255
255
103
16
16
103
255
255
255
255
28
0
1
65
255
255
255
255
255
191
38
0
47
230
255
255
255
255
255
255
255
255
57
6
25
172
255
255
255
255
35
0
1
52
255
255
255
255
255
255
57
6
25
172
255
255
255
255
255
255
255
191
38
0
47
230
255
255
255
255
44
1
0
43
255
255
255
255
255
255
85
16
16
129
255
255
255
255
255
255
255
143
16
16
71
255
255
255
255
255
55
1
1
36
255
255
255
255
255
255
107
16
16
107
255
255
255
255
255
255
255
107
16
16
107
255
255
255
255
255
45
1
1
45
255
255
255
255
255
255
107
16
16
107
255
255
255
255
255
255
255
64
12
12
129
255
255
255
255
255
60
2
2
60
255
255
255
255
255
255
107
16
16
107
255
255
255
255
255
255
255
57
3
25
172
255
255
255
255
255
107
16
16
107
255
255
255
255
255
255
85
16
16
129
255
255
255
255
255
255
255
76
32
63
230
255
255
255
255
255
191
127
127
191
255
255
255
255
255
255
85
6
25
129
255
255
255
255
255
255
255
191
191
191
255
255
255
255
255
255
255
255
255
255
255
255
255
255
255
255
114
32
32
172
255
255
255
255
255
255
255
255
255
255
255
255
255
255
255
255
255
255
255
255
255
255
255
255
255
255
191
127
127
191
255
255
255
255
255
255
255
255
255
255
255
255
255
255
255
255
255
255
255
255
255
255
255
255
255
255
255
255
255
255
255
255
255
255
255
255
255
255
255
255
255
255
255
255
255
255
255
255
255
255
255
255
255
255
255
255
255
255
255
255
255
255
255
255
