P2
# CREATOR: GIMP PNM Filter Version 1.1
30 30
255
255
255
255
255
255
255
255
255
255
255
255
255
255
255
255
255
255
255
255
255
255
255
255
255
255
255
255
255
255
255
255
255
255
255
255
255
255
255
255
255
255
255
255
255
255
255
255
255
255
255
255
255
255
255
255
255
255
255
255
255
255
255
255
255
255
255
255
255
255
255
255
255
255
255
255
255
255
255
255
255
255
255
255
255
255
255
255
255
255
255
255
255
255
255
255
255
255
255
255
255
255
255
255
255
255
255
255
255
255
255
255
255
255
255
255
255
255
255
255
255
255
255
255
255
255
255
255
255
255
255
255
255
255
255
255
255
255
255
255
255
255
255
255
255
255
255
255
255
255
255
255
255
255
255
255
255
255
255
255
255
255
255
255
255
255
255
255
255
255
255
255
255
255
255
255
255
255
255
255
255
255
255
255
255
255
255
255
255
255
255
255
255
255
255
255
255
255
255
255
255
255
255
255
255
255
255
255
255
255
255
255
255
255
255
255
255
255
255
255
255
255
255
255
255
255
255
255
255
255
255
255
255
255
255
255
255
255
255
255
255
255
255
255
255
255
255
255
255
255
255
255
255
255
255
255
255
255
255
255
255
255
255
255
255
255
255
255
255
255
255
255
255
255
255
255
255
255
255
255
255
255
255
255
255
255
255
255
255
255
255
255
255
255
255
255
255
255
255
255
255
255
255
255
255
255
255
255
255
255
255
255
255
255
255
255
255
255
255
255
255
255
255
255
255
255
255
255
255
255
255
255
255
255
255
255
255
255
255
255
255
255
255
255
255
255
230
172
129
129
172
230
255
255
255
255
255
255
255
255
255
255
255
255
255
255
255
255
191
143
107
129
172
230
255
191
63
25
12
16
25
47
95
191
255
255
255
255
255
255
255
255
255
255
255
255
191
127
63
24
16
16
28
71
129
95
16
2
12
16
6
0
24
95
191
255
255
255
255
255
255
255
255
255
255
230
95
32
19
24
16
16
3
5
25
22
4
25
64
85
57
38
12
16
63
191
255
255
255
255
255
255
255
255
255
137
38
6
51
107
107
85
28
4
1
4
12
103
255
255
255
191
71
6
16
95
255
255
255
255
255
255
255
255
255
69
6
25
137
255
255
255
143
48
1
0
11
155
255
255
255
255
143
28
0
47
230
255
255
255
255
255
255
255
230
38
0
38
230
255
255
255
255
155
6
0
5
169
255
255
255
255
255
57
6
25
172
255
255
255
255
255
255
255
207
25
6
45
255
255
255
255
255
230
12
0
3
126
255
255
255
255
255
85
16
16
129
255
255
255
255
255
255
255
187
25
6
54
255
255
255
255
255
255
18
0
1
95
255
255
255
255
255
107
16
16
107
255
255
255
255
255
255
255
155
25
6
68
255
255
255
255
255
255
29
0
1
65
255
255
255
255
255
129
16
16
85
255
255
255
255
255
255
255
129
16
16
85
255
255
255
255
255
255
36
1
1
54
255
255
255
255
255
155
25
6
68
255
255
255
255
255
255
255
107
16
16
107
255
255
255
255
255
255
45
1
1
45
255
255
255
255
255
207
25
6
45
255
255
255
255
255
255
255
85
19
19
143
255
255
255
255
255
255
34
0
0
34
255
255
255
255
255
230
31
0
38
255
255
255
255
255
255
255
95
12
63
191
255
255
255
255
255
255
45
0
0
45
255
255
255
255
255
255
31
0
31
255
255
255
255
255
255
255
127
102
127
255
255
255
255
255
255
255
80
8
8
80
255
255
255
255
255
255
63
0
63
255
255
255
255
255
255
255
230
230
230
255
255
255
255
255
255
255
191
127
127
191
255
255
255
255
255
255
127
127
127
255
255
255
255
255
255
255
255
255
255
255
255
255
255
255
255
255
255
255
255
255
255
255
255
255
255
255
255
255
255
255
255
255
255
255
255
255
255
255
255
255
255
255
255
255
255
255
255
255
255
255
255
255
255
255
255
255
255
255
255
255
255
255
255
255
255
255
255
255
255
255
255
255
255
255
255
255
255
255
255
255
255
255
255
255
255
255
255
255
255
255
255
255
255
