P2
# CREATOR: GIMP PNM Filter Version 1.1
30 30
255
255
255
255
255
255
255
255
255
255
255
255
255
255
255
255
255
255
255
255
255
255
255
255
255
255
255
255
255
255
255
255
255
255
255
255
255
255
255
255
255
255
255
255
255
255
255
255
255
255
255
255
255
255
255
255
255
255
255
255
255
255
255
255
255
255
255
255
255
255
255
255
255
255
255
255
255
255
255
255
255
255
255
255
255
255
255
255
255
255
255
255
255
255
255
255
255
255
255
255
255
255
255
255
255
255
255
255
255
255
255
255
255
255
255
255
255
255
255
255
255
255
255
255
255
255
255
255
255
255
255
255
255
255
255
255
255
255
255
255
255
255
255
255
255
255
255
255
255
255
255
255
255
255
255
255
255
255
255
255
255
255
255
255
255
255
255
255
255
255
255
255
255
255
255
255
255
255
255
255
255
255
255
255
255
255
255
255
255
255
255
255
255
255
255
255
255
255
255
255
255
255
255
255
255
255
255
255
255
255
255
255
255
255
255
255
255
255
255
255
255
255
255
255
255
255
255
255
255
255
255
255
255
255
255
255
255
255
255
255
255
255
255
255
255
255
255
255
255
255
255
255
255
255
255
255
255
255
255
255
255
255
255
255
255
255
255
255
255
255
255
255
255
255
255
255
255
255
255
255
255
255
255
255
255
255
255
255
255
255
255
255
255
255
255
255
255
255
255
255
255
255
255
255
255
255
255
255
255
255
255
255
255
255
255
255
255
255
255
255
255
255
255
255
255
255
255
255
255
255
255
255
255
255
255
255
255
255
255
255
255
255
255
255
255
255
230
172
103
85
85
107
143
191
255
255
255
255
255
255
255
255
255
255
255
255
255
255
255
191
114
68
91
152
255
152
63
25
14
6
16
16
24
95
191
255
255
255
255
255
255
255
255
255
255
255
255
230
127
63
19
4
6
63
143
76
6
3
14
25
15
15
12
16
63
191
255
255
255
255
255
255
255
255
255
255
255
137
51
6
17
19
10
16
53
14
10
31
93
129
129
107
48
6
16
114
255
255
255
255
255
255
255
255
255
255
191
69
6
28
93
116
69
14
7
7
16
129
255
255
255
255
129
19
4
57
255
255
255
255
255
255
255
255
255
255
95
19
16
95
230
255
172
30
1
1
23
155
255
255
255
255
230
38
0
38
230
255
255
255
255
255
255
255
255
230
47
0
38
191
255
255
230
57
1
0
17
187
255
255
255
255
255
57
6
25
172
255
255
255
255
255
255
255
255
172
25
6
57
255
255
255
255
103
4
0
10
187
255
255
255
255
255
85
16
16
129
255
255
255
255
255
255
255
255
129
16
16
85
255
255
255
255
155
5
0
7
187
255
255
255
255
255
107
16
16
107
255
255
255
255
255
255
255
255
85
16
16
129
255
255
255
255
207
5
0
4
187
255
255
255
255
255
129
16
16
85
255
255
255
255
255
255
255
255
57
6
25
172
255
255
255
255
230
11
0
7
207
255
255
255
255
255
155
25
6
68
255
255
255
255
255
255
255
230
38
0
38
230
255
255
255
255
255
38
0
31
230
255
255
255
255
255
187
25
6
54
255
255
255
255
255
255
255
172
12
3
28
255
255
255
255
255
255
127
127
127
255
255
255
255
255
255
187
25
6
54
255
255
255
255
255
255
255
172
16
0
57
255
255
255
255
255
255
255
255
255
255
255
255
255
255
255
207
51
12
91
255
255
255
255
255
255
255
191
63
63
95
255
255
255
255
255
255
255
255
255
255
255
255
255
255
255
230
127
127
152
255
255
255
255
255
255
255
255
255
255
255
255
255
255
255
255
255
255
255
255
255
255
255
255
255
255
255
255
255
255
255
255
255
255
255
255
255
255
255
255
255
255
255
255
255
255
255
255
255
255
255
255
255
255
255
255
255
255
255
255
255
255
255
255
255
255
255
255
255
255
255
255
255
255
255
255
255
255
255
255
255
255
255
255
255
255
255
255
255
255
255
255
255
255
255
255
255
255
255
255
255
255
255
255
255
255
255
255
255
255
255
255
255
255
255
255
255
255
255
255
255
255
255
255
