P2
# CREATOR: GIMP PNM Filter Version 1.1
30 30
255
255
255
255
255
255
255
255
255
255
255
255
255
255
255
255
255
255
255
255
255
255
255
255
255
255
255
255
255
255
255
255
255
255
255
255
255
255
255
255
255
255
255
255
255
255
255
255
255
255
255
255
255
255
255
255
255
255
255
255
255
255
255
255
255
255
255
255
255
255
255
255
255
255
255
255
255
255
255
255
255
255
255
255
255
255
255
255
255
255
255
255
255
255
255
255
255
255
255
255
255
255
255
255
255
255
255
255
255
255
255
255
255
255
255
255
255
255
255
255
255
255
255
255
255
255
255
255
255
255
255
255
255
255
255
255
255
255
255
255
255
255
255
255
255
255
255
255
255
255
255
255
255
255
255
255
255
255
255
255
255
255
255
255
255
255
255
255
255
255
255
255
255
255
255
255
255
255
255
255
255
255
255
255
255
255
255
255
255
255
255
255
255
255
255
255
255
255
255
255
255
255
255
255
255
255
255
255
255
255
255
255
255
255
255
255
255
255
255
255
255
255
255
255
255
255
255
255
255
255
255
255
255
255
255
255
255
255
255
255
255
255
255
255
255
255
255
255
255
255
255
255
255
255
255
255
255
255
255
255
255
255
255
255
255
255
255
255
255
255
255
255
255
255
255
255
255
255
255
255
255
255
255
255
255
255
255
255
255
255
255
255
255
255
255
255
255
255
255
255
255
255
255
255
255
255
255
255
255
255
255
255
255
255
255
255
255
255
255
255
255
255
255
255
255
255
255
255
255
255
255
255
255
255
255
255
255
255
255
255
255
255
255
255
255
255
255
255
255
255
255
255
255
255
255
255
255
255
255
255
255
255
255
255
255
255
255
255
255
230
207
187
207
230
255
255
255
255
191
143
107
107
143
191
255
255
255
255
255
255
255
255
255
255
255
255
255
191
95
47
25
25
25
57
115
230
255
127
63
16
16
16
16
63
127
255
255
255
255
255
255
255
255
255
255
255
152
63
16
0
6
6
6
0
51
115
127
63
0
16
16
16
16
0
63
127
255
255
255
255
255
255
255
255
255
191
76
6
9
34
45
54
45
38
6
34
25
6
51
71
107
107
71
35
0
63
191
255
255
255
255
255
255
255
255
114
19
12
64
172
255
255
255
152
57
0
1
19
137
255
255
255
255
71
16
16
143
255
255
255
255
255
255
255
230
57
6
30
172
255
255
255
255
255
78
2
0
17
230
255
255
255
255
129
16
16
85
255
255
255
255
255
255
255
172
30
6
57
230
255
255
255
255
255
116
2
0
13
255
255
255
255
255
172
30
6
57
230
255
255
255
255
255
255
129
16
16
85
255
255
255
255
255
255
116
2
0
13
230
255
255
255
255
230
57
6
30
172
255
255
255
255
255
255
85
16
16
129
255
255
255
255
255
255
107
3
0
10
172
255
255
255
255
255
85
16
16
129
255
255
255
255
255
255
68
6
25
155
255
255
255
255
255
255
129
5
1
5
129
255
255
255
255
255
107
16
16
107
255
255
255
255
255
255
54
6
25
187
255
255
255
255
255
255
155
10
0
4
107
255
255
255
255
255
107
16
16
107
255
255
255
255
255
255
73
9
38
198
255
255
255
255
255
255
207
17
1
6
129
255
255
255
255
255
107
16
16
107
255
255
255
255
255
255
91
38
57
207
255
255
255
255
255
255
230
57
6
30
172
255
255
255
255
255
107
16
16
107
255
255
255
255
255
255
152
76
115
230
255
255
255
255
255
255
255
152
127
127
230
255
255
255
255
255
143
32
32
143
255
255
255
255
255
255
203
191
191
242
255
255
255
255
255
255
255
255
255
255
255
255
255
255
255
255
191
127
127
191
255
255
255
255
255
255
255
255
255
255
255
255
255
255
255
255
255
255
255
255
255
255
255
255
255
255
255
255
255
255
255
255
255
255
255
255
255
255
255
255
255
255
255
255
255
255
255
255
255
255
255
255
255
255
255
255
255
255
255
255
255
255
255
255
255
255
255
255
255
255
255
255
255
255
255
255
255
255
255
255
255
255
255
255
255
255
255
255
255
255
255
255
255
