P2
# CREATOR: GIMP PNM Filter Version 1.1
30 30
255
255
255
255
255
255
255
255
255
255
255
255
255
255
255
255
255
255
255
255
255
255
255
255
255
255
255
255
255
255
255
255
255
255
255
255
255
255
255
255
255
255
255
255
255
255
255
255
255
255
255
255
255
255
255
255
255
255
255
255
255
255
255
255
255
255
255
255
255
255
255
255
255
255
255
255
255
255
255
255
255
255
255
255
255
255
255
255
255
255
255
255
255
255
255
255
255
255
255
255
255
255
255
255
255
255
255
255
255
255
255
255
255
255
255
255
255
255
255
255
255
255
255
255
255
255
255
255
255
255
255
255
255
255
255
255
255
255
255
255
255
255
255
255
255
255
255
255
255
255
255
255
255
255
255
255
255
255
255
255
255
255
255
255
255
255
255
255
255
255
255
255
255
255
255
255
255
255
255
255
255
255
255
255
255
255
255
255
255
255
255
255
255
255
255
255
255
255
255
255
255
255
255
255
255
255
255
255
255
255
255
255
255
255
255
255
255
255
255
255
255
255
255
255
255
255
255
255
255
255
255
255
255
255
255
255
255
255
255
255
255
255
255
255
255
255
255
255
255
255
255
255
255
255
255
255
255
255
255
255
255
255
255
255
255
255
255
255
255
255
255
255
255
255
255
255
255
255
255
255
255
255
255
255
255
255
255
255
255
255
255
255
255
255
255
255
255
255
255
255
255
255
255
255
255
255
255
255
255
255
255
255
255
255
255
255
255
255
255
255
255
255
255
255
255
255
255
255
255
255
255
255
255
255
255
255
255
255
255
255
191
143
129
172
230
255
255
255
230
172
129
107
143
191
255
255
255
255
255
255
255
255
255
255
255
255
255
255
230
115
57
16
16
38
95
191
255
152
76
30
16
16
16
63
127
255
255
255
255
255
255
255
255
255
255
255
255
255
127
51
0
16
16
4
16
63
114
63
6
5
16
15
16
0
63
127
255
255
255
255
255
255
255
255
255
255
230
127
63
7
47
71
85
43
6
12
28
5
18
52
85
107
71
42
0
63
152
255
255
255
255
255
255
255
255
255
115
51
7
91
152
255
255
143
43
1
3
10
78
207
255
255
255
115
30
6
76
230
255
255
255
255
255
255
255
191
57
0
47
152
255
255
255
255
103
4
0
10
155
255
255
255
255
230
57
6
30
172
255
255
255
255
255
255
255
143
16
16
71
255
255
255
255
255
172
5
0
5
187
255
255
255
255
255
103
16
16
103
255
255
255
255
255
255
255
85
16
16
129
255
255
255
255
255
230
7
0
4
187
255
255
255
255
255
155
25
6
68
255
255
255
255
255
255
255
57
6
25
172
255
255
255
255
255
255
7
0
3
187
255
255
255
255
255
187
25
6
54
255
255
255
255
255
255
255
38
0
31
230
255
255
255
255
255
255
8
0
3
169
255
255
255
255
255
155
25
6
68
255
255
255
255
255
255
255
31
0
31
255
255
255
255
255
255
255
10
0
2
152
255
255
255
255
255
129
16
16
85
255
255
255
255
255
255
230
31
0
38
255
255
255
255
255
255
255
14
0
2
114
255
255
255
255
255
107
16
16
107
255
255
255
255
255
255
210
30
7
52
255
255
255
255
255
255
255
30
1
3
105
255
255
255
255
255
80
12
12
107
255
255
255
255
255
255
207
52
23
91
255
255
255
255
255
255
255
85
16
16
129
255
255
255
255
255
71
8
16
143
255
255
255
255
255
255
230
124
105
152
255
255
255
255
255
255
255
191
127
127
191
255
255
255
255
255
95
31
63
191
255
255
255
255
255
255
252
230
230
233
255
255
255
255
255
255
255
255
255
255
255
255
255
255
255
255
191
191
191
255
255
255
255
255
255
255
255
255
255
255
255
255
255
255
255
255
255
255
255
255
255
255
255
255
255
255
255
255
255
255
255
255
255
255
255
255
255
255
255
255
255
255
255
255
255
255
255
255
255
255
255
255
255
255
255
255
255
255
255
255
255
255
255
255
255
255
255
255
255
255
255
255
255
255
255
255
255
255
255
255
255
255
255
255
255
255
255
255
255
255
255
255
255
