P2
# CREATOR: GIMP PNM Filter Version 1.1
30 30
255
255
255
255
255
255
255
255
255
255
255
255
255
255
255
255
255
255
255
255
255
255
255
255
255
255
255
255
255
255
255
255
255
255
255
255
255
255
255
255
255
255
255
255
255
255
255
255
255
255
255
255
255
255
255
255
255
255
255
255
255
255
255
255
255
255
255
255
255
255
255
255
255
255
255
255
255
255
255
255
255
255
255
255
255
255
255
255
255
255
255
255
255
255
255
255
255
255
255
255
255
255
255
255
255
255
255
255
255
255
255
255
255
255
255
255
255
255
255
255
255
255
255
255
255
255
255
255
255
255
255
255
255
255
255
255
255
255
255
255
255
255
255
255
255
255
255
255
255
255
255
255
255
255
255
255
255
255
255
255
255
255
255
255
255
255
255
255
255
255
255
255
255
255
255
255
255
255
255
255
255
255
255
255
255
255
255
255
255
255
255
255
255
255
255
255
255
255
255
255
255
255
255
255
255
255
255
255
255
255
255
255
255
255
255
255
255
255
255
255
255
255
255
255
255
255
255
255
255
255
255
255
255
255
255
255
255
255
255
255
255
255
255
255
255
255
255
255
255
255
255
255
255
255
255
255
255
255
255
255
255
255
255
255
255
255
255
255
255
255
255
255
255
255
255
255
255
255
255
255
255
255
255
255
255
255
255
230
172
129
143
191
255
255
255
255
255
255
255
255
255
255
255
255
255
255
255
255
230
172
129
129
172
230
255
255
152
63
25
14
19
76
152
255
255
255
255
255
255
255
255
255
255
255
255
255
255
152
63
25
14
16
51
127
255
191
76
6
3
14
16
6
63
127
255
255
255
255
255
255
255
255
255
255
255
255
152
76
6
4
14
16
6
63
127
95
19
10
43
77
71
28
0
63
191
255
255
255
255
255
255
255
255
255
255
191
76
7
23
52
77
85
51
0
47
28
0
47
191
255
230
86
17
16
95
230
255
255
255
255
255
255
255
255
255
95
19
16
95
230
255
255
115
38
3
5
12
71
255
255
255
191
57
6
38
172
255
255
255
255
255
255
255
255
230
47
0
38
191
255
255
255
230
95
7
1
6
107
255
255
255
255
103
16
16
103
255
255
255
255
255
255
255
255
172
25
6
57
255
255
255
255
255
191
19
0
3
80
255
255
255
255
172
30
6
57
230
255
255
255
255
255
255
255
129
16
16
85
255
255
255
255
255
255
30
1
1
60
255
255
255
255
230
57
6
30
172
255
255
255
255
255
255
255
107
16
16
107
255
255
255
255
255
255
55
1
1
36
255
255
255
255
255
85
16
16
129
255
255
255
255
255
255
255
107
16
16
107
255
255
255
255
255
255
65
1
0
28
255
255
255
255
255
107
16
16
107
255
255
255
255
255
255
255
107
16
16
107
255
255
255
255
255
255
79
1
0
22
255
255
255
255
255
107
16
16
107
255
255
255
255
255
255
255
107
16
16
107
255
255
255
255
255
255
59
1
0
16
255
255
255
255
255
107
16
16
107
255
255
255
255
255
255
255
107
16
16
107
255
255
255
255
255
255
65
1
0
28
255
255
255
255
255
107
16
16
107
255
255
255
255
255
255
255
115
19
19
115
255
255
255
255
255
255
97
8
8
64
255
255
255
255
255
107
16
16
107
255
255
255
255
255
255
255
143
38
38
143
255
255
255
255
255
255
191
127
127
191
255
255
255
255
255
107
16
16
107
255
255
255
255
255
255
255
191
115
115
191
255
255
255
255
255
255
255
255
255
255
255
255
255
255
255
71
16
16
143
255
255
255
255
255
255
255
242
230
230
242
255
255
255
255
255
255
255
255
255
255
255
255
255
255
255
95
0
63
191
255
255
255
255
255
255
255
255
255
255
255
255
255
255
255
255
255
255
255
255
255
255
255
255
255
255
127
127
127
255
255
255
255
255
255
255
255
255
255
255
255
255
255
255
255
255
255
255
255
255
255
255
255
255
255
255
255
255
255
255
255
255
255
255
255
255
255
255
255
255
255
255
255
255
255
255
255
255
255
255
255
255
255
255
255
255
255
255
255
255
255
255
255
255
