P2
# CREATOR: GIMP PNM Filter Version 1.1
30 30
255
255
255
255
255
255
255
255
255
255
255
255
255
255
255
255
255
255
255
255
255
255
255
255
255
255
255
255
255
255
255
255
255
255
255
255
255
255
255
255
255
255
255
255
255
255
255
255
255
255
255
255
255
255
255
255
255
255
255
255
255
255
255
255
255
255
255
255
255
255
255
255
255
255
255
255
255
255
255
255
255
255
255
255
255
255
255
255
255
255
255
255
255
255
255
255
255
255
255
255
255
255
255
255
255
255
255
255
255
255
255
255
255
255
255
255
255
255
255
255
255
255
255
255
255
255
255
255
255
255
255
255
255
255
255
255
255
255
255
255
255
255
255
255
255
255
255
255
255
255
255
255
255
255
255
255
255
255
255
255
255
255
255
255
255
255
255
255
255
255
255
255
255
255
255
255
255
255
255
255
255
255
255
255
255
255
255
255
255
255
255
255
255
255
255
255
255
255
255
255
255
255
255
255
255
255
255
255
255
255
255
255
255
255
255
255
255
255
255
255
255
255
255
255
255
255
255
255
255
255
255
255
255
255
255
255
255
255
255
255
255
255
255
255
255
255
255
255
255
255
255
255
255
255
255
255
255
255
255
255
255
255
255
255
255
255
255
255
255
255
255
255
255
255
255
255
255
255
255
255
255
255
255
255
255
255
255
255
255
255
255
255
255
255
255
255
255
255
255
255
255
255
255
255
255
255
255
255
255
255
255
255
255
255
255
255
255
255
255
255
255
255
255
255
255
255
255
255
255
255
255
255
255
255
255
255
255
255
255
255
255
255
255
255
255
255
255
255
255
255
255
255
255
255
255
255
255
255
255
255
255
255
255
255
255
255
255
255
255
255
230
129
97
60
107
143
255
191
95
57
57
114
191
255
255
255
255
255
255
255
255
255
255
255
255
255
255
255
255
191
95
19
4
4
8
57
127
63
19
0
6
24
95
191
255
255
255
255
255
255
255
255
255
255
255
255
255
255
127
63
16
3
4
4
5
16
25
5
17
31
25
12
16
63
191
255
255
255
255
255
255
255
255
255
255
255
191
127
63
0
18
43
64
60
48
2
1
13
103
172
172
64
7
16
95
230
255
255
255
255
255
255
255
255
255
255
143
32
16
53
95
191
255
255
103
2
0
12
230
255
255
143
43
4
38
172
255
255
255
255
255
255
255
255
255
255
71
16
16
143
255
255
255
255
172
3
0
7
230
255
255
255
114
16
16
86
255
255
255
255
255
255
255
255
255
191
47
0
47
191
255
255
255
255
230
5
0
3
207
255
255
255
191
47
0
47
191
255
255
255
255
255
255
255
255
143
16
16
71
255
255
255
255
255
255
10
0
3
140
255
255
255
255
86
16
16
114
255
255
255
255
255
255
255
255
107
16
16
107
255
255
255
255
255
255
15
0
1
105
255
255
255
255
172
25
6
57
255
255
255
255
255
255
255
255
107
16
16
107
255
255
255
255
255
255
23
0
1
78
255
255
255
255
230
38
0
38
230
255
255
255
255
255
255
255
94
12
12
94
255
255
255
255
255
255
38
1
3
87
255
255
255
255
255
57
6
25
172
255
255
255
255
255
255
255
107
12
12
107
255
255
255
255
255
255
85
16
16
129
255
255
255
255
255
85
16
16
129
255
255
255
255
255
255
255
143
47
47
143
255
255
255
255
255
255
191
127
127
191
255
255
255
255
255
143
32
32
143
255
255
255
255
255
255
255
223
191
191
223
255
255
255
255
255
255
255
255
255
255
255
255
255
255
255
191
127
127
191
255
255
255
255
255
255
255
255
255
255
255
255
255
255
255
255
255
255
255
255
255
255
255
255
255
255
255
255
255
255
255
255
255
255
255
255
255
255
255
255
255
255
255
255
255
255
255
255
255
255
255
255
255
255
255
255
255
255
255
255
255
255
255
255
255
255
255
255
255
255
255
255
255
255
255
255
255
255
255
255
255
255
255
255
255
255
255
255
255
255
255
255
255
255
255
255
255
255
255
255
255
255
255
255
255
255
255
255
255
255
255
255
255
255
255
255
255
255
255
255
255
255
255
