P2
# CREATOR: GIMP PNM Filter Version 1.1
30 30
255
255
255
255
255
255
255
255
255
255
255
255
255
255
255
255
255
255
255
255
255
255
255
255
255
255
255
255
255
255
255
255
255
255
255
255
255
255
255
255
255
255
255
255
255
255
255
255
255
255
255
255
255
255
255
255
255
255
255
255
255
255
255
255
255
255
255
255
255
255
255
255
255
255
255
255
255
255
255
255
255
255
255
255
255
255
255
255
255
255
255
255
255
255
255
255
255
255
255
255
255
255
255
255
255
255
255
255
255
255
255
255
255
255
255
255
255
255
255
255
255
255
255
255
255
255
255
255
255
255
255
255
255
255
255
255
255
255
255
255
255
255
255
255
255
255
255
255
255
255
255
255
255
255
255
255
255
255
255
255
255
255
255
255
255
255
255
255
255
255
255
255
255
255
255
255
255
255
255
255
255
255
255
255
255
255
255
255
255
255
255
255
255
255
255
255
255
255
255
255
255
255
255
255
255
255
255
255
255
255
255
255
255
255
255
255
255
255
255
255
255
255
255
255
255
255
255
255
255
255
255
255
255
255
255
255
255
255
255
255
255
255
255
255
255
255
255
255
255
255
255
255
255
255
255
255
255
255
255
255
255
255
255
255
255
255
255
255
255
255
255
255
255
255
255
255
255
255
255
255
255
255
255
255
255
255
255
255
255
255
255
255
255
255
255
255
255
255
255
255
255
255
255
255
255
255
255
255
255
255
255
255
255
255
255
255
255
255
255
255
255
255
255
255
255
255
255
255
255
255
255
255
255
255
255
255
255
255
255
255
255
255
255
255
255
255
255
255
255
255
230
207
187
207
230
255
255
255
255
255
255
255
255
255
255
255
255
255
255
191
143
85
68
54
68
114
191
255
114
57
28
25
25
51
127
255
255
255
255
255
255
255
255
255
255
255
255
191
127
63
24
16
6
6
6
32
127
152
31
1
0
6
5
6
63
152
255
255
255
255
255
255
255
255
255
255
191
95
32
24
24
15
25
25
25
19
47
38
2
4
17
45
49
27
7
76
191
255
255
255
255
255
255
255
255
255
114
24
16
64
107
129
155
187
155
61
3
4
9
64
155
255
230
71
16
19
143
255
255
255
255
255
255
255
255
230
57
6
30
172
255
255
255
255
255
68
1
0
19
191
255
255
255
143
16
16
71
255
255
255
255
255
255
255
255
172
30
6
57
230
255
255
255
255
255
85
2
0
16
255
255
255
255
191
38
0
47
230
255
255
255
255
255
255
255
129
16
16
85
255
255
255
255
255
255
129
2
0
10
255
255
255
255
255
57
6
25
172
255
255
255
255
255
255
255
107
16
16
107
255
255
255
255
255
255
172
3
0
7
255
255
255
255
255
103
16
16
103
255
255
255
255
255
255
255
107
16
16
107
255
255
255
255
255
255
230
3
0
4
255
255
255
255
255
155
25
6
68
255
255
255
255
255
255
255
107
16
16
107
255
255
255
255
255
255
255
3
0
3
255
255
255
255
255
207
25
6
45
255
255
255
255
255
255
255
102
14
14
102
255
255
255
255
255
255
255
7
0
7
255
255
255
255
255
230
31
0
38
255
255
255
255
255
255
255
107
14
14
107
255
255
255
255
255
255
255
31
0
31
255
255
255
255
255
255
38
0
31
230
255
255
255
255
255
255
143
38
38
143
255
255
255
255
255
255
255
127
127
127
255
255
255
255
255
255
76
12
51
230
255
255
255
255
255
255
203
152
152
203
255
255
255
255
255
255
255
255
255
255
255
255
255
255
255
255
152
127
127
230
255
255
255
255
255
255
255
255
255
255
255
255
255
255
255
255
255
255
255
255
255
255
255
255
255
255
255
255
255
255
255
255
255
255
255
255
255
255
255
255
255
255
255
255
255
255
255
255
255
255
255
255
255
255
255
255
255
255
255
255
255
255
255
255
255
255
255
255
255
255
255
255
255
255
255
255
255
255
255
255
255
255
255
255
255
255
255
255
255
255
255
255
255
255
255
255
255
255
255
255
255
255
255
255
255
255
255
255
255
255
255
255
255
255
255
255
255
255
255
255
255
255
