P2
# CREATOR: GIMP PNM Filter Version 1.1
30 30
255
255
255
255
255
255
255
255
255
255
255
255
255
255
255
255
255
255
255
255
255
255
255
255
255
255
255
255
255
255
255
255
255
255
255
255
255
255
255
255
255
255
255
255
255
255
255
255
255
255
255
255
255
255
255
255
255
255
255
255
255
255
255
255
255
255
255
255
255
255
255
255
255
255
255
255
255
255
255
255
255
255
255
255
255
255
255
255
255
255
255
255
255
255
255
255
255
255
255
255
255
255
255
255
255
255
255
255
255
255
255
255
255
255
255
255
255
255
255
255
255
255
255
255
255
255
255
255
255
255
255
255
255
255
255
255
255
255
255
255
255
255
255
255
255
255
255
255
255
255
255
255
255
255
255
255
255
255
255
255
255
255
255
255
255
255
255
255
255
255
255
255
255
255
255
255
255
255
255
255
255
255
255
255
255
255
255
255
255
255
255
255
255
255
255
255
255
255
255
255
255
255
255
255
255
255
255
255
255
255
255
255
255
255
255
255
255
255
255
255
255
255
255
255
255
255
255
255
255
255
255
255
255
255
255
255
255
255
255
255
255
255
255
255
255
255
255
255
255
255
255
255
255
255
255
255
255
255
255
255
255
255
255
255
255
255
255
255
255
255
255
255
255
255
255
255
255
255
255
255
255
255
255
255
255
255
255
255
255
255
255
255
255
255
255
255
255
255
255
255
255
255
255
255
255
255
255
255
255
255
255
255
255
255
255
255
255
255
255
255
255
255
255
255
255
255
255
255
255
255
255
255
255
255
255
255
255
230
230
230
255
255
255
255
255
255
143
85
51
54
68
114
191
255
255
255
255
255
255
255
255
255
255
255
255
255
127
63
25
38
57
103
172
230
191
127
31
6
3
6
6
16
47
95
191
255
255
255
255
255
255
255
255
255
191
127
63
0
6
0
6
16
38
86
71
32
9
6
12
25
25
16
0
19
76
152
255
255
255
255
255
255
255
255
114
32
16
51
38
38
25
16
6
22
19
6
32
97
116
187
155
86
47
14
6
63
152
255
255
255
255
255
255
230
57
6
30
172
255
230
172
103
57
17
4
8
51
255
255
255
255
255
191
86
22
6
76
191
255
255
255
255
255
172
30
6
57
230
255
255
255
255
191
87
3
1
25
230
255
255
255
255
255
207
86
14
19
95
255
255
255
255
255
129
16
16
85
255
255
255
255
255
255
155
5
0
7
172
255
255
255
255
255
255
191
38
0
47
230
255
255
255
255
107
16
16
107
255
255
255
255
255
255
230
17
0
2
78
255
255
255
255
255
255
255
57
6
25
172
255
255
255
255
107
16
16
107
255
255
255
255
255
255
255
32
0
0
23
191
255
255
255
255
255
255
103
16
16
103
255
255
255
255
107
16
16
107
255
255
255
255
255
255
255
77
1
0
5
114
255
255
255
255
255
255
172
25
6
57
255
255
255
255
107
16
16
107
255
255
255
255
255
255
255
129
9
0
1
61
255
255
255
255
255
255
230
38
0
38
230
255
255
255
107
16
16
107
255
255
255
255
255
255
255
230
46
0
1
31
255
255
255
255
255
255
255
45
6
25
207
255
255
255
94
12
12
94
255
255
255
255
255
255
255
255
103
4
0
25
255
255
255
255
255
255
255
68
6
25
155
255
255
255
107
12
12
107
255
255
255
255
255
255
255
255
191
31
0
47
255
255
255
255
255
255
255
114
32
32
172
255
255
255
143
47
47
143
255
255
255
255
255
255
255
255
255
127
127
127
255
255
255
255
255
255
255
191
127
127
191
255
255
255
223
191
191
223
255
255
255
255
255
255
255
255
255
255
255
255
255
255
255
255
255
255
255
255
255
255
255
255
255
255
255
255
255
255
255
255
255
255
255
255
255
255
255
255
255
255
255
255
255
255
255
255
255
255
255
255
255
255
255
255
255
255
255
255
255
255
255
255
255
255
255
255
255
255
255
255
255
255
255
255
255
255
255
255
255
255
255
255
255
255
255
255
255
255
255
255
255
255
255
255
255
255
255
255
255
255
255
255
255
255
255
255
255
255
255
255
255
255
