P2
# CREATOR: GIMP PNM Filter Version 1.1
30 30
255
255
255
255
255
255
255
255
255
255
255
255
255
255
255
255
255
255
255
255
255
255
255
255
255
255
255
255
255
255
255
255
255
255
255
255
255
255
255
255
255
255
255
255
255
255
255
255
255
255
255
255
255
255
255
255
255
255
255
255
255
255
255
255
255
255
255
255
255
255
255
255
255
255
255
255
255
255
255
255
255
255
255
255
255
255
255
255
255
255
255
255
255
255
255
255
255
255
255
255
255
255
255
255
255
255
255
255
255
255
255
255
255
255
255
255
255
255
255
255
255
255
255
255
255
255
255
255
255
255
255
255
255
255
255
255
255
255
255
255
255
255
255
255
255
255
255
255
255
255
255
255
255
255
255
255
255
255
255
255
255
255
255
255
255
255
255
255
255
255
255
255
255
255
255
255
255
255
255
255
255
255
255
255
255
255
255
255
255
255
255
255
255
255
255
255
255
255
255
255
255
255
255
255
255
255
255
255
255
255
255
255
255
255
255
255
255
255
255
255
255
255
255
255
255
255
255
255
255
255
255
255
255
255
255
255
255
255
255
255
255
255
255
255
255
255
255
255
255
255
255
255
255
255
255
255
255
255
255
255
255
255
255
255
255
255
255
255
255
255
255
255
255
255
255
255
255
255
255
255
255
255
255
255
255
255
255
255
255
255
255
255
255
255
255
255
255
255
255
255
255
255
255
255
255
255
255
255
255
255
255
255
255
255
255
255
255
255
255
255
255
255
255
255
255
255
255
255
255
255
255
255
255
255
255
255
230
207
187
187
207
230
255
255
255
191
114
68
54
68
114
191
255
255
255
255
255
255
255
255
255
255
255
255
255
191
95
38
25
25
30
69
137
230
152
76
19
6
6
6
16
63
127
255
255
255
255
255
255
255
255
255
255
255
191
63
16
4
6
6
6
6
38
63
63
9
15
25
25
25
15
0
63
127
255
255
255
255
255
255
255
255
255
191
95
16
7
34
54
54
45
30
3
8
8
52
86
155
187
155
86
35
0
63
191
255
255
255
255
255
255
255
255
95
24
12
71
143
255
255
230
124
11
0
6
116
230
255
255
255
255
95
19
16
95
230
255
255
255
255
255
255
230
47
0
38
191
255
255
255
255
207
11
0
3
86
255
255
255
255
255
191
57
6
38
172
255
255
255
255
255
255
172
25
6
57
255
255
255
255
255
207
19
1
0
47
191
255
255
255
255
255
114
16
16
86
255
255
255
255
255
255
129
16
16
85
255
255
255
255
255
230
47
0
2
12
95
255
255
255
255
255
191
47
0
47
191
255
255
255
255
255
129
16
16
85
255
255
255
255
255
255
71
12
2
0
47
255
255
255
255
255
255
71
16
16
143
255
255
255
255
255
155
25
6
68
255
255
255
255
255
255
143
16
2
0
31
230
255
255
255
255
255
143
16
16
71
255
255
255
255
255
207
25
6
45
255
255
255
255
255
255
191
47
0
1
19
172
255
255
255
255
255
191
38
0
47
230
255
255
255
255
230
38
0
38
230
255
255
255
255
255
255
86
5
1
7
129
255
255
255
255
255
255
57
6
25
172
255
255
255
255
255
45
6
25
207
255
255
255
255
255
255
172
13
0
4
97
255
255
255
255
255
255
85
16
16
129
255
255
255
255
255
54
6
25
187
255
255
255
255
255
255
230
32
1
4
97
255
255
255
255
255
255
107
16
16
107
255
255
255
255
255
91
12
51
207
255
255
255
255
255
255
255
85
16
16
129
255
255
255
255
255
255
143
32
32
143
255
255
255
255
255
152
127
127
230
255
255
255
255
255
255
255
191
127
127
191
255
255
255
255
255
255
191
127
127
191
255
255
255
255
255
255
255
255
255
255
255
255
255
255
255
255
255
255
255
255
255
255
255
255
255
255
255
255
255
255
255
255
255
255
255
255
255
255
255
255
255
255
255
255
255
255
255
255
255
255
255
255
255
255
255
255
255
255
255
255
255
255
255
255
255
255
255
255
255
255
255
255
255
255
255
255
255
255
255
255
255
255
255
255
255
255
255
255
255
255
255
255
255
