P2
# CREATOR: GIMP PNM Filter Version 1.1
30 30
255
255
255
255
255
255
255
255
255
255
255
255
255
255
255
255
255
255
255
255
255
255
255
255
255
255
255
255
255
255
255
255
255
255
255
255
255
255
255
255
255
255
255
255
255
255
255
255
255
255
255
255
255
255
255
255
255
255
255
255
255
255
255
255
255
255
255
255
255
255
255
255
255
255
255
255
255
255
255
255
255
255
255
255
255
255
255
255
255
255
255
255
255
255
255
255
255
255
255
255
255
255
255
255
255
255
255
255
255
255
255
255
255
255
255
255
255
255
255
255
255
255
255
255
255
255
255
255
255
255
255
255
255
255
255
255
255
255
255
255
255
255
255
255
255
255
255
255
255
255
255
255
255
255
255
255
255
255
255
255
255
255
255
255
255
255
255
255
255
255
255
255
255
255
255
255
255
255
255
255
255
255
255
255
255
255
255
255
255
255
255
255
255
255
255
255
255
255
255
255
255
255
255
255
255
255
255
255
255
255
255
255
255
255
255
255
255
255
255
255
255
255
255
255
255
255
255
255
255
255
255
255
255
255
255
255
255
255
255
255
255
255
255
255
255
255
255
255
255
255
255
255
255
255
255
255
255
255
255
255
255
255
255
255
255
255
255
255
255
255
255
255
255
255
255
255
255
255
255
255
255
255
255
255
255
255
255
255
255
255
255
255
255
255
255
255
255
255
255
255
255
255
255
255
255
255
255
255
255
255
255
255
255
255
255
230
172
129
107
107
107
129
172
230
255
255
255
255
255
255
255
255
255
255
255
255
255
230
172
129
85
68
54
91
114
95
38
16
16
16
16
16
38
95
191
255
255
255
255
255
255
255
255
255
255
255
255
127
51
16
16
6
6
4
15
8
4
16
16
16
16
16
6
32
127
255
255
255
255
255
255
255
255
255
255
230
127
63
7
16
15
25
25
13
0
1
19
85
107
107
107
85
57
19
63
127
255
255
255
255
255
255
255
255
255
137
51
7
61
85
129
155
187
39
1
0
24
230
255
255
255
255
191
71
0
63
191
255
255
255
255
255
255
255
255
69
6
25
137
255
255
255
255
97
3
0
12
172
255
255
255
255
255
71
16
16
143
255
255
255
255
255
255
255
191
38
0
47
230
255
255
255
255
143
6
1
4
103
255
255
255
255
255
129
16
16
85
255
255
255
255
255
255
255
143
16
16
71
255
255
255
255
255
191
25
0
1
51
255
255
255
255
255
155
25
6
68
255
255
255
255
255
255
255
107
16
16
107
255
255
255
255
255
255
51
1
0
25
230
255
255
255
255
187
25
6
54
255
255
255
255
255
255
255
80
8
8
80
255
255
255
255
255
255
103
3
0
10
207
255
255
255
255
187
25
6
54
255
255
255
255
255
255
255
80
4
4
80
255
255
255
255
255
255
172
5
0
5
187
255
255
255
255
187
25
6
54
255
255
255
255
255
255
255
80
8
8
80
255
255
255
255
255
255
230
12
0
4
116
255
255
255
255
187
25
6
54
255
255
255
255
255
255
255
86
9
9
86
255
255
255
255
255
255
255
25
2
2
116
255
255
255
255
207
25
6
45
255
255
255
255
255
255
255
107
9
9
107
255
255
255
255
255
255
255
85
6
25
129
255
255
255
255
230
63
0
76
255
255
255
255
255
255
255
143
57
57
143
255
255
255
255
255
255
255
152
127
127
230
255
255
255
255
255
127
127
127
255
255
255
255
255
255
255
242
230
230
242
255
255
255
255
255
255
255
255
255
255
255
255
255
255
255
255
255
255
255
255
255
255
255
255
255
255
255
255
255
255
255
255
255
255
255
255
255
255
255
255
255
255
255
255
255
255
255
255
255
255
255
255
255
255
255
255
255
255
255
255
255
255
255
255
255
255
255
255
255
255
255
255
255
255
255
255
255
255
255
255
255
255
255
255
255
255
255
255
255
255
255
255
255
255
255
255
255
255
255
255
255
255
255
255
255
255
255
255
255
255
255
255
255
255
255
255
255
255
255
255
255
255
255
255
255
255
255
255
255
255
255
255
255
255
255
255
255
255
255
255
255
255
255
