P2
# CREATOR: GIMP PNM Filter Version 1.1
30 30
255
255
255
255
255
255
255
255
255
255
255
255
255
255
255
255
255
255
255
255
255
255
255
255
255
255
255
255
255
255
255
255
255
255
255
255
255
255
255
255
255
255
255
255
255
255
255
255
255
255
255
255
255
255
255
255
255
255
255
255
255
255
255
255
255
255
255
255
255
255
255
255
255
255
255
255
255
255
255
255
255
255
255
255
255
255
255
255
255
255
255
255
255
255
255
255
255
255
255
255
255
255
255
255
255
255
255
255
255
255
255
255
255
255
255
255
255
255
255
255
255
255
255
255
255
255
255
255
255
255
255
255
255
255
255
255
255
255
255
255
255
255
255
255
255
255
255
255
255
255
255
255
255
255
255
255
255
255
255
255
255
255
255
255
255
255
255
255
255
255
255
255
255
255
255
255
255
255
255
255
255
255
255
255
255
255
255
255
255
255
255
255
255
255
255
255
255
255
255
255
255
255
255
255
255
255
255
255
255
255
255
255
255
255
255
255
255
255
255
255
255
255
255
255
255
255
255
255
255
255
255
255
255
255
255
255
255
255
255
255
255
255
255
255
255
255
255
255
255
255
255
255
255
255
255
255
255
255
255
255
255
255
255
255
255
255
255
255
255
255
255
255
255
255
255
255
255
255
255
255
255
255
255
255
255
255
255
255
255
255
255
255
255
255
255
255
255
255
255
255
255
255
255
255
255
255
255
255
255
255
255
255
255
255
255
255
255
230
172
129
143
191
255
255
255
255
255
255
255
255
255
255
255
255
255
255
191
114
57
38
38
76
152
255
255
127
63
31
25
16
19
76
152
255
255
255
255
255
255
255
255
255
255
255
255
127
63
16
6
0
0
6
63
95
127
63
0
0
6
16
16
6
57
115
230
255
255
255
255
255
255
255
255
255
152
63
0
14
25
31
31
23
0
28
19
16
43
38
57
85
71
38
0
51
127
255
255
255
255
255
255
255
255
230
76
6
22
78
172
230
230
104
34
1
2
19
155
255
255
255
230
115
51
6
63
152
255
255
255
255
255
255
255
172
30
6
57
230
255
255
255
230
86
4
0
11
187
255
255
255
255
255
137
36
7
76
230
255
255
255
255
255
255
129
16
16
85
255
255
255
255
255
172
4
0
5
207
255
255
255
255
255
230
57
6
30
172
255
255
255
255
255
255
107
16
16
107
255
255
255
255
255
230
8
0
4
155
255
255
255
255
255
255
103
16
16
103
255
255
255
255
255
255
129
16
16
85
255
255
255
255
255
255
12
0
1
116
255
255
255
255
255
255
172
30
6
57
230
255
255
255
255
255
155
25
6
68
255
255
255
255
255
255
35
0
1
52
255
255
255
255
255
255
230
57
6
30
172
255
255
255
255
255
207
25
6
45
255
255
255
255
255
255
52
1
0
34
255
255
255
255
255
255
255
85
16
16
129
255
255
255
255
255
230
31
0
38
255
255
255
255
255
255
105
1
0
15
255
255
255
255
255
255
255
107
16
16
107
255
255
255
255
255
255
31
0
31
255
255
255
255
255
255
155
6
0
17
255
255
255
255
255
255
255
107
16
16
107
255
255
255
255
255
255
38
0
38
255
255
255
255
255
255
230
31
0
38
255
255
255
255
255
255
255
143
32
32
143
255
255
255
255
255
255
63
12
63
255
255
255
255
255
255
255
127
127
127
255
255
255
255
255
255
255
191
127
127
191
255
255
255
255
255
255
127
102
127
255
255
255
255
255
255
255
255
255
255
255
255
255
255
255
255
255
255
255
255
255
255
255
255
255
255
255
230
230
230
255
255
255
255
255
255
255
255
255
255
255
255
255
255
255
255
255
255
255
255
255
255
255
255
255
255
255
255
255
255
255
255
255
255
255
255
255
255
255
255
255
255
255
255
255
255
255
255
255
255
255
255
255
255
255
255
255
255
255
255
255
255
255
255
255
255
255
255
255
255
255
255
255
255
255
255
255
255
255
255
255
255
255
255
255
255
255
255
255
255
255
255
255
255
255
255
255
255
255
255
255
255
255
255
255
255
255
255
255
255
255
255
255
255
