P2
# CREATOR: GIMP PNM Filter Version 1.1
30 30
255
255
255
255
255
255
255
255
255
255
255
255
255
255
255
255
255
255
255
255
255
255
255
255
255
255
255
255
255
255
255
255
255
255
255
255
255
255
255
255
255
255
255
255
255
255
255
255
255
255
255
255
255
255
255
255
255
255
255
255
255
255
255
255
255
255
255
255
255
255
255
255
255
255
255
255
255
255
255
255
255
255
255
255
255
255
255
255
255
255
255
255
255
255
255
255
255
255
255
255
255
255
255
255
255
255
255
255
255
255
255
255
255
255
255
255
255
255
255
255
255
255
255
255
255
255
255
255
255
255
255
255
255
255
255
255
255
255
255
255
255
255
255
255
255
255
255
255
255
255
255
255
255
255
255
255
255
255
255
255
255
255
255
255
255
255
255
255
255
255
255
255
255
255
255
255
255
255
255
255
255
255
255
255
255
255
255
255
255
255
255
255
255
255
255
255
255
255
255
255
255
255
255
255
255
255
255
255
255
255
255
255
255
255
255
255
255
255
255
255
255
255
255
255
255
255
255
255
255
255
255
255
255
255
255
255
255
255
255
255
255
255
255
255
255
255
255
255
255
255
255
255
255
255
255
255
255
255
255
255
255
255
255
255
255
255
255
255
255
255
255
255
255
255
255
255
255
255
255
255
255
255
255
255
255
255
255
255
255
255
255
255
255
255
255
255
255
255
255
255
255
255
255
255
255
255
255
255
255
255
255
255
255
255
255
255
255
255
255
255
255
255
255
255
255
255
255
255
255
255
255
255
255
255
255
255
255
255
230
230
230
255
143
85
51
68
85
143
191
255
255
255
255
255
255
255
255
255
255
255
255
255
255
255
255
255
191
95
35
25
63
114
31
4
3
6
16
16
63
127
255
255
255
255
255
255
255
255
255
255
255
255
255
255
230
127
63
19
0
2
14
28
2
2
11
25
15
16
0
63
127
255
255
255
255
255
255
255
255
255
255
255
255
255
137
51
6
17
28
23
2
5
1
29
105
155
129
71
35
0
63
191
255
255
255
255
255
255
255
255
255
255
255
255
69
6
19
103
191
152
23
0
3
64
255
255
255
255
95
19
16
95
230
255
255
255
255
255
255
255
255
255
255
191
38
0
47
230
255
255
30
1
1
60
255
255
255
255
191
57
6
38
172
255
255
255
255
255
255
255
255
255
255
143
16
16
71
255
255
255
60
1
1
30
255
255
255
255
255
103
16
16
103
255
255
255
255
255
255
255
255
255
255
107
16
16
107
255
255
255
97
2
0
16
255
255
255
255
255
172
25
6
57
255
255
255
255
255
255
255
255
255
255
107
16
16
107
255
255
255
172
4
0
7
230
255
255
255
255
230
38
0
38
230
255
255
255
255
255
255
255
255
255
107
16
16
107
255
255
255
230
5
0
4
207
255
255
255
255
255
57
6
25
172
255
255
255
255
255
255
255
255
255
107
16
16
107
255
255
255
255
6
0
3
187
255
255
255
255
255
85
16
16
129
255
255
255
255
255
255
255
255
255
94
12
12
94
255
255
255
255
13
0
6
187
255
255
255
255
255
107
16
16
107
255
255
255
255
255
255
255
255
255
107
12
12
107
255
255
255
255
45
6
25
207
255
255
255
255
255
143
32
32
143
255
255
255
255
255
255
255
255
255
143
47
47
143
255
255
255
255
152
127
127
230
255
255
255
255
255
191
127
127
191
255
255
255
255
255
255
255
255
255
223
191
191
223
255
255
255
255
255
255
255
255
255
255
255
255
255
255
255
255
255
255
255
255
255
255
255
255
255
255
255
255
255
255
255
255
255
255
255
255
255
255
255
255
255
255
255
255
255
255
255
255
255
255
255
255
255
255
255
255
255
255
255
255
255
255
255
255
255
255
255
255
255
255
255
255
255
255
255
255
255
255
255
255
255
255
255
255
255
255
255
255
255
255
255
255
255
255
255
255
255
255
255
255
255
255
255
255
255
255
255
255
255
255
255
255
255
255
255
255
255
255
255
255
255
255
255
255
255
255
255
255
255
255
255
255
255
255
255
255
255
255
255
255
255
255
255
255
