P2
# CREATOR: GIMP PNM Filter Version 1.1
30 30
255
255
255
255
255
255
255
255
255
255
255
255
255
255
255
255
255
255
255
255
255
255
255
255
255
255
255
255
255
255
255
255
255
255
255
255
255
255
255
255
255
255
255
255
255
255
255
255
255
255
255
255
255
255
255
255
255
255
255
255
255
255
255
255
255
255
255
255
255
255
255
255
255
255
255
255
255
255
255
255
255
255
255
255
255
255
255
255
255
255
255
255
255
255
255
255
255
255
255
255
255
255
255
255
255
255
255
255
255
255
255
255
255
255
255
255
255
255
255
255
255
255
255
255
255
255
255
255
255
255
255
255
255
255
255
255
255
255
255
255
255
255
255
255
255
255
255
255
255
255
255
255
255
255
255
255
255
255
255
255
255
255
255
255
255
255
255
255
255
255
255
255
255
255
255
255
255
255
255
255
255
255
255
255
255
255
255
255
255
255
255
255
255
255
255
255
255
255
255
255
255
255
255
255
255
255
255
255
255
255
255
255
255
255
255
255
255
255
255
255
255
255
255
255
255
255
255
255
255
255
255
255
255
255
255
255
255
255
255
255
255
255
255
255
255
255
255
255
255
255
255
255
255
255
255
255
255
255
255
255
255
255
255
255
255
255
255
255
255
255
255
255
255
255
255
255
255
255
255
255
255
255
255
255
255
255
255
255
255
255
255
255
255
255
255
255
255
255
255
255
255
255
255
255
255
255
255
255
255
255
255
255
255
255
255
255
255
255
255
255
255
255
255
255
255
255
255
255
255
255
255
255
255
255
255
255
255
255
255
255
255
255
255
255
255
255
255
255
255
255
255
255
255
255
255
255
255
255
255
255
255
255
255
255
255
255
191
172
155
187
207
230
255
255
255
191
143
107
107
129
172
230
255
255
255
255
255
255
255
255
255
255
255
255
230
127
63
19
25
25
25
47
95
143
127
63
24
16
16
16
38
95
191
255
255
255
255
255
255
255
255
255
255
255
115
51
6
19
6
6
6
0
14
23
29
19
23
15
15
15
6
24
95
191
255
255
255
255
255
255
255
255
255
191
57
0
35
68
68
54
45
21
1
4
3
43
107
107
107
85
57
11
16
63
230
255
255
255
255
255
255
255
255
143
16
16
71
255
255
255
255
103
12
0
4
77
255
255
255
255
191
51
2
25
137
255
255
255
255
255
255
255
255
85
16
16
129
255
255
255
255
230
24
0
2
73
255
255
255
255
255
103
19
4
68
255
255
255
255
255
255
255
255
68
6
25
155
255
255
255
255
255
58
1
1
28
255
255
255
255
255
230
47
0
38
191
255
255
255
255
255
255
255
68
6
25
155
255
255
255
255
255
129
4
0
10
230
255
255
255
255
255
71
16
16
143
255
255
255
255
255
255
255
85
16
16
129
255
255
255
255
255
230
8
0
4
155
255
255
255
255
255
129
16
16
85
255
255
255
255
255
255
255
129
16
16
85
255
255
255
255
255
255
14
0
1
66
255
255
255
255
255
155
25
6
68
255
255
255
255
255
255
255
164
38
9
91
255
255
255
255
255
255
36
0
0
54
255
255
255
255
255
207
30
6
45
230
255
255
255
255
255
255
207
57
38
91
255
255
255
255
255
255
80
8
8
80
255
255
255
255
255
230
76
12
61
230
255
255
255
255
255
255
230
115
76
152
255
255
255
255
255
255
191
127
127
191
255
255
255
255
255
255
152
127
127
230
255
255
255
255
255
255
242
191
191
203
255
255
255
255
255
255
255
255
255
255
255
255
255
255
255
255
255
255
255
255
255
255
255
255
255
255
255
255
255
255
255
255
255
255
255
255
255
255
255
255
255
255
255
255
255
255
255
255
255
255
255
255
255
255
255
255
255
255
255
255
255
255
255
255
255
255
255
255
255
255
255
255
255
255
255
255
255
255
255
255
255
255
255
255
255
255
255
255
255
255
255
255
255
255
255
255
255
255
255
255
255
255
255
255
255
255
255
255
255
255
255
255
255
255
255
255
255
255
255
255
255
255
255
255
255
255
255
255
255
255
255
255
255
255
255
255
255
255
255
255
255
255
255
255
