P2
# CREATOR: GIMP PNM Filter Version 1.1
30 30
255
255
255
255
255
255
255
255
255
255
255
255
255
255
255
255
255
255
255
255
255
255
255
255
255
255
255
255
255
255
255
255
255
255
255
255
255
255
255
255
255
255
255
255
255
255
255
255
255
255
255
255
255
255
255
255
255
255
255
255
255
255
255
255
255
255
255
255
255
255
255
255
255
255
255
255
255
255
255
255
255
255
255
255
255
255
255
255
255
255
255
255
255
255
255
255
255
255
255
255
255
255
255
255
255
255
255
255
255
255
255
255
255
255
255
255
255
255
255
255
255
255
255
255
255
255
255
255
255
255
255
255
255
255
255
255
255
255
255
255
255
255
255
255
255
255
255
255
255
255
255
255
255
255
255
255
255
255
255
255
255
255
255
255
255
255
255
255
255
255
255
255
255
255
255
255
255
255
255
255
255
255
255
255
255
255
255
255
255
255
255
255
255
255
255
255
255
255
255
255
255
255
255
255
255
255
255
255
255
255
255
255
255
255
255
255
255
255
255
255
255
255
255
255
255
255
255
255
255
255
255
255
255
255
255
255
255
255
255
255
255
255
255
255
255
255
255
255
255
255
255
255
255
255
255
255
255
255
255
255
255
255
255
255
255
255
255
255
255
255
255
255
255
255
255
255
255
255
255
255
255
255
255
255
255
255
255
255
255
255
255
255
255
255
255
255
255
255
255
255
255
255
255
255
255
255
255
255
255
255
255
255
255
255
255
255
255
255
255
255
255
255
255
255
255
255
255
255
255
255
255
255
255
255
255
255
255
255
255
255
255
255
255
255
255
255
255
255
255
255
255
255
255
255
255
255
255
255
255
255
255
255
255
255
255
255
255
191
143
107
129
172
230
255
255
255
230
172
129
107
107
143
191
255
255
255
255
255
255
255
255
255
255
255
255
191
127
63
24
16
16
38
95
191
255
152
76
30
16
16
16
16
63
127
255
255
255
255
255
255
255
255
255
255
255
143
32
16
18
16
16
4
16
57
95
63
7
6
16
16
16
16
0
63
127
255
255
255
255
255
255
255
255
255
230
71
16
14
80
107
85
43
5
11
19
6
27
57
85
107
107
71
35
0
63
191
255
255
255
255
255
255
255
255
172
38
6
57
191
255
255
143
35
0
3
11
77
230
255
255
255
255
71
16
16
143
255
255
255
255
255
255
255
255
103
16
16
103
255
255
255
255
71
7
1
9
107
255
255
255
255
255
129
16
16
85
255
255
255
255
255
255
255
255
68
6
25
155
255
255
255
255
143
7
1
4
107
255
255
255
255
255
172
30
6
57
230
255
255
255
255
255
255
255
54
6
25
187
255
255
255
255
191
19
0
3
77
255
255
255
255
255
230
57
6
30
172
255
255
255
255
255
255
255
68
6
25
155
255
255
255
255
255
34
0
0
46
255
255
255
255
255
255
114
16
16
86
255
255
255
255
255
255
255
85
16
16
129
255
255
255
255
255
62
1
0
27
255
255
255
255
255
255
191
38
0
47
230
255
255
255
255
255
255
107
16
16
107
255
255
255
255
255
105
3
1
30
255
255
255
255
255
255
255
57
6
25
172
255
255
255
255
255
255
85
16
16
129
255
255
255
255
255
155
25
6
68
255
255
255
255
255
255
255
114
32
32
172
255
255
255
255
255
255
114
12
51
172
255
255
255
255
255
230
127
127
152
255
255
255
255
255
255
255
191
127
127
191
255
255
255
255
255
255
152
127
127
230
255
255
255
255
255
255
255
255
255
255
255
255
255
255
255
255
255
255
255
255
255
255
255
255
255
255
255
255
255
255
255
255
255
255
255
255
255
255
255
255
255
255
255
255
255
255
255
255
255
255
255
255
255
255
255
255
255
255
255
255
255
255
255
255
255
255
255
255
255
255
255
255
255
255
255
255
255
255
255
255
255
255
255
255
255
255
255
255
255
255
255
255
255
255
255
255
255
255
255
255
255
255
255
255
255
255
255
255
255
255
255
255
255
255
255
255
255
255
255
255
255
255
255
255
255
255
255
255
255
255
255
255
255
255
255
255
255
255
255
255
255
255
255
