P2
# CREATOR: GIMP PNM Filter Version 1.1
30 30
255
255
255
255
255
255
255
255
255
255
255
255
255
255
255
255
255
255
255
255
255
255
255
255
255
255
255
255
255
255
255
255
255
255
255
255
255
255
255
255
215
139
69
37
15
8
31
58
124
201
255
255
255
255
255
255
255
255
255
255
255
255
255
255
255
255
255
255
216
81
0
0
0
0
0
0
0
0
0
0
63
205
255
255
255
255
255
255
255
255
255
255
255
255
255
255
255
161
6
0
0
0
0
0
0
0
0
0
0
0
0
2
145
255
255
255
255
255
255
255
255
255
255
255
255
255
135
0
0
0
0
0
0
0
0
0
0
0
0
0
0
0
0
123
255
255
255
255
255
255
255
255
255
255
255
180
1
0
0
0
0
68
160
217
242
247
225
173
94
4
0
0
0
0
173
255
255
255
255
255
255
255
255
255
233
19
0
0
0
33
194
255
255
255
255
255
255
255
255
219
52
0
0
0
17
231
255
255
255
255
255
255
255
255
124
0
0
0
39
232
255
255
255
255
255
255
255
255
255
255
246
67
0
0
0
121
255
255
255
255
255
255
255
246
19
0
0
5
211
255
255
255
255
255
255
255
255
255
255
255
255
233
12
0
0
19
246
255
255
255
255
255
255
181
0
0
0
97
255
255
255
255
255
255
255
255
255
255
255
255
255
255
109
0
0
0
181
255
255
255
255
255
255
121
0
0
0
186
255
255
255
255
255
255
255
255
255
255
255
255
255
255
186
0
0
0
123
255
255
255
255
255
255
65
0
0
0
234
255
255
255
255
255
255
255
255
255
255
255
255
255
255
234
0
0
0
66
255
255
255
255
255
255
38
0
0
0
0
0
0
0
0
0
0
0
0
0
0
0
0
0
0
0
0
0
0
39
255
255
255
255
255
255
20
0
0
0
0
0
0
0
0
0
0
0
0
0
0
0
0
0
0
0
0
0
0
22
255
255
255
255
255
255
5
0
0
0
0
0
0
0
0
0
0
0
0
0
0
0
0
0
0
0
0
0
0
5
255
255
255
255
255
255
13
0
0
0
0
0
0
0
0
0
0
0
0
0
0
0
0
0
0
0
0
0
0
2
255
255
255
255
255
255
30
0
0
0
237
255
255
255
255
255
255
255
255
255
255
255
255
255
255
255
255
255
255
255
255
255
255
255
255
255
51
0
0
0
200
255
255
255
255
255
255
255
255
255
255
255
255
255
255
255
255
255
255
255
255
255
255
255
255
255
101
0
0
0
132
255
255
255
255
255
255
255
255
255
255
255
255
255
255
255
255
255
255
255
255
255
255
255
255
255
163
0
0
0
40
252
255
255
255
255
255
255
255
255
255
255
255
255
255
181
36
101
166
231
255
255
255
255
255
255
231
6
0
0
0
150
255
255
255
255
255
255
255
255
255
255
255
255
250
47
0
0
0
78
255
255
255
255
255
255
255
96
0
0
0
7
191
255
255
255
255
255
255
255
255
255
255
255
112
0
0
0
0
173
255
255
255
255
255
255
255
214
5
0
0
0
7
145
253
255
255
255
255
255
255
255
247
107
0
0
0
0
47
253
255
255
255
255
255
255
255
255
145
0
0
0
0
0
35
136
202
236
251
240
202
132
28
0
0
0
0
4
196
255
255
255
255
255
255
255
255
255
255
98
0
0
0
0
0
0
0
0
0
0
0
0
0
0
0
0
0
151
255
255
255
255
255
255
255
255
255
255
255
255
131
1
0
0
0
0
0
0
0
0
0
0
0
0
0
6
161
255
255
255
255
255
255
255
255
255
255
255
255
255
255
201
70
0
0
0
0
0
0
0
0
0
0
1
75
217
255
255
255
255
255
255
255
255
255
255
255
255
255
255
255
255
255
210
138
71
38
17
3
15
34
79
135
222
255
255
255
255
255
255
255
255
255
255
255
255
255
255
255
255
255
255
255
255
255
255
255
255
255
255
255
255
255
255
255
255
255
255
255
255
255
255
255
255
255
255
255
255
255
255
255
255
255
255
255
255
255
255
255
255
255
255
255
255
255
255
255
255
255
255
255
255
255
255
