P2
# CREATOR: GIMP PNM Filter Version 1.1
30 30
255
255
255
255
255
255
255
255
255
255
255
255
255
255
255
255
255
255
255
255
255
255
255
255
255
255
255
255
255
255
255
255
255
255
255
255
255
255
255
255
255
255
255
255
255
255
255
255
255
255
255
255
255
255
255
255
255
255
255
255
255
255
255
255
255
255
255
255
255
255
255
255
255
255
255
255
255
255
255
255
255
255
255
255
255
255
255
255
255
255
255
255
255
255
255
255
255
255
255
255
255
255
255
255
255
255
255
255
255
255
255
255
255
255
255
255
255
255
255
255
255
255
255
255
255
255
255
255
255
255
255
255
255
255
255
255
255
255
255
255
255
255
255
255
255
255
255
255
255
255
255
255
255
255
255
255
255
255
255
255
255
255
255
255
255
212
158
115
86
65
75
132
222
251
255
255
255
255
255
255
255
255
255
255
255
255
255
255
255
255
255
255
255
255
186
82
39
30
33
27
28
28
34
56
169
255
255
255
255
255
255
255
255
255
255
255
255
255
255
255
255
255
255
83
48
27
26
28
33
30
28
27
25
30
48
116
186
255
255
255
255
255
255
255
255
255
255
255
255
255
255
187
82
39
25
27
29
44
127
112
90
39
30
28
30
47
142
255
255
255
255
255
255
255
255
255
255
255
255
255
255
149
34
26
35
48
114
158
255
255
255
255
168
74
27
28
61
255
255
255
255
255
255
255
255
255
255
255
255
116
83
56
34
34
82
255
255
255
255
255
255
255
255
86
27
25
46
255
255
255
255
255
255
255
255
255
255
255
255
112
31
37
57
112
187
255
255
255
255
255
255
255
255
59
26
26
54
255
255
255
255
255
255
255
255
255
255
255
255
66
26
25
28
169
255
255
255
255
255
255
255
212
115
38
26
29
82
255
255
255
255
255
255
255
186
149
132
132
92
43
25
25
28
133
126
82
89
94
103
70
99
82
34
28
28
43
169
255
255
255
255
255
255
255
116
34
30
26
26
25
25
25
26
41
33
29
30
29
27
27
29
32
32
29
34
83
169
255
255
255
255
255
255
255
116
34
26
26
25
25
25
25
26
27
26
26
27
26
26
27
29
34
81
115
141
255
255
255
255
255
255
255
255
255
186
82
55
31
32
26
25
25
29
30
28
29
35
52
61
66
98
115
212
255
255
255
255
255
255
255
255
255
255
255
255
255
255
255
222
39
30
31
102
125
77
82
125
212
255
255
255
255
255
255
255
255
255
255
255
255
255
255
255
255
255
255
255
255
255
84
37
43
152
255
255
255
255
255
255
255
255
255
255
255
255
255
255
255
255
255
255
255
255
255
255
255
255
255
255
82
29
30
103
238
255
255
255
255
255
255
255
255
255
255
255
255
255
255
255
255
255
255
255
255
255
255
255
255
255
88
29
26
35
144
255
255
255
255
255
255
255
255
255
255
255
255
255
255
255
255
255
255
255
255
255
255
255
255
255
158
32
25
26
44
238
255
255
255
255
255
255
255
255
255
255
255
255
255
255
255
255
255
255
255
255
255
255
255
255
169
54
26
25
26
103
212
255
255
255
255
255
255
255
255
255
255
255
255
255
255
255
255
255
255
255
255
255
255
255
255
210
39
26
26
43
131
207
238
255
238
222
222
238
255
255
255
255
255
255
255
255
255
255
255
255
255
255
255
255
255
255
126
48
30
29
29
38
82
225
169
77
77
169
255
255
255
255
255
255
255
255
255
255
255
255
255
255
255
255
255
255
255
212
115
39
26
26
37
53
44
26
27
39
169
255
255
255
255
255
255
255
255
255
255
255
255
255
255
255
255
255
255
255
186
89
29
26
26
28
25
25
25
33
169
255
255
255
255
255
255
255
255
255
255
255
255
255
255
255
255
255
255
255
255
255
76
31
29
27
27
26
30
48
169
255
255
255
255
255
255
255
255
255
255
255
255
255
255
255
255
255
255
255
255
255
169
115
82
58
61
115
186
255
255
255
255
255
255
255
255
255
255
255
255
255
255
255
255
255
255
255
255
255
255
255
255
255
255
255
255
255
255
255
255
255
255
255
255
255
255
255
