P2
# CREATOR: GIMP PNM Filter Version 1.1
30 30
255
255
255
255
255
255
255
255
255
255
255
255
255
255
255
255
255
255
255
255
255
255
255
255
255
255
255
255
255
255
255
255
255
255
255
255
255
255
255
255
255
255
255
255
255
255
255
255
255
255
255
255
255
255
255
255
255
255
255
255
255
255
255
255
255
255
255
255
255
255
255
255
255
255
222
149
65
58
82
142
155
169
169
212
255
255
255
255
255
255
255
255
255
255
255
255
255
255
255
255
255
255
238
222
75
48
28
28
28
33
40
39
55
169
255
255
255
255
255
255
255
255
255
255
255
255
255
255
255
255
238
169
109
41
30
26
27
26
26
26
26
26
37
91
182
238
255
255
255
255
255
255
255
255
255
255
255
255
255
186
103
46
34
26
25
30
37
40
36
30
27
26
26
26
40
169
255
255
255
255
255
255
255
255
255
255
255
255
222
61
32
29
35
27
28
46
148
141
142
95
88
35
25
25
30
169
255
255
255
255
255
255
255
255
255
255
255
212
149
44
27
38
88
80
103
162
251
255
255
255
255
77
26
25
29
126
255
255
255
255
255
255
255
255
255
255
255
115
38
28
38
93
238
255
255
255
255
255
255
255
255
198
67
30
31
106
255
255
255
255
255
255
255
255
255
255
255
61
27
26
55
222
255
255
255
255
255
255
255
255
255
255
66
26
26
56
255
255
255
255
255
255
255
255
255
255
255
63
30
30
62
222
255
255
255
255
255
255
255
255
255
255
36
25
25
48
255
255
255
255
255
255
255
255
255
255
222
48
31
34
149
251
255
255
255
255
255
255
255
255
198
115
27
25
25
76
255
255
255
255
255
255
255
255
255
255
207
44
26
37
169
255
255
255
255
255
255
255
255
255
149
35
26
25
30
137
255
255
255
255
255
255
255
255
238
169
115
28
26
30
185
255
255
255
255
255
255
255
165
74
35
27
26
48
116
255
255
255
255
255
255
255
255
255
222
62
26
25
25
32
142
149
149
149
162
149
149
58
30
25
25
26
39
155
255
255
255
255
255
255
255
255
255
255
222
53
25
25
25
27
28
26
26
30
37
30
53
32
25
25
25
26
61
255
255
255
255
255
255
255
255
255
255
255
238
102
26
25
25
27
26
25
25
28
28
27
32
30
28
28
36
59
149
255
255
255
255
255
255
255
255
255
255
255
255
209
102
30
25
26
26
28
29
38
59
38
47
77
168
168
255
255
255
255
255
255
255
255
255
255
255
255
255
255
255
255
255
54
30
28
71
118
222
222
222
168
168
186
255
255
255
255
255
255
255
255
255
255
255
255
255
255
255
255
255
255
255
85
30
27
36
116
255
255
255
255
255
255
255
255
255
255
255
255
255
255
255
255
255
255
255
255
255
255
255
255
255
115
28
26
28
74
238
255
255
255
255
255
255
255
255
255
255
255
255
255
255
255
255
255
255
255
255
255
255
255
255
142
30
25
26
48
169
255
255
255
255
255
255
255
255
255
255
255
255
255
255
255
255
255
255
255
255
255
255
255
255
238
56
27
27
30
61
83
255
255
255
255
255
255
255
255
255
255
255
255
255
255
255
255
255
255
255
255
255
255
255
255
116
89
33
29
25
46
142
238
222
222
238
255
255
255
255
255
255
255
255
255
255
255
255
255
255
255
255
255
255
255
255
255
61
25
25
26
30
39
32
37
62
69
74
99
186
255
255
255
255
255
255
255
255
255
255
255
255
255
255
255
255
255
61
30
26
26
25
25
25
25
25
25
26
47
169
255
255
255
255
255
255
255
255
255
255
255
255
255
255
255
255
255
186
99
61
40
25
25
25
25
25
25
27
57
169
255
255
255
255
255
255
255
255
255
255
255
255
255
255
255
255
255
255
255
255
137
59
47
62
46
31
31
66
185
238
255
255
255
255
255
255
255
255
255
255
255
255
255
255
255
255
255
255
255
255
255
255
255
255
255
255
255
255
255
255
255
255
255
255
255
255
255
255
255
255
255
255
255
255
255
255
255
255
255
255
255
255
255
255
255
255
255
255
255
255
255
255
255
255
255
255
255
255
