P2
# CREATOR: GIMP PNM Filter Version 1.1
30 30
255
255
255
255
255
255
255
255
255
255
255
255
255
255
255
255
255
255
255
255
255
255
255
255
255
255
255
255
255
255
255
255
255
255
255
255
255
255
255
255
255
255
255
255
255
255
255
255
255
255
255
255
255
255
255
255
255
255
255
255
255
255
255
255
255
255
255
255
255
255
255
255
255
255
255
255
255
255
255
255
255
255
255
255
255
255
255
255
255
255
255
255
255
255
255
255
255
255
255
255
255
255
255
255
255
255
255
255
255
255
255
255
255
255
255
255
255
255
255
255
255
255
255
255
255
255
255
255
255
255
255
255
255
255
255
255
255
255
255
255
255
255
255
255
255
255
255
255
255
255
255
255
255
255
255
255
255
255
255
255
255
255
255
255
255
255
255
84
39
32
63
115
212
255
255
255
255
255
255
255
255
255
255
255
255
255
255
255
255
255
255
255
212
158
103
49
32
27
25
25
25
26
39
186
255
255
255
255
255
255
255
255
255
255
255
255
255
255
255
255
255
255
169
52
28
26
25
25
25
25
25
25
26
48
149
255
255
255
255
255
255
255
255
255
255
255
255
255
255
255
255
212
61
32
26
26
26
26
31
39
30
26
25
27
59
255
255
255
255
255
255
255
255
255
255
255
255
255
255
255
255
82
27
25
30
66
65
109
129
222
222
74
26
26
42
251
255
255
255
255
255
255
255
255
255
255
255
255
255
238
101
39
25
27
57
255
255
255
255
255
255
169
29
26
30
222
255
255
255
255
255
255
255
255
255
255
255
255
255
207
38
26
27
51
161
255
255
255
255
238
169
109
29
26
31
222
255
255
255
255
255
255
255
255
255
255
255
255
255
99
26
25
30
222
255
255
255
255
255
222
77
47
29
32
60
225
255
255
255
255
255
255
255
255
255
255
255
255
255
56
25
25
42
251
255
255
255
255
255
193
39
26
28
39
169
255
255
255
255
255
255
255
255
251
222
222
225
255
255
54
25
25
29
238
225
222
222
183
105
63
28
26
25
83
255
255
255
255
255
255
255
255
255
222
71
55
39
32
29
28
25
25
26
110
75
35
29
31
27
25
25
25
30
83
255
255
255
255
255
255
255
255
255
222
55
30
30
26
26
26
25
25
25
31
32
26
25
25
27
25
25
45
83
255
255
255
255
255
255
255
255
255
255
225
82
42
30
30
28
26
25
25
26
28
30
26
25
29
39
48
57
174
255
255
255
255
255
255
255
255
255
255
255
255
212
168
168
212
222
43
25
25
26
54
59
50
74
149
255
255
255
255
255
255
255
255
255
255
255
255
255
255
255
255
255
255
255
255
222
61
26
25
28
89
222
222
225
255
255
255
255
255
255
255
255
255
255
255
255
255
255
255
255
255
255
255
255
255
251
222
45
26
27
75
255
255
255
255
255
255
255
255
255
255
255
255
255
255
255
255
255
255
255
255
255
255
255
255
255
255
116
28
26
30
186
255
255
255
255
255
255
255
255
255
255
255
255
255
255
255
255
255
255
255
255
255
255
255
255
255
212
37
25
28
142
255
255
255
255
255
255
255
255
255
255
255
255
255
255
255
255
255
255
255
255
255
255
255
255
255
169
30
26
25
31
52
255
255
255
255
255
255
255
255
255
255
255
255
255
255
255
255
255
255
255
255
255
255
255
255
169
50
30
25
25
26
51
92
103
198
149
149
198
255
255
255
255
255
255
255
255
255
255
255
255
255
255
255
255
255
212
141
91
26
25
25
25
25
27
39
28
27
39
116
255
255
255
255
255
255
255
255
255
255
255
255
255
255
255
255
255
255
225
56
33
26
25
25
25
30
25
25
26
83
255
255
255
255
255
255
255
255
255
255
255
255
255
255
255
255
255
255
255
255
222
44
26
26
32
30
28
27
31
83
255
255
255
255
255
255
255
255
255
255
255
255
255
255
255
255
255
255
255
255
255
174
149
149
185
168
148
161
193
222
255
255
255
255
255
255
255
255
255
255
255
255
255
255
255
255
255
255
255
255
255
255
255
255
255
255
255
255
255
255
255
255
255
255
255
255
255
