P2
# CREATOR: GIMP PNM Filter Version 1.1
30 30
255
255
255
255
255
255
255
255
255
255
255
255
255
255
255
255
255
255
255
255
255
255
255
255
255
255
255
255
255
255
255
255
255
255
255
255
255
255
255
255
255
255
255
255
255
255
255
255
255
255
255
255
255
255
255
255
255
255
255
255
255
255
255
255
255
255
255
255
255
255
255
255
255
255
255
255
255
255
255
255
255
255
255
255
255
255
255
255
255
255
255
255
255
255
255
255
255
255
255
255
255
255
255
255
255
191
114
68
68
114
191
255
255
255
255
255
255
255
255
255
255
255
255
255
255
255
255
255
255
255
255
255
255
230
137
69
19
6
6
16
63
127
255
255
255
255
255
255
255
255
255
255
255
255
255
255
255
255
255
255
255
230
172
86
38
6
16
25
25
11
0
63
191
255
255
255
255
255
255
255
255
255
255
255
255
255
255
255
255
255
191
95
38
16
6
38
86
155
155
48
12
16
143
255
255
255
255
255
255
255
255
255
255
255
255
255
255
255
255
191
95
24
6
19
68
137
230
255
255
107
16
16
107
255
255
255
255
255
255
255
255
255
255
255
255
255
255
255
230
63
16
11
57
114
191
255
255
255
255
107
16
16
107
255
255
255
255
255
255
255
255
255
255
255
255
255
255
255
115
25
2
57
191
255
255
255
255
255
255
85
16
16
129
255
255
255
255
255
255
255
255
255
255
255
255
255
255
191
57
0
35
114
255
255
255
255
255
230
97
28
3
38
172
255
255
255
255
255
255
255
255
255
255
255
255
255
255
143
16
16
71
255
230
207
155
129
85
57
11
1
8
95
230
255
255
255
255
255
255
255
255
233
152
114
97
107
107
36
6
5
34
45
38
25
25
16
16
6
2
4
31
191
255
255
255
255
255
255
255
255
255
230
105
23
19
16
16
3
0
1
4
6
0
6
6
16
15
30
43
85
143
255
255
255
255
255
255
255
255
255
255
230
124
52
19
15
15
2
0
1
23
25
38
45
68
85
129
172
230
255
255
255
255
255
255
255
255
255
255
255
255
252
230
172
131
107
107
15
0
16
140
207
230
255
255
255
255
255
255
255
255
255
255
255
255
255
255
255
255
255
255
255
255
255
255
255
255
57
6
25
172
255
255
255
255
255
255
255
255
255
255
255
255
255
255
255
255
255
255
255
255
255
255
255
255
255
255
85
16
16
129
255
255
255
255
255
255
255
255
255
255
255
255
255
255
255
255
255
255
255
255
255
255
255
255
255
255
143
16
16
71
255
255
255
255
255
255
255
255
255
255
255
255
255
255
255
255
255
255
255
255
255
255
255
255
255
255
191
38
0
47
230
255
255
255
255
255
255
255
255
255
255
255
255
255
255
255
255
255
255
255
255
255
255
255
255
255
255
76
7
23
104
207
255
255
255
255
255
255
255
255
255
255
255
255
255
255
255
255
255
255
255
255
255
255
255
255
255
152
76
6
22
52
64
80
60
80
80
107
85
51
45
76
191
255
255
255
255
255
255
255
255
255
255
255
255
255
255
255
152
63
6
5
8
4
4
4
8
16
16
4
3
32
191
255
255
255
255
255
255
255
255
255
255
255
255
255
255
255
255
152
76
30
7
4
4
4
8
15
15
19
25
63
191
255
255
255
255
255
255
255
255
255
255
255
255
255
255
255
255
255
230
172
97
80
60
80
80
107
129
155
207
230
255
255
255
255
255
255
255
255
255
255
255
255
255
255
255
255
255
255
255
255
255
255
255
255
255
255
255
255
255
255
255
255
255
255
255
255
255
255
255
255
255
255
255
255
255
255
255
255
255
255
255
255
255
255
255
255
255
255
255
255
255
255
255
255
255
255
255
255
255
255
255
255
255
255
255
255
255
255
255
255
255
255
255
255
255
255
255
255
255
255
255
255
255
255
255
255
255
255
255
255
255
255
255
255
255
255
255
255
255
255
255
255
255
255
255
255
255
255
255
255
255
255
255
255
255
255
255
255
255
255
255
255
255
255
255
255
255
255
255
255
255
255
255
255
255
255
255
255
255
255
255
255
255
255
255
255
255
255
