P2
# CREATOR: GIMP PNM Filter Version 1.1
30 30
255
255
255
255
255
255
255
255
255
255
255
255
255
255
255
255
255
255
255
255
255
255
255
255
255
255
255
255
255
255
255
255
255
255
255
255
255
255
255
255
255
255
255
255
255
255
255
255
255
255
255
255
255
255
255
255
255
255
255
255
255
255
255
255
255
255
255
255
255
255
255
255
255
255
255
255
255
255
255
255
255
255
255
255
255
255
255
255
255
255
255
255
255
255
255
255
255
255
255
255
255
255
230
172
129
107
143
191
255
255
255
255
255
255
255
255
255
255
255
255
255
255
255
255
255
255
255
255
255
255
255
152
76
30
16
16
24
63
127
191
255
255
255
255
255
255
255
255
255
255
255
255
255
255
255
255
255
255
255
255
127
63
6
6
16
16
24
19
32
95
230
255
255
255
255
255
255
255
255
255
255
255
255
255
255
255
255
255
255
191
63
0
22
57
85
107
107
51
6
38
137
255
255
255
255
255
255
255
255
255
255
255
255
255
255
255
255
255
191
95
16
22
86
230
255
255
255
123
25
6
82
255
255
255
255
255
255
255
255
255
255
255
255
255
255
255
255
255
95
24
16
95
191
255
255
255
255
207
25
6
45
255
255
255
255
255
255
255
255
255
255
255
255
255
255
255
255
191
47
0
47
191
255
255
255
255
255
230
31
0
38
255
255
255
255
255
255
255
255
255
255
255
255
255
255
255
255
143
16
16
71
255
255
255
255
255
255
230
31
0
38
255
255
255
255
255
255
255
255
255
255
255
255
255
255
255
255
107
16
16
107
255
255
255
255
255
255
172
25
6
57
255
255
255
255
255
255
255
255
255
255
255
255
255
255
255
255
107
16
16
107
255
255
255
255
255
207
78
14
19
114
255
255
255
255
255
255
255
255
255
255
255
255
243
207
207
219
107
16
16
107
255
255
255
230
172
78
22
6
76
191
255
255
255
255
255
255
255
255
255
255
255
255
191
57
34
53
45
6
6
34
80
64
57
38
25
14
6
63
152
255
255
255
255
255
255
255
255
255
255
255
255
255
191
38
3
12
7
1
1
3
4
8
6
0
6
18
76
152
255
255
255
255
255
255
255
255
255
255
255
255
255
255
203
91
45
15
6
1
1
3
4
8
25
38
57
114
191
255
255
255
255
255
255
255
255
255
255
255
255
255
255
255
255
255
191
143
45
6
6
34
80
97
172
230
255
255
255
255
255
255
255
255
255
255
255
255
255
255
255
255
255
255
255
255
255
255
107
16
16
107
255
255
255
255
255
255
255
255
255
255
255
255
255
255
255
255
255
255
255
255
255
255
255
255
255
255
143
16
16
71
255
255
255
255
255
255
255
255
255
255
255
255
255
255
255
255
255
255
255
255
255
255
255
255
255
255
191
47
0
47
191
255
255
255
255
255
255
255
255
255
255
255
255
255
255
255
255
255
255
255
255
255
255
255
255
255
255
95
16
16
95
255
255
255
255
255
255
255
255
255
255
255
255
255
255
255
255
255
255
255
255
255
255
255
255
255
255
191
47
0
42
172
230
255
255
255
255
255
255
255
255
137
115
115
230
255
255
255
255
255
255
255
255
255
255
255
255
255
95
32
16
57
95
172
207
187
187
187
155
129
85
34
6
51
230
255
255
255
255
255
255
255
255
255
255
255
255
255
191
127
63
9
16
31
25
25
25
25
25
16
16
4
6
63
230
255
255
255
255
255
255
255
255
255
255
255
255
255
255
255
152
76
19
0
6
6
6
6
6
16
15
30
76
152
255
255
255
255
255
255
255
255
255
255
255
255
255
255
255
255
255
191
95
57
45
54
54
54
68
85
129
172
230
255
255
255
255
255
255
255
255
255
255
255
255
255
255
255
255
255
255
255
255
255
255
255
255
255
255
255
255
255
255
255
255
255
255
255
255
255
255
255
255
255
255
255
255
255
255
255
255
255
255
255
255
255
255
255
255
255
255
255
255
255
255
255
255
255
255
255
255
255
255
255
255
255
255
255
255
255
255
255
255
255
255
255
255
255
255
255
255
255
255
255
255
255
255
255
255
255
