P2
# CREATOR: GIMP PNM Filter Version 1.1
30 30
255
255
255
255
255
255
255
255
255
255
255
255
255
255
255
255
255
255
255
255
255
255
255
255
255
255
255
255
255
255
255
255
255
255
255
255
255
255
255
255
255
255
255
255
255
255
255
255
255
255
255
255
255
255
255
255
255
255
255
255
255
255
255
255
255
255
255
255
255
255
255
255
255
255
255
255
255
255
255
255
255
255
255
255
255
255
255
255
255
255
255
255
255
255
255
255
255
255
255
255
255
255
255
255
255
255
255
255
255
255
255
255
255
255
255
255
255
255
255
255
255
255
255
255
255
255
255
255
255
255
255
255
255
255
230
207
187
207
230
255
255
255
255
255
255
255
255
255
255
255
255
255
255
255
255
255
255
255
255
255
255
255
191
114
57
30
25
25
38
57
85
129
172
230
255
255
255
255
255
255
255
255
255
255
255
255
255
255
255
255
255
191
63
16
4
6
6
6
0
6
16
16
38
95
191
255
255
255
255
255
255
255
255
255
255
255
255
255
255
255
230
95
16
5
22
45
54
45
38
25
15
16
6
16
63
127
255
255
255
255
255
255
255
255
255
255
255
255
255
255
172
38
4
38
129
230
255
255
230
172
129
85
57
14
0
63
191
255
255
255
255
255
255
255
255
255
255
255
255
255
129
16
16
85
255
255
255
255
255
255
255
255
191
53
12
16
143
255
255
255
255
255
255
255
255
255
255
255
255
255
85
16
16
129
255
255
255
255
255
255
255
255
255
107
16
16
107
255
255
255
255
255
255
255
255
255
255
255
255
255
57
6
25
172
255
255
255
255
255
255
255
255
143
53
12
24
143
255
255
255
255
255
255
255
191
172
172
230
255
255
38
0
31
230
255
255
255
255
255
255
230
172
64
9
16
95
191
255
255
255
255
255
255
255
127
32
30
57
85
129
21
0
31
255
255
255
230
207
155
103
57
30
12
16
63
191
255
255
255
255
255
255
255
255
127
32
6
6
16
14
3
0
4
31
31
31
31
25
25
16
6
6
23
95
191
255
255
255
255
255
255
255
255
255
191
114
57
30
15
13
0
0
0
0
0
0
0
6
6
16
30
57
114
191
255
255
255
255
255
255
255
255
255
255
255
255
230
172
129
69
5
1
5
31
31
31
38
45
68
103
172
230
255
255
255
255
255
255
255
255
255
255
255
255
255
255
255
255
255
230
31
0
38
255
255
255
255
255
255
255
255
255
255
255
255
255
255
255
255
255
255
255
255
255
255
255
255
255
255
255
47
0
31
191
255
255
255
255
255
255
255
255
255
255
255
255
255
255
255
255
255
255
255
255
255
255
255
255
255
255
71
16
16
143
255
255
255
255
255
255
255
255
255
255
255
255
255
255
255
255
255
255
255
255
255
255
255
255
255
255
143
16
16
71
255
255
255
255
255
255
255
255
255
255
255
255
255
255
255
255
255
255
255
255
255
255
255
255
255
255
191
47
0
47
191
255
255
255
255
255
255
255
255
255
255
255
255
255
255
255
255
255
255
255
255
255
255
255
255
255
255
95
16
16
95
255
255
255
255
255
255
255
255
255
255
255
255
255
255
255
255
255
255
255
255
255
255
255
255
255
255
191
35
0
23
143
255
255
255
255
255
255
255
255
255
255
255
255
255
255
255
255
255
255
255
255
255
255
255
255
255
255
71
6
3
40
97
172
230
255
255
230
172
103
114
152
255
255
255
255
255
255
255
255
255
255
255
255
255
255
255
255
143
47
8
4
12
25
38
45
45
38
25
16
12
127
255
255
255
255
255
255
255
255
255
255
255
255
255
255
255
255
255
191
63
15
12
6
0
6
6
0
6
16
51
127
255
255
255
255
255
255
255
255
255
255
255
255
255
255
255
255
255
255
191
143
85
57
38
25
25
38
57
103
172
230
255
255
255
255
255
255
255
255
255
255
255
255
255
255
255
255
255
255
255
255
255
255
230
207
207
230
255
255
255
255
255
255
255
255
255
255
255
255
255
255
255
255
255
255
255
255
255
255
255
255
255
255
255
255
255
255
255
255
255
255
255
255
255
255
255
