P2
# CREATOR: GIMP PNM Filter Version 1.1
30 30
255
255
255
255
255
255
255
255
255
255
255
255
255
255
255
255
255
255
255
255
255
255
255
255
255
255
255
255
255
255
255
255
255
255
255
255
255
255
255
255
255
255
255
255
255
255
255
255
255
255
255
255
255
255
255
255
255
255
255
255
255
255
255
255
255
255
255
255
255
255
255
255
255
255
255
255
255
255
255
255
255
255
255
255
255
255
255
255
255
255
255
255
255
255
255
255
255
255
255
255
255
255
255
230
172
129
107
107
129
172
230
255
255
255
255
255
255
255
255
255
255
255
255
255
255
255
255
255
255
255
255
191
95
47
25
16
16
16
16
25
31
57
115
230
255
255
255
255
255
255
255
255
255
255
255
255
255
255
255
230
137
69
19
0
6
16
16
16
16
6
0
0
25
63
191
255
255
255
255
255
255
255
255
255
255
255
255
255
255
127
51
6
16
38
57
85
107
107
85
57
38
23
1
16
95
255
255
255
255
255
255
255
255
255
255
255
255
255
152
63
6
34
95
191
255
255
255
255
255
255
255
114
23
0
47
230
255
255
255
255
255
255
255
255
255
255
255
191
76
7
41
124
230
255
255
255
255
255
255
255
255
255
38
6
25
230
255
255
255
255
255
255
255
255
255
255
255
95
19
16
95
230
255
255
255
255
255
255
255
255
255
191
38
0
47
230
255
255
255
255
255
255
255
255
255
255
191
47
0
47
191
255
255
255
255
255
255
255
255
255
255
143
16
16
71
255
255
255
255
255
255
255
255
255
255
255
114
16
16
86
255
255
255
255
255
255
255
255
255
255
172
64
14
24
143
255
255
255
255
255
255
255
255
255
255
255
68
6
25
155
255
255
255
255
255
255
255
255
255
230
86
17
16
95
191
255
255
255
255
255
255
255
255
255
230
230
49
6
25
187
255
255
255
255
255
255
255
191
114
57
22
6
63
191
255
255
255
255
255
255
255
255
255
255
127
61
10
2
13
126
207
230
230
207
155
103
57
38
16
6
7
76
152
255
255
255
255
255
255
255
255
255
255
255
127
12
1
0
2
23
25
31
31
25
25
16
6
0
16
30
76
152
255
255
255
255
255
255
255
255
255
255
255
255
152
76
3
0
2
6
6
0
0
6
6
15
25
47
86
172
230
255
255
255
255
255
255
255
255
255
255
255
255
255
255
230
26
0
10
61
45
38
38
45
68
103
172
230
255
255
255
255
255
255
255
255
255
255
255
255
255
255
255
255
255
255
57
6
25
172
255
255
255
255
255
255
255
255
255
255
255
255
255
255
255
255
255
255
255
255
255
255
255
255
255
255
85
16
16
129
255
255
255
255
255
255
255
255
255
255
255
255
255
255
255
255
255
255
255
255
255
255
255
255
255
255
143
19
16
71
230
255
255
255
255
255
255
255
255
255
255
255
255
255
255
255
255
255
255
255
255
255
255
255
255
255
191
69
6
38
137
255
255
255
255
255
255
255
255
255
255
255
255
255
255
255
255
255
255
255
255
255
255
255
255
255
255
137
38
6
68
191
255
255
255
255
255
255
255
255
255
255
255
255
255
255
255
255
255
255
255
255
255
255
255
255
255
230
95
24
19
95
191
255
255
255
255
255
255
255
255
255
255
255
255
255
255
255
255
255
255
255
255
255
255
255
255
255
191
95
32
29
114
152
255
255
255
255
255
255
255
255
255
255
255
255
255
255
255
255
255
255
255
255
255
255
255
255
255
191
127
63
9
38
57
85
107
107
107
107
107
71
95
127
255
255
255
255
255
255
255
255
255
255
255
255
255
255
255
255
255
127
51
0
6
16
16
16
16
16
16
16
0
127
255
255
255
255
255
255
255
255
255
255
255
255
255
255
255
255
255
230
115
57
25
15
16
16
16
16
15
15
63
127
255
255
255
255
255
255
255
255
255
255
255
255
255
255
255
255
255
255
255
230
172
129
107
107
107
107
107
143
191
255
255
255
255
255
255
255
255
255
255
255
255
255
255
255
255
255
255
255
255
255
255
255
255
255
255
255
255
255
255
255
255
255
255
255
255
255
255
