P2
# CREATOR: GIMP PNM Filter Version 1.1
30 30
255
255
255
255
255
255
255
255
255
255
255
255
255
255
255
255
255
255
255
255
255
255
255
255
255
255
255
255
255
255
255
255
255
255
255
255
255
255
255
255
255
255
255
255
255
255
255
255
255
255
255
255
255
255
255
255
255
255
255
255
255
255
255
255
255
255
255
255
255
255
255
255
255
255
255
255
255
230
172
129
107
107
129
172
230
255
255
255
255
255
255
255
255
255
255
255
255
255
255
255
255
255
255
255
255
230
137
69
30
16
16
16
16
38
95
191
255
255
255
255
255
255
255
255
255
255
255
255
255
255
255
255
255
255
230
115
46
6
6
16
16
16
16
5
16
63
152
255
255
255
255
255
255
255
255
255
255
255
255
255
255
255
255
230
115
46
6
30
57
85
107
107
85
52
8
3
38
143
255
255
255
255
255
255
255
255
255
255
255
255
255
255
191
95
38
7
68
137
230
255
255
255
255
172
40
3
5
107
255
255
255
255
255
255
255
255
255
255
255
255
255
191
95
24
7
76
152
255
255
255
255
255
255
255
97
8
8
64
255
255
255
255
255
255
255
255
255
255
255
255
191
63
16
14
76
152
255
255
255
255
255
255
255
255
129
25
6
85
255
255
255
255
255
255
255
255
255
255
255
191
95
16
9
71
191
255
255
255
255
255
255
255
255
255
129
16
16
85
255
255
255
255
255
255
255
255
255
255
255
95
24
12
71
143
255
255
255
255
255
255
255
255
255
230
71
16
19
143
255
255
255
255
255
255
255
255
255
255
191
47
0
47
191
255
255
255
255
255
255
255
255
255
255
115
38
6
76
191
255
255
255
255
255
255
255
255
255
255
95
16
16
95
255
255
255
255
255
255
255
255
255
191
95
42
0
63
152
255
255
255
255
255
255
255
255
255
255
230
47
0
38
191
255
255
255
255
255
255
230
172
103
57
19
0
63
127
255
255
255
255
255
255
255
255
191
127
95
73
10
2
24
107
107
107
107
107
85
57
38
25
16
6
16
63
127
255
255
255
255
255
255
255
255
255
191
64
32
12
1
1
5
16
16
16
16
16
16
6
0
6
15
38
95
191
255
255
255
255
255
255
255
255
255
255
191
127
63
10
1
1
7
16
16
16
16
15
15
25
38
57
103
172
230
255
255
255
255
255
255
255
255
255
255
255
255
255
191
72
6
6
36
107
107
107
107
107
129
172
230
255
255
255
255
255
255
255
255
255
255
255
255
255
255
255
255
255
255
172
25
6
57
255
255
255
255
255
255
255
255
255
255
255
255
255
255
255
255
255
255
255
255
255
255
255
255
255
255
230
38
0
38
230
255
255
255
255
255
255
255
255
255
255
255
255
255
255
255
255
255
255
255
255
255
255
255
255
255
255
57
6
25
172
255
255
255
255
255
255
255
255
255
255
255
255
255
255
255
255
255
255
255
255
255
255
255
255
255
255
85
16
16
129
255
255
255
255
255
255
255
255
255
255
255
255
255
255
255
255
255
255
255
255
255
255
255
255
255
255
143
16
16
71
255
255
255
255
255
255
255
255
255
255
255
255
255
255
255
255
255
255
255
255
255
255
255
255
255
255
191
47
0
47
191
255
255
255
255
255
255
255
255
255
255
255
255
255
255
255
255
255
255
255
255
255
255
255
255
255
255
95
19
14
86
207
255
255
255
255
255
230
127
127
152
255
255
255
255
255
255
255
255
255
255
255
255
255
255
255
255
191
76
6
22
51
64
64
60
80
80
64
38
12
152
255
255
255
255
255
255
255
255
255
255
255
255
255
255
255
255
255
152
63
6
14
3
4
4
4
8
14
0
63
152
255
255
255
255
255
255
255
255
255
255
255
255
255
255
255
255
255
255
152
76
19
12
4
4
4
8
15
63
127
255
255
255
255
255
255
255
255
255
255
255
255
255
255
255
255
255
255
255
255
191
172
97
97
60
80
80
143
191
255
255
255
255
255
255
255
255
255
255
255
255
255
255
255
255
255
255
255
255
255
255
255
255
255
255
255
255
255
255
255
255
255
255
255
255
255
255
255
255
