P2
# CREATOR: GIMP PNM Filter Version 1.1
30 30
255
255
255
255
255
255
255
255
255
255
255
255
255
255
255
255
255
255
255
255
255
255
255
255
255
255
255
255
255
255
255
255
255
255
255
255
255
255
255
255
255
255
255
255
255
255
255
255
255
255
255
255
255
255
255
255
255
255
255
255
255
255
255
255
255
255
255
255
255
255
255
255
255
255
255
255
255
255
255
255
255
255
255
255
255
255
255
255
255
255
255
255
255
255
255
255
255
255
255
255
255
255
255
255
255
255
255
255
255
255
255
255
255
255
255
255
255
255
255
255
255
255
255
255
255
255
255
255
255
255
255
255
255
255
232
180
103
76
66
86
118
180
232
255
255
255
255
255
255
255
255
255
255
255
255
255
255
255
255
255
255
255
255
232
129
66
39
25
30
30
39
52
86
149
232
255
255
255
255
255
255
255
255
255
255
255
255
255
255
255
255
255
255
140
71
30
39
53
48
48
39
30
30
59
111
197
255
255
255
255
255
255
255
255
255
255
255
255
255
255
255
232
140
82
33
76
128
180
212
165
118
76
52
29
39
82
197
255
255
255
255
255
255
255
255
255
255
255
255
255
232
129
71
33
107
162
255
255
255
255
255
232
149
71
30
39
111
232
255
255
255
255
255
255
255
255
255
255
255
232
129
66
31
94
162
255
255
255
255
255
255
255
255
154
64
29
59
180
255
255
255
255
255
255
255
255
255
255
255
180
66
30
76
162
255
255
255
255
255
255
255
255
255
255
102
39
39
141
255
255
255
255
255
255
255
255
255
255
197
103
39
47
128
255
255
255
255
255
255
255
255
255
255
255
122
39
39
122
255
255
255
255
255
255
255
255
255
255
111
47
39
111
197
255
255
255
255
255
255
255
255
255
255
232
89
39
42
154
255
255
255
255
255
255
255
255
255
255
67
25
53
197
255
255
255
255
255
255
255
255
255
255
232
137
62
31
94
197
255
255
255
255
255
255
209
180
180
204
53
25
59
255
255
255
255
255
255
255
255
232
180
118
76
49
30
82
162
255
255
255
255
255
255
255
162
59
49
63
32
27
46
141
141
122
122
122
122
102
76
59
48
39
30
30
71
140
255
255
255
255
255
255
255
255
162
59
30
30
26
25
29
48
39
39
39
39
39
39
30
25
30
39
52
87
149
232
255
255
255
255
255
255
255
255
208
128
76
46
26
25
28
30
39
39
39
39
39
39
48
59
76
118
180
232
255
255
255
255
255
255
255
255
255
255
255
255
232
165
47
25
36
83
102
122
122
122
122
141
180
232
255
255
255
255
255
255
255
255
255
255
255
255
255
255
255
255
255
255
103
39
39
128
255
255
255
255
255
255
255
255
255
255
255
255
255
255
255
255
255
255
255
255
255
255
255
255
255
255
180
59
30
76
197
255
255
255
255
255
255
255
255
255
255
255
255
255
255
255
255
255
255
255
255
255
255
255
255
255
232
111
39
42
111
255
255
255
255
255
255
255
255
255
255
255
255
255
255
255
255
255
255
255
255
255
255
255
255
255
255
197
82
25
67
140
255
255
255
255
255
255
255
255
255
255
255
255
255
255
255
255
255
255
255
255
255
255
255
255
255
255
140
76
25
82
162
255
255
255
255
255
232
103
103
111
255
255
255
255
255
255
255
255
255
255
255
255
255
255
255
255
255
129
71
30
76
103
165
194
165
118
76
39
25
82
255
255
255
255
255
255
255
255
255
255
255
255
255
255
255
255
255
232
140
82
25
39
48
48
48
39
30
28
39
82
255
255
255
255
255
255
255
255
255
255
255
255
255
255
255
255
255
255
255
140
82
39
30
30
30
39
52
76
128
197
255
255
255
255
255
255
255
255
255
255
255
255
255
255
255
255
255
255
255
255
197
128
86
74
86
118
180
232
255
255
255
255
255
255
255
255
255
255
255
255
255
255
255
255
255
255
255
255
255
255
255
255
255
255
255
255
255
255
255
255
255
255
255
255
255
255
255
255
255
255
255
255
255
255
255
255
255
255
255
255
255
255
255
255
255
255
255
255
255
255
255
255
255
255
255
255
255
