P2
# CREATOR: GIMP PNM Filter Version 1.1
30 30
255
255
255
255
255
255
255
255
255
255
255
255
255
255
255
255
255
255
255
255
255
255
255
255
255
255
255
255
255
255
255
255
255
255
255
255
255
255
255
255
255
255
255
255
255
255
255
255
255
255
255
255
255
255
255
255
255
255
255
255
255
255
255
255
255
255
255
255
255
255
255
255
255
255
255
255
255
255
255
255
255
255
255
255
255
255
255
255
255
255
255
255
255
255
255
255
255
255
255
255
255
255
255
255
255
255
255
255
255
255
255
255
255
255
255
255
255
255
255
255
255
255
255
255
255
255
255
255
255
255
255
255
255
255
255
255
255
232
212
194
194
212
232
255
255
255
255
255
255
255
255
255
255
255
255
255
255
255
255
255
255
255
255
255
255
197
111
67
48
48
48
52
76
128
197
255
255
255
255
255
255
255
255
255
255
255
255
255
255
255
255
255
255
255
197
111
47
25
30
30
30
30
30
39
82
140
255
255
255
255
255
255
255
255
255
255
255
255
255
255
255
255
255
162
94
42
39
59
66
74
74
66
52
39
25
82
140
197
255
255
255
255
255
255
255
255
255
255
255
255
255
255
162
94
31
46
111
197
255
255
255
232
180
103
73
39
54
154
255
255
255
255
255
255
255
255
255
255
255
255
255
197
82
30
50
111
197
255
255
255
255
255
255
255
141
39
39
102
255
255
255
255
255
255
255
255
255
255
255
255
255
111
39
35
103
232
255
255
255
255
255
255
255
255
141
48
30
102
255
255
255
255
255
209
128
128
163
255
255
255
197
67
25
64
180
255
255
255
255
255
255
255
255
255
141
39
39
102
255
255
255
255
255
197
59
38
89
197
255
255
154
39
39
89
255
255
255
255
255
255
255
255
255
255
102
39
39
141
255
255
255
255
255
197
76
38
41
103
180
232
102
39
39
141
255
255
255
255
255
255
255
255
255
197
102
33
71
180
255
255
255
255
255
243
180
103
45
39
52
76
46
29
46
180
255
255
255
255
255
255
232
180
118
76
46
82
140
232
255
255
255
255
255
255
255
197
111
46
30
30
27
25
29
62
74
86
102
122
102
76
59
48
39
30
53
140
255
255
255
255
255
255
255
255
255
255
197
128
76
52
27
25
25
30
30
30
39
39
39
30
25
30
39
59
111
197
255
255
255
255
255
255
255
255
255
255
255
255
232
180
39
25
29
46
48
48
39
39
39
48
59
76
118
180
232
255
255
255
255
255
255
255
255
255
255
255
255
255
255
255
66
30
46
177
194
165
141
122
141
180
232
255
255
255
255
255
255
255
255
255
255
255
255
255
255
255
255
255
255
255
86
30
48
165
255
255
255
255
255
255
255
255
255
255
255
255
255
255
255
255
255
255
255
255
255
255
255
255
255
255
128
39
39
103
255
255
255
255
255
255
255
255
255
255
255
255
255
255
255
255
255
255
255
255
255
255
255
255
255
255
197
67
25
67
197
255
255
255
255
255
255
255
255
255
255
255
255
255
255
255
255
255
255
255
255
255
255
255
255
255
255
111
42
39
111
232
255
255
255
255
255
255
255
255
255
255
255
255
255
255
255
255
255
255
255
255
255
255
255
255
255
197
94
31
50
103
180
255
255
255
255
255
232
232
232
255
255
255
255
255
255
255
255
255
255
255
255
255
255
255
255
255
162
94
30
38
72
102
122
122
102
76
59
71
140
255
255
255
255
255
255
255
255
255
255
255
255
255
255
255
255
255
255
162
82
39
30
39
39
39
39
30
25
36
140
255
255
255
255
255
255
255
255
255
255
255
255
255
255
255
255
255
255
255
197
111
59
39
39
39
39
48
59
94
162
255
255
255
255
255
255
255
255
255
255
255
255
255
255
255
255
255
255
255
255
232
180
141
122
122
141
180
232
255
255
255
255
255
255
255
255
255
255
255
255
255
255
255
255
255
255
255
255
255
255
255
255
255
255
255
255
255
255
255
255
255
255
255
255
255
255
255
255
255
255
255
255
255
255
255
255
255
255
255
255
255
255
255
255
255
255
255
255
255
255
255
255
255
255
255
255
