P2
# CREATOR: GIMP PNM Filter Version 1.1
30 30
255
255
255
255
255
255
255
255
255
255
255
255
255
255
255
255
255
255
255
255
255
255
255
255
255
255
255
255
255
255
255
255
255
255
255
255
255
255
255
255
255
214
140
72
42
20
5
22
41
85
152
228
255
255
255
255
255
255
255
255
255
255
255
255
255
255
255
255
255
201
63
0
0
0
0
0
0
0
0
0
0
6
107
232
255
255
255
255
255
255
255
255
255
255
255
255
255
251
106
0
0
0
0
0
0
0
0
0
0
0
0
0
0
27
206
255
255
255
255
255
255
255
255
255
255
255
243
73
0
0
0
0
0
0
0
0
0
0
0
0
0
0
0
0
11
208
255
255
255
255
255
255
255
255
255
255
78
0
0
0
0
2
84
168
223
245
247
226
174
86
2
0
0
0
0
40
244
255
255
255
255
255
255
255
255
141
0
0
0
0
36
206
255
255
255
255
255
255
255
255
195
20
0
0
0
0
129
255
255
255
255
255
255
255
227
6
0
0
0
35
234
255
255
255
255
255
255
255
255
255
255
189
1
0
0
0
23
248
255
255
255
255
255
255
114
0
0
0
2
204
255
255
255
255
255
255
255
255
255
255
255
255
78
0
0
0
0
176
255
255
255
255
255
243
13
0
0
0
88
255
255
255
255
255
255
255
255
255
255
255
255
255
169
0
0
0
0
117
255
255
255
255
255
182
0
0
0
0
180
255
255
255
255
255
255
255
255
255
255
255
255
255
223
0
0
0
0
61
255
255
255
255
255
120
0
0
0
0
233
255
255
255
255
255
255
255
255
255
255
255
255
255
245
0
0
0
0
34
255
255
255
255
255
64
0
0
0
0
0
0
0
0
0
0
0
0
0
0
0
0
0
0
0
0
0
0
0
17
255
255
255
255
255
40
0
0
0
0
0
0
0
0
0
0
0
0
0
0
0
0
0
0
0
0
0
0
0
2
255
255
255
255
255
21
0
0
0
0
0
0
0
0
0
0
0
0
0
0
0
0
0
0
0
0
0
0
0
0
255
255
255
255
255
5
0
0
0
0
0
0
0
0
0
0
0
0
0
0
0
0
0
0
0
0
0
0
0
0
255
255
255
255
255
13
0
0
0
0
246
255
255
255
255
255
255
255
255
255
255
255
255
255
255
255
255
255
255
255
255
255
255
255
255
32
0
0
0
0
226
255
255
255
255
255
255
255
255
255
255
255
255
255
255
255
255
255
255
255
255
255
255
255
255
51
0
0
0
0
198
255
255
255
255
255
255
255
255
255
255
255
255
255
255
255
255
255
255
255
255
255
255
255
255
94
0
0
0
0
134
255
255
255
255
255
255
255
255
255
255
255
255
255
255
255
255
255
255
255
255
255
255
255
255
158
0
0
0
0
58
255
255
255
255
255
255
255
255
255
255
255
255
255
255
255
255
255
255
255
255
255
255
255
255
223
0
0
0
0
0
193
255
255
255
255
255
255
255
255
255
255
255
255
255
255
255
255
255
255
255
255
255
255
255
255
72
0
0
0
0
49
246
255
255
255
255
255
255
255
255
255
255
255
255
255
255
255
255
255
255
255
255
255
255
255
196
0
0
0
0
0
84
249
255
255
255
255
255
255
255
255
255
255
255
255
255
208
54
255
255
255
255
255
255
255
255
87
0
0
0
0
0
55
214
255
255
255
255
255
255
255
255
255
255
191
82
2
0
255
255
255
255
255
255
255
255
244
46
0
0
0
0
0
1
79
156
214
238
250
230
207
165
95
26
0
0
0
0
255
255
255
255
255
255
255
255
255
225
46
0
0
0
0
0
0
0
0
0
0
0
0
0
0
0
0
0
0
0
255
255
255
255
255
255
255
255
255
255
245
91
0
0
0
0
0
0
0
0
0
0
0
0
0
0
0
0
0
14
255
255
255
255
255
255
255
255
255
255
255
255
198
76
1
0
0
0
0
0
0
0
0
0
0
0
7
74
164
246
255
255
255
255
255
255
255
255
255
255
255
255
255
255
225
159
96
51
32
13
4
18
34
71
120
176
244
255
255
255
255
255
255
255
