P2
# CREATOR: GIMP PNM Filter Version 1.1
30 30
255
255
255
255
255
255
255
255
255
255
255
255
255
255
255
255
255
255
255
255
255
255
255
255
255
255
255
255
255
255
255
255
255
255
255
255
255
255
255
255
255
255
255
255
255
255
255
255
255
255
255
255
255
255
255
255
255
255
255
255
255
255
255
255
255
255
255
255
255
255
255
255
255
255
255
255
255
255
255
255
255
255
255
255
255
255
255
255
255
255
255
255
255
255
255
255
255
255
255
255
255
255
255
255
255
255
255
255
255
255
255
255
255
255
255
255
255
255
255
255
255
255
255
255
255
255
255
255
255
255
255
255
255
255
255
255
255
255
255
255
255
255
255
255
255
255
255
255
255
255
255
255
255
255
255
255
255
255
255
255
255
255
255
255
255
197
154
122
122
154
197
255
255
255
255
255
255
255
255
255
255
255
255
255
255
255
255
255
255
255
255
255
255
255
140
82
39
39
39
39
57
89
154
255
255
255
255
255
255
255
255
255
255
255
255
255
255
255
255
255
255
255
197
140
82
25
39
39
39
39
25
30
67
197
255
255
255
255
255
255
255
255
255
255
255
255
255
255
255
255
255
232
111
54
42
89
89
122
122
89
46
27
29
53
154
255
255
255
255
255
255
255
255
255
255
255
255
255
255
255
255
129
59
30
94
197
255
255
255
255
154
61
26
29
89
232
255
255
255
255
255
255
255
255
255
255
255
255
255
255
197
76
25
67
162
255
255
255
255
255
255
122
39
27
50
212
255
255
255
255
255
255
255
255
255
255
255
255
255
232
111
39
42
111
255
255
255
255
255
255
255
255
74
30
48
194
255
255
255
255
255
255
255
244
197
197
209
255
255
180
59
30
76
197
255
255
255
255
255
255
255
255
66
30
48
212
255
255
255
255
255
255
255
232
129
76
118
180
232
118
39
39
118
255
255
255
255
255
255
255
255
154
41
25
57
232
255
255
255
255
255
255
255
232
129
59
42
59
89
54
29
48
180
255
255
255
255
255
255
255
197
73
28
29
89
255
255
255
255
255
255
255
255
243
197
111
48
30
36
27
25
34
94
122
122
122
122
122
122
102
76
34
25
53
154
255
255
255
255
255
255
255
255
255
255
197
128
76
34
26
25
26
39
39
39
39
39
39
39
39
30
39
82
140
255
255
255
255
255
255
255
255
255
255
255
255
255
197
79
29
28
34
39
39
39
39
39
39
39
39
59
111
197
255
255
255
255
255
255
255
255
255
255
255
255
255
255
255
122
39
38
91
141
122
122
122
122
122
122
141
180
232
255
255
255
255
255
255
255
255
255
255
255
255
255
255
255
255
154
42
39
89
232
255
255
255
255
255
255
255
255
255
255
255
255
255
255
255
255
255
255
255
255
255
255
255
255
255
197
76
30
59
180
255
255
255
255
255
255
255
255
255
255
255
255
255
255
255
255
255
255
255
255
255
255
255
255
255
255
128
47
39
103
197
255
255
255
255
255
255
255
255
255
255
255
255
255
255
255
255
255
255
255
255
255
255
255
255
255
197
111
47
47
111
197
255
255
255
255
255
232
180
180
197
255
255
255
255
255
255
255
255
255
255
255
255
255
255
255
255
197
111
54
47
89
103
165
194
165
118
76
52
54
140
255
255
255
255
255
255
255
255
255
255
255
255
255
255
255
255
255
197
140
82
25
39
48
48
48
39
30
30
53
140
255
255
255
255
255
255
255
255
255
255
255
255
255
255
255
255
255
255
255
140
82
39
30
30
30
39
52
76
128
197
255
255
255
255
255
255
255
255
255
255
255
255
255
255
255
255
255
255
255
255
197
128
86
74
86
118
180
232
255
255
255
255
255
255
255
255
255
255
255
255
255
255
255
255
255
255
255
255
255
255
255
255
255
255
255
255
255
255
255
255
255
255
255
255
255
255
255
255
255
255
255
255
255
255
255
255
255
255
255
255
255
255
255
255
255
255
255
255
255
255
255
255
255
255
255
255
255
255
255
255
255
255
255
255
255
255
255
255
255
255
255
255
255
255
255
255
255
255
255
255
255
255
255
255
255
255
255
