P2
# CREATOR: GIMP PNM Filter Version 1.1
30 30
255
255
255
255
255
255
255
255
255
255
255
255
255
255
255
255
255
255
255
255
255
255
255
255
255
255
255
255
255
255
255
255
255
255
255
255
255
255
255
255
255
255
255
255
255
255
255
255
255
255
255
255
255
255
255
255
255
255
255
255
255
255
255
255
255
255
255
255
255
255
255
255
255
255
255
255
255
255
255
255
255
255
255
255
255
255
255
255
255
255
255
255
255
255
255
255
255
255
255
255
255
255
255
255
255
255
255
255
255
255
255
255
255
255
255
255
255
255
255
255
255
255
255
255
255
255
255
255
255
255
255
255
255
255
255
255
235
189
154
137
137
165
204
255
255
255
255
255
255
255
255
255
255
255
255
255
255
255
255
255
255
255
255
255
235
161
106
75
64
64
64
66
112
173
255
255
255
255
255
255
255
255
255
255
255
255
255
255
255
255
255
255
255
173
112
75
56
56
64
63
64
64
57
101
153
235
255
255
255
255
255
255
255
255
255
255
255
255
255
255
255
204
127
89
56
56
75
97
119
137
137
108
84
56
92
161
255
255
255
255
255
255
255
255
255
255
255
255
255
255
204
127
70
51
75
105
161
235
255
255
255
235
150
69
56
106
255
255
255
255
255
255
255
255
255
255
255
255
255
204
101
64
61
97
143
235
255
255
255
255
255
255
235
76
51
81
255
255
255
255
255
255
255
255
255
255
255
255
204
127
64
58
108
204
255
255
255
255
255
255
255
255
235
76
51
81
255
255
255
255
255
255
255
255
255
255
255
255
142
70
61
102
165
255
255
255
255
255
255
255
255
255
189
71
56
97
255
255
255
255
255
255
255
255
255
255
255
235
97
56
75
189
255
255
255
255
255
255
255
255
255
235
120
64
66
142
255
255
255
255
255
255
229
165
165
185
255
189
75
56
97
235
255
255
255
255
255
255
255
255
255
161
88
57
112
204
255
255
255
255
255
255
204
89
62
85
142
129
64
64
119
255
255
255
255
255
255
255
235
154
102
77
56
101
173
255
255
255
255
255
255
255
204
89
61
54
64
64
53
55
87
137
137
137
137
137
119
97
81
61
54
51
92
153
255
255
255
255
255
255
255
255
229
165
108
77
64
51
51
52
57
64
64
64
64
64
64
56
51
53
54
73
143
235
255
255
255
255
255
255
255
255
255
255
235
189
120
66
52
52
57
64
64
64
64
63
63
71
81
85
119
165
255
255
255
255
255
255
255
255
255
255
255
255
255
255
255
129
60
57
87
137
137
137
137
137
154
189
235
255
255
255
255
255
255
255
255
255
255
255
255
255
255
255
255
255
255
165
64
64
108
255
255
255
255
255
255
255
255
255
255
255
255
255
255
255
255
255
255
255
255
255
255
255
255
255
255
204
89
51
89
204
255
255
255
255
255
255
255
255
255
255
255
255
255
255
255
255
255
255
255
255
255
255
255
255
255
255
120
64
64
142
255
255
255
255
255
255
255
255
255
255
255
255
255
255
255
255
255
255
255
255
255
255
255
255
255
255
189
81
56
97
204
255
255
255
255
255
255
255
255
255
255
255
255
255
255
255
255
255
255
255
255
255
255
255
255
255
235
127
70
62
108
165
255
255
255
255
255
255
255
255
255
255
255
255
255
255
255
255
255
255
255
255
255
255
255
255
255
204
127
64
58
108
204
255
255
255
255
255
255
204
153
153
204
255
255
255
255
255
255
255
255
255
255
255
255
255
255
255
204
101
64
62
97
119
137
137
137
119
105
71
59
64
165
255
255
255
255
255
255
255
255
255
255
255
255
255
255
255
255
204
127
69
56
64
64
64
64
64
56
53
51
64
165
255
255
255
255
255
255
255
255
255
255
255
255
255
255
255
255
255
204
127
81
64
64
64
64
63
71
66
76
101
204
255
255
255
255
255
255
255
255
255
255
255
255
255
255
255
255
255
255
235
189
154
137
137
137
154
175
217
235
255
255
255
255
255
255
255
255
255
255
255
255
255
255
255
255
255
255
255
255
255
255
255
255
255
255
255
255
255
255
255
255
255
255
255
255
255
255
