P2
# CREATOR: GIMP PNM Filter Version 1.1
30 30
255
255
255
255
255
255
255
255
255
255
255
255
255
255
255
255
255
255
255
255
255
255
255
255
255
255
255
255
255
255
255
255
255
255
255
255
255
255
255
255
255
255
255
255
255
255
255
255
255
255
255
255
255
255
255
255
255
255
255
255
255
255
255
255
255
255
255
255
255
255
255
255
255
255
255
255
255
255
255
255
255
255
255
255
255
255
255
255
255
255
255
255
255
255
255
255
255
255
255
255
255
255
255
255
255
255
255
255
255
255
255
255
255
255
255
255
255
255
255
255
255
255
255
255
255
255
255
255
255
255
255
255
191
143
85
57
45
45
54
68
85
143
191
255
255
255
255
255
255
255
255
255
255
255
255
255
255
255
255
255
230
137
69
19
16
6
0
6
6
6
12
16
63
191
255
255
255
255
255
255
255
255
255
255
255
255
255
255
255
255
127
51
6
16
15
25
31
25
25
25
11
6
16
95
191
255
255
255
255
255
255
255
255
255
255
255
255
255
255
127
63
6
38
71
129
172
207
207
187
155
97
53
12
24
95
255
255
255
255
255
255
255
255
255
255
255
255
255
127
63
0
68
137
230
255
255
255
255
255
255
255
172
31
0
57
255
255
255
255
255
255
255
255
255
255
255
255
152
63
0
57
127
255
255
255
255
255
255
255
255
255
172
38
9
76
255
255
255
255
255
255
255
255
255
255
255
230
76
6
30
115
255
255
255
255
255
255
255
255
230
137
61
19
63
152
255
255
255
255
255
255
255
255
255
255
255
172
30
6
57
230
255
255
255
255
255
230
172
103
57
30
6
31
127
255
255
255
255
255
255
255
255
255
255
223
143
52
8
11
75
155
129
107
107
85
57
38
25
16
6
6
38
95
191
255
255
255
255
255
255
255
255
255
255
191
47
2
0
2
17
25
16
16
16
16
6
0
6
16
30
69
137
230
255
255
255
255
255
255
255
255
255
255
255
191
42
1
0
1
5
6
16
16
16
15
25
38
57
103
172
230
255
255
255
255
255
255
255
255
255
255
255
255
255
223
116
8
1
10
54
68
85
107
107
129
172
230
255
255
255
255
255
255
255
255
255
255
255
255
255
255
255
255
255
255
187
25
6
54
255
255
255
255
255
255
255
255
255
255
255
255
255
255
255
255
255
255
255
255
255
255
255
255
255
255
155
25
6
68
255
255
255
255
255
255
255
255
255
255
255
255
255
255
255
255
255
255
255
255
255
255
255
255
255
255
155
16
16
68
255
255
255
255
255
255
255
255
255
255
255
255
255
255
255
255
255
255
255
255
255
255
255
255
255
255
172
25
6
57
255
255
255
255
255
255
255
255
255
255
255
255
255
255
255
255
255
255
255
255
255
255
255
255
255
255
230
57
0
38
152
255
255
255
255
255
255
255
255
255
255
255
255
255
255
255
255
255
255
255
255
255
255
255
255
255
255
115
30
6
76
230
255
255
255
255
255
255
255
255
255
255
255
255
255
255
255
255
255
255
255
255
255
255
255
255
255
230
76
6
30
115
255
255
255
255
255
255
255
255
255
255
255
255
255
255
255
255
255
255
255
255
255
255
255
255
255
255
152
57
0
57
152
255
255
255
255
255
255
255
255
230
103
86
95
230
255
255
255
255
255
255
255
255
255
255
255
255
255
115
51
6
57
71
129
155
187
155
129
107
85
57
18
3
51
230
255
255
255
255
255
255
255
255
255
255
255
255
255
230
127
63
0
16
16
25
25
25
16
16
16
6
4
16
63
230
255
255
255
255
255
255
255
255
255
255
255
255
255
255
255
127
63
15
16
6
6
6
16
16
15
30
57
114
191
255
255
255
255
255
255
255
255
255
255
255
255
255
255
255
255
255
191
143
85
68
54
68
85
107
129
172
230
255
255
255
255
255
255
255
255
255
255
255
255
255
255
255
255
255
255
255
255
255
255
255
255
255
255
255
255
255
255
255
255
255
255
255
255
255
255
255
255
255
255
255
255
255
255
255
255
255
255
255
255
255
255
255
255
255
255
255
255
255
255
255
255
255
255
255
255
255
