P2
# CREATOR: GIMP PNM Filter Version 1.1
30 30
255
255
255
255
255
255
255
255
255
255
255
255
255
255
255
255
255
255
255
255
255
255
255
255
255
255
255
255
255
255
255
255
255
255
255
255
255
255
255
255
255
255
255
255
255
255
255
255
255
255
255
255
255
255
255
255
255
255
255
255
255
255
255
255
255
255
255
255
255
255
255
255
255
255
255
255
255
255
255
255
255
255
255
255
255
255
255
255
255
255
255
255
255
255
255
255
255
255
255
255
255
255
255
255
255
255
255
255
255
255
255
255
255
255
255
255
255
255
255
255
255
255
255
255
255
255
255
255
255
255
230
172
86
47
31
31
38
57
85
143
191
255
255
255
255
255
255
255
255
255
255
255
255
255
255
255
255
255
255
191
95
38
16
0
0
0
0
6
16
16
47
95
191
255
255
255
255
255
255
255
255
255
255
255
255
255
255
255
152
76
19
6
15
31
31
31
31
25
15
16
0
16
63
152
255
255
255
255
255
255
255
255
255
255
255
255
255
152
76
7
19
57
114
191
255
255
230
172
129
71
43
9
6
76
191
255
255
255
255
255
255
255
255
255
255
255
191
63
6
28
95
191
255
255
255
255
255
255
255
255
172
71
12
19
95
255
255
255
255
255
255
255
255
255
255
255
95
16
11
86
230
255
255
255
255
255
255
255
255
255
255
191
38
0
47
230
255
255
255
255
255
255
255
255
255
230
47
0
34
172
255
255
255
255
255
255
255
255
255
255
255
255
38
6
25
230
255
255
255
255
255
255
255
255
255
207
25
6
45
255
255
255
255
255
255
255
255
255
255
255
255
191
57
0
63
230
255
255
255
255
255
255
255
255
255
187
25
6
54
255
255
255
255
255
255
255
255
255
255
191
95
47
16
63
127
255
255
255
255
255
255
255
204
172
172
161
25
6
54
255
255
255
255
230
207
155
129
85
57
38
16
0
31
127
255
255
255
255
255
255
255
255
91
19
11
22
4
1
11
54
54
54
45
38
25
25
16
16
6
0
16
47
95
191
255
255
255
255
255
255
255
255
91
3
2
0
0
0
1
6
6
6
6
0
6
6
16
15
25
47
95
191
255
255
255
255
255
255
255
255
255
255
121
57
28
29
4
0
3
23
25
25
25
38
45
68
85
129
172
230
255
255
255
255
255
255
255
255
255
255
255
255
255
255
255
230
55
4
18
101
187
187
207
230
255
255
255
255
255
255
255
255
255
255
255
255
255
255
255
255
255
255
255
255
255
255
137
30
6
68
230
255
255
255
255
255
255
255
255
255
255
255
255
255
255
255
255
255
255
255
255
255
255
255
255
255
230
69
6
30
137
255
255
255
255
255
255
255
255
255
255
255
255
255
255
255
255
255
255
255
255
255
255
255
255
255
255
137
38
6
68
191
255
255
255
255
255
255
255
255
255
255
255
255
255
255
255
255
255
255
255
255
255
255
255
255
255
230
95
19
19
95
230
255
255
255
255
255
255
255
255
255
255
255
255
255
255
255
255
255
255
255
255
255
255
255
255
255
191
76
6
38
115
255
255
255
255
255
255
255
255
255
255
255
255
255
255
255
255
255
255
255
255
255
255
255
255
255
255
152
63
0
43
95
191
255
255
255
255
255
255
255
255
255
255
255
255
255
255
255
255
255
255
255
255
255
255
255
255
255
127
63
0
24
86
172
230
255
255
255
255
255
255
255
230
115
115
127
255
255
255
255
255
255
255
255
255
255
255
255
255
127
63
16
16
25
47
71
107
107
107
107
107
71
47
25
0
127
255
255
255
255
255
255
255
255
255
255
255
255
255
255
191
95
23
6
0
16
16
16
16
16
16
16
0
6
63
127
255
255
255
255
255
255
255
255
255
255
255
255
255
255
255
191
114
57
38
15
15
16
16
16
15
15
38
76
152
255
255
255
255
255
255
255
255
255
255
255
255
255
255
255
255
255
255
255
191
143
107
107
107
107
107
143
191
255
255
255
255
255
255
255
255
255
255
255
255
255
255
255
255
255
255
255
255
255
255
255
255
255
255
255
255
255
255
255
255
255
255
255
255
