P2
# CREATOR: GIMP PNM Filter Version 1.1
30 30
255
255
255
255
255
255
255
255
255
255
255
255
255
255
255
255
255
255
255
255
255
255
255
255
255
255
255
255
255
255
255
255
255
255
255
255
255
255
255
255
255
255
255
255
255
255
255
255
255
255
255
255
255
255
255
255
255
255
255
255
255
255
255
255
255
255
255
255
255
255
255
255
255
255
255
255
255
255
255
255
255
255
255
255
255
255
255
255
255
255
255
255
255
255
255
255
255
255
255
255
255
255
255
255
255
255
255
230
172
129
107
107
143
191
255
255
255
255
255
255
255
255
255
255
255
255
255
255
255
255
255
255
255
255
255
255
191
95
38
16
16
16
19
57
114
191
255
255
255
255
255
255
255
255
255
255
255
255
255
255
255
255
255
255
255
152
76
19
6
16
16
16
16
5
16
63
152
255
255
255
255
255
255
255
255
255
255
255
255
255
255
255
255
230
115
57
6
19
57
85
107
107
71
34
9
6
76
191
255
255
255
255
255
255
255
255
255
255
255
255
255
255
191
95
38
0
38
95
191
255
255
255
230
155
64
14
19
95
230
255
255
255
255
255
255
255
255
255
255
255
255
255
127
32
6
57
115
230
255
255
255
255
255
255
191
45
6
38
207
255
255
255
255
255
255
255
255
255
255
255
230
127
63
23
76
152
255
255
255
255
255
255
255
255
255
68
6
25
155
255
255
255
255
255
255
255
255
255
255
255
172
51
9
85
191
255
255
255
255
255
255
255
255
255
255
68
16
16
155
255
255
255
255
255
255
255
255
255
255
255
103
16
16
103
255
255
255
255
255
255
255
255
255
255
255
57
6
25
172
255
255
255
255
233
152
152
174
255
255
255
57
6
25
172
255
255
255
255
255
255
255
255
255
255
152
38
0
57
230
255
255
255
255
230
79
11
28
53
129
172
34
0
31
230
255
255
255
255
255
255
255
191
143
71
57
6
51
115
255
255
255
255
255
230
93
13
0
12
16
23
4
0
13
107
107
107
107
85
68
45
38
31
16
16
0
63
127
230
255
255
255
255
255
252
172
57
29
11
16
5
0
0
2
16
16
16
16
16
6
6
0
0
16
15
63
127
255
255
255
255
255
255
255
255
255
255
191
143
85
51
5
0
2
14
15
15
15
15
25
25
31
47
71
143
191
255
255
255
255
255
255
255
255
255
255
255
255
255
255
255
52
4
13
73
107
107
107
129
155
207
230
255
255
255
255
255
255
255
255
255
255
255
255
255
255
255
255
255
255
255
103
16
16
103
255
255
255
255
255
255
255
255
255
255
255
255
255
255
255
255
255
255
255
255
255
255
255
255
255
255
172
30
6
57
230
255
255
255
255
255
255
255
255
255
255
255
255
255
255
255
255
255
255
255
255
255
255
255
255
255
230
76
6
30
115
255
255
255
255
255
255
255
255
255
255
255
255
255
255
255
255
255
255
255
255
255
255
255
255
255
255
152
57
0
57
152
255
255
255
255
255
255
255
255
255
255
255
255
255
255
255
255
255
255
255
255
255
255
255
255
255
255
115
51
6
57
95
191
255
255
255
255
255
255
255
255
255
255
255
255
255
255
255
255
255
255
255
255
255
255
255
255
230
127
63
0
16
31
38
57
85
107
107
85
57
76
127
255
255
255
255
255
255
255
255
255
255
255
255
255
255
255
255
255
127
63
16
0
0
6
16
16
16
16
6
0
127
255
255
255
255
255
255
255
255
255
255
255
255
255
255
255
255
255
255
191
95
47
31
25
15
15
15
15
25
63
127
255
255
255
255
255
255
255
255
255
255
255
255
255
255
255
255
255
255
255
255
255
230
172
129
107
107
129
172
230
255
255
255
255
255
255
255
255
255
255
255
255
255
255
255
255
255
255
255
255
255
255
255
255
255
255
255
255
255
255
255
255
255
255
255
255
255
255
255
255
255
255
255
255
255
255
255
255
255
255
255
255
255
255
255
255
255
255
255
255
255
255
255
255
255
255
255
255
255
255
255
255
255
255
255
255
255
255
255
255
255
255
255
255
255
255
255
255
255
255
255
255
255
255
255
