P2
# CREATOR: GIMP PNM Filter Version 1.1
30 30
255
255
255
255
255
255
255
255
255
255
255
255
255
255
255
255
255
255
255
255
255
255
255
255
255
255
255
255
255
255
255
255
255
255
255
255
255
255
255
255
255
255
255
255
255
255
255
255
255
255
255
255
255
255
255
255
255
255
255
255
255
255
255
255
255
255
255
255
255
255
255
255
255
255
255
255
255
255
255
255
255
255
255
255
255
255
255
255
255
255
255
255
255
255
255
255
255
255
255
255
255
255
255
255
255
230
172
103
85
85
129
172
230
255
255
255
255
255
255
255
255
255
255
255
255
255
255
255
255
255
255
255
255
230
137
69
30
16
6
16
16
30
76
152
255
255
255
255
255
255
255
255
255
255
255
255
255
255
255
255
255
255
191
95
38
6
6
16
25
15
16
6
6
63
127
255
255
255
255
255
255
255
255
255
255
255
255
255
255
255
255
191
95
24
6
30
57
103
129
129
85
57
27
0
63
152
255
255
255
255
255
255
255
255
255
255
255
255
255
255
152
76
19
19
68
137
230
255
255
255
255
230
104
27
6
76
230
255
255
255
255
255
255
255
255
255
255
255
255
127
63
6
23
95
191
255
255
255
255
255
255
255
230
45
6
30
207
255
255
255
255
255
255
255
255
255
255
255
152
63
0
34
95
191
255
255
255
255
255
255
255
255
255
45
6
25
207
255
255
255
255
255
255
255
255
255
255
191
76
6
34
104
230
255
255
255
255
255
255
255
255
255
255
38
0
31
230
255
255
255
255
255
255
255
255
255
255
95
19
16
95
230
255
255
255
255
255
255
255
255
255
255
191
31
0
47
255
255
255
255
255
255
255
255
255
255
230
47
0
38
191
255
255
255
255
255
255
255
255
255
255
255
103
14
14
86
255
255
255
255
255
255
191
95
95
143
172
25
6
57
255
255
255
255
255
255
255
255
255
255
230
137
31
3
25
172
255
255
255
255
255
255
191
32
8
28
28
5
8
52
207
230
255
255
255
255
230
207
155
129
71
38
4
6
63
230
255
255
255
255
255
255
191
63
15
0
3
1
1
8
25
31
31
31
31
31
31
25
25
16
16
6
30
76
152
255
255
255
255
255
255
255
255
191
95
47
15
1
0
1
6
0
0
0
0
0
0
6
6
16
18
69
137
230
255
255
255
255
255
255
255
255
255
255
255
230
140
13
2
12
45
38
31
31
31
31
38
45
68
85
143
191
255
255
255
255
255
255
255
255
255
255
255
255
255
255
230
38
0
38
230
255
255
255
255
255
255
255
255
255
255
255
255
255
255
255
255
255
255
255
255
255
255
255
255
255
255
57
6
25
172
255
255
255
255
255
255
255
255
255
255
255
255
255
255
255
255
255
255
255
255
255
255
255
255
255
255
103
16
16
103
255
255
255
255
255
255
255
255
255
255
255
255
255
255
255
255
255
255
255
255
255
255
255
255
255
255
172
38
6
57
191
255
255
255
255
255
255
255
255
255
255
255
255
255
255
255
255
255
255
255
255
255
255
255
255
255
230
95
16
19
95
255
255
255
255
255
255
255
255
255
255
255
255
255
255
255
255
255
255
255
255
255
255
255
255
255
255
191
57
0
47
152
255
255
255
255
255
255
255
255
255
255
255
255
255
255
255
255
255
255
255
255
255
255
255
255
255
255
115
51
6
76
127
255
255
255
255
255
230
172
103
114
152
255
255
255
255
255
255
255
255
255
255
255
255
255
255
255
230
127
63
0
47
71
107
85
68
45
38
25
16
12
127
255
255
255
255
255
255
255
255
255
255
255
255
255
255
255
255
255
127
63
0
16
16
16
6
6
0
6
16
51
127
255
255
255
255
255
255
255
255
255
255
255
255
255
255
255
255
255
255
127
63
15
15
15
25
25
38
57
103
172
230
255
255
255
255
255
255
255
255
255
255
255
255
255
255
255
255
255
255
255
191
143
107
129
155
207
230
255
255
255
255
255
255
255
255
255
255
255
255
255
255
255
255
255
255
255
255
255
255
255
255
255
255
255
255
255
255
255
255
255
255
255
255
255
255
255
255
255
