P2
# CREATOR: GIMP PNM Filter Version 1.1
30 30
255
255
255
255
255
255
255
255
255
255
255
255
255
255
255
255
255
255
255
255
255
255
255
255
255
255
255
255
255
255
255
255
255
255
255
255
255
255
255
255
255
255
255
255
255
255
255
255
255
255
255
255
255
255
255
255
255
255
255
255
255
255
255
255
255
255
255
255
255
255
255
255
255
255
255
255
255
255
255
255
255
255
255
255
255
255
255
255
255
255
255
255
255
255
255
255
255
255
255
255
255
255
255
255
255
255
255
255
255
255
255
255
255
255
255
255
255
255
255
255
255
255
255
255
255
255
255
255
255
255
255
255
255
255
255
255
255
255
255
255
255
255
255
255
255
255
255
255
255
255
255
255
255
255
255
255
255
255
255
255
255
255
255
255
255
191
143
107
85
85
85
143
191
255
255
255
255
255
255
255
255
255
255
255
255
255
255
255
255
255
255
255
255
191
114
57
19
16
16
6
16
16
63
127
255
255
255
255
255
255
255
255
255
255
255
255
255
255
255
255
230
172
86
47
16
6
16
16
15
25
15
16
0
63
127
255
255
255
255
255
255
255
255
255
255
255
255
255
255
191
95
38
16
0
16
38
71
107
129
129
129
71
35
0
63
191
255
255
255
255
255
255
255
255
255
255
255
255
255
127
32
6
15
47
86
172
230
255
255
255
255
255
71
16
16
143
255
255
255
255
255
255
255
255
255
255
255
255
152
63
19
51
114
191
255
255
255
255
255
255
255
255
107
16
16
107
255
255
255
255
255
255
255
255
255
255
255
255
76
9
38
172
255
255
255
255
255
255
255
255
255
255
80
8
8
80
255
255
255
255
255
255
255
255
255
255
255
191
38
0
47
230
255
255
255
255
255
255
255
255
255
255
64
4
4
97
255
255
255
255
255
255
204
114
114
153
255
143
16
16
71
255
255
255
255
255
255
255
255
255
255
172
39
2
19
129
255
255
255
255
255
255
191
38
14
64
172
77
16
16
129
255
255
255
255
255
255
255
255
230
172
64
11
16
95
230
255
255
255
255
255
255
191
57
14
12
30
15
2
13
105
230
255
255
255
230
207
155
103
57
30
12
6
63
191
255
255
255
255
255
255
255
242
172
86
22
6
1
0
1
16
31
31
31
31
31
25
25
16
6
6
18
76
152
255
255
255
255
255
255
255
255
255
255
191
114
57
10
1
1
3
0
0
0
0
0
6
6
16
30
57
114
191
255
255
255
255
255
255
255
255
255
255
255
255
255
230
97
8
5
16
38
31
31
31
38
45
68
103
172
230
255
255
255
255
255
255
255
255
255
255
255
255
255
255
255
255
191
47
0
47
191
255
255
255
255
255
255
255
255
255
255
255
255
255
255
255
255
255
255
255
255
255
255
255
255
255
255
95
16
16
95
255
255
255
255
255
255
255
255
255
255
255
255
255
255
255
255
255
255
255
255
255
255
255
255
255
255
191
57
0
47
152
255
255
255
255
255
255
255
255
255
255
255
255
255
255
255
255
255
255
255
255
255
255
255
255
255
255
115
51
7
82
137
230
255
255
255
255
255
255
255
255
255
255
255
255
255
255
255
255
255
255
255
255
255
255
255
255
230
127
63
7
30
45
68
85
107
107
107
107
85
57
76
127
255
255
255
255
255
255
255
255
255
255
255
255
255
255
255
255
127
51
6
6
6
16
16
16
16
16
16
6
0
127
255
255
255
255
255
255
255
255
255
255
255
255
255
255
255
255
230
137
68
30
25
15
15
15
15
15
15
25
63
127
255
255
255
255
255
255
255
255
255
255
255
255
255
255
255
255
255
255
230
207
155
129
107
107
107
107
129
172
230
255
255
255
255
255
255
255
255
255
255
255
255
255
255
255
255
255
255
255
255
255
255
255
255
255
255
255
255
255
255
255
255
255
255
255
255
255
255
255
255
255
255
255
255
255
255
255
255
255
255
255
255
255
255
255
255
255
255
255
255
255
255
255
255
255
255
255
255
255
255
255
255
255
255
255
255
255
255
255
255
255
255
255
255
255
255
255
255
255
255
255
255
255
255
255
255
255
