P2
# CREATOR: GIMP PNM Filter Version 1.1
30 30
255
255
255
255
255
255
255
255
255
255
255
255
255
255
255
255
255
255
255
255
255
255
255
255
255
255
255
255
255
255
255
255
255
255
255
255
255
255
255
255
255
255
255
255
255
255
255
255
255
255
255
255
255
255
255
255
255
255
255
255
255
255
255
255
255
255
255
255
255
255
255
255
255
255
255
255
255
255
255
255
255
255
255
255
255
255
255
255
255
255
255
255
255
255
255
255
255
255
255
255
255
255
255
255
255
255
255
255
255
255
255
255
255
255
255
255
255
255
255
255
255
255
255
255
255
255
255
255
255
255
255
255
255
191
114
57
38
31
31
38
57
114
191
255
255
255
255
255
255
255
255
255
255
255
255
255
255
255
255
255
255
191
95
47
16
6
0
0
0
0
6
24
63
127
191
255
255
255
255
255
255
255
255
255
255
255
255
255
255
255
255
127
32
0
15
25
31
31
31
31
25
23
24
32
95
191
255
255
255
255
255
255
255
255
255
255
255
255
255
230
127
63
19
47
86
172
230
255
255
230
172
129
40
8
12
107
255
255
255
255
255
255
255
255
255
255
255
255
255
137
51
9
103
191
255
255
255
255
255
255
255
255
64
4
4
97
255
255
255
255
255
255
255
255
255
255
255
255
191
68
6
38
137
255
255
255
255
255
255
255
255
152
43
3
23
129
255
255
255
255
255
255
255
255
255
255
255
255
143
19
16
71
230
255
255
255
255
255
255
191
114
68
9
51
115
230
255
255
255
255
255
255
255
255
255
255
255
255
85
16
16
129
255
255
255
255
230
172
86
47
16
7
63
127
230
255
255
255
255
255
255
255
243
230
230
243
255
255
57
6
25
155
172
129
85
57
38
25
16
0
16
51
127
255
255
255
255
255
255
255
255
255
191
69
41
51
85
77
10
0
5
28
25
16
16
6
0
6
15
47
86
172
230
255
255
255
255
255
255
255
255
255
191
38
3
4
16
13
0
0
0
0
6
16
15
25
38
57
114
191
255
255
255
255
255
255
255
255
255
255
255
255
203
76
30
20
15
12
2
0
7
38
57
85
129
172
230
255
255
255
255
255
255
255
255
255
255
255
255
255
255
255
255
230
207
155
129
105
15
5
41
255
255
255
255
255
255
255
255
255
255
255
255
255
255
255
255
255
255
255
255
255
255
255
255
255
255
230
31
0
38
255
255
255
255
255
255
255
255
255
255
255
255
255
255
255
255
255
255
255
255
255
255
255
255
255
255
255
38
0
31
230
255
255
255
255
255
255
255
255
255
255
255
255
255
255
255
255
255
255
255
255
255
255
255
255
255
255
69
6
25
137
255
255
255
255
255
255
255
255
255
255
255
255
255
255
255
255
255
255
255
255
255
255
255
255
255
255
137
30
6
68
230
255
255
255
255
255
255
255
255
255
255
255
255
255
255
255
255
255
255
255
255
255
255
255
255
255
230
57
6
30
172
255
255
255
255
255
255
255
255
255
255
255
255
255
255
255
255
255
255
255
255
255
255
255
255
255
255
114
24
16
86
191
255
255
255
255
255
255
255
255
255
255
255
255
255
255
255
255
255
255
255
255
255
255
255
255
255
191
95
24
24
95
191
255
255
255
255
255
255
255
255
255
255
255
255
255
255
255
255
255
255
255
255
255
255
255
255
255
191
95
32
29
85
114
191
255
230
129
86
95
191
255
255
255
255
255
255
255
255
255
255
255
255
255
255
255
255
255
255
191
127
63
9
16
31
31
31
19
8
32
191
255
255
255
255
255
255
255
255
255
255
255
255
255
255
255
255
255
255
255
255
127
51
16
0
0
0
4
16
63
191
255
255
255
255
255
255
255
255
255
255
255
255
255
255
255
255
255
255
255
255
230
172
86
47
31
38
57
114
191
255
255
255
255
255
255
255
255
255
255
255
255
255
255
255
255
255
255
255
255
255
255
255
255
255
255
255
255
255
255
255
255
255
255
255
255
255
255
255
255
255
255
255
255
255
255
255
255
255
255
255
255
255
255
255
255
255
255
255
255
255
255
255
255
255
255
255
255
255
