P2
# CREATOR: GIMP PNM Filter Version 1.1
30 30
255
255
255
255
255
255
255
255
255
255
255
255
255
255
255
255
255
255
255
255
255
255
255
255
255
255
255
255
255
255
255
255
255
255
255
255
255
255
255
255
255
255
255
255
255
255
255
255
255
255
255
255
255
255
255
255
255
255
255
255
255
255
255
255
255
255
255
255
255
255
255
255
255
255
255
255
255
255
255
255
255
255
255
255
255
255
255
255
255
255
255
255
255
255
255
255
255
255
255
255
255
255
255
255
255
255
255
255
255
255
255
255
255
255
255
255
255
255
255
255
255
255
255
255
255
255
255
255
255
255
255
255
255
255
255
255
255
255
255
255
255
255
255
255
255
255
255
255
255
255
255
255
255
255
255
255
255
255
255
255
255
255
255
191
143
85
68
54
68
85
143
191
255
255
255
255
255
255
255
255
255
255
255
255
255
255
255
255
255
255
255
191
114
57
19
16
6
6
6
16
16
47
95
191
255
255
255
255
255
255
255
255
255
255
255
255
255
255
255
255
191
95
24
6
16
15
25
25
25
15
16
0
16
63
152
255
255
255
255
255
255
255
255
255
255
255
255
255
255
191
95
24
16
38
71
129
155
187
155
129
71
43
11
6
76
152
255
255
255
255
255
255
255
255
255
255
255
255
191
63
16
17
86
172
230
255
255
255
255
255
255
172
86
21
4
38
143
255
255
255
255
255
255
255
255
255
255
255
95
16
6
71
191
255
255
255
255
255
255
255
255
255
230
53
4
5
107
255
255
255
255
255
255
255
255
255
255
191
47
0
35
143
255
255
255
255
255
255
255
255
255
255
255
97
8
8
64
255
255
255
255
255
255
255
255
255
255
143
16
16
71
255
255
255
255
255
255
255
255
255
255
255
255
103
30
7
114
255
255
255
255
255
191
172
172
230
255
85
16
16
129
255
255
255
255
255
255
255
230
207
155
129
71
42
6
63
152
255
255
255
255
255
127
32
25
38
45
14
1
5
32
54
54
54
54
54
45
38
31
25
25
16
16
0
51
127
255
255
255
255
255
255
127
31
6
0
6
1
0
0
5
6
6
6
6
6
6
0
0
6
6
16
15
57
115
230
255
255
255
255
255
255
191
114
57
38
25
5
0
2
19
25
25
25
25
25
25
31
38
45
68
85
143
191
255
255
255
255
255
255
255
255
255
255
255
230
207
49
4
18
114
187
187
187
187
187
207
230
255
255
255
255
255
255
255
255
255
255
255
255
255
255
255
255
255
255
255
85
16
16
129
255
255
255
255
255
255
255
255
255
255
255
255
255
255
255
255
255
255
255
255
255
255
255
255
255
255
143
16
16
71
255
255
255
255
255
255
255
255
255
255
255
255
255
255
255
255
255
255
255
255
255
255
255
255
255
255
191
35
0
23
143
255
255
255
255
255
255
255
255
255
255
255
255
255
255
255
255
255
255
255
255
255
255
255
255
255
255
71
5
4
71
230
255
255
255
255
255
255
255
255
255
255
255
255
255
255
255
255
255
255
255
255
255
255
255
255
255
143
38
3
21
86
191
255
255
255
255
255
255
255
255
255
255
255
255
255
255
255
255
255
255
255
255
255
255
255
255
255
152
63
0
22
71
143
172
230
230
230
207
116
97
107
191
255
255
255
255
255
255
255
255
255
255
255
255
255
255
255
255
127
63
16
16
16
31
25
31
31
25
12
4
16
127
255
255
255
255
255
255
255
255
255
255
255
255
255
255
255
255
255
191
95
23
16
0
6
0
0
6
3
4
16
127
255
255
255
255
255
255
255
255
255
255
255
255
255
255
255
255
255
255
191
143
71
57
38
38
38
45
51
64
107
191
255
255
255
255
255
255
255
255
255
255
255
255
255
255
255
255
255
255
255
255
255
255
255
255
255
255
255
255
255
255
255
255
255
255
255
255
255
255
255
255
255
255
255
255
255
255
255
255
255
255
255
255
255
255
255
255
255
255
255
255
255
255
255
255
255
255
255
255
255
255
255
255
255
255
255
255
255
255
255
255
255
255
255
255
255
255
255
255
255
255
255
255
255
255
255
255
255
