P2
# CREATOR: GIMP PNM Filter Version 1.1
30 30
255
255
255
255
255
255
255
255
255
255
255
255
255
255
255
255
255
255
255
255
255
255
255
255
255
255
255
255
255
255
255
255
255
255
255
255
255
255
255
255
255
255
255
255
255
255
255
255
255
255
255
255
255
255
255
255
255
255
255
255
255
255
255
255
255
255
255
255
255
255
255
255
255
255
255
255
255
255
255
255
255
255
255
255
255
255
255
255
255
255
255
255
255
255
255
255
255
255
255
255
255
255
255
255
255
255
255
255
255
255
255
255
255
255
255
255
255
255
255
255
255
255
255
255
255
255
255
255
255
255
255
255
255
255
255
255
255
255
255
255
255
255
255
255
255
255
255
255
255
255
255
255
255
255
255
255
255
255
255
255
255
255
255
230
172
129
107
129
172
230
255
255
255
255
255
255
255
255
255
255
255
255
255
255
255
255
255
255
255
255
230
172
86
47
25
16
16
16
30
68
137
230
255
255
255
255
255
255
255
255
255
255
255
255
255
255
255
255
255
191
95
38
16
0
6
16
16
16
6
6
51
127
255
255
255
255
255
255
255
255
255
255
255
255
255
255
255
255
191
63
16
4
15
38
57
85
107
85
57
30
6
63
127
255
255
255
255
255
255
255
255
255
255
255
255
255
255
230
95
16
6
43
114
191
255
255
255
255
230
137
51
0
63
191
255
255
255
255
255
255
255
255
255
255
255
255
255
172
38
4
43
143
255
255
255
255
255
255
255
255
71
16
16
143
255
255
255
255
255
255
255
255
255
255
255
255
255
86
16
16
114
255
255
255
255
255
255
255
255
255
107
16
16
107
255
255
255
255
255
255
255
255
255
255
255
255
255
47
0
31
191
255
255
255
255
255
255
255
255
255
107
16
16
107
255
255
255
255
255
255
255
255
255
255
255
255
230
31
0
38
255
255
255
255
255
255
255
255
255
255
85
19
19
143
255
255
255
255
255
255
255
255
255
191
143
129
155
23
6
38
255
255
255
255
230
207
187
155
129
71
35
6
63
191
255
255
255
255
255
255
255
255
255
127
32
16
23
4
0
4
28
31
31
31
31
25
25
25
16
16
0
51
127
255
255
255
255
255
255
255
255
255
255
127
31
16
6
0
0
0
0
0
0
0
0
6
6
6
16
15
57
115
230
255
255
255
255
255
255
255
255
255
255
191
143
85
57
10
0
3
19
31
31
31
38
45
54
68
85
143
191
255
255
255
255
255
255
255
255
255
255
255
255
255
255
255
255
114
16
16
86
255
255
255
255
255
255
255
255
255
255
255
255
255
255
255
255
255
255
255
255
255
255
255
255
255
255
191
47
0
47
191
255
255
255
255
255
255
255
255
255
255
255
255
255
255
255
255
255
255
255
255
255
255
255
255
255
255
95
16
16
95
255
255
255
255
255
255
255
255
255
255
255
255
255
255
255
255
255
255
255
255
255
255
255
255
255
255
191
57
0
47
152
255
255
255
255
255
255
255
255
255
255
255
255
255
255
255
255
255
255
255
255
255
255
255
255
255
255
115
51
6
57
95
191
255
255
255
255
255
255
230
129
86
95
191
255
255
255
255
255
255
255
255
255
255
255
255
255
230
127
63
0
16
47
71
107
80
80
64
57
38
14
4
16
143
255
255
255
255
255
255
255
255
255
255
255
255
255
255
255
127
63
16
0
16
16
8
4
8
6
0
3
4
16
143
255
255
255
255
255
255
255
255
255
255
255
255
255
255
255
255
191
95
47
15
15
7
4
8
25
38
43
57
95
191
255
255
255
255
255
255
255
255
255
255
255
255
255
255
255
255
255
255
191
143
107
80
80
97
172
230
255
255
255
255
255
255
255
255
255
255
255
255
255
255
255
255
255
255
255
255
255
255
255
255
255
255
255
255
255
255
255
255
255
255
255
255
255
255
255
255
255
255
255
255
255
255
255
255
255
255
255
255
255
255
255
255
255
255
255
255
255
255
255
255
255
255
255
255
255
255
255
255
255
255
255
255
255
255
255
255
255
255
255
255
255
255
255
255
255
255
255
255
255
255
255
255
255
255
255
