P2
# CREATOR: GIMP PNM Filter Version 1.1
30 30
255
255
255
255
255
255
255
255
255
255
255
255
255
255
255
255
255
255
255
255
255
255
255
255
255
255
255
255
255
255
255
255
255
255
255
255
255
255
255
255
255
255
255
255
255
255
255
255
255
255
255
255
255
255
255
255
255
255
255
255
255
255
255
255
255
255
255
255
255
255
255
255
255
255
255
255
255
255
255
255
255
255
255
255
255
255
255
255
255
255
255
255
255
255
255
255
255
255
255
255
255
255
255
255
255
255
255
255
255
255
255
255
255
255
255
255
255
255
255
255
255
255
255
255
255
255
255
255
255
255
255
255
255
255
255
255
255
255
255
255
255
255
255
255
255
255
255
255
255
255
255
255
255
255
255
255
255
255
255
255
255
255
255
255
255
255
255
255
255
255
255
255
255
255
255
255
255
255
255
255
255
255
255
255
255
255
255
255
255
255
255
255
255
255
255
255
249
206
178
243
255
255
255
255
255
255
255
255
255
255
255
255
255
255
255
255
255
255
255
255
255
255
255
255
242
129
25
0
0
13
189
255
255
255
255
255
255
255
255
255
255
255
255
255
255
255
255
255
255
255
255
255
255
183
30
0
0
0
0
0
83
255
255
255
255
255
255
255
255
255
255
255
255
255
255
255
255
255
255
255
255
253
125
0
0
0
2
32
0
0
79
255
255
255
255
255
255
255
255
255
255
255
255
255
255
255
255
255
255
255
247
83
0
0
0
88
230
254
53
0
14
253
255
255
255
255
255
255
255
255
255
255
255
255
255
255
255
255
255
250
77
0
0
11
169
255
255
255
106
0
0
236
255
255
255
255
255
255
255
255
255
255
255
255
255
255
255
255
253
86
0
0
25
210
255
255
255
255
123
0
0
188
255
255
255
255
255
255
255
255
255
255
255
255
255
255
255
255
139
0
0
20
214
255
255
255
255
255
92
0
0
102
255
255
255
255
255
255
255
255
255
255
255
255
255
255
255
211
5
0
0
183
255
255
255
255
255
252
23
0
0
144
255
255
255
255
255
255
255
255
255
255
255
255
255
255
255
77
0
0
113
255
255
255
255
255
255
177
0
0
0
210
255
255
255
255
255
255
255
255
255
255
255
255
255
255
217
0
0
45
248
255
255
255
255
255
251
45
0
0
21
253
255
255
255
255
255
255
255
255
255
255
255
255
255
255
136
0
0
163
255
255
255
255
255
255
130
0
0
0
70
255
255
255
255
255
255
255
255
255
255
255
255
255
255
255
93
0
0
234
255
255
255
255
255
190
3
0
0
0
92
255
255
255
255
255
255
255
255
255
255
255
255
255
255
255
81
0
0
249
255
255
255
255
204
13
0
0
0
0
112
255
255
255
255
255
255
255
255
255
255
255
255
255
255
255
120
0
0
195
255
255
253
159
9
0
0
120
0
0
118
255
255
255
255
255
255
255
255
255
255
255
255
255
255
255
198
0
0
23
119
110
40
0
0
0
142
247
0
0
93
255
255
255
255
255
255
255
255
255
255
255
255
255
255
255
255
96
0
0
0
0
0
0
10
163
255
255
20
0
62
255
255
255
255
255
255
255
255
255
255
255
255
255
255
255
255
248
86
0
0
0
0
75
212
255
255
255
51
0
13
252
255
255
255
255
255
255
255
255
255
255
255
255
255
255
255
255
252
198
142
160
215
255
255
255
255
255
114
0
0
224
255
255
255
255
255
255
255
255
255
255
255
255
255
255
255
255
255
255
255
255
255
255
255
255
255
255
212
47
95
254
255
255
255
255
255
255
255
255
255
255
255
255
255
255
255
255
255
255
255
255
255
255
255
255
255
255
255
255
255
255
255
255
255
255
255
255
255
255
255
255
255
255
255
255
255
255
255
255
255
255
255
255
255
255
255
255
255
255
255
255
255
255
255
255
255
255
255
255
255
255
255
255
255
255
255
255
255
255
255
255
255
255
255
255
255
255
255
255
255
255
255
255
255
255
255
255
255
255
255
255
255
255
255
255
255
255
255
255
255
255
255
255
255
255
255
255
255
255
255
255
255
255
255
255
255
255
255
255
255
