P2
# CREATOR: GIMP PNM Filter Version 1.1
30 30
255
255
255
255
255
255
255
255
255
255
255
255
255
255
222
181
158
153
173
195
232
255
255
255
255
255
255
255
255
255
255
255
255
255
255
255
255
255
255
255
255
232
119
30
0
0
0
0
0
0
1
55
138
244
255
255
255
255
255
255
255
255
255
255
255
255
255
255
255
250
134
13
0
0
0
0
0
0
0
0
0
0
0
28
172
255
255
255
255
255
255
255
255
255
255
255
255
255
244
70
0
0
0
0
0
0
0
0
0
0
0
0
0
0
0
138
255
255
255
255
255
255
255
255
255
255
255
247
56
0
0
0
0
0
33
113
145
156
134
77
9
0
0
0
0
0
151
255
255
255
255
255
255
255
255
255
255
111
0
0
0
0
17
160
255
255
255
255
255
255
229
82
0
0
0
0
11
222
255
255
255
255
255
255
255
255
192
1
0
0
0
18
208
255
255
255
255
255
255
255
255
253
90
0
0
0
0
90
255
255
255
255
255
255
255
255
71
0
0
0
0
171
255
255
255
255
255
255
255
255
255
255
241
25
0
0
0
7
237
255
255
255
255
255
255
215
1
0
0
0
58
255
255
255
255
255
255
255
255
255
255
255
255
127
0
0
0
0
158
255
255
255
255
255
255
128
0
0
0
0
161
255
255
255
255
255
255
255
255
255
255
255
255
207
0
0
0
0
103
255
255
255
255
255
255
69
0
0
0
0
230
255
255
255
255
255
255
255
255
255
255
255
255
250
5
0
0
0
53
255
255
255
255
255
253
13
0
0
0
17
255
255
255
255
255
255
255
255
255
255
255
255
255
255
20
0
0
0
30
255
255
255
255
255
230
0
0
0
0
18
127
127
127
127
127
127
127
127
127
127
127
127
127
127
14
0
0
0
13
255
255
255
255
255
212
0
0
0
0
0
0
0
0
0
0
0
0
0
0
0
0
0
0
0
0
0
0
0
4
255
255
255
255
255
195
0
0
0
0
0
0
0
0
0
0
0
0
0
0
0
0
0
0
0
0
0
0
0
26
255
255
255
255
255
189
0
0
0
0
0
0
0
0
0
0
0
0
0
0
0
0
0
0
0
0
0
0
10
157
255
255
255
255
255
203
0
0
0
0
36
243
243
243
243
243
243
243
243
243
243
243
243
243
243
243
243
243
253
255
255
255
255
255
255
219
0
0
0
0
24
255
255
255
255
255
255
255
255
255
255
255
255
255
255
255
255
255
255
255
255
255
255
255
255
240
0
0
0
0
5
250
255
255
255
255
255
255
255
255
255
255
255
255
255
255
255
255
255
255
255
255
255
255
255
255
33
0
0
0
0
211
255
255
255
255
255
255
255
255
255
255
255
255
255
255
255
255
255
255
255
255
255
255
255
255
88
0
0
0
0
143
255
255
255
255
255
255
255
255
255
255
255
255
255
255
255
255
255
255
255
255
255
255
255
255
151
0
0
0
0
48
255
255
255
255
255
255
255
255
255
255
255
255
255
255
255
255
255
255
255
255
255
255
255
255
241
13
0
0
0
0
157
255
255
255
255
255
255
255
255
255
255
255
255
255
255
255
255
255
255
255
255
255
255
255
255
110
0
0
0
0
11
188
255
255
255
255
255
255
255
255
255
255
255
255
255
201
214
255
255
255
255
255
255
255
255
236
27
0
0
0
0
6
119
239
255
255
255
255
255
255
255
255
225
142
43
0
55
255
255
255
255
255
255
255
255
255
191
2
0
0
0
0
0
7
66
121
142
156
148
129
92
38
0
0
0
0
35
255
255
255
255
255
255
255
255
255
255
177
12
0
0
0
0
0
0
0
0
0
0
0
0
0
0
0
0
0
56
255
255
255
255
255
255
255
255
255
255
255
208
53
0
0
0
0
0
0
0
0
0
0
0
0
0
0
0
33
192
255
255
255
255
255
255
255
255
255
255
255
255
255
178
69
9
0
0
0
0
0
0
0
0
0
34
101
183
252
255
255
255
255
255
255
255
255
255
255
255
255
255
255
255
255
249
193
157
138
119
116
128
153
188
235
255
255
255
255
255
255
255
255
