P2
# CREATOR: GIMP PNM Filter Version 1.1
30 30
255
255
255
255
255
255
255
255
255
255
255
255
255
255
255
255
255
255
255
255
255
255
255
255
255
255
255
255
255
255
255
255
255
255
255
255
255
255
255
255
255
255
255
255
255
255
255
255
255
255
255
255
255
255
255
255
255
255
255
255
255
255
255
255
255
255
255
255
255
255
255
255
255
255
255
255
255
255
255
255
255
255
255
255
255
255
255
255
255
255
255
255
255
255
255
255
255
255
255
255
255
255
255
255
255
238
222
222
238
186
169
169
238
255
255
255
255
255
255
255
255
255
255
255
255
255
255
255
255
255
255
255
255
169
169
61
30
26
33
26
26
25
30
38
150
255
255
255
255
255
255
255
255
255
255
255
255
255
255
255
255
225
116
48
36
34
25
25
25
25
25
25
25
27
75
255
255
255
255
255
255
255
255
255
255
255
255
255
255
255
255
149
44
28
28
28
26
25
26
25
26
25
25
25
30
116
186
255
255
255
255
255
255
255
255
255
255
255
255
255
255
75
27
26
30
47
61
115
111
124
149
164
41
25
26
39
158
255
255
255
255
255
255
255
255
255
255
255
238
93
56
33
29
31
60
168
168
238
255
255
255
255
61
27
25
28
90
255
255
255
255
255
255
255
255
255
255
255
169
37
26
28
61
115
168
255
255
255
255
255
255
255
169
38
26
26
76
255
255
255
255
255
255
255
255
255
255
255
103
26
25
27
116
255
255
255
255
255
255
255
255
255
255
85
26
26
42
255
255
255
255
255
255
255
255
255
255
255
111
27
26
54
225
255
255
255
255
255
255
255
255
255
238
53
25
25
43
255
255
255
255
255
255
255
255
255
255
255
74
30
30
82
255
255
255
255
255
255
255
255
255
255
132
28
25
25
53
255
255
255
255
255
255
255
133
82
71
66
29
26
42
222
222
225
255
255
255
255
255
222
82
51
31
25
25
26
125
255
255
255
255
255
255
255
56
26
26
28
25
25
27
58
44
70
58
61
55
54
56
30
28
25
26
25
25
41
238
255
255
255
255
255
255
255
56
26
26
26
25
25
25
28
26
29
28
26
30
29
28
28
25
25
25
26
51
122
255
255
255
255
255
255
255
255
133
81
53
29
25
25
25
28
30
30
26
27
30
32
35
29
36
27
41
66
251
255
255
255
255
255
255
255
255
255
255
255
212
76
26
25
26
42
102
77
58
61
131
161
193
219
251
222
222
225
255
255
255
255
255
255
255
255
255
255
255
255
255
212
61
28
28
66
153
255
255
255
255
255
255
255
255
255
255
255
255
255
255
255
255
255
255
255
255
255
255
255
255
255
150
42
26
26
61
255
255
255
255
255
255
255
255
255
255
255
255
255
255
255
255
255
255
255
255
255
255
255
255
255
255
103
26
25
32
66
169
212
255
255
255
255
255
255
255
255
255
255
255
255
255
255
255
255
255
255
255
255
255
255
255
133
44
26
25
26
42
169
255
255
255
255
255
255
255
255
255
255
255
255
255
255
255
255
255
255
255
255
255
255
255
255
222
37
26
25
26
41
62
115
65
81
61
46
57
83
255
255
255
255
255
255
255
255
255
255
255
255
255
255
255
255
238
130
41
28
25
26
27
26
25
26
25
25
25
83
255
255
255
255
255
255
255
255
255
255
255
255
255
255
255
255
255
255
169
53
28
28
26
25
25
25
25
25
34
83
255
255
255
255
255
255
255
255
255
255
255
255
255
255
255
255
255
255
238
185
149
77
30
29
29
31
28
46
107
255
255
255
255
255
255
255
255
255
255
255
255
255
255
255
255
255
255
255
255
255
255
212
169
169
185
222
222
255
255
255
255
255
255
255
255
255
255
255
255
255
255
255
255
255
255
255
255
255
255
255
255
255
255
255
255
255
255
255
255
255
255
255
255
255
255
255
255
255
255
255
255
255
255
255
255
255
255
255
255
255
255
255
255
255
255
255
255
255
255
255
255
255
255
255
255
255
255
255
255
255
255
255
255
255
255
255
255
255
255
255
255
255
255
255
255
255
255
255
255
255
255
255
255
255
255
255
255
