P2
# CREATOR: GIMP PNM Filter Version 1.1
30 30
255
255
255
255
255
255
255
255
255
255
255
255
255
255
255
255
255
255
255
255
255
255
255
255
255
255
255
255
255
255
255
255
255
255
255
255
255
255
255
255
255
255
255
255
255
255
255
255
255
255
255
255
255
255
255
255
255
255
255
255
255
255
255
255
255
255
255
255
255
255
255
255
255
255
255
255
212
169
169
198
149
149
158
255
255
255
255
255
255
255
255
255
255
255
255
255
255
255
255
255
255
255
255
255
255
255
169
68
36
34
26
27
48
212
255
255
255
255
255
255
255
255
255
255
255
255
255
255
255
255
255
255
255
210
149
70
53
34
31
25
25
25
27
65
115
186
255
255
255
255
255
255
255
255
255
255
255
255
255
255
212
169
88
50
30
26
26
27
30
30
26
26
26
28
34
116
255
255
255
255
255
255
255
255
255
255
255
255
255
255
169
68
30
26
25
26
27
27
52
149
125
53
32
28
28
56
137
255
255
255
255
255
255
255
255
255
255
255
255
255
82
36
26
26
29
54
64
74
125
212
238
222
139
62
27
27
65
255
255
255
255
255
255
255
255
255
255
255
238
149
53
28
33
83
115
238
255
255
255
255
255
255
255
102
25
25
34
255
255
255
255
255
255
255
255
255
255
255
222
39
26
26
39
193
255
255
255
255
255
255
255
255
255
110
26
25
34
255
255
255
255
255
255
255
255
255
255
255
182
32
26
28
77
222
255
255
255
255
255
255
255
255
255
118
27
26
42
255
255
255
255
255
255
255
255
255
255
255
140
28
27
35
169
238
255
255
255
255
255
255
255
255
255
92
26
26
39
255
255
255
255
255
255
255
255
255
255
255
132
29
27
55
255
255
255
255
255
255
255
255
255
255
225
56
26
25
61
255
255
255
255
255
255
255
255
255
255
255
106
28
27
48
255
255
255
255
255
255
255
255
186
149
47
28
25
31
89
255
255
255
255
255
255
169
61
61
98
149
35
25
25
42
140
124
76
91
98
131
131
73
58
35
26
25
25
74
255
255
255
255
255
255
255
169
32
26
30
33
26
25
25
25
27
26
25
25
29
31
27
28
28
32
26
25
27
132
255
255
255
255
255
255
255
169
39
27
25
33
26
25
25
25
25
26
25
25
29
28
26
27
46
56
39
34
44
207
255
255
255
255
255
255
255
255
168
61
54
56
30
25
25
25
30
30
37
39
58
61
48
67
162
219
222
222
225
255
255
255
255
255
255
255
255
255
255
255
255
238
77
26
25
29
48
212
255
255
255
255
255
255
255
255
255
255
255
255
255
255
255
255
255
255
255
255
255
255
255
255
115
37
26
25
26
51
222
255
255
255
255
255
255
255
255
255
255
255
255
255
255
255
255
255
255
255
255
255
255
255
222
193
36
25
25
28
92
183
255
255
255
255
255
255
255
255
255
255
255
255
255
255
255
255
255
255
255
255
255
255
255
255
99
29
25
25
27
59
56
67
75
222
251
222
222
225
255
255
255
255
255
255
255
255
255
255
255
255
255
255
255
255
255
116
44
25
25
27
28
25
32
30
40
33
50
88
238
255
255
255
255
255
255
255
255
255
255
255
255
255
255
255
255
255
121
44
30
28
26
29
27
27
26
26
26
38
169
255
255
255
255
255
255
255
255
255
255
255
255
255
255
255
255
255
251
222
149
75
82
61
82
30
31
27
28
37
169
255
255
255
255
255
255
255
255
255
255
255
255
255
255
255
255
255
255
255
255
255
255
255
255
222
185
111
82
99
186
255
255
255
255
255
255
255
255
255
255
255
255
255
255
255
255
255
255
255
255
255
255
255
255
255
255
255
255
255
255
255
255
255
255
255
255
255
255
255
255
255
255
255
255
255
255
255
255
255
255
255
255
255
255
255
255
255
255
255
255
255
255
255
255
255
255
255
255
255
255
255
255
255
255
255
255
255
255
255
255
255
255
255
255
255
255
255
255
255
255
255
255
255
255
255
255
255
255
255
255
255
255
255
255
255
255
255
255
255
255
255
255
255
255
255
255
255
255
255
255
255
255
255
255
255
255
