P2
# CREATOR: GIMP PNM Filter Version 1.1
30 30
255
255
255
255
255
255
255
255
255
255
255
255
255
255
255
255
255
255
255
255
255
255
255
255
255
255
255
255
255
255
255
255
255
255
255
255
255
255
255
255
255
255
255
255
255
255
255
255
255
255
255
255
255
255
255
255
255
255
255
255
255
255
255
255
255
255
255
255
255
255
255
255
255
255
255
255
255
255
255
255
255
255
255
255
255
255
255
255
255
255
255
255
255
255
255
255
255
255
255
255
255
255
255
255
255
255
255
255
255
255
255
255
255
255
255
255
255
255
255
255
255
255
255
255
255
255
255
255
255
255
255
255
255
255
255
241
146
69
60
75
92
226
255
158
151
151
233
255
255
255
255
255
255
255
255
255
255
255
255
255
255
255
255
249
135
26
132
237
255
255
216
70
207
0
0
15
248
255
255
255
255
255
255
255
255
255
255
255
255
255
255
255
210
42
42
217
255
255
255
255
255
147
72
0
0
98
255
255
255
255
255
255
255
255
255
255
255
255
255
255
255
165
8
49
235
255
255
255
255
255
255
185
0
0
0
188
255
255
255
255
255
255
255
255
255
255
255
255
255
255
136
0
26
230
255
255
255
255
255
255
255
152
0
0
24
252
255
255
255
255
255
255
255
255
255
255
255
255
255
137
0
1
196
255
255
255
255
255
255
255
255
75
0
0
111
255
255
255
255
255
255
255
255
255
255
255
255
255
164
0
0
112
255
255
255
255
255
255
255
255
234
4
0
0
201
255
255
255
255
255
255
255
255
255
255
255
255
212
10
0
21
241
255
255
255
255
255
255
255
255
147
0
0
34
254
255
255
255
255
255
255
255
255
255
255
255
253
55
0
0
148
255
255
255
255
255
255
255
255
255
55
0
0
124
255
255
255
255
255
255
255
255
255
255
255
255
158
0
0
23
247
255
255
255
255
255
255
255
255
218
0
0
0
213
255
255
255
255
255
255
255
255
255
255
255
252
37
0
0
128
255
255
255
255
255
255
255
255
255
127
0
0
47
255
255
255
255
255
255
255
255
255
255
255
255
181
0
0
0
223
255
255
255
255
255
255
255
255
254
35
0
0
137
255
255
255
255
255
255
255
255
255
255
255
255
103
0
0
55
255
255
255
255
255
255
255
255
255
199
0
0
0
225
255
255
255
255
255
255
255
255
255
255
255
255
41
0
0
129
255
255
255
255
255
255
255
255
255
95
0
0
60
255
255
255
255
255
255
255
255
255
255
255
255
255
14
0
0
187
255
255
255
255
255
255
255
255
197
1
0
0
148
255
255
255
255
255
255
255
255
255
255
255
255
255
5
0
0
230
255
255
255
255
255
255
255
236
45
3
0
0
226
255
255
255
255
255
255
255
255
255
255
255
255
255
26
0
0
249
255
255
255
255
255
255
246
65
148
0
0
46
255
255
255
255
139
228
255
255
255
255
255
255
255
255
80
0
0
234
255
255
255
255
255
242
70
147
173
0
0
110
255
255
255
225
82
255
255
255
255
255
255
255
255
255
182
0
0
169
255
255
255
255
210
46
151
255
166
0
0
146
255
255
247
85
222
255
255
255
255
255
255
255
255
255
255
102
0
28
187
232
198
103
29
177
255
255
218
3
0
114
255
227
103
206
255
255
255
255
255
255
255
255
255
255
255
254
153
49
7
15
55
139
242
255
255
255
255
165
39
7
50
112
240
255
255
255
255
255
255
255
255
255
255
255
255
255
255
255
255
255
255
255
255
255
255
255
255
255
255
255
255
255
255
255
255
255
255
255
255
255
255
255
255
255
255
255
255
255
255
255
255
255
255
255
255
255
255
255
255
255
255
255
255
255
255
255
255
255
255
255
255
255
255
255
255
255
255
255
255
255
255
255
255
255
255
255
255
255
255
255
255
255
255
255
255
255
255
255
255
255
255
255
255
255
255
255
255
255
255
255
255
255
255
255
255
255
255
255
255
255
255
255
255
255
255
255
255
255
255
255
255
255
255
255
255
255
255
255
255
255
255
255
255
255
255
255
255
255
255
255
255
255
255
255
255
255
255
255
255
255
