P2
# CREATOR: GIMP PNM Filter Version 1.1
30 30
255
255
255
255
255
255
255
255
255
255
255
255
255
255
255
255
255
255
255
255
255
255
255
255
255
255
255
255
255
255
255
255
255
255
255
255
255
255
255
255
255
255
255
255
255
255
255
255
255
255
255
255
255
255
255
255
255
255
255
255
255
255
255
255
255
255
255
255
255
255
255
255
255
255
255
255
255
255
255
255
255
255
255
255
255
255
255
255
255
255
255
255
255
255
255
255
255
255
255
255
255
255
255
255
255
255
255
255
255
255
255
255
255
255
255
255
255
255
255
255
255
255
255
255
255
255
255
255
255
255
255
236
148
137
152
236
255
255
255
255
255
255
255
255
255
255
255
255
255
255
255
255
255
255
255
255
255
255
255
255
236
137
23
3
4
22
42
87
100
218
255
255
255
255
255
255
255
255
255
255
255
255
255
255
255
255
255
63
18
10
21
14
2
2
0
0
0
0
9
186
255
255
255
255
255
255
255
255
255
255
255
255
255
255
255
255
236
14
0
0
5
2
4
16
3
0
0
0
3
186
255
255
255
255
255
255
255
255
255
255
255
255
255
255
255
255
139
2
0
1
8
20
40
178
118
0
0
0
11
218
255
255
255
255
255
255
255
255
255
255
255
255
255
255
236
40
10
1
1
25
186
202
218
255
255
0
0
0
23
255
255
255
255
255
255
255
255
255
255
255
255
255
255
255
218
4
0
0
18
130
255
255
255
255
202
0
0
0
17
255
255
255
255
255
255
255
255
255
255
255
255
255
255
251
130
2
0
2
101
222
255
255
255
255
186
0
0
0
19
255
255
255
255
255
255
255
255
255
255
255
255
255
255
177
23
1
2
28
255
255
255
255
255
255
52
0
0
0
25
255
255
255
255
255
255
255
255
255
255
255
255
255
255
127
4
1
10
160
255
255
255
255
255
255
31
0
0
1
32
255
255
255
255
255
255
255
255
255
255
255
255
255
255
97
1
1
8
205
255
255
255
255
255
236
22
1
0
0
7
59
255
255
255
255
255
255
255
255
255
255
255
255
255
97
0
0
2
218
255
255
255
255
236
137
25
2
0
0
0
40
255
255
255
255
255
255
255
255
255
255
255
255
255
127
1
0
1
150
255
255
255
255
139
31
6
6
10
1
3
25
160
236
255
255
255
255
255
255
255
255
255
255
255
177
4
0
1
134
255
255
255
255
63
6
4
54
124
86
9
6
20
215
255
255
255
255
255
255
255
255
255
255
255
251
34
1
3
86
255
255
255
222
56
5
13
106
255
218
4
0
1
95
255
255
255
255
255
255
255
255
255
255
255
255
78
3
3
32
255
255
255
53
9
2
11
88
255
218
7
0
0
2
6
255
255
255
255
255
255
255
255
255
255
255
160
15
0
17
78
24
17
2
0
1
28
101
255
255
53
3
0
0
3
255
255
255
255
255
255
255
255
255
255
255
255
55
15
3
6
1
0
0
0
6
118
178
255
255
207
100
0
0
1
86
218
251
255
255
255
255
255
255
255
255
255
218
58
9
2
0
0
1
25
86
251
255
255
255
255
178
86
22
3
3
16
55
255
255
255
255
255
255
255
255
255
236
159
70
19
10
27
50
178
255
255
255
255
255
255
255
255
64
21
2
0
55
255
255
255
255
255
255
255
255
255
255
255
207
159
159
207
255
255
255
255
255
255
255
255
255
255
218
115
22
25
56
255
255
255
255
255
255
255
255
255
255
255
255
255
255
255
255
255
255
255
255
255
255
255
255
255
255
255
255
255
255
255
255
255
255
255
255
255
255
255
255
255
255
255
255
255
255
255
255
255
255
255
255
255
255
255
255
255
255
255
255
255
255
255
255
255
255
255
255
255
255
255
255
255
255
255
255
255
255
255
255
255
255
255
255
255
255
255
255
255
255
255
255
255
255
255
255
255
255
255
255
255
255
255
255
255
255
255
255
255
255
255
255
255
255
255
255
255
255
255
255
255
255
255
255
255
255
255
255
255
255
255
255
255
255
255
255
255
255
255
255
255
255
255
255
255
255
255
255
255
255
255
255
255
255
255
