P2
# CREATOR: GIMP PNM Filter Version 1.1
30 30
255
255
255
255
255
255
255
255
255
255
255
255
255
255
255
255
255
255
255
255
255
255
255
255
255
255
255
255
255
255
255
255
255
255
255
255
255
255
255
255
255
255
255
255
255
255
255
255
255
255
255
255
255
255
255
255
255
255
255
255
255
255
255
255
255
255
255
255
255
255
255
255
255
255
255
255
255
255
255
255
255
255
255
255
255
255
255
255
255
255
255
255
255
255
255
255
255
255
255
255
255
255
255
255
255
255
255
255
255
255
255
255
255
255
255
255
255
255
255
255
255
255
255
255
255
255
255
255
255
255
255
236
218
218
236
222
218
218
251
255
255
255
255
255
255
255
255
255
255
255
255
255
255
255
255
255
255
255
255
236
137
74
12
6
21
25
9
6
54
178
255
255
255
255
255
255
255
255
255
255
255
255
255
255
255
255
218
218
86
63
6
4
1
1
2
6
1
1
21
160
255
255
255
255
255
255
255
255
255
255
255
255
255
255
255
160
35
5
2
1
3
3
3
5
11
4
2
4
31
160
255
255
255
255
255
255
255
255
255
255
255
255
255
236
148
31
2
0
0
3
14
62
95
218
139
19
8
19
140
236
255
255
255
255
255
255
255
255
255
255
255
255
255
218
31
2
0
0
2
22
186
255
255
255
222
13
0
1
70
255
255
255
255
255
255
255
255
255
255
255
255
255
255
186
8
1
1
13
86
222
255
255
255
255
218
4
0
0
27
255
255
255
255
255
255
255
255
255
255
255
255
255
255
59
6
1
11
112
178
255
255
255
255
255
152
4
0
0
6
178
255
255
255
255
255
255
255
255
255
255
255
255
236
25
1
4
63
255
255
255
255
255
255
255
99
3
0
0
0
101
255
255
255
255
255
255
255
255
255
255
255
255
218
14
1
2
63
255
255
255
255
255
255
255
88
2
0
0
0
53
255
255
255
255
255
255
255
255
255
255
255
255
218
33
1
1
18
255
255
255
255
255
255
255
121
12
1
0
1
56
255
255
255
255
255
255
255
255
255
255
255
255
236
137
1
1
4
255
255
255
255
255
255
255
34
3
1
1
1
14
207
255
255
255
255
255
255
255
255
255
255
255
255
152
1
0
4
255
255
255
255
255
255
255
32
1
2
2
0
9
160
255
255
255
255
255
255
255
255
255
255
255
255
148
3
1
11
207
255
255
255
255
255
255
28
2
1
1
1
2
160
255
255
255
255
255
255
255
255
255
255
255
255
160
19
4
12
130
255
255
255
255
255
255
21
1
1
1
0
1
100
255
255
255
255
255
255
255
255
255
255
255
255
236
86
2
2
25
255
255
255
255
236
100
3
0
1
1
0
0
25
255
255
255
255
255
255
255
255
255
255
255
255
255
130
8
0
9
63
160
236
178
137
23
1
1
7
33
2
0
2
21
93
255
255
255
255
255
255
255
255
255
255
255
207
40
10
1
6
36
95
6
2
1
7
16
100
156
39
1
0
0
35
160
255
255
255
255
255
255
255
255
255
255
255
255
64
18
1
2
14
2
0
6
137
178
255
255
186
3
0
0
1
8
133
255
255
255
255
255
255
255
255
255
255
255
218
130
19
3
8
7
10
25
236
255
255
255
218
17
5
0
0
0
4
222
255
255
255
255
255
255
255
255
255
255
255
236
100
40
45
160
255
255
255
255
255
255
255
222
218
7
0
0
1
101
255
255
255
255
255
255
255
255
255
255
255
255
255
255
255
255
255
255
255
255
255
255
255
255
255
51
2
0
1
101
255
255
255
255
255
255
255
255
255
255
255
255
255
255
255
255
255
255
255
255
255
255
255
255
255
255
222
101
101
134
255
255
255
255
255
255
255
255
255
255
255
255
255
255
255
255
255
255
255
255
255
255
255
255
255
255
255
255
255
255
255
255
255
255
255
255
255
255
255
255
255
255
255
255
255
255
255
255
255
255
255
255
255
255
255
255
255
255
255
255
255
255
255
255
255
255
255
255
255
255
255
255
255
255
255
255
255
255
255
255
255
255
255
255
255
255
255
255
255
255
255
255
255
255
255
