P2
# CREATOR: GIMP PNM Filter Version 1.1
30 30
255
255
255
255
255
255
255
255
255
255
255
255
255
255
255
255
255
255
255
255
255
255
255
255
255
255
255
255
255
255
255
255
255
255
255
255
255
255
255
255
255
255
255
255
255
255
255
255
255
255
255
255
255
255
255
255
255
255
255
255
255
255
255
255
255
255
255
255
255
255
255
255
255
255
255
255
255
255
255
255
255
255
255
255
255
255
255
255
255
255
255
255
255
255
255
255
255
255
255
255
255
255
255
255
255
255
218
218
218
255
255
255
255
255
255
255
255
255
255
255
255
255
255
255
255
255
255
255
255
207
160
160
207
222
218
127
30
8
1
4
15
255
255
255
255
255
255
255
255
255
255
255
255
255
255
255
255
255
255
40
2
1
12
14
8
3
1
0
0
0
0
236
255
255
255
255
255
255
255
255
255
255
255
255
255
255
255
236
51
2
0
0
2
1
0
1
0
0
0
0
0
152
255
255
255
255
255
255
255
255
255
255
255
255
255
255
255
218
14
0
0
1
2
1
1
3
13
6
0
0
0
127
255
255
255
255
255
255
255
255
255
255
255
255
255
255
177
117
8
1
3
54
120
80
85
119
178
165
0
0
0
97
255
255
255
255
255
255
255
255
255
255
255
255
255
207
25
6
5
63
111
207
255
255
255
255
255
236
1
0
0
120
255
255
255
255
255
255
255
255
255
255
255
255
255
160
8
0
8
160
255
255
255
255
255
255
255
86
0
0
0
109
255
255
255
255
255
255
255
255
255
255
255
255
236
62
4
4
35
207
255
255
255
255
255
255
255
21
0
0
1
143
255
255
255
255
255
255
255
255
255
255
255
255
160
4
1
3
144
255
255
255
255
255
255
255
255
8
0
0
0
82
255
255
255
255
255
255
255
255
255
255
255
255
148
1
0
0
96
255
255
255
255
255
255
255
236
6
1
0
1
81
255
255
255
255
255
255
255
255
255
255
255
255
123
2
0
1
99
255
255
255
255
255
255
255
63
2
0
0
1
34
255
255
255
255
255
255
255
255
255
255
255
255
137
3
0
2
82
255
255
255
255
255
255
144
25
0
0
0
0
25
255
255
255
255
255
255
255
255
255
255
255
255
148
11
1
4
101
255
255
255
255
255
255
63
2
1
5
2
2
20
207
255
255
255
255
255
255
255
255
255
255
255
207
25
0
1
17
160
160
144
119
117
44
16
2
11
82
40
3
6
40
255
255
255
255
255
255
255
255
255
255
255
255
63
1
0
8
14
10
2
1
1
6
0
25
100
76
17
1
0
28
255
255
255
255
255
255
255
255
255
255
255
255
124
9
2
4
1
0
0
0
0
2
47
64
255
101
14
1
2
16
255
255
255
255
255
255
255
255
255
255
255
255
255
101
53
32
2
0
0
2
1
19
190
255
255
178
40
1
0
10
236
255
255
255
255
255
255
255
255
255
255
255
255
222
218
152
39
25
44
124
159
159
236
255
255
255
86
1
0
3
218
255
255
255
255
255
255
255
255
255
255
255
255
255
255
255
255
255
255
255
255
255
255
255
255
255
123
4
0
2
55
152
160
160
236
255
255
255
255
255
255
255
255
255
255
255
255
255
255
255
255
255
255
255
255
255
218
28
4
0
3
4
6
29
174
255
255
255
255
255
255
255
255
255
255
255
255
255
255
255
255
255
255
255
255
255
236
100
10
2
0
0
0
2
117
255
255
255
255
255
255
255
255
255
255
255
255
255
255
255
255
255
255
255
255
255
255
160
58
13
1
0
0
4
127
255
255
255
255
255
255
255
255
255
255
255
255
255
255
255
255
255
255
255
255
255
255
236
218
190
56
15
11
44
180
255
255
255
255
255
255
255
255
255
255
255
255
255
255
255
255
255
255
255
255
255
255
255
255
255
255
255
255
255
255
255
255
255
255
255
255
255
255
255
255
255
255
255
255
255
255
255
255
255
255
255
255
255
255
255
255
255
255
255
255
255
255
255
255
255
255
255
255
255
255
255
255
255
255
255
255
255
255
255
255
255
255
255
255
255
255
255
255
255
255
255
255
255
