P2
# CREATOR: GIMP PNM Filter Version 1.1
30 30
255
255
255
255
255
255
255
255
255
255
255
255
255
255
255
255
255
255
255
255
255
255
255
255
255
255
255
255
255
255
255
255
255
255
255
255
255
255
255
255
255
255
255
255
255
255
255
255
255
255
255
255
255
255
255
255
255
255
255
255
255
255
255
255
255
255
255
255
255
255
255
255
255
255
255
255
255
255
255
255
255
255
255
255
255
255
255
255
255
255
255
255
255
255
255
255
255
255
255
255
255
255
255
255
236
190
33
17
18
119
207
255
255
255
255
255
255
255
255
255
255
255
255
255
255
255
255
255
255
255
251
137
29
12
9
10
2
0
1
16
160
255
255
255
255
255
255
255
255
255
255
255
255
255
255
255
255
222
218
218
135
25
2
0
1
0
0
1
1
16
160
255
255
255
255
255
255
255
255
255
255
255
255
255
255
255
255
101
33
6
5
1
1
1
1
1
2
5
8
21
192
255
255
255
255
255
255
255
255
255
255
255
255
255
255
255
255
40
2
0
0
1
22
70
81
53
23
0
0
2
120
255
255
255
255
255
255
255
255
255
255
255
255
255
255
255
255
13
0
0
1
10
159
255
255
255
40
0
0
0
63
255
255
255
255
255
255
255
255
255
255
255
255
255
255
222
86
9
0
6
85
160
255
255
255
255
64
0
0
0
45
255
255
255
255
255
255
255
255
255
255
255
255
255
255
202
11
1
6
64
255
255
255
255
255
255
114
0
0
0
23
255
255
255
255
255
255
255
255
255
255
255
255
255
255
137
4
1
16
255
255
255
255
255
255
255
85
0
0
0
40
255
255
255
255
255
255
255
255
255
255
255
255
255
218
39
3
5
55
255
255
255
255
255
255
255
53
0
0
0
37
255
255
255
255
255
255
255
255
255
255
255
255
207
127
14
3
28
178
255
255
255
255
255
255
255
82
0
0
0
74
255
255
255
255
255
255
255
255
255
255
255
255
85
8
1
4
40
255
255
255
255
255
255
255
255
100
0
0
0
13
255
255
255
255
255
255
255
255
255
255
255
255
17
1
0
14
101
255
255
255
255
255
255
255
251
137
2
0
0
9
255
255
255
255
255
255
255
255
255
255
255
255
13
0
0
9
133
255
255
255
255
255
255
255
218
40
1
0
0
4
207
255
255
255
255
255
255
255
255
255
255
255
40
1
0
1
40
255
255
255
255
255
255
255
218
12
1
0
0
4
112
255
255
255
255
255
255
255
255
255
255
255
178
14
0
0
13
255
255
255
255
255
255
160
139
2
0
0
0
3
100
255
255
255
255
255
255
255
255
255
255
255
255
123
3
0
3
16
51
63
255
255
255
64
13
1
0
1
8
9
51
255
255
255
255
255
255
255
255
255
255
255
255
218
46
6
1
1
1
3
40
34
28
3
1
0
6
20
14
2
14
152
255
255
255
255
255
255
255
255
255
255
255
251
186
35
11
1
2
1
1
4
3
0
0
5
55
218
21
0
1
34
255
255
255
255
255
255
255
255
255
255
255
255
255
207
160
85
44
3
2
4
4
1
3
31
186
255
86
1
0
6
255
255
255
255
255
255
255
255
255
255
255
255
255
255
255
255
178
110
85
88
82
71
111
159
236
255
236
6
0
1
63
134
255
255
255
255
255
255
255
255
255
255
255
255
255
255
255
255
255
255
255
255
255
255
255
255
255
35
6
0
1
4
63
178
255
255
255
255
255
255
255
255
255
255
255
255
255
255
255
255
255
255
255
255
255
255
255
160
55
3
0
0
15
101
255
255
255
255
255
255
255
255
255
255
255
255
255
255
255
255
255
255
255
255
255
255
255
255
251
47
12
3
15
101
255
255
255
255
255
255
255
255
255
255
255
255
255
255
255
255
255
255
255
255
255
255
255
255
255
255
236
160
160
178
255
255
255
255
255
255
255
255
255
255
255
255
255
255
255
255
255
255
255
255
255
255
255
255
255
255
255
255
255
255
255
255
255
255
255
255
255
255
255
255
255
255
255
255
255
255
255
255
255
255
255
255
255
255
255
255
255
255
255
255
255
255
255
255
