P2
# CREATOR: GIMP PNM Filter Version 1.1
30 30
255
255
255
255
255
255
255
255
255
255
255
255
255
255
255
255
255
255
255
255
255
255
255
255
255
255
255
255
255
255
255
255
255
255
255
255
255
255
255
255
255
255
255
255
255
255
255
255
255
255
255
255
255
255
255
255
255
255
255
255
255
255
255
255
255
255
255
255
255
255
255
255
255
255
255
255
255
255
255
255
255
255
255
255
255
255
255
255
255
255
255
255
255
255
255
255
255
255
255
255
255
255
255
255
178
160
160
236
255
255
255
255
255
255
255
255
255
255
255
255
255
255
255
255
255
255
255
255
255
255
255
255
137
111
20
11
9
36
39
101
222
255
255
255
255
255
255
255
255
255
255
255
255
255
255
255
255
255
255
255
178
112
4
2
0
0
0
1
2
37
218
255
255
255
255
255
255
255
255
255
255
255
255
255
255
255
255
255
178
101
16
4
0
0
0
0
0
0
0
10
218
255
255
255
255
255
255
255
255
255
255
255
255
255
255
255
255
101
44
10
4
1
1
9
11
7
0
0
0
12
251
255
255
255
255
255
255
255
255
255
255
255
255
255
255
144
40
10
1
2
4
20
34
173
236
133
1
0
0
21
255
255
255
255
255
255
255
255
255
255
255
255
255
255
255
100
2
0
2
8
50
202
255
255
255
202
2
0
0
93
255
255
255
255
255
255
255
255
255
255
255
255
255
255
251
85
3
1
15
137
160
236
255
255
255
137
0
0
0
110
255
255
255
255
255
255
255
255
255
255
255
255
255
255
218
19
2
4
48
255
255
255
255
255
255
93
1
0
0
47
255
255
255
255
255
255
255
255
255
255
255
255
255
255
218
10
0
0
50
255
255
255
255
255
255
87
1
0
0
16
255
255
255
255
255
255
255
255
255
255
255
255
255
255
143
1
0
0
34
255
255
255
255
255
255
115
2
0
0
8
255
255
255
255
255
255
255
255
255
255
255
255
255
255
137
0
0
0
90
255
255
255
255
255
255
157
2
0
0
25
255
255
255
255
255
255
255
255
255
255
255
255
255
255
96
1
0
0
71
255
255
255
255
255
236
98
1
0
1
13
40
155
255
255
255
255
255
255
255
255
255
255
255
255
86
3
1
1
32
222
255
255
255
255
218
21
0
0
4
3
8
137
255
255
255
255
255
255
255
255
255
255
255
255
101
19
2
1
11
177
255
255
255
255
218
12
0
0
7
1
1
18
255
255
255
255
255
255
255
255
255
255
255
255
178
40
1
0
3
137
255
255
255
255
236
21
1
1
38
2
0
2
160
255
255
255
255
255
255
255
255
255
255
255
255
82
1
0
2
109
255
255
255
251
218
19
1
3
91
3
0
1
160
255
255
255
255
255
255
255
255
255
255
255
255
112
2
0
1
36
25
28
37
86
44
8
1
13
183
73
20
12
63
178
255
255
255
255
255
255
255
255
255
255
255
255
25
1
1
5
2
2
8
11
5
2
14
55
215
255
100
22
15
100
178
255
255
255
255
255
255
255
255
255
255
255
82
40
10
8
3
6
2
1
1
11
84
255
255
255
40
6
2
14
54
218
236
255
255
255
255
255
255
255
255
255
255
255
160
112
100
93
12
3
9
55
160
255
255
255
59
19
2
2
3
13
37
160
255
255
255
255
255
255
255
255
255
255
255
255
255
178
71
63
111
236
255
255
255
255
159
92
5
1
0
0
5
160
255
255
255
255
255
255
255
255
255
255
255
255
255
255
255
255
255
255
255
255
255
255
255
160
30
7
0
0
7
160
255
255
255
255
255
255
255
255
255
255
255
255
255
255
255
255
255
255
255
255
255
255
255
207
159
60
4
4
44
255
255
255
255
255
255
255
255
255
255
255
255
255
255
255
255
255
255
255
255
255
255
255
255
255
255
204
136
136
180
255
255
255
255
255
255
255
255
255
255
255
255
255
255
255
255
255
255
255
255
255
255
255
255
255
255
255
255
255
255
255
255
255
255
255
255
255
255
255
255
255
255
255
255
255
255
255
255
255
255
255
255
255
255
255
255
255
255
255
255
255
255
255
255
