P2
# CREATOR: GIMP PNM Filter Version 1.1
30 30
255
255
255
255
255
255
255
255
255
255
255
255
255
255
255
255
255
255
255
255
255
255
255
255
255
255
255
255
255
255
255
255
255
255
255
255
255
255
255
255
255
255
255
255
255
255
255
255
255
255
255
255
255
255
255
255
255
255
255
255
255
255
255
255
255
255
255
255
255
255
255
255
255
255
255
255
255
255
255
255
255
255
255
255
255
255
255
255
255
255
255
255
255
255
255
255
255
255
255
255
255
255
255
255
255
255
255
255
255
255
255
255
255
255
255
255
255
255
255
255
255
255
255
255
255
255
255
255
255
255
251
137
55
35
53
19
13
30
132
255
255
255
255
255
255
255
255
255
255
255
255
255
255
255
255
255
255
255
160
45
7
3
2
2
8
1
0
2
86
255
255
255
255
255
255
255
255
255
255
255
255
255
255
255
255
255
255
255
130
11
1
0
0
4
8
1
0
3
86
255
255
255
255
255
255
255
255
255
255
255
255
255
255
255
255
255
207
160
63
6
0
1
5
53
139
61
17
18
48
236
255
255
255
255
255
255
255
255
255
255
255
255
255
255
255
236
59
6
4
14
24
63
130
207
255
255
16
1
9
218
255
255
255
255
255
255
255
255
255
255
255
255
255
255
255
160
7
0
1
44
159
207
255
255
255
255
4
0
1
137
255
255
255
255
255
255
255
255
255
255
255
255
255
255
207
100
3
0
1
70
255
255
255
255
255
255
9
0
0
58
255
255
255
255
255
255
255
255
255
255
255
255
255
255
112
13
3
5
21
148
255
255
255
255
255
255
5
0
0
47
236
255
255
255
255
255
255
255
255
255
255
255
255
255
100
5
4
40
148
207
255
255
255
255
255
255
9
0
0
18
160
255
255
255
255
255
255
255
255
255
255
255
255
255
91
6
2
21
218
255
255
255
255
255
255
255
11
0
0
4
160
255
255
255
255
255
255
255
255
255
255
255
255
255
95
5
2
22
218
255
255
255
255
255
255
255
47
0
0
1
124
255
255
255
255
255
255
255
255
255
255
255
255
255
54
1
1
34
236
255
255
255
255
255
255
255
52
0
0
0
55
255
255
255
255
255
255
255
255
255
255
255
255
255
50
2
2
50
255
255
255
255
255
255
255
255
17
0
0
0
13
236
255
255
255
255
255
255
255
255
255
255
255
255
65
3
3
65
255
255
255
255
255
255
255
255
21
0
0
0
6
202
255
255
255
255
255
255
255
255
255
255
255
255
81
5
5
81
255
255
255
255
255
255
255
144
2
0
0
1
4
119
255
255
255
255
255
255
255
255
255
255
255
255
81
6
5
51
207
255
255
255
255
255
255
100
2
0
8
6
3
37
178
255
255
255
255
255
255
255
255
255
255
255
100
6
1
5
40
218
255
255
255
255
160
44
2
3
22
18
2
11
101
255
255
255
255
255
255
255
255
255
255
255
130
15
1
1
4
30
111
218
178
160
40
9
6
31
143
86
11
1
4
31
255
255
255
255
255
255
255
255
255
255
207
82
8
3
0
0
3
10
4
3
3
10
10
58
218
236
25
0
0
21
255
255
255
255
255
255
255
255
255
255
255
160
48
19
2
0
1
2
0
0
2
60
100
160
236
255
40
0
0
2
40
134
255
255
255
255
255
255
255
255
255
207
159
129
32
16
13
6
1
1
6
148
255
255
255
255
86
40
9
2
10
101
255
255
255
255
255
255
255
255
255
255
255
255
255
255
255
160
112
63
101
178
255
255
255
255
255
218
55
16
21
101
255
255
255
255
255
255
255
255
255
255
255
255
255
255
255
255
255
255
255
255
255
255
255
255
255
255
251
218
218
222
255
255
255
255
255
255
255
255
255
255
255
255
255
255
255
255
255
255
255
255
255
255
255
255
255
255
255
255
255
255
255
255
255
255
255
255
255
255
255
255
255
255
255
255
255
255
255
255
255
255
255
255
255
255
255
255
255
255
255
255
255
255
255
255
255
255
255
255
255
255
255
255
255
255
255
255
255
255
255
255
255
255
255
255
255
255
255
255
255
255
255
255
255
255
255
