P2
# CREATOR: GIMP PNM Filter Version 1.1
30 30
255
255
255
255
255
255
255
255
255
255
255
255
255
255
255
255
255
255
255
255
255
255
255
255
255
255
255
255
255
255
255
255
255
255
255
255
255
255
255
255
255
255
255
255
255
255
255
255
255
255
255
255
255
255
255
255
255
255
255
255
255
255
255
255
255
255
255
255
255
255
255
255
255
255
255
255
255
255
255
255
255
255
255
255
255
255
255
255
255
255
255
255
255
255
255
255
255
255
255
255
255
222
218
151
94
85
130
236
255
255
255
255
255
255
255
255
255
255
255
255
255
255
255
255
255
255
255
255
207
160
112
20
13
4
3
1
8
18
4
5
25
160
255
255
255
255
255
255
255
255
255
255
255
255
255
218
177
137
100
20
12
1
0
1
0
1
0
1
0
0
2
64
255
255
255
255
255
255
255
255
255
255
255
255
160
40
11
5
12
10
3
1
1
1
15
10
3
0
0
0
1
64
255
255
255
255
255
255
255
255
255
255
255
255
64
8
1
1
8
34
31
24
29
37
101
218
59
3
0
0
4
160
255
255
255
255
255
255
255
255
255
255
222
101
25
7
8
13
40
154
218
218
251
255
255
255
111
2
0
0
2
255
255
255
255
255
255
255
255
255
255
255
137
13
4
40
139
218
218
251
255
255
255
255
255
255
137
2
0
0
2
218
255
255
255
255
255
255
255
255
255
255
80
1
1
28
255
255
255
255
255
255
255
255
255
255
153
6
0
0
5
218
255
255
255
255
255
255
255
255
255
255
79
1
1
20
207
255
255
255
255
255
255
255
255
255
218
1
0
0
3
218
255
255
255
255
255
255
255
255
255
255
85
2
0
8
160
255
255
255
255
255
255
255
255
255
215
1
0
0
9
255
255
255
255
255
255
255
255
255
255
255
103
6
2
15
160
255
255
255
255
255
255
255
255
255
202
1
0
0
14
255
255
255
255
255
255
255
255
255
255
255
112
10
8
60
204
255
255
255
255
255
255
255
255
255
55
4
0
0
18
255
255
255
255
255
255
255
255
255
255
255
137
5
2
10
177
255
255
255
255
255
255
255
255
218
12
0
0
0
6
255
255
255
255
255
255
255
255
255
255
255
202
3
0
1
137
255
255
255
255
255
255
251
218
186
5
1
0
0
6
255
255
255
255
255
255
255
255
255
255
255
218
5
0
1
97
255
255
255
255
255
255
218
40
11
3
2
0
1
10
101
255
255
255
255
255
255
255
255
255
255
255
44
9
2
13
35
177
222
255
255
112
54
2
1
2
41
34
6
2
25
255
255
255
255
255
255
255
255
255
255
255
218
58
4
0
1
5
21
85
40
6
2
0
0
3
160
218
11
1
5
86
236
255
255
255
255
255
255
255
255
255
236
159
6
1
0
0
2
25
3
0
1
1
2
25
255
218
47
7
1
12
85
192
255
255
255
255
255
255
255
255
255
255
52
15
1
1
1
8
1
1
6
22
59
101
255
255
218
40
4
1
6
48
111
95
157
207
255
255
255
255
255
255
159
157
89
85
54
26
19
25
52
160
255
255
255
255
255
178
34
1
1
2
3
4
41
160
255
255
255
255
255
255
255
255
255
255
207
159
159
207
255
255
255
255
255
255
255
255
123
13
2
1
1
3
41
160
255
255
255
255
255
255
255
255
255
255
255
255
255
255
255
255
255
255
255
255
255
255
222
101
37
7
11
37
138
207
255
255
255
255
255
255
255
255
255
255
255
255
255
255
255
255
255
255
255
255
255
255
255
255
178
160
160
236
255
255
255
255
255
255
255
255
255
255
255
255
255
255
255
255
255
255
255
255
255
255
255
255
255
255
255
255
255
255
255
255
255
255
255
255
255
255
255
255
255
255
255
255
255
255
255
255
255
255
255
255
255
255
255
255
255
255
255
255
255
255
255
255
255
255
255
255
255
255
255
255
255
255
255
255
255
255
255
255
255
255
255
255
255
255
255
255
255
255
255
255
255
255
255
255
255
255
255
255
255
255
255
255
255
255
255
255
255
255
255
255
255
255
255
255
255
255
255
255
255
255
255
255
