P2
# CREATOR: GIMP PNM Filter Version 1.1
30 30
255
255
255
255
255
255
255
255
255
255
255
255
255
255
255
255
255
255
255
255
255
255
255
255
255
255
255
255
255
255
255
255
255
255
255
255
255
255
255
255
255
255
255
255
255
255
255
255
255
255
255
255
255
255
255
255
255
255
255
255
255
255
255
255
255
255
255
255
255
255
255
255
255
255
255
255
255
255
255
255
255
255
255
255
255
255
255
255
255
255
255
255
255
255
255
255
255
255
255
255
255
255
236
218
177
148
160
192
160
160
178
255
255
255
255
255
255
255
255
255
255
255
255
255
255
255
255
255
255
255
236
112
28
10
4
7
4
8
0
1
8
215
255
255
255
255
255
255
255
255
255
255
255
255
255
255
236
218
137
80
9
2
0
0
1
0
2
0
0
0
0
159
255
255
255
255
255
255
255
255
255
255
255
255
255
255
112
36
4
3
1
0
1
1
3
24
6
1
0
0
0
159
255
255
255
255
255
255
255
255
255
255
255
255
255
255
63
6
0
0
0
6
24
96
148
236
177
27
0
0
0
165
255
255
255
255
255
255
255
255
255
255
255
255
255
222
28
6
1
3
9
160
255
255
255
255
255
58
0
0
0
151
255
255
255
255
255
255
255
255
255
255
255
255
255
86
15
6
36
126
136
236
255
255
255
255
255
63
0
0
0
117
255
255
255
255
255
255
255
255
255
255
255
255
255
28
1
2
51
255
255
255
255
255
255
255
207
44
0
0
0
117
255
255
255
255
255
255
255
255
255
255
255
255
218
5
0
0
34
255
255
255
255
255
255
255
160
15
0
0
1
111
255
255
255
255
255
255
255
255
255
255
255
255
80
4
0
0
40
255
255
255
255
255
255
255
160
23
0
0
0
47
255
255
255
255
255
255
255
255
255
255
255
255
24
0
0
8
82
255
255
255
255
255
255
255
177
32
3
0
0
15
255
255
255
255
255
255
255
255
255
255
255
255
13
0
1
59
255
255
255
255
255
255
255
255
173
10
2
1
1
4
109
255
255
255
255
255
255
255
255
255
255
255
38
1
1
58
255
255
255
255
255
255
255
255
117
3
1
1
0
0
40
255
255
255
255
255
255
255
255
255
255
255
37
4
4
93
255
255
255
255
255
255
255
160
24
2
3
4
0
1
31
236
255
255
255
255
255
255
255
255
255
255
21
2
10
177
255
255
255
255
255
255
255
112
3
1
9
30
2
0
3
93
255
255
255
255
255
255
255
255
255
236
16
2
9
218
255
255
255
255
255
255
255
49
1
0
15
137
9
0
1
63
255
255
255
255
255
255
255
255
255
218
20
5
8
74
175
255
255
255
255
134
93
10
1
1
54
165
28
1
3
40
80
55
106
178
255
255
255
255
255
218
58
10
2
4
33
100
103
137
54
20
2
1
0
4
127
255
178
101
34
4
0
1
15
101
255
255
255
255
255
236
159
40
1
0
1
3
3
2
3
2
1
0
3
46
218
255
255
255
86
1
0
1
15
101
255
255
255
255
255
255
255
124
22
4
2
3
1
1
3
18
5
5
22
152
255
255
255
255
88
17
9
28
105
178
255
255
255
255
255
255
255
255
160
112
63
40
12
16
46
177
152
159
159
236
255
255
255
255
255
255
255
255
255
255
255
255
255
255
255
255
255
255
255
255
255
255
255
255
255
255
255
255
255
255
255
255
255
255
255
255
255
255
255
255
255
255
255
255
255
255
255
255
255
255
255
255
255
255
255
255
255
255
255
255
255
255
255
255
255
255
255
255
255
255
255
255
255
255
255
255
255
255
255
255
255
255
255
255
255
255
255
255
255
255
255
255
255
255
255
255
255
255
255
255
255
255
255
255
255
255
255
255
255
255
255
255
255
255
255
255
255
255
255
255
255
255
255
255
255
255
255
255
255
255
255
255
255
255
255
255
255
255
255
255
255
255
255
255
255
255
255
255
255
255
255
255
255
255
255
255
255
255
255
255
255
255
255
255
255
255
255
255
255
255
255
255
255
255
255
255
255
255
255
255
255
255
255
255
255
255
255
255
255
255
255
255
255
