P2
# CREATOR: GIMP PNM Filter Version 1.1
30 30
255
255
255
255
255
255
255
255
255
255
255
255
255
255
255
255
255
255
255
255
255
255
255
255
255
255
255
255
255
255
255
255
255
255
255
255
255
255
255
255
255
255
255
255
255
255
255
255
255
255
255
255
255
255
255
255
255
255
255
255
255
255
255
255
255
255
255
255
255
255
255
255
255
255
255
255
255
255
255
255
255
255
255
255
255
255
255
255
255
255
255
255
255
255
255
255
255
255
255
255
255
255
251
218
218
222
255
255
255
255
255
255
255
255
255
255
255
255
255
255
255
255
255
255
255
255
255
255
255
255
255
207
111
25
15
11
14
13
19
13
40
148
255
255
255
255
255
255
255
255
255
255
255
255
255
255
255
255
207
84
22
11
5
2
1
1
0
0
0
0
7
137
255
255
255
255
255
255
255
255
255
255
255
255
255
255
255
160
37
4
1
0
1
3
3
1
0
0
0
1
15
137
255
255
255
255
255
255
255
255
255
255
255
255
255
255
222
96
7
1
0
1
6
73
68
44
12
9
25
54
160
236
255
255
255
255
255
255
255
255
255
255
255
255
255
255
101
13
1
1
6
44
99
222
255
236
218
55
59
64
255
255
255
255
255
255
255
255
255
255
255
255
255
218
59
40
25
7
6
20
86
178
255
255
255
255
255
14
0
3
95
255
255
255
255
255
255
255
255
255
255
255
255
218
8
1
1
20
63
138
236
255
255
255
255
255
251
2
0
0
39
255
255
255
255
255
255
255
255
255
255
255
255
218
4
0
0
63
255
255
255
255
255
255
255
255
77
1
0
0
27
255
255
255
255
255
255
255
255
255
255
255
255
64
4
0
2
111
255
255
255
255
255
255
255
255
9
0
0
0
23
255
255
255
255
255
255
255
255
255
255
255
255
33
0
10
81
218
255
255
255
255
255
255
255
255
6
0
0
0
12
255
255
255
255
255
255
255
255
255
255
255
255
10
2
3
160
255
255
255
255
255
255
255
255
255
36
1
0
0
21
255
255
255
255
255
255
255
255
255
255
255
255
28
2
3
64
255
255
255
255
255
255
255
255
255
71
1
0
0
21
255
255
255
255
255
255
255
255
255
255
255
255
19
0
0
16
255
255
255
255
255
255
255
255
255
55
1
0
0
18
207
255
255
255
255
255
255
255
255
255
255
255
18
0
0
9
236
255
255
255
255
255
255
255
255
20
0
0
0
3
160
255
255
255
255
255
255
255
255
255
255
255
28
0
0
4
218
255
255
255
255
255
255
255
236
39
0
0
0
3
100
255
255
255
255
255
255
255
255
255
255
255
177
12
1
10
215
255
255
255
255
255
255
255
137
6
0
0
0
1
111
251
255
255
255
255
255
255
255
255
255
255
255
24
11
14
199
255
255
255
255
255
255
255
95
4
2
1
0
1
40
218
255
255
255
255
255
255
255
255
255
255
255
40
1
3
47
255
255
255
255
255
255
178
15
1
2
11
11
2
21
152
255
255
255
255
255
255
255
255
255
255
255
53
2
0
5
27
100
160
207
255
178
25
1
0
9
160
72
4
4
55
255
255
255
255
255
255
255
255
255
255
255
134
16
1
0
1
2
5
28
112
71
2
0
1
46
207
96
4
1
28
207
255
255
255
255
255
255
255
255
255
255
255
160
8
1
1
1
1
3
6
2
0
0
9
202
255
127
3
1
4
139
255
255
255
255
255
255
255
255
255
255
255
207
100
63
17
6
4
7
6
0
0
10
59
255
255
160
14
1
1
22
130
255
255
255
255
255
255
255
255
255
255
255
255
255
236
202
172
127
37
11
16
64
255
255
255
236
70
11
1
1
16
88
178
255
255
255
255
255
255
255
255
255
255
255
255
255
255
255
255
255
255
255
255
255
255
255
222
86
4
1
3
32
160
255
255
255
255
255
255
255
255
255
255
255
255
255
255
255
255
255
255
255
255
255
255
255
255
207
63
21
12
50
160
255
255
255
255
255
255
255
255
255
255
255
255
255
255
255
255
255
255
255
255
255
255
255
255
255
222
202
186
215
236
255
255
255
255
