P2
# CREATOR: GIMP PNM Filter Version 1.1
30 30
255
255
255
255
255
255
255
255
255
255
255
255
255
255
255
255
255
255
255
255
255
255
255
255
255
255
255
255
255
255
255
255
255
255
255
255
255
255
255
255
255
255
255
255
255
255
255
255
255
255
255
255
255
255
255
255
255
255
255
255
255
255
255
255
255
255
255
255
255
255
255
255
255
255
255
255
255
255
255
255
255
255
255
255
255
255
255
255
255
255
255
255
255
255
255
255
255
255
255
255
255
255
255
222
111
42
16
32
124
255
255
255
255
255
255
255
255
255
255
255
255
255
255
255
255
255
255
255
255
255
168
49
25
16
5
0
0
0
40
178
255
255
255
255
255
255
255
255
255
255
255
255
255
255
255
255
255
255
255
236
85
2
0
1
1
0
0
0
15
160
255
255
255
255
255
255
255
255
255
255
255
255
255
255
255
255
207
160
53
32
6
0
0
1
3
5
10
12
43
137
251
255
255
255
255
255
255
255
255
255
255
255
255
255
255
236
54
10
1
1
1
9
21
23
55
160
236
60
13
14
79
236
255
255
255
255
255
255
255
255
255
255
255
255
255
100
4
0
1
3
6
86
178
255
255
255
255
34
0
0
4
218
255
255
255
255
255
255
255
255
255
255
255
255
255
53
0
0
6
95
137
251
255
255
255
255
255
3
0
0
2
218
255
255
255
255
255
255
255
255
255
255
255
255
236
7
0
0
44
255
255
255
255
255
255
255
255
1
0
0
1
192
255
255
255
255
255
255
255
255
255
255
255
255
218
3
0
1
81
255
255
255
255
255
255
255
255
2
0
0
1
157
255
255
255
255
255
255
255
255
255
255
255
255
218
1
0
0
63
255
255
255
255
255
255
255
255
38
0
0
0
111
255
255
255
255
255
255
255
255
255
255
255
255
192
7
1
1
93
255
255
255
255
255
255
255
255
33
0
0
1
103
255
255
255
255
255
255
255
255
255
255
255
255
160
2
0
1
111
255
255
255
255
255
255
255
255
21
0
0
0
47
255
255
255
255
255
255
255
255
255
255
255
255
160
3
0
2
137
255
255
255
255
255
255
255
255
20
0
0
1
70
255
255
255
255
255
255
255
255
255
255
255
255
207
7
1
1
127
255
255
255
255
255
255
255
255
15
1
0
1
75
255
255
255
255
255
255
255
255
255
255
255
255
218
16
1
3
86
255
255
255
255
255
255
255
255
19
0
0
1
160
255
255
255
255
255
255
255
255
255
255
255
255
218
21
1
3
55
255
255
255
255
255
255
255
255
19
0
0
0
137
255
255
255
255
255
255
255
255
255
255
255
255
218
64
14
3
16
101
255
255
255
255
255
255
255
109
0
0
1
144
255
255
255
255
255
255
255
255
255
255
255
255
255
255
137
12
1
9
93
255
255
255
255
255
207
102
0
0
1
127
255
255
255
255
255
255
255
255
255
255
255
255
255
255
218
6
0
0
10
87
111
218
157
40
23
5
0
0
1
86
255
255
255
255
255
255
255
255
255
255
255
255
255
255
255
25
0
0
1
2
6
29
11
2
0
1
0
0
1
11
40
178
255
255
255
255
255
255
255
255
255
255
255
255
255
112
39
24
5
2
1
2
1
1
5
2
1
3
1
0
9
160
255
255
255
255
255
255
255
255
255
255
255
255
255
255
255
207
100
33
5
1
3
25
70
63
63
60
5
1
2
14
81
218
255
255
255
255
255
255
255
255
255
255
255
255
255
255
255
178
71
40
71
178
255
255
255
160
59
19
0
0
2
64
255
255
255
255
255
255
255
255
255
255
255
255
255
255
255
255
255
255
255
255
255
255
255
255
255
86
1
0
0
64
255
255
255
255
255
255
255
255
255
255
255
255
255
255
255
255
255
255
255
255
255
255
255
255
255
236
25
8
11
101
255
255
255
255
255
255
255
255
255
255
255
255
255
255
255
255
255
255
255
255
255
255
255
255
255
255
218
218
218
255
255
255
255
255
255
255
255
255
255
255
255
255
255
255
255
255
255
255
255
255
255
255
255
255
255
255
255
255
255
255
255
255
255
255
255
