P2
# CREATOR: GIMP PNM Filter Version 1.1
30 30
255
255
255
255
255
255
255
255
255
255
255
255
255
255
255
255
255
255
255
255
255
255
255
255
255
255
255
255
255
255
255
255
255
255
255
255
255
255
255
255
255
255
255
255
255
255
255
255
255
255
255
255
255
255
255
255
255
255
255
255
255
255
255
255
255
255
255
255
255
255
255
255
255
255
255
255
255
255
255
255
255
255
255
255
255
255
255
255
255
255
255
255
255
255
255
255
255
255
255
255
255
255
255
255
255
255
255
255
255
255
255
255
255
255
255
255
255
255
255
255
255
255
255
255
255
255
255
255
255
255
255
255
255
255
255
255
255
255
255
255
255
255
255
255
255
255
255
255
255
255
255
255
255
255
255
255
255
255
255
255
255
255
255
254
187
90
45
9
29
108
237
181
62
32
39
255
255
255
255
255
255
255
255
255
255
255
255
255
255
255
255
255
193
44
0
70
186
236
226
101
54
91
0
0
95
255
255
255
255
255
255
255
255
255
255
255
255
255
255
255
249
120
1
3
154
255
255
255
255
251
30
0
0
0
164
255
255
255
255
255
255
255
255
255
255
255
255
255
255
248
77
0
0
170
255
255
255
255
255
255
74
0
0
0
231
255
255
255
255
255
255
255
255
255
255
255
255
255
248
75
0
0
126
255
255
255
255
255
255
255
58
0
0
44
255
255
255
255
255
255
255
255
255
255
255
255
255
255
107
0
0
53
253
255
255
255
255
255
255
255
32
0
0
112
255
255
255
255
255
255
255
255
255
255
255
255
255
170
0
0
0
200
255
255
255
255
255
255
255
238
2
0
0
180
255
255
255
255
255
255
255
255
255
255
255
255
237
16
0
0
88
255
255
255
255
255
255
255
255
173
0
0
4
242
255
255
255
255
255
255
255
255
255
255
255
255
117
0
0
0
203
255
255
255
255
255
255
255
255
101
0
0
60
255
255
255
255
255
255
255
255
255
255
255
255
230
8
0
0
59
255
255
255
255
255
255
255
255
241
12
0
0
128
255
255
255
255
255
255
255
255
255
255
255
255
143
0
0
0
147
255
255
255
255
255
255
255
255
146
0
0
0
196
255
255
255
255
255
255
255
255
255
255
255
255
57
0
0
0
223
255
255
255
255
255
255
255
244
30
0
0
11
250
255
255
255
255
255
255
255
255
255
255
255
241
0
0
0
32
255
255
255
255
255
255
255
255
122
0
0
0
66
255
255
255
255
255
255
255
255
255
255
255
255
211
0
0
0
64
255
255
255
255
255
255
255
211
19
2
0
0
122
255
255
255
255
255
255
255
255
255
255
255
255
182
0
0
0
87
255
255
255
255
255
255
241
38
145
0
0
0
178
255
255
208
238
255
255
255
255
255
255
255
255
197
0
0
0
67
255
255
255
255
255
245
64
106
170
0
0
0
233
255
208
34
215
255
255
255
255
255
255
255
255
238
0
0
0
12
236
255
255
255
228
63
72
247
112
0
0
34
255
206
25
191
255
255
255
255
255
255
255
255
255
255
74
0
0
0
53
174
183
122
16
81
248
255
82
0
0
27
135
19
164
255
255
255
255
255
255
255
255
255
255
255
221
19
0
0
0
0
0
6
119
251
255
255
80
0
0
0
4
168
255
255
255
255
255
255
255
255
255
255
255
255
255
231
95
33
12
52
105
223
255
255
255
255
186
25
12
68
204
255
255
255
255
255
255
255
255
255
255
255
255
255
255
255
255
255
255
255
255
255
255
255
255
255
255
255
255
255
255
255
255
255
255
255
255
255
255
255
255
255
255
255
255
255
255
255
255
255
255
255
255
255
255
255
255
255
255
255
255
255
255
255
255
255
255
255
255
255
255
255
255
255
255
255
255
255
255
255
255
255
255
255
255
255
255
255
255
255
255
255
255
255
255
255
255
255
255
255
255
255
255
255
255
255
255
255
255
255
255
255
255
255
255
255
255
255
255
255
255
255
255
255
255
255
255
255
255
255
255
255
255
255
255
255
255
255
255
255
255
255
255
255
255
255
255
255
255
255
255
255
255
255
255
255
255
255
255
255
