P2
# CREATOR: GIMP PNM Filter Version 1.1
30 30
255
255
255
255
255
255
255
255
255
255
255
255
255
255
255
255
255
255
255
255
255
255
255
255
255
255
255
255
255
255
255
255
255
255
255
255
255
255
255
255
255
255
255
255
255
255
255
255
255
255
255
255
255
255
255
255
255
255
255
255
255
255
255
255
255
255
255
255
255
255
255
255
236
160
160
178
255
255
255
255
255
255
255
255
255
255
255
255
255
255
255
255
255
255
255
255
255
255
255
255
255
178
137
34
20
21
21
15
40
134
255
255
255
255
255
255
255
255
255
255
255
255
255
255
255
255
255
255
255
255
255
101
8
1
0
0
0
0
2
101
255
255
255
255
255
255
255
255
255
255
255
255
255
255
255
255
255
255
255
100
28
10
3
0
0
0
0
0
3
101
255
255
255
255
255
255
255
255
255
255
255
255
255
255
255
255
255
255
134
16
1
1
5
5
1
0
0
0
22
222
255
255
255
255
255
255
255
255
255
255
255
255
255
255
255
255
236
160
63
3
1
3
34
136
147
2
0
0
49
255
255
255
255
255
255
255
255
255
255
255
255
255
255
255
255
255
111
9
3
6
27
85
160
236
218
2
0
0
19
255
255
255
255
255
255
255
255
255
255
255
255
255
255
255
255
255
60
0
0
24
218
251
255
255
177
6
0
0
17
255
255
255
255
255
255
255
255
255
255
255
255
255
255
255
255
255
58
1
1
44
255
255
255
255
148
5
0
0
16
255
255
255
255
255
255
255
255
255
255
255
255
255
255
255
255
251
28
8
8
130
255
255
255
255
139
3
0
0
13
207
255
255
255
255
255
255
255
255
255
255
255
255
255
255
255
218
15
0
22
236
255
255
255
255
111
3
0
0
10
160
255
255
255
255
255
255
255
255
255
255
255
255
255
255
255
202
3
2
6
255
255
255
255
255
85
1
1
1
11
112
255
255
255
255
255
255
255
255
255
255
255
255
255
255
255
139
2
0
5
255
255
255
255
255
62
2
0
1
4
111
255
255
255
255
255
255
255
255
255
255
255
255
255
255
255
130
2
0
8
255
255
255
255
255
82
4
0
0
5
137
255
255
255
255
255
255
255
255
255
255
255
255
255
255
255
112
2
1
4
177
255
255
255
255
63
2
0
0
3
148
251
255
255
255
255
255
255
255
255
255
255
255
255
255
255
160
12
0
6
137
255
255
255
255
40
2
0
0
5
54
218
255
255
255
255
255
255
255
255
255
255
255
255
255
255
130
4
1
2
117
255
255
255
255
23
1
0
1
3
24
218
255
255
255
255
255
255
255
255
255
255
255
255
255
255
160
6
0
5
111
255
207
160
100
8
2
6
5
2
4
139
255
255
255
255
255
255
255
255
255
255
255
255
255
255
160
6
0
0
27
218
160
48
30
11
6
31
10
1
1
40
207
255
255
255
255
255
255
255
255
255
255
255
255
255
255
25
0
0
6
68
33
11
5
9
34
137
58
6
1
3
100
255
255
255
255
255
255
255
255
255
255
255
255
255
255
40
0
0
3
1
0
4
8
26
160
255
255
63
3
2
7
21
32
205
255
255
255
255
255
255
255
255
255
255
255
112
21
5
3
1
0
6
25
64
160
255
255
130
25
4
0
0
2
137
255
255
255
255
255
255
255
255
255
255
255
255
218
63
24
14
25
73
178
255
255
255
255
255
160
36
0
0
1
137
255
255
255
255
255
255
255
255
255
255
255
255
251
218
218
222
255
255
255
255
255
255
255
255
236
152
45
27
51
175
255
255
255
255
255
255
255
255
255
255
255
255
255
255
255
255
255
255
255
255
255
255
255
255
255
255
255
255
255
255
255
255
255
255
255
255
255
255
255
255
255
255
255
255
255
255
255
255
255
255
255
255
255
255
255
255
255
255
255
255
255
255
255
255
255
255
255
255
255
255
255
255
255
255
255
255
255
255
255
255
255
255
255
255
255
255
255
255
255
255
255
255
255
255
255
255
255
255
255
255
255
255
255
255
255
255
255
255
255
255
255
255
255
255
255
255
255
255
255
255
255
255
255
255
255
255
