P2
# CREATOR: GIMP PNM Filter Version 1.1
30 30
255
255
255
255
255
255
255
255
255
255
255
255
255
255
255
255
255
255
255
255
255
255
255
255
255
255
255
255
255
255
255
255
255
255
255
255
255
255
255
255
255
255
255
255
255
255
255
255
255
255
255
255
255
255
255
255
255
255
255
255
255
255
255
255
255
255
255
255
255
255
255
255
178
160
160
192
160
160
207
255
255
255
255
255
255
255
255
255
255
255
255
255
255
255
255
255
255
255
255
255
50
34
5
10
5
21
2
3
10
64
255
255
255
255
255
255
255
255
255
255
255
255
255
255
255
255
255
255
207
160
9
0
0
1
2
1
1
0
0
64
255
255
255
255
255
255
255
255
255
255
255
255
255
255
255
255
222
77
21
8
1
1
1
13
3
1
0
0
1
64
255
255
255
255
255
255
255
255
255
255
255
255
255
255
255
255
101
5
0
0
7
40
54
152
138
6
0
0
5
251
255
255
255
255
255
255
255
255
255
255
255
255
255
255
255
144
40
1
0
2
63
207
255
255
218
6
0
0
2
218
255
255
255
255
255
255
255
255
255
255
255
255
255
255
160
16
1
1
18
74
192
255
255
255
255
13
0
0
3
187
255
255
255
255
255
255
255
255
255
255
255
255
255
255
87
2
0
4
137
255
255
255
255
255
255
7
0
0
1
162
255
255
255
255
255
255
255
255
255
255
255
255
255
255
16
0
0
29
192
255
255
255
255
255
255
6
0
0
2
186
255
255
255
255
255
255
255
255
255
255
255
255
255
255
23
0
3
108
255
255
255
255
255
255
236
8
0
0
2
38
218
255
255
255
255
255
255
255
255
255
255
255
255
207
18
3
4
119
255
255
255
255
255
255
218
6
0
0
0
21
218
255
255
255
255
255
255
255
255
255
255
255
255
157
7
2
5
160
255
255
255
255
255
255
218
9
0
0
1
9
218
255
255
255
255
255
255
255
255
255
255
255
255
58
1
0
4
165
255
255
255
255
255
255
165
7
1
0
1
18
255
255
255
255
255
255
255
255
255
255
255
255
255
44
0
0
4
160
255
255
255
255
255
255
82
2
1
1
1
13
255
255
255
255
255
255
255
255
255
255
255
255
255
22
1
0
9
160
255
255
255
255
255
255
34
1
2
1
1
10
178
255
255
255
255
255
255
255
255
255
255
255
255
71
1
3
17
178
255
255
255
255
255
255
10
0
0
1
1
3
54
236
255
255
255
255
255
255
255
255
255
255
255
101
16
0
14
64
218
255
255
255
160
96
2
0
0
6
4
0
1
28
255
255
255
255
255
255
255
255
255
255
255
255
64
17
1
21
152
255
255
53
9
2
1
0
2
51
21
0
0
16
255
255
255
255
255
255
255
255
255
255
255
255
255
63
9
5
34
35
25
5
0
0
1
9
39
178
95
4
1
5
64
255
255
255
255
255
255
255
255
255
255
255
255
160
50
11
5
1
1
0
1
1
30
218
236
255
236
160
25
0
16
160
255
255
255
255
255
255
255
255
255
255
255
236
186
43
9
2
0
3
29
74
99
255
255
255
255
255
40
5
2
40
160
255
255
255
255
255
255
255
255
255
255
255
236
157
137
42
35
40
178
255
255
255
255
255
255
255
160
25
1
1
23
70
148
178
255
255
255
255
255
255
255
255
255
255
255
255
255
255
255
255
255
255
255
255
255
255
255
100
5
0
1
2
8
101
255
255
255
255
255
255
255
255
255
255
255
255
255
255
255
255
255
255
255
255
255
255
255
160
40
6
1
0
8
101
255
255
255
255
255
255
255
255
255
255
255
255
255
255
255
255
255
255
255
255
255
255
255
255
236
152
32
23
37
178
255
255
255
255
255
255
255
255
255
255
255
255
255
255
255
255
255
255
255
255
255
255
255
255
255
255
255
255
255
255
255
255
255
255
255
255
255
255
255
255
255
255
255
255
255
255
255
255
255
255
255
255
255
255
255
255
255
255
255
255
255
255
255
255
255
255
255
255
255
255
255
255
255
255
255
255
255
255
255
255
255
255
255
255
255
255
255
255
255
255
255
255
255
