P2
# CREATOR: GIMP PNM Filter Version 1.1
30 30
255
255
255
255
255
255
255
255
255
255
255
255
255
255
255
255
255
255
255
255
255
255
255
255
255
255
255
255
255
255
255
255
255
255
255
255
255
255
255
255
255
255
255
255
255
255
255
255
255
255
255
255
255
255
255
255
255
255
255
255
255
255
255
255
255
255
255
255
255
255
255
255
230
172
129
107
115
129
95
121
152
255
255
255
255
255
255
255
255
255
255
255
255
255
255
255
255
255
255
255
255
230
115
46
16
16
19
25
11
5
57
255
255
255
255
255
255
255
255
255
255
255
255
255
255
255
255
255
255
255
230
115
46
6
16
16
19
19
2
0
21
230
255
255
255
255
255
255
255
255
255
255
255
255
255
255
255
255
255
191
95
38
7
57
85
107
114
72
2
0
8
207
255
255
255
255
255
255
255
255
255
255
255
255
255
255
255
255
255
127
32
7
76
152
255
255
255
172
7
0
5
155
255
255
255
255
255
255
255
255
255
255
255
255
255
255
255
191
127
63
28
76
152
255
255
255
255
230
13
0
2
116
255
255
255
255
255
255
255
255
255
255
255
255
255
255
255
95
32
24
143
191
255
255
255
255
255
255
24
0
1
73
255
255
255
255
255
255
255
255
255
255
255
255
255
255
191
47
0
47
191
255
255
255
255
255
255
255
36
1
1
55
255
255
255
255
255
255
255
255
255
255
255
255
255
230
95
16
19
95
255
255
255
255
255
255
255
255
60
1
1
30
255
255
255
255
255
255
255
255
255
255
255
255
255
137
38
6
69
191
255
255
255
255
255
255
255
255
80
2
0
20
255
255
255
255
255
255
255
255
255
255
255
255
191
68
6
38
137
255
255
255
255
255
255
255
255
255
107
3
0
13
191
255
255
255
255
255
255
255
255
255
255
255
114
19
16
86
230
255
255
255
255
255
255
255
255
255
80
2
0
5
143
255
255
255
255
255
255
255
255
255
255
230
57
6
30
172
255
255
255
255
255
255
255
255
255
255
80
1
0
5
107
255
255
255
255
255
255
255
255
255
255
172
30
6
57
230
255
255
255
255
255
255
255
255
255
255
64
4
0
6
85
255
255
255
255
255
255
255
255
255
255
129
16
16
85
255
255
255
255
255
255
255
255
255
255
255
57
4
2
4
57
255
255
255
255
255
255
255
255
255
255
107
16
16
107
255
255
255
255
255
255
255
255
255
255
230
38
0
4
0
38
255
255
255
255
255
255
255
255
255
255
107
16
16
107
255
255
255
255
255
255
255
255
255
255
172
25
6
8
0
31
230
255
255
255
255
255
255
255
255
255
143
16
16
71
255
255
255
255
255
255
255
255
255
255
86
16
16
25
6
25
172
255
255
255
255
255
255
255
255
255
191
63
0
47
127
255
255
255
255
255
255
255
255
191
47
0
47
77
16
16
103
255
255
255
255
255
255
255
255
255
255
127
63
0
57
115
230
255
255
255
255
255
230
95
16
19
95
172
25
6
57
255
255
255
255
255
255
255
255
255
255
255
127
63
0
38
86
172
230
255
255
255
115
38
6
76
191
230
47
0
38
191
255
255
255
255
255
255
255
255
255
255
255
127
63
6
16
30
45
68
85
71
42
0
63
152
255
255
86
16
16
114
255
255
255
255
255
255
255
255
255
255
255
255
152
76
19
6
6
6
16
16
0
63
127
255
255
255
172
46
6
43
85
71
47
63
127
255
255
255
255
255
255
255
255
191
114
57
30
25
15
15
63
127
255
255
255
255
230
115
51
7
19
16
0
0
127
255
255
255
255
255
255
255
255
255
255
230
207
155
129
143
191
255
255
255
255
255
255
230
127
63
19
15
31
63
127
255
255
255
255
255
255
255
255
255
255
255
255
255
255
255
255
255
255
255
255
255
255
255
255
191
143
143
191
255
255
255
255
255
255
255
255
255
255
255
255
255
255
255
255
255
255
255
255
255
255
255
255
255
255
255
255
255
255
255
255
255
255
255
255
255
255
255
255
255
255
255
255
255
255
255
255
255
255
255
255
255
255
255
255
255
255
255
255
255
255
255
