P2
# CREATOR: GIMP PNM Filter Version 1.1
30 30
255
255
255
255
255
255
255
255
255
255
255
255
255
255
255
255
255
255
255
255
255
255
255
255
255
255
255
255
255
255
255
255
255
255
255
255
255
255
255
255
255
255
255
255
255
255
255
255
255
255
255
255
255
255
255
255
255
255
255
255
255
255
255
255
255
255
255
255
255
255
255
255
255
255
230
172
123
107
71
102
127
255
255
255
255
255
255
255
255
255
255
255
255
255
255
255
255
255
255
255
255
255
191
114
57
30
14
13
7
0
38
191
255
255
255
255
255
255
255
255
255
255
255
255
255
255
255
255
255
255
255
191
95
24
6
6
14
13
2
0
5
114
255
255
255
255
255
255
255
255
255
255
255
255
255
255
255
255
255
255
191
95
24
16
30
57
81
97
13
0
1
61
255
255
255
255
255
255
255
255
255
255
255
255
255
255
255
255
255
152
76
19
24
86
172
230
255
255
36
0
0
37
255
255
255
255
255
255
255
255
255
255
255
255
255
255
255
255
152
63
6
21
95
191
255
255
255
255
61
0
0
23
255
255
255
255
255
255
255
255
255
255
255
255
255
255
255
152
76
6
27
86
191
255
255
255
255
255
85
2
0
16
255
255
255
255
255
255
255
255
255
255
255
255
255
255
191
76
7
34
104
207
255
255
255
255
255
255
107
2
0
13
255
255
255
255
255
255
255
255
255
255
255
255
255
230
95
19
19
95
230
255
255
255
255
255
255
255
129
2
0
10
230
255
255
255
255
255
255
255
255
255
255
255
255
137
38
6
69
191
255
255
255
255
255
255
255
255
172
4
0
5
207
255
255
255
255
255
255
255
255
255
255
255
255
68
6
25
137
255
255
255
255
255
255
255
255
255
230
7
0
3
187
255
255
255
255
255
255
255
255
255
255
255
255
38
0
31
230
255
255
255
255
255
255
255
255
255
255
8
0
3
155
255
255
255
255
255
255
255
255
255
255
255
230
31
0
38
255
255
255
255
255
255
255
255
255
255
230
10
0
2
129
255
255
255
255
255
255
255
255
255
255
255
172
25
6
57
255
255
255
255
255
255
255
255
255
255
172
10
0
3
107
255
255
255
255
255
255
255
255
255
255
255
129
16
16
85
255
255
255
255
255
255
255
255
255
255
129
8
1
5
85
255
255
255
255
255
255
255
255
255
255
255
107
16
16
107
255
255
255
255
255
255
255
255
255
255
71
11
1
3
57
255
255
255
255
255
255
255
255
255
255
255
107
16
16
107
255
255
255
255
255
255
255
255
255
230
47
0
5
0
38
230
255
255
255
255
255
255
255
255
255
255
107
16
16
107
255
255
255
255
255
255
255
255
255
172
25
6
13
6
25
172
255
255
255
255
255
255
255
255
255
255
107
16
16
107
255
255
255
255
255
255
255
255
255
86
16
16
51
16
16
86
255
255
255
255
255
255
255
255
255
255
107
16
16
107
255
255
255
255
255
255
255
255
191
47
0
47
143
47
0
47
191
255
255
255
255
255
255
255
255
255
143
16
14
64
230
255
255
255
255
255
255
230
95
16
19
95
255
86
16
16
114
255
230
127
127
152
255
255
255
255
191
63
0
28
95
191
255
255
255
255
255
115
38
6
76
191
255
172
38
6
57
191
230
38
9
57
255
255
255
255
255
127
63
6
19
57
103
172
230
230
115
51
0
63
152
255
255
230
95
19
10
30
40
10
0
38
255
255
255
255
255
255
152
76
19
6
16
25
31
31
25
0
63
127
255
255
255
255
191
76
3
1
2
1
16
63
255
255
255
255
255
255
255
191
95
38
15
6
0
0
6
63
127
255
255
255
255
255
255
152
31
2
1
19
95
191
255
255
255
255
255
255
255
255
230
172
103
57
38
38
76
152
255
255
255
255
255
255
255
255
143
80
72
129
230
255
255
255
255
255
255
255
255
255
255
255
255
255
255
255
255
255
255
255
255
255
255
255
255
255
255
255
255
255
255
255
255
255
255
255
255
255
255
255
255
255
255
255
255
255
255
255
255
255
255
255
255
255
255
255
255
255
255
255
255
255
255
