P2
# CREATOR: GIMP PNM Filter Version 1.1
30 30
255
255
255
255
255
255
255
255
255
255
255
255
255
255
255
255
255
255
255
255
255
255
255
255
255
255
255
255
255
255
255
255
255
255
255
255
255
255
255
255
255
255
255
255
255
255
255
255
255
255
255
255
255
255
255
255
255
255
255
255
255
255
255
255
255
255
255
255
255
255
255
255
255
230
115
57
31
47
63
127
191
255
255
255
255
255
255
255
255
255
255
255
255
255
255
255
255
255
255
255
255
255
191
95
38
0
0
0
24
32
95
191
255
255
255
255
255
255
255
255
255
255
255
255
255
255
255
255
255
255
230
115
57
16
6
31
31
47
21
8
12
129
255
255
255
255
255
255
255
255
255
255
255
255
255
255
255
255
255
191
95
38
0
19
76
152
255
255
48
1
3
73
255
255
255
255
255
255
255
255
255
255
255
255
255
255
255
230
115
57
16
6
47
95
191
255
255
255
29
1
1
66
255
255
255
255
255
255
255
255
255
255
255
255
255
255
255
127
51
0
19
76
152
255
255
255
255
255
29
0
1
65
255
255
255
255
255
255
255
255
255
255
255
255
255
255
152
63
6
42
95
191
255
255
255
255
255
255
19
0
1
87
255
255
255
255
255
255
255
255
255
255
255
255
255
191
76
7
46
137
255
255
255
255
255
255
255
255
16
0
2
97
255
255
255
255
255
255
255
255
255
255
255
255
230
95
19
19
95
230
255
255
255
255
255
255
255
255
13
0
2
107
255
255
255
255
255
255
255
255
255
255
255
255
115
38
6
76
191
255
255
255
255
255
255
255
255
255
13
0
2
107
255
255
255
255
255
255
255
255
255
255
255
191
57
0
47
152
255
255
255
255
255
255
255
255
255
255
10
0
2
129
255
255
255
255
255
255
255
255
255
255
255
114
16
16
86
255
255
255
255
255
255
255
255
255
255
255
8
0
3
155
255
255
255
255
255
255
255
255
255
255
255
57
6
25
172
255
255
255
255
255
255
255
255
255
255
255
6
0
3
187
255
255
255
255
255
255
255
255
255
255
191
38
0
47
230
255
255
255
255
255
255
255
255
255
255
255
5
0
3
207
255
255
255
255
255
255
255
255
255
255
172
16
16
57
255
255
255
255
255
255
255
255
255
255
255
255
4
0
3
230
255
255
255
255
255
255
255
255
255
255
155
25
6
68
255
255
255
255
255
255
255
255
255
255
255
191
3
0
5
255
255
255
255
255
255
255
255
255
255
255
207
25
6
45
255
255
255
255
255
255
255
255
255
255
255
143
2
0
8
255
255
255
255
255
255
255
255
255
255
255
230
47
0
23
114
255
255
255
255
255
255
255
255
255
255
107
2
0
13
255
255
255
255
255
255
255
255
255
255
255
255
95
10
1
47
230
255
255
255
255
255
255
255
255
230
71
2
0
17
230
255
255
255
255
255
255
255
255
255
255
255
191
38
2
17
104
230
255
255
255
255
255
255
255
129
19
1
1
14
129
255
255
255
255
255
255
255
255
255
255
255
255
137
57
0
34
95
191
255
255
255
255
255
143
48
3
3
3
1
17
93
230
255
255
255
255
255
255
255
255
255
255
255
127
63
5
16
47
85
129
155
155
103
43
5
8
35
21
0
0
17
53
80
80
143
191
255
255
255
255
255
255
255
255
152
69
15
6
19
16
25
25
16
4
16
63
191
114
23
5
3
8
4
8
32
127
255
255
255
255
255
255
255
255
255
172
95
47
19
16
6
6
16
38
95
191
255
255
172
103
51
9
4
8
32
127
255
255
255
255
255
255
255
255
255
255
255
191
143
85
68
68
103
172
230
255
255
255
255
255
191
107
80
80
143
191
255
255
255
255
255
255
255
255
255
255
255
255
255
255
255
255
255
255
255
255
255
255
255
255
255
255
255
255
255
255
255
255
255
255
255
255
255
255
255
255
255
255
255
255
255
255
255
255
255
255
255
255
255
255
255
255
255
255
255
255
255
255
255
255
255
255
255
255
255
255
255
255
255
255
255
255
255
255
255
255
255
255
255
255
255
255
255
255
255
255
255
255
255
