P2
# CREATOR: GIMP PNM Filter Version 1.1
30 30
255
255
255
255
255
255
255
255
255
255
255
255
255
255
255
255
255
255
255
255
255
255
255
255
255
255
255
255
255
255
255
255
255
255
255
255
255
255
255
255
255
255
255
255
230
207
155
97
53
57
107
191
243
255
255
255
255
255
255
255
255
255
255
255
255
255
255
255
255
255
255
230
172
86
47
25
25
7
1
1
16
115
230
255
255
255
255
255
255
255
255
255
255
255
255
255
255
255
255
255
230
115
46
16
0
6
6
4
0
0
9
115
230
255
255
255
255
255
255
255
255
255
255
255
255
255
255
255
255
191
95
38
6
15
38
45
68
15
0
0
25
191
242
255
255
255
255
255
255
255
255
255
255
255
255
255
255
255
143
47
12
5
57
114
191
255
255
45
1
1
45
255
255
255
255
255
255
255
255
255
255
255
255
255
255
255
255
152
47
4
5
57
152
255
255
255
255
36
1
1
55
255
255
255
255
255
255
255
255
255
255
255
255
255
255
255
152
91
5
9
42
143
255
255
255
255
255
28
0
1
65
255
255
255
255
255
255
255
255
255
255
255
255
255
255
191
63
7
35
95
172
255
255
255
255
255
255
19
0
1
87
255
255
255
255
255
255
255
255
255
255
255
255
255
255
95
16
13
95
255
255
255
255
255
255
255
230
16
0
2
97
255
255
255
255
255
255
255
255
255
255
255
255
255
152
47
0
51
172
255
255
255
255
255
255
255
172
10
0
3
107
255
255
255
255
255
255
255
255
255
255
255
255
143
57
4
38
115
255
255
255
255
255
255
255
255
129
7
1
5
107
255
255
255
255
255
255
255
255
255
255
255
191
47
5
12
95
230
255
255
255
255
255
255
255
255
107
7
1
6
107
255
255
255
255
255
255
255
255
255
255
255
114
12
4
42
191
255
255
255
255
255
255
255
255
255
107
7
1
6
107
255
255
255
255
255
255
255
255
255
255
230
57
4
23
129
255
255
255
255
255
255
255
255
255
255
107
7
1
6
107
255
255
255
255
255
255
255
255
255
255
172
30
6
57
230
255
255
255
255
255
255
255
255
255
255
71
7
1
9
107
255
255
255
255
255
255
255
255
255
255
129
16
16
85
255
255
255
255
255
255
255
255
255
255
230
47
0
2
12
107
255
255
255
255
255
255
255
255
255
255
143
16
16
71
255
255
255
255
255
255
255
255
255
255
172
25
3
3
16
85
255
255
255
255
255
255
255
255
255
255
191
38
0
47
230
255
255
255
255
255
255
255
255
255
86
16
11
11
6
57
255
255
255
255
255
255
255
255
255
255
255
69
6
25
137
255
255
255
255
255
255
255
255
143
23
0
32
28
0
38
230
255
255
255
255
255
255
255
255
255
255
137
38
6
68
191
255
255
255
255
255
255
230
71
4
5
71
57
6
25
172
255
255
255
255
255
255
255
255
255
255
230
95
32
19
71
95
191
255
255
255
255
155
25
2
28
143
103
16
16
103
255
255
255
255
255
138
86
86
182
255
255
191
127
63
0
16
47
71
129
129
97
36
7
16
114
255
172
38
4
25
64
107
107
107
85
26
4
14
172
255
255
255
255
127
63
16
0
16
16
25
8
3
3
63
191
255
230
95
16
2
12
16
16
16
16
2
2
28
172
255
255
255
255
255
191
95
47
15
16
6
8
5
38
152
255
255
255
191
63
25
11
15
15
15
15
24
57
114
242
255
255
255
255
255
255
255
191
143
85
85
64
107
143
255
255
255
255
255
230
172
129
107
107
107
129
172
230
255
255
255
255
255
255
255
255
255
255
255
255
255
255
255
255
255
255
255
255
255
255
255
255
255
255
255
255
255
255
255
255
255
255
255
255
255
255
255
255
255
255
255
255
255
255
255
255
255
255
255
255
255
255
255
255
255
255
255
255
255
255
255
255
255
255
255
255
255
255
255
255
255
255
255
255
255
255
255
255
255
255
255
255
255
255
255
255
255
255
255
255
255
255
255
255
255
255
255
255
255
255
255
255
255
255
255
255
255
255
255
255
255
255
255
255
255
255
255
255
255
255
