P2
# CREATOR: GIMP PNM Filter Version 1.1
30 30
255
255
255
255
255
255
255
255
255
255
255
255
255
255
255
255
255
255
255
255
255
255
255
255
255
255
255
255
255
255
255
255
255
255
255
255
255
255
255
255
255
255
255
255
255
255
255
255
255
255
255
255
255
255
255
255
255
255
255
255
255
255
255
255
255
255
255
255
255
255
255
255
255
255
230
207
187
187
187
179
187
207
243
255
255
255
255
255
255
255
255
255
255
255
255
255
255
255
255
255
255
255
191
114
57
30
25
25
25
19
23
57
191
255
255
255
255
255
255
255
255
255
255
255
255
255
255
255
255
255
230
115
57
16
6
6
6
6
6
2
1
19
172
255
255
255
255
255
255
255
255
255
255
255
255
255
255
255
255
191
95
38
0
15
30
45
54
54
54
11
1
9
124
255
255
255
255
255
255
255
255
255
255
255
255
255
255
255
191
95
24
6
47
86
172
230
255
255
255
30
1
3
105
255
255
255
255
255
255
255
255
255
255
255
255
255
255
255
127
32
19
76
152
255
255
255
255
255
255
19
0
1
87
255
255
255
255
255
255
255
255
255
255
255
255
255
230
127
63
29
95
191
255
255
255
255
255
255
230
16
0
2
97
255
255
255
255
255
255
255
255
255
255
255
255
255
137
51
9
103
191
255
255
255
255
255
255
255
207
10
0
3
107
255
255
255
255
255
255
255
255
255
255
255
255
191
68
6
38
137
255
255
255
255
255
255
255
255
187
10
0
4
107
255
255
255
255
255
255
255
255
255
255
255
255
95
19
16
95
230
255
255
255
255
255
255
255
255
155
10
0
4
107
255
255
255
255
255
255
255
255
255
255
255
191
47
0
47
191
255
255
255
255
255
255
255
255
255
129
6
1
5
107
255
255
255
255
255
255
255
255
255
255
255
114
16
16
86
255
255
255
255
255
255
255
255
255
255
107
6
1
7
107
255
255
255
255
255
255
255
255
255
255
255
68
6
25
155
255
255
255
255
255
255
255
255
255
255
107
6
1
7
107
255
255
255
255
255
255
255
255
255
255
255
54
6
25
187
255
255
255
255
255
255
255
255
255
255
107
5
1
7
129
255
255
255
255
255
255
255
255
255
255
255
54
6
25
187
255
255
255
255
255
255
255
255
255
255
107
4
0
10
155
255
255
255
255
255
255
255
255
255
255
255
54
6
25
187
255
255
255
255
255
255
255
255
255
255
129
3
0
8
207
255
255
255
255
255
255
255
255
255
255
255
82
6
25
123
255
255
255
255
255
255
255
255
255
255
129
4
0
10
207
255
255
255
255
255
255
255
255
255
255
255
137
38
6
68
191
255
255
255
255
255
255
255
255
230
86
4
0
11
172
255
255
255
255
255
255
255
255
255
255
255
230
95
19
19
95
230
255
255
255
255
255
255
230
115
38
2
5
12
129
255
255
255
191
127
127
191
255
255
255
255
255
191
76
6
34
104
230
255
255
255
255
255
115
46
6
43
11
12
53
172
255
255
114
32
32
172
255
255
255
255
255
255
152
63
0
23
47
71
107
107
107
71
42
0
63
114
76
6
11
41
54
54
40
7
51
172
255
255
255
255
255
255
255
127
63
6
0
16
16
16
16
16
0
63
127
255
152
63
16
5
6
6
7
63
127
230
255
255
255
255
255
255
255
255
152
76
38
15
16
16
16
16
63
127
255
255
255
191
95
38
25
25
51
127
255
255
255
255
255
255
255
255
255
255
255
255
191
143
107
107
107
143
191
255
255
255
255
255
230
207
187
187
207
230
255
255
255
255
255
255
255
255
255
255
255
255
255
255
255
255
255
255
255
255
255
255
255
255
255
255
255
255
255
255
255
255
255
255
255
255
255
255
255
255
255
255
255
255
255
255
255
255
255
255
255
255
255
255
255
255
255
255
255
255
255
255
255
255
255
255
255
255
255
255
255
255
255
255
255
255
255
255
255
255
255
255
255
255
255
255
255
255
255
255
255
255
255
255
255
255
255
255
255
255
255
255
255
255
255
255
255
255
255
255
255
255
255
255
255
255
255
255
255
255
255
255
255
