P2
# CREATOR: GIMP PNM Filter Version 1.1
30 30
255
255
255
255
255
255
255
255
255
255
255
255
255
255
255
255
255
255
255
255
255
255
255
255
255
255
255
255
255
255
255
255
255
255
255
255
255
255
255
255
255
255
255
255
255
255
255
255
255
255
255
255
255
255
255
255
255
255
255
255
255
255
255
255
255
255
255
255
255
255
255
255
255
255
255
255
255
255
255
255
255
255
255
255
255
255
255
255
255
255
255
255
255
255
255
255
255
255
255
255
255
191
143
85
68
54
73
91
76
102
127
255
255
255
255
255
255
255
255
255
255
255
255
255
255
255
255
255
255
255
191
95
24
16
6
6
9
34
17
0
38
152
255
255
255
255
255
255
255
255
255
255
255
255
255
255
255
255
255
152
76
19
16
15
25
25
38
51
9
1
2
91
255
255
255
255
255
255
255
255
255
255
255
255
255
255
255
255
127
63
6
23
71
129
155
187
197
187
21
0
1
54
255
255
255
255
255
255
255
255
255
255
255
255
255
255
255
127
63
0
38
95
191
255
255
255
255
255
23
0
0
54
255
255
255
255
255
255
255
255
255
255
255
255
255
255
152
63
0
51
115
230
255
255
255
255
255
255
23
0
0
54
255
255
255
255
255
255
255
255
255
255
255
255
255
230
76
6
30
115
255
255
255
255
255
255
255
255
19
0
0
68
255
255
255
255
255
255
255
255
255
255
255
255
255
172
30
6
57
230
255
255
255
255
255
255
255
255
16
0
2
85
255
255
255
255
255
255
255
255
255
255
255
255
255
86
16
16
114
255
255
255
255
255
255
255
255
255
10
0
2
129
255
255
255
255
255
255
255
255
255
255
255
255
191
47
0
47
191
255
255
255
255
255
255
255
255
230
7
0
3
172
255
255
255
255
255
255
255
255
255
255
255
255
95
16
16
95
255
255
255
255
255
255
255
255
255
172
3
0
7
230
255
255
255
255
255
255
255
255
255
255
255
191
47
0
47
191
255
255
255
255
255
255
255
255
255
103
2
0
12
255
255
255
255
255
255
255
255
255
255
255
255
143
16
16
71
255
255
255
255
255
255
255
255
255
230
57
1
0
21
230
255
255
255
255
255
255
255
255
255
255
255
107
16
16
107
255
255
255
255
255
255
255
255
255
137
30
1
1
23
207
255
255
255
255
255
255
255
255
255
255
255
107
16
16
107
255
255
255
255
255
255
255
255
191
69
6
10
3
25
155
255
255
255
255
255
255
255
255
255
255
255
107
16
16
107
255
255
255
255
255
255
255
143
47
10
18
32
14
16
129
255
255
255
255
255
255
255
255
255
255
255
107
16
16
107
255
255
255
255
255
255
191
71
6
6
71
97
16
16
85
255
255
255
255
255
255
255
255
255
255
255
143
16
16
71
255
255
255
255
255
230
86
16
8
47
143
172
30
6
57
230
255
255
255
127
127
127
255
255
255
255
191
57
0
42
137
230
255
255
191
95
28
0
63
191
255
230
69
6
30
137
255
255
191
63
0
95
255
255
255
255
255
115
51
6
36
45
68
57
47
16
6
63
127
255
255
255
137
38
6
68
191
255
95
16
16
95
255
255
255
255
255
230
127
63
7
6
6
16
0
18
76
152
255
255
255
255
230
95
24
11
43
48
40
0
63
191
255
255
255
255
255
255
255
152
76
30
25
15
47
95
191
255
255
255
255
255
255
191
95
16
2
6
4
31
127
255
255
255
255
255
255
255
255
255
230
207
155
172
191
255
255
255
255
255
255
255
255
255
191
63
25
6
8
63
255
255
255
255
255
255
255
255
255
255
255
255
255
255
255
255
255
255
255
255
255
255
255
255
255
230
172
97
107
143
255
255
255
255
255
255
255
255
255
255
255
255
255
255
255
255
255
255
255
255
255
255
255
255
255
255
255
255
255
255
255
255
255
255
255
255
255
255
255
255
255
255
255
255
255
255
255
255
255
255
255
255
255
255
255
255
255
255
255
255
255
255
255
255
255
255
255
255
255
255
255
255
255
255
255
255
255
255
255
255
255
255
255
255
255
255
255
255
255
255
255
255
255
255
