P2
# CREATOR: GIMP PNM Filter Version 1.1
30 30
255
255
255
255
255
255
255
255
255
255
255
255
255
255
255
255
255
255
255
255
255
255
255
255
255
255
255
255
255
255
255
255
255
255
255
255
255
255
255
255
255
255
255
255
255
255
255
255
255
255
255
255
255
255
255
255
255
255
255
255
255
255
255
255
255
255
255
255
255
255
255
255
230
115
57
31
31
21
15
31
114
255
255
255
255
255
255
255
255
255
255
255
255
255
255
255
255
255
255
255
255
191
95
38
0
0
0
0
0
1
28
230
255
255
255
255
255
255
255
255
255
255
255
255
255
255
255
255
255
255
191
95
24
6
31
31
31
21
2
0
5
137
255
255
255
255
255
255
255
255
255
255
255
255
255
255
255
255
255
191
95
24
19
76
152
255
255
255
17
0
0
69
230
255
255
255
255
255
255
255
255
255
255
255
255
255
255
255
191
63
16
18
95
191
255
255
255
255
28
0
0
30
172
255
255
255
255
255
255
255
255
255
255
255
255
255
255
191
95
16
9
71
191
255
255
255
255
255
31
0
2
16
129
255
255
255
255
255
255
255
255
255
255
255
255
255
255
95
24
12
71
143
255
255
255
255
255
255
31
0
2
16
85
255
255
255
255
255
255
255
255
255
255
255
255
255
191
47
0
47
191
255
255
255
255
255
255
255
31
0
3
6
68
255
255
255
255
255
255
255
255
255
255
255
255
230
95
16
19
95
255
255
255
255
255
255
255
255
31
0
3
6
54
255
255
255
255
255
255
255
255
255
255
255
255
172
38
6
57
191
255
255
255
255
255
255
255
255
31
0
3
6
54
255
255
255
255
255
255
255
255
255
255
255
230
86
16
19
114
255
255
255
255
255
255
255
255
255
31
0
3
6
54
255
255
255
255
255
255
255
255
255
255
255
172
38
6
57
191
255
255
255
255
255
255
255
255
255
31
0
3
6
54
255
255
255
255
255
255
255
255
255
255
255
86
16
16
114
255
255
255
255
255
255
255
255
255
255
38
0
3
5
68
255
255
255
255
255
255
255
255
255
255
230
47
0
38
191
255
255
255
255
255
255
255
255
255
255
45
3
1
13
85
255
255
255
255
255
255
255
255
255
255
172
25
6
57
255
255
255
255
255
255
255
255
255
255
255
68
1
1
10
143
255
255
255
255
255
255
255
255
255
255
172
16
16
57
255
255
255
255
255
255
255
255
255
255
255
77
3
0
18
191
255
255
255
255
255
255
255
255
255
255
191
47
0
47
191
255
255
255
255
255
255
255
255
255
255
64
2
0
21
230
255
255
255
255
255
255
255
255
255
255
255
95
24
16
95
191
255
255
255
255
255
255
255
255
191
42
0
1
23
172
255
255
255
255
255
255
255
255
255
255
255
191
86
16
24
114
255
255
255
255
255
255
255
255
114
16
6
5
16
103
255
255
255
255
230
127
127
152
255
255
255
255
172
30
6
57
230
255
255
255
255
255
255
230
57
6
20
20
6
57
230
255
255
255
172
51
12
114
255
255
255
255
230
76
7
22
78
155
230
255
255
255
255
103
23
4
61
62
6
30
137
255
255
255
103
16
16
103
255
255
255
255
255
152
76
6
11
23
38
45
68
85
107
38
2
25
137
137
38
4
31
77
129
129
28
3
19
155
255
255
255
255
255
255
152
63
15
5
0
6
6
16
16
10
16
63
230
230
95
16
2
12
25
16
6
1
25
207
255
255
255
255
255
255
255
191
114
57
38
25
25
15
15
23
95
191
255
255
191
63
25
12
6
16
10
16
63
230
255
255
255
255
255
255
255
255
255
255
230
207
155
129
107
143
191
255
255
255
255
230
172
103
85
85
107
143
191
255
255
255
255
255
255
255
255
255
255
255
255
255
255
255
255
255
255
255
255
255
255
255
255
255
255
255
255
255
255
255
255
255
255
255
255
255
255
255
255
255
255
255
255
255
255
255
255
255
255
255
255
255
255
255
255
255
255
255
255
255
255
255
255
255
255
255
255
255
255
255
255
255
255
255
255
255
255
255
255
255
255
255
255
255
255
255
255
255
255
255
