P2
# CREATOR: GIMP PNM Filter Version 1.1
30 30
255
255
255
255
255
255
255
255
255
255
255
255
255
255
255
255
255
255
255
255
255
255
255
255
255
255
255
255
255
255
255
255
255
255
255
255
255
255
255
255
255
255
255
255
255
255
255
255
255
255
255
255
255
255
255
255
255
255
255
255
255
255
255
255
255
255
255
255
255
255
255
255
255
255
255
255
255
255
255
255
255
255
255
255
255
255
255
255
255
255
255
255
255
255
255
255
255
255
255
255
255
255
255
255
255
255
255
255
255
255
255
255
255
255
255
255
255
255
255
255
255
255
255
255
255
255
255
255
255
255
255
213
164
140
141
170
233
255
255
255
255
255
255
255
255
255
255
255
255
255
255
255
255
255
255
255
255
255
253
154
37
0
0
0
0
0
3
72
210
255
163
0
0
0
0
0
255
255
255
255
255
255
255
255
255
255
255
231
53
0
0
0
0
0
0
0
0
0
3
137
163
0
0
0
0
0
255
255
255
255
255
255
255
255
255
255
224
33
0
0
0
0
0
0
0
0
0
0
0
0
41
0
0
0
0
0
255
255
255
255
255
255
255
255
255
249
53
0
0
0
0
0
0
0
5
4
0
0
0
0
0
0
0
0
0
0
255
255
255
255
255
255
255
255
255
129
0
0
0
0
0
12
130
221
254
254
219
131
13
0
0
0
0
0
0
0
255
255
255
255
255
255
255
255
242
17
0
0
0
0
27
214
255
255
255
255
255
255
217
30
0
0
0
0
0
0
255
255
255
255
255
255
255
255
158
0
0
0
0
3
199
255
255
255
255
255
255
255
255
203
4
0
0
0
0
0
255
255
255
255
255
255
255
255
90
0
0
0
0
89
255
255
255
255
255
255
255
255
255
255
90
0
0
0
0
0
255
255
255
255
255
255
255
255
39
0
0
0
0
178
255
255
255
255
255
255
255
255
255
255
175
0
0
0
0
0
255
255
255
255
255
255
255
255
17
0
0
0
0
225
255
255
255
255
255
255
255
255
255
255
223
0
0
0
0
0
255
255
255
255
255
255
255
255
4
0
0
0
0
239
255
255
255
255
255
255
255
255
255
255
238
0
0
0
0
0
255
255
255
255
255
255
255
255
20
0
0
0
0
223
255
255
255
255
255
255
255
255
255
255
224
0
0
0
0
0
255
255
255
255
255
255
255
255
42
0
0
0
0
175
255
255
255
255
255
255
255
255
255
255
176
0
0
0
0
0
255
255
255
255
255
255
255
255
95
0
0
0
0
89
255
255
255
255
255
255
255
255
255
255
92
0
0
0
0
0
255
255
255
255
255
255
255
255
162
0
0
0
0
4
204
255
255
255
255
255
255
255
255
206
4
0
0
0
0
0
255
255
255
255
255
255
255
255
244
19
0
0
0
0
31
219
255
255
255
255
255
255
219
32
0
0
0
0
0
0
255
255
255
255
255
255
255
255
255
132
0
0
0
0
0
15
135
225
255
254
219
132
15
0
0
0
0
0
0
0
255
255
255
255
255
255
255
255
255
250
53
0
0
0
0
0
0
0
6
4
0
0
0
0
0
0
0
0
0
0
255
255
255
255
255
255
255
255
255
255
223
31
0
0
0
0
0
0
0
0
0
0
0
0
17
0
0
0
0
0
255
255
255
255
255
255
255
255
255
255
255
230
54
0
0
0
0
0
0
0
0
0
0
105
158
0
0
0
0
0
255
255
255
255
255
255
255
255
255
255
255
255
253
158
40
0
0
0
0
0
0
59
193
255
163
0
0
0
0
0
255
255
255
255
255
255
255
255
255
255
255
255
255
255
255
218
165
142
137
164
225
255
255
255
255
255
255
255
255
255
255
255
255
255
255
255
255
255
255
255
255
255
255
255
255
255
255
255
255
255
255
255
255
255
255
255
255
255
255
255
255
255
255
255
255
255
255
255
255
255
255
255
255
255
255
255
255
255
255
255
255
255
255
255
255
255
255
255
255
255
255
255
255
255
255
255
255
255
255
255
255
255
255
255
255
255
255
255
255
255
255
255
255
255
255
255
255
255
255
255
255
255
255
255
255
