P2
# CREATOR: GIMP PNM Filter Version 1.1
30 30
255
255
255
255
255
255
255
255
255
255
255
255
255
255
255
255
255
255
255
255
255
255
255
255
255
255
255
255
255
255
255
255
255
255
255
255
255
255
255
255
255
255
255
255
255
255
255
255
255
255
255
255
255
255
255
255
255
255
255
255
255
255
255
255
255
255
255
255
255
255
255
255
255
255
255
255
255
255
255
255
255
255
255
255
255
255
255
255
255
255
255
255
255
255
255
255
255
255
255
255
255
255
254
186
108
53
18
4
8
20
36
73
115
188
251
255
255
255
255
255
255
255
255
255
255
255
255
255
255
255
255
172
37
0
0
0
0
0
0
0
0
0
0
0
25
158
255
255
255
255
255
255
255
255
255
255
255
255
255
243
87
0
0
0
0
0
0
0
0
0
0
0
0
0
0
31
255
255
255
255
255
255
255
255
255
255
255
255
239
55
0
0
0
0
0
0
0
0
0
0
0
0
0
0
0
84
255
255
255
255
255
255
255
255
255
255
255
249
63
0
0
0
0
0
75
180
230
251
240
205
111
0
0
0
0
137
255
255
255
255
255
255
255
255
255
255
255
120
0
0
0
0
12
168
255
255
255
255
255
255
223
0
0
0
0
190
255
255
255
255
255
255
255
255
255
255
203
3
0
0
0
5
189
255
255
255
255
255
255
255
167
0
0
0
1
241
255
255
255
255
255
255
255
255
255
254
46
0
0
0
0
149
255
255
255
255
255
255
255
255
110
0
0
0
39
255
255
255
255
255
255
255
255
255
255
181
0
0
0
0
56
254
255
255
255
255
255
255
255
255
54
0
0
0
92
255
255
255
255
255
255
255
255
255
255
68
0
0
0
0
190
255
255
255
255
255
255
255
255
248
6
0
0
0
145
255
255
255
255
255
255
255
255
255
227
0
0
0
0
35
254
255
255
255
255
255
255
255
255
197
0
0
0
0
198
255
255
255
255
255
255
255
255
255
162
0
0
0
0
116
255
255
255
255
255
255
255
255
255
141
0
0
0
4
246
255
255
255
255
255
255
255
255
255
98
0
0
0
0
171
255
255
255
255
255
255
255
255
255
85
0
0
0
48
255
255
255
255
255
255
255
255
255
255
53
0
0
0
0
217
255
255
255
255
255
255
255
255
253
20
0
0
0
100
255
255
255
255
255
255
255
255
255
255
32
0
0
0
0
235
255
255
255
255
255
255
255
255
194
0
0
0
0
153
255
255
255
255
255
255
255
255
255
255
12
0
0
0
0
251
255
255
255
255
255
255
255
255
89
0
0
0
0
204
255
255
255
255
255
255
255
255
255
255
5
0
0
0
0
243
255
255
255
255
255
255
255
207
2
0
0
0
0
241
255
255
255
255
255
255
255
255
255
255
21
0
0
0
0
195
255
255
255
255
255
255
246
44
0
0
0
0
0
252
255
255
255
255
255
255
255
255
255
255
60
0
0
0
0
80
255
255
255
255
255
245
69
0
0
0
0
0
0
239
255
255
255
255
255
255
255
255
255
255
124
0
0
0
0
0
86
205
247
238
168
37
0
0
0
0
0
0
0
220
255
255
255
255
255
255
255
255
255
255
225
4
0
0
0
0
0
0
0
0
0
0
0
0
0
0
0
0
0
200
255
255
255
255
255
255
255
255
255
255
255
132
0
0
0
0
0
0
0
0
0
0
0
0
0
0
0
0
0
157
255
255
255
255
255
255
255
255
255
255
255
254
123
1
0
0
0
0
0
0
0
0
10
126
104
0
0
0
0
94
255
255
255
255
255
255
255
255
255
255
255
255
255
210
104
39
11
6
21
47
97
160
243
255
200
0
0
0
0
31
255
255
255
255
255
255
255
255
255
255
255
255
255
255
255
255
255
255
255
255
255
255
255
255
255
255
255
255
255
255
255
255
255
255
255
255
255
255
255
255
255
255
255
255
255
255
255
255
255
255
255
255
255
255
255
255
255
255
255
255
255
255
255
255
255
255
255
255
255
255
255
255
255
255
255
255
255
255
255
255
255
255
255
255
255
255
255
255
255
255
255
255
255
255
255
255
255
