P2
# CREATOR: GIMP PNM Filter Version 1.1
30 30
255
255
255
255
255
255
255
255
255
255
255
255
255
255
255
255
255
255
255
255
255
255
255
255
255
255
255
255
255
255
255
255
255
255
255
255
255
255
255
255
255
255
255
255
255
255
255
255
255
255
255
255
255
255
255
255
255
255
255
255
255
255
255
255
255
255
255
255
255
255
255
255
255
255
255
255
255
255
255
255
255
255
255
255
255
255
255
255
255
255
255
255
255
255
255
255
255
255
255
255
255
255
254
196
92
41
8
28
78
178
254
254
27
36
133
255
255
255
255
255
255
255
255
255
255
255
255
255
255
255
255
223
62
0
0
0
0
0
0
0
89
240
0
0
5
255
255
255
255
255
255
255
255
255
255
255
255
255
255
255
179
13
0
0
72
162
199
177
84
0
0
96
0
0
22
255
255
255
255
255
255
255
255
255
255
255
255
255
255
181
5
0
25
192
255
255
255
255
255
164
2
0
0
0
40
255
255
255
255
255
255
255
255
255
255
255
255
255
210
7
0
32
229
255
255
255
255
255
255
255
143
30
0
0
58
255
255
255
255
255
255
255
255
255
255
255
255
249
47
0
14
217
255
255
255
255
255
255
255
255
255
228
0
0
76
255
255
255
255
255
255
255
255
255
255
255
255
134
0
0
151
255
255
255
255
255
255
255
255
255
255
223
0
0
94
255
255
255
255
255
255
255
255
255
255
255
246
21
0
46
253
255
255
255
255
255
255
255
255
255
255
217
0
0
110
255
255
255
255
255
255
255
255
255
255
255
151
0
0
157
255
255
255
255
255
255
255
255
255
255
255
211
0
0
118
255
255
255
255
255
255
255
255
255
255
255
69
0
9
246
255
255
255
255
255
255
255
255
255
255
255
189
0
0
124
255
255
255
255
255
255
255
255
255
255
245
7
0
67
255
255
255
255
255
255
255
255
255
255
255
255
159
0
0
130
255
255
255
255
255
255
255
255
255
255
193
0
0
127
255
255
255
255
255
255
255
255
255
255
255
255
121
0
0
136
255
255
255
255
255
255
255
255
255
255
166
0
0
156
255
255
255
255
255
255
255
255
255
255
255
255
54
0
0
142
255
255
255
255
255
255
255
255
255
255
143
0
0
177
255
255
255
255
255
255
255
255
255
255
255
236
2
0
0
144
255
255
255
255
255
255
255
255
255
255
132
0
0
173
255
255
255
255
255
255
255
255
255
255
255
136
0
0
0
132
255
255
255
255
255
255
255
255
255
255
147
0
0
146
255
255
255
255
255
255
255
255
255
255
248
28
0
0
0
117
255
255
255
255
255
255
255
255
255
255
174
0
0
119
255
255
255
255
255
255
255
255
255
255
123
0
0
0
0
99
255
255
255
255
255
255
255
255
255
255
229
0
0
54
255
255
255
255
255
255
255
255
255
195
3
0
147
1
0
52
255
255
255
255
255
255
255
255
255
255
255
53
0
0
199
255
255
255
255
255
255
255
202
14
0
65
254
39
0
5
245
255
255
255
255
255
255
255
255
255
255
167
0
0
55
243
255
255
255
255
252
144
7
0
27
221
255
110
0
0
153
255
255
255
255
255
255
255
255
255
255
254
80
0
0
34
127
179
170
124
29
0
0
43
226
255
255
191
0
0
39
253
255
255
255
255
255
255
255
255
255
255
246
84
0
0
0
0
0
0
0
5
97
239
255
255
255
254
52
0
32
251
255
255
255
255
255
255
255
255
255
255
255
254
184
86
27
6
26
63
119
227
255
255
255
255
255
255
204
75
195
255
255
255
255
255
255
255
255
255
255
255
255
255
255
255
255
255
255
255
255
255
255
255
255
255
255
255
255
255
255
255
255
255
255
255
255
255
255
255
255
255
255
255
255
255
255
255
255
255
255
255
255
255
255
255
255
255
255
255
255
255
255
255
255
255
255
255
255
255
255
255
255
255
255
255
255
255
255
255
255
255
255
255
255
255
255
255
255
255
255
255
255
255
255
255
255
255
255
255
255
255
255
255
255
255
255
255
255
255
255
255
255
255
255
255
255
255
255
255
255
255
255
255
255
255
