P2
# CREATOR: GIMP PNM Filter Version 1.1
30 30
255
255
255
255
255
255
255
255
255
255
255
255
255
255
255
255
255
255
255
255
255
255
255
255
255
255
255
255
255
255
255
255
255
255
255
255
255
255
255
255
255
255
255
255
255
255
255
255
255
255
255
255
255
255
255
255
255
255
255
255
255
255
255
255
255
255
255
255
255
255
255
255
255
255
255
255
255
255
255
255
255
255
255
255
255
255
255
255
255
255
255
255
255
255
255
255
255
255
255
255
255
255
255
255
255
255
255
255
255
255
255
255
255
255
255
255
255
255
255
255
255
255
255
255
255
255
255
255
255
255
255
255
255
255
255
255
255
255
255
255
255
255
255
255
255
255
255
255
255
255
255
255
255
255
255
255
255
255
255
255
255
255
255
255
255
255
255
255
255
255
255
255
255
255
255
255
255
255
255
255
255
255
255
255
255
255
255
255
255
255
255
255
255
255
206
106
40
9
21
76
214
255
93
45
15
216
255
255
255
255
255
255
255
255
255
255
255
255
255
255
255
255
234
86
0
80
188
242
233
128
17
186
0
0
23
255
255
255
255
255
255
255
255
255
255
255
255
255
255
255
255
201
25
8
169
255
255
255
255
255
84
26
0
0
88
255
255
255
255
255
255
255
255
255
255
255
255
255
255
255
192
10
6
189
255
255
255
255
255
255
154
0
0
0
154
255
255
255
255
255
255
255
255
255
255
255
255
255
255
207
12
0
154
255
255
255
255
255
255
255
172
0
0
0
219
255
255
255
255
255
255
255
255
255
255
255
255
255
234
28
0
81
255
255
255
255
255
255
255
255
151
0
0
29
255
255
255
255
255
255
255
255
255
255
255
255
255
254
70
0
12
228
255
255
255
255
255
255
255
255
121
0
0
94
255
255
255
255
255
255
255
255
255
255
255
255
255
150
0
0
124
255
255
255
255
255
255
255
255
255
62
0
0
160
255
255
255
255
255
255
255
255
255
255
255
255
235
16
0
17
240
255
255
255
255
255
255
255
255
246
8
0
0
225
255
255
255
255
255
255
255
255
255
255
255
255
115
0
0
124
255
255
255
255
255
255
255
255
255
163
0
0
34
255
255
255
255
255
255
255
255
255
255
255
255
243
12
0
2
225
255
255
255
255
255
255
255
255
255
68
0
0
98
255
255
255
255
255
255
255
255
255
255
255
255
161
0
0
68
255
255
255
255
255
255
255
255
255
208
1
0
0
162
255
255
255
255
255
255
255
255
255
255
255
255
89
0
0
139
255
255
255
255
255
255
255
255
255
82
0
0
0
226
255
255
255
255
255
255
255
255
255
255
255
255
37
0
0
201
255
255
255
255
255
255
255
255
203
1
0
0
34
255
255
255
255
255
255
255
255
255
255
255
255
255
9
0
0
232
255
255
255
255
255
255
255
250
47
27
0
0
95
255
255
255
255
255
255
255
255
255
255
255
255
255
5
0
0
248
255
255
255
255
255
255
255
112
72
61
0
0
151
255
255
255
189
255
255
255
255
255
255
255
255
255
26
0
0
222
255
255
255
255
255
255
151
33
230
9
0
0
206
255
255
129
107
255
255
255
255
255
255
255
255
255
83
0
0
139
255
255
255
255
254
136
23
213
214
0
0
5
250
255
134
75
252
255
255
255
255
255
255
255
255
255
190
0
0
11
153
237
240
178
60
32
215
255
182
0
0
15
233
104
62
245
255
255
255
255
255
255
255
255
255
255
255
123
0
0
0
0
0
0
76
237
255
255
192
0
0
0
0
78
245
255
255
255
255
255
255
255
255
255
255
255
255
255
169
51
7
20
75
184
255
255
255
255
253
80
8
47
159
254
255
255
255
255
255
255
255
255
255
255
255
255
255
255
255
255
255
255
255
255
255
255
255
255
255
255
255
255
255
255
255
255
255
255
255
255
255
255
255
255
255
255
255
255
255
255
255
255
255
255
255
255
255
255
255
255
255
255
255
255
255
255
255
255
255
255
255
255
255
255
255
255
255
255
255
255
255
255
255
255
255
255
255
255
255
255
255
255
255
255
255
255
255
255
255
255
255
255
