P2
# CREATOR: GIMP PNM Filter Version 1.1
30 30
255
255
255
255
255
255
255
255
255
255
255
255
255
255
255
255
255
255
255
255
255
255
255
255
255
255
255
255
255
255
255
255
255
255
255
255
255
255
255
255
255
255
255
255
255
255
255
255
255
255
255
255
255
255
255
255
255
255
255
255
255
255
255
255
255
255
255
255
255
255
255
255
255
255
255
255
255
255
255
255
255
255
255
255
255
255
255
255
255
255
255
255
255
255
255
255
255
255
255
255
255
255
255
255
255
255
255
255
255
255
255
255
255
255
255
255
255
255
255
255
255
255
255
255
255
255
255
255
255
255
255
255
255
255
255
255
255
255
255
255
255
255
255
255
255
255
255
255
255
255
255
255
255
255
255
255
255
255
255
255
255
255
255
255
255
255
255
255
255
255
255
255
255
255
255
255
255
255
255
255
255
255
255
255
255
255
255
255
255
255
144
86
33
45
63
160
93
100
100
255
255
255
255
255
255
255
255
255
255
255
255
255
255
255
255
255
130
35
16
17
7
1
0
1
2
15
3
0
2
9
32
114
255
255
255
255
255
255
255
255
255
255
255
255
255
255
87
4
1
1
0
0
0
1
2
12
1
0
0
0
0
5
130
255
255
255
255
255
255
255
255
255
255
255
139
34
3
1
1
2
1
4
13
20
53
40
23
6
0
0
0
0
27
190
255
255
255
255
255
255
255
255
255
101
16
1
0
1
16
60
88
134
255
255
255
255
255
177
1
0
0
0
2
25
255
255
255
255
255
255
255
255
255
86
1
0
1
14
63
222
255
255
255
255
255
255
255
178
9
0
0
0
1
25
255
255
255
255
255
255
255
255
255
34
1
0
13
222
255
255
255
255
255
255
255
255
255
148
14
0
0
1
32
53
255
255
255
255
255
255
255
255
255
80
1
1
36
255
255
255
255
255
255
255
255
255
255
100
3
0
0
5
202
255
255
255
255
255
255
255
255
255
255
51
3
3
51
255
255
255
255
255
255
255
255
255
255
125
2
0
0
2
165
255
255
255
255
255
255
255
255
255
178
28
2
3
93
255
255
255
255
255
255
255
255
255
255
130
2
0
0
3
186
255
255
255
255
255
255
255
255
255
40
2
0
2
67
255
255
255
255
255
255
255
255
255
178
46
1
0
0
1
202
255
255
255
255
255
255
255
255
255
34
0
0
1
70
255
255
255
255
255
255
255
207
160
99
15
1
0
0
3
175
255
255
255
255
255
255
255
255
255
46
2
0
2
80
255
255
255
255
255
255
255
148
30
16
4
1
0
0
1
63
207
255
255
255
255
255
255
255
255
186
3
0
1
38
101
255
255
255
255
101
80
29
6
4
11
21
27
1
0
8
160
255
255
255
255
255
255
255
255
218
6
1
0
1
9
152
202
152
65
6
1
2
1
5
32
101
67
2
0
3
148
255
255
255
255
255
255
255
255
236
40
17
1
0
0
6
14
11
4
0
1
1
3
40
178
255
202
7
0
3
113
255
255
255
255
255
255
255
255
255
159
159
9
0
0
0
0
0
2
2
8
29
63
109
255
255
160
8
0
1
63
255
255
255
255
255
255
255
255
255
255
255
123
17
5
1
0
1
27
100
148
236
255
255
255
255
160
19
2
3
31
207
255
255
255
255
255
255
255
255
255
255
251
218
177
51
25
32
152
255
255
255
255
255
255
255
178
47
1
0
1
28
55
236
255
255
255
255
255
255
255
255
255
255
255
255
255
255
255
255
255
255
255
255
255
255
255
137
4
0
0
0
15
160
255
255
255
255
255
255
255
255
255
255
255
255
255
255
255
255
255
255
255
255
255
255
255
180
32
8
2
5
10
160
255
255
255
255
255
255
255
255
255
255
255
255
255
255
255
255
255
255
255
255
255
255
255
255
207
159
111
82
101
178
255
255
255
255
255
255
255
255
255
255
255
255
255
255
255
255
255
255
255
255
255
255
255
255
255
255
255
255
255
255
255
255
255
255
255
255
255
255
255
255
255
255
255
255
255
255
255
255
255
255
255
255
255
255
255
255
255
255
255
255
255
255
255
255
